%TF.GenerationSoftware,KiCad,Pcbnew,8.0.1*%
%TF.CreationDate,2024-04-26T19:06:38+02:00*%
%TF.ProjectId,teamagotchi,7465616d-6167-46f7-9463-68692e6b6963,rev?*%
%TF.SameCoordinates,Original*%
%TF.FileFunction,Legend,Bot*%
%TF.FilePolarity,Positive*%
%FSLAX46Y46*%
G04 Gerber Fmt 4.6, Leading zero omitted, Abs format (unit mm)*
G04 Created by KiCad (PCBNEW 8.0.1) date 2024-04-26 19:06:38*
%MOMM*%
%LPD*%
G01*
G04 APERTURE LIST*
%ADD10C,0.150000*%
%ADD11C,0.120000*%
%ADD12C,0.127000*%
%ADD13C,0.200000*%
%ADD14C,1.778000*%
G04 APERTURE END LIST*
D10*
X118398094Y-70530819D02*
X118398094Y-69530819D01*
X118398094Y-69530819D02*
X118159999Y-69530819D01*
X118159999Y-69530819D02*
X118017142Y-69578438D01*
X118017142Y-69578438D02*
X117921904Y-69673676D01*
X117921904Y-69673676D02*
X117874285Y-69768914D01*
X117874285Y-69768914D02*
X117826666Y-69959390D01*
X117826666Y-69959390D02*
X117826666Y-70102247D01*
X117826666Y-70102247D02*
X117874285Y-70292723D01*
X117874285Y-70292723D02*
X117921904Y-70387961D01*
X117921904Y-70387961D02*
X118017142Y-70483200D01*
X118017142Y-70483200D02*
X118159999Y-70530819D01*
X118159999Y-70530819D02*
X118398094Y-70530819D01*
X116874285Y-70530819D02*
X117445713Y-70530819D01*
X117159999Y-70530819D02*
X117159999Y-69530819D01*
X117159999Y-69530819D02*
X117255237Y-69673676D01*
X117255237Y-69673676D02*
X117350475Y-69768914D01*
X117350475Y-69768914D02*
X117445713Y-69816533D01*
X112841904Y-70160819D02*
X112841904Y-69160819D01*
X112270476Y-70160819D02*
X112699047Y-69589390D01*
X112270476Y-69160819D02*
X112841904Y-69732247D01*
X123455238Y-79656057D02*
X123550476Y-79608438D01*
X123550476Y-79608438D02*
X123645714Y-79513200D01*
X123645714Y-79513200D02*
X123788571Y-79370342D01*
X123788571Y-79370342D02*
X123883809Y-79322723D01*
X123883809Y-79322723D02*
X123979047Y-79322723D01*
X123931428Y-79560819D02*
X124026666Y-79513200D01*
X124026666Y-79513200D02*
X124121904Y-79417961D01*
X124121904Y-79417961D02*
X124169523Y-79227485D01*
X124169523Y-79227485D02*
X124169523Y-78894152D01*
X124169523Y-78894152D02*
X124121904Y-78703676D01*
X124121904Y-78703676D02*
X124026666Y-78608438D01*
X124026666Y-78608438D02*
X123931428Y-78560819D01*
X123931428Y-78560819D02*
X123740952Y-78560819D01*
X123740952Y-78560819D02*
X123645714Y-78608438D01*
X123645714Y-78608438D02*
X123550476Y-78703676D01*
X123550476Y-78703676D02*
X123502857Y-78894152D01*
X123502857Y-78894152D02*
X123502857Y-79227485D01*
X123502857Y-79227485D02*
X123550476Y-79417961D01*
X123550476Y-79417961D02*
X123645714Y-79513200D01*
X123645714Y-79513200D02*
X123740952Y-79560819D01*
X123740952Y-79560819D02*
X123931428Y-79560819D01*
X122550476Y-79560819D02*
X123121904Y-79560819D01*
X122836190Y-79560819D02*
X122836190Y-78560819D01*
X122836190Y-78560819D02*
X122931428Y-78703676D01*
X122931428Y-78703676D02*
X123026666Y-78798914D01*
X123026666Y-78798914D02*
X123121904Y-78846533D01*
X126714819Y-83296476D02*
X125714819Y-83296476D01*
X125714819Y-83296476D02*
X126429104Y-83629809D01*
X126429104Y-83629809D02*
X125714819Y-83963142D01*
X125714819Y-83963142D02*
X126714819Y-83963142D01*
X126714819Y-84963142D02*
X126714819Y-84391714D01*
X126714819Y-84677428D02*
X125714819Y-84677428D01*
X125714819Y-84677428D02*
X125857676Y-84582190D01*
X125857676Y-84582190D02*
X125952914Y-84486952D01*
X125952914Y-84486952D02*
X126000533Y-84391714D01*
X126894819Y-64239333D02*
X126418628Y-63906000D01*
X126894819Y-63667905D02*
X125894819Y-63667905D01*
X125894819Y-63667905D02*
X125894819Y-64048857D01*
X125894819Y-64048857D02*
X125942438Y-64144095D01*
X125942438Y-64144095D02*
X125990057Y-64191714D01*
X125990057Y-64191714D02*
X126085295Y-64239333D01*
X126085295Y-64239333D02*
X126228152Y-64239333D01*
X126228152Y-64239333D02*
X126323390Y-64191714D01*
X126323390Y-64191714D02*
X126371009Y-64144095D01*
X126371009Y-64144095D02*
X126418628Y-64048857D01*
X126418628Y-64048857D02*
X126418628Y-63667905D01*
X125894819Y-65096476D02*
X125894819Y-64906000D01*
X125894819Y-64906000D02*
X125942438Y-64810762D01*
X125942438Y-64810762D02*
X125990057Y-64763143D01*
X125990057Y-64763143D02*
X126132914Y-64667905D01*
X126132914Y-64667905D02*
X126323390Y-64620286D01*
X126323390Y-64620286D02*
X126704342Y-64620286D01*
X126704342Y-64620286D02*
X126799580Y-64667905D01*
X126799580Y-64667905D02*
X126847200Y-64715524D01*
X126847200Y-64715524D02*
X126894819Y-64810762D01*
X126894819Y-64810762D02*
X126894819Y-65001238D01*
X126894819Y-65001238D02*
X126847200Y-65096476D01*
X126847200Y-65096476D02*
X126799580Y-65144095D01*
X126799580Y-65144095D02*
X126704342Y-65191714D01*
X126704342Y-65191714D02*
X126466247Y-65191714D01*
X126466247Y-65191714D02*
X126371009Y-65144095D01*
X126371009Y-65144095D02*
X126323390Y-65096476D01*
X126323390Y-65096476D02*
X126275771Y-65001238D01*
X126275771Y-65001238D02*
X126275771Y-64810762D01*
X126275771Y-64810762D02*
X126323390Y-64715524D01*
X126323390Y-64715524D02*
X126371009Y-64667905D01*
X126371009Y-64667905D02*
X126466247Y-64620286D01*
X116269580Y-78439333D02*
X116317200Y-78391714D01*
X116317200Y-78391714D02*
X116364819Y-78248857D01*
X116364819Y-78248857D02*
X116364819Y-78153619D01*
X116364819Y-78153619D02*
X116317200Y-78010762D01*
X116317200Y-78010762D02*
X116221961Y-77915524D01*
X116221961Y-77915524D02*
X116126723Y-77867905D01*
X116126723Y-77867905D02*
X115936247Y-77820286D01*
X115936247Y-77820286D02*
X115793390Y-77820286D01*
X115793390Y-77820286D02*
X115602914Y-77867905D01*
X115602914Y-77867905D02*
X115507676Y-77915524D01*
X115507676Y-77915524D02*
X115412438Y-78010762D01*
X115412438Y-78010762D02*
X115364819Y-78153619D01*
X115364819Y-78153619D02*
X115364819Y-78248857D01*
X115364819Y-78248857D02*
X115412438Y-78391714D01*
X115412438Y-78391714D02*
X115460057Y-78439333D01*
X116364819Y-79391714D02*
X116364819Y-78820286D01*
X116364819Y-79106000D02*
X115364819Y-79106000D01*
X115364819Y-79106000D02*
X115507676Y-79010762D01*
X115507676Y-79010762D02*
X115602914Y-78915524D01*
X115602914Y-78915524D02*
X115650533Y-78820286D01*
D11*
%TO.C,D1*%
X114940000Y-66136000D02*
X114940000Y-69076000D01*
X114940000Y-67606000D02*
X113920000Y-67606000D01*
X114940000Y-69076000D02*
X120380000Y-69076000D01*
X115720000Y-66136000D02*
X115720000Y-69076000D01*
X115840000Y-66136000D02*
X115840000Y-69076000D01*
X115960000Y-66136000D02*
X115960000Y-69076000D01*
X120380000Y-66136000D02*
X114940000Y-66136000D01*
X120380000Y-67606000D02*
X121400000Y-67606000D01*
X120380000Y-69076000D02*
X120380000Y-66136000D01*
%TO.C,Q1*%
X125160000Y-73696000D02*
X121560000Y-73696000D01*
X123360000Y-78146000D02*
G75*
G02*
X121521522Y-73707522I0J2600000D01*
G01*
X125198478Y-73707522D02*
G75*
G02*
X123360000Y-78146000I-1838478J-1838478D01*
G01*
D12*
%TO.C,U1*%
X130850000Y-65276000D02*
X130850000Y-83056000D01*
X133390000Y-85596000D02*
X179110000Y-85596000D01*
X179110000Y-62736000D02*
X133390000Y-62736000D01*
X181142000Y-72388000D02*
X181650000Y-71880000D01*
X181142000Y-75944000D02*
X181142000Y-72388000D01*
X181650000Y-71880000D02*
X181650000Y-65276000D01*
X181650000Y-76452000D02*
X181142000Y-75944000D01*
X181650000Y-83056000D02*
X181650000Y-76452000D01*
X130850000Y-65276000D02*
G75*
G02*
X133390000Y-62736000I2540000J0D01*
G01*
X133390000Y-85596000D02*
G75*
G02*
X130850000Y-83056000I1J2540001D01*
G01*
X179110000Y-62736000D02*
G75*
G02*
X181650000Y-65276000I0J-2540000D01*
G01*
X181650000Y-83056000D02*
G75*
G02*
X179110000Y-85596000I-2540001J1D01*
G01*
D13*
X175400000Y-86231000D02*
G75*
G02*
X175200000Y-86231000I-100000J0D01*
G01*
X175200000Y-86231000D02*
G75*
G02*
X175400000Y-86231000I100000J0D01*
G01*
D11*
%TO.C,M1*%
X117950000Y-86106000D02*
X117950000Y-88516000D01*
X117950000Y-88516000D02*
X120360000Y-88516000D01*
X118250000Y-79996000D02*
X124770000Y-79996000D01*
X118250000Y-84106000D02*
X118250000Y-79996000D01*
X118250000Y-84106000D02*
X118250000Y-88216000D01*
X118250000Y-88216000D02*
X124770000Y-88216000D01*
X124770000Y-79996000D02*
X124770000Y-81496000D01*
X124770000Y-81496000D02*
X125170000Y-81496000D01*
X124770000Y-86716000D02*
X125170000Y-86716000D01*
X124770000Y-88216000D02*
X124770000Y-86716000D01*
X125170000Y-81496000D02*
X125170000Y-84106000D01*
X125170000Y-86716000D02*
X125170000Y-84106000D01*
%TO.C,R6*%
X127440000Y-62486000D02*
X127440000Y-66326000D01*
X127440000Y-66326000D02*
X129280000Y-66326000D01*
X128360000Y-62486000D02*
X128360000Y-61536000D01*
X128360000Y-66326000D02*
X128360000Y-67276000D01*
X129280000Y-62486000D02*
X127440000Y-62486000D01*
X129280000Y-66326000D02*
X129280000Y-62486000D01*
%TO.C,C1*%
X112940000Y-77977000D02*
X112940000Y-79235000D01*
X114780000Y-77977000D02*
X114780000Y-79235000D01*
%TD*%
D14*
%TO.C,TFT1*%
X137240000Y-51606000D03*
%TD*%
M02*
