%TF.GenerationSoftware,KiCad,Pcbnew,8.0.1*%
%TF.CreationDate,2024-04-26T19:06:38+02:00*%
%TF.ProjectId,teamagotchi,7465616d-6167-46f7-9463-68692e6b6963,rev?*%
%TF.SameCoordinates,Original*%
%TF.FileFunction,Copper,L2,Bot*%
%TF.FilePolarity,Positive*%
%FSLAX46Y46*%
G04 Gerber Fmt 4.6, Leading zero omitted, Abs format (unit mm)*
G04 Created by KiCad (PCBNEW 8.0.1) date 2024-04-26 19:06:38*
%MOMM*%
%LPD*%
G01*
G04 APERTURE LIST*
G04 Aperture macros list*
%AMRoundRect*
0 Rectangle with rounded corners*
0 $1 Rounding radius*
0 $2 $3 $4 $5 $6 $7 $8 $9 X,Y pos of 4 corners*
0 Add a 4 corners polygon primitive as box body*
4,1,4,$2,$3,$4,$5,$6,$7,$8,$9,$2,$3,0*
0 Add four circle primitives for the rounded corners*
1,1,$1+$1,$2,$3*
1,1,$1+$1,$4,$5*
1,1,$1+$1,$6,$7*
1,1,$1+$1,$8,$9*
0 Add four rect primitives between the rounded corners*
20,1,$1+$1,$2,$3,$4,$5,0*
20,1,$1+$1,$4,$5,$6,$7,0*
20,1,$1+$1,$6,$7,$8,$9,0*
20,1,$1+$1,$8,$9,$2,$3,0*%
G04 Aperture macros list end*
%TA.AperFunction,ComponentPad*%
%ADD10C,1.400000*%
%TD*%
%TA.AperFunction,ComponentPad*%
%ADD11O,1.400000X1.400000*%
%TD*%
%TA.AperFunction,ComponentPad*%
%ADD12O,2.900000X1.700000*%
%TD*%
%TA.AperFunction,ComponentPad*%
%ADD13C,1.778000*%
%TD*%
%TA.AperFunction,ComponentPad*%
%ADD14R,2.200000X2.200000*%
%TD*%
%TA.AperFunction,ComponentPad*%
%ADD15O,2.200000X2.200000*%
%TD*%
%TA.AperFunction,ComponentPad*%
%ADD16R,1.050000X1.500000*%
%TD*%
%TA.AperFunction,ComponentPad*%
%ADD17O,1.050000X1.500000*%
%TD*%
%TA.AperFunction,ComponentPad*%
%ADD18R,1.778000X1.778000*%
%TD*%
%TA.AperFunction,ComponentPad*%
%ADD19RoundRect,0.250000X0.650000X-0.350000X0.650000X0.350000X-0.650000X0.350000X-0.650000X-0.350000X0*%
%TD*%
%TA.AperFunction,ComponentPad*%
%ADD20O,1.800000X1.200000*%
%TD*%
%TA.AperFunction,ComponentPad*%
%ADD21C,1.600000*%
%TD*%
%TA.AperFunction,ViaPad*%
%ADD22C,0.600000*%
%TD*%
%TA.AperFunction,Conductor*%
%ADD23C,0.200000*%
%TD*%
G04 APERTURE END LIST*
D10*
%TO.P,R4,1*%
%TO.N,Net-(Q1-E)*%
X164010000Y-108316000D03*
D11*
%TO.P,R4,2*%
%TO.N,Net-(U1-A4{slash}0.28)*%
X164010000Y-115936000D03*
%TD*%
D10*
%TO.P,R3,1*%
%TO.N,Net-(Q1-E)*%
X167160000Y-108316000D03*
D11*
%TO.P,R3,2*%
%TO.N,Net-(U1-A3{slash}0.05)*%
X167160000Y-115936000D03*
%TD*%
D12*
%TO.P,SW5,1,1*%
%TO.N,Net-(U1-A2{slash}0.04)*%
X130360000Y-141306000D03*
X142860000Y-141306000D03*
%TO.P,SW5,2,2*%
%TO.N,Net-(D1-K)*%
X130360000Y-146306000D03*
X142860000Y-146306000D03*
%TD*%
%TO.P,SW3,1,1*%
%TO.N,Net-(U1-A3{slash}0.05)*%
X145860000Y-126806000D03*
X158360000Y-126806000D03*
%TO.P,SW3,2,2*%
%TO.N,Net-(D1-K)*%
X145860000Y-131806000D03*
X158360000Y-131806000D03*
%TD*%
%TO.P,SW2,1,1*%
%TO.N,Net-(U1-A5{slash}0.29)*%
X130360000Y-112306000D03*
X142860000Y-112306000D03*
%TO.P,SW2,2,2*%
%TO.N,Net-(D1-K)*%
X130360000Y-117306000D03*
X142860000Y-117306000D03*
%TD*%
%TO.P,SW1,1,1*%
%TO.N,Net-(U1-A1{slash}0.03)*%
X167360000Y-129306000D03*
X179860000Y-129306000D03*
%TO.P,SW1,2,2*%
%TO.N,Net-(D1-K)*%
X167360000Y-134306000D03*
X179860000Y-134306000D03*
%TD*%
%TO.P,SW4,1,1*%
%TO.N,Net-(U1-A4{slash}0.28)*%
X114860000Y-126806000D03*
X127360000Y-126806000D03*
%TO.P,SW4,2,2*%
%TO.N,Net-(D1-K)*%
X114860000Y-131806000D03*
X127360000Y-131806000D03*
%TD*%
D13*
%TO.P,TFT1,*%
%TO.N,*%
X142320000Y-99866000D03*
X149940000Y-99866000D03*
%TO.P,TFT1,0*%
%TO.N,N/C*%
X177880000Y-51606000D03*
%TO.P,TFT1,1*%
X175340000Y-51606000D03*
%TO.P,TFT1,2*%
X172800000Y-51606000D03*
%TO.P,TFT1,3*%
X170260000Y-51606000D03*
%TO.P,TFT1,4,D4/SD_CS*%
%TO.N,unconnected-(TFT1-D4{slash}SD_CS-Pad4)*%
X167720000Y-51606000D03*
%TO.P,TFT1,5*%
%TO.N,N/C*%
X165180000Y-51606000D03*
%TO.P,TFT1,6*%
X162640000Y-51606000D03*
%TO.P,TFT1,7*%
X160100000Y-51606000D03*
%TO.P,TFT1,8,D8/Touch_CS*%
%TO.N,Net-(TFT1-D8{slash}Touch_CS)*%
X155020000Y-51606000D03*
%TO.P,TFT1,9,D9/TFT_DC*%
%TO.N,Net-(TFT1-D9{slash}TFT_DC)*%
X152480000Y-51606000D03*
%TO.P,TFT1,10,D10/TFT_CS*%
%TO.N,Net-(TFT1-D10{slash}TFT_CS)*%
X149940000Y-51606000D03*
%TO.P,TFT1,11,D11/MOSI*%
%TO.N,Net-(TFT1-D11{slash}MOSI)*%
X147400000Y-51606000D03*
%TO.P,TFT1,12,D12/MISO*%
%TO.N,Net-(TFT1-D12{slash}MISO)*%
X144860000Y-51606000D03*
%TO.P,TFT1,13,D13/SCLK*%
%TO.N,Net-(TFT1-D13{slash}SCLK)*%
X142320000Y-51606000D03*
%TO.P,TFT1,14*%
%TO.N,N/C*%
X139780000Y-51606000D03*
%TO.P,TFT1,15*%
X137240000Y-51606000D03*
%TO.P,TFT1,16*%
X134700000Y-51606000D03*
%TO.P,TFT1,17*%
X132160000Y-51606000D03*
%TO.P,TFT1,22*%
X160100000Y-99866000D03*
%TO.P,TFT1,23*%
X165180000Y-99866000D03*
%TO.P,TFT1,24*%
X167720000Y-99866000D03*
%TO.P,TFT1,25*%
X170260000Y-99866000D03*
%TO.P,TFT1,26*%
X172800000Y-99866000D03*
%TO.P,TFT1,27*%
X175340000Y-99866000D03*
%TO.P,TFT1,28*%
X177880000Y-99866000D03*
%TO.P,TFT1,40,GND*%
%TO.N,Net-(Q1-E)*%
X157560000Y-99866000D03*
%TO.P,TFT1,41*%
%TO.N,N/C*%
X155020000Y-99866000D03*
%TO.P,TFT1,50,3/5V*%
%TO.N,Net-(D1-K)*%
X147400000Y-99866000D03*
%TO.P,TFT1,51*%
%TO.N,N/C*%
X144860000Y-99866000D03*
%TO.P,TFT1,67*%
X152480000Y-99866000D03*
%TD*%
D10*
%TO.P,R2,1*%
%TO.N,Net-(Q1-E)*%
X170310000Y-108316000D03*
D11*
%TO.P,R2,2*%
%TO.N,Net-(U1-A2{slash}0.04)*%
X170310000Y-115936000D03*
%TD*%
D10*
%TO.P,R1,1*%
%TO.N,Net-(Q1-E)*%
X173460000Y-108316000D03*
D11*
%TO.P,R1,2*%
%TO.N,Net-(U1-A1{slash}0.03)*%
X173460000Y-115936000D03*
%TD*%
D10*
%TO.P,R5,1*%
%TO.N,Net-(Q1-E)*%
X160860000Y-108316000D03*
D11*
%TO.P,R5,2*%
%TO.N,Net-(U1-A5{slash}0.29)*%
X160860000Y-115936000D03*
%TD*%
D14*
%TO.P,D1,1,K*%
%TO.N,Net-(D1-K)*%
X112580000Y-67606000D03*
D15*
%TO.P,D1,2,A*%
%TO.N,Net-(D1-A)*%
X122740000Y-67606000D03*
%TD*%
D16*
%TO.P,Q1,1,C*%
%TO.N,Net-(D1-A)*%
X122090000Y-75546000D03*
D17*
%TO.P,Q1,2,B*%
%TO.N,Net-(Q1-B)*%
X123360000Y-75546000D03*
%TO.P,Q1,3,E*%
%TO.N,Net-(Q1-E)*%
X124630000Y-75546000D03*
%TD*%
D18*
%TO.P,U1,1,~{RESET}*%
%TO.N,unconnected-(U1-~{RESET}-Pad1)*%
X175300000Y-84326000D03*
D13*
%TO.P,U1,2,3V3*%
%TO.N,Net-(D1-K)*%
X172760000Y-84326000D03*
%TO.P,U1,3,3V3*%
X170220000Y-84326000D03*
%TO.P,U1,4,GND*%
%TO.N,Net-(Q1-E)*%
X167680000Y-84326000D03*
%TO.P,U1,5,A0/0.02*%
%TO.N,unconnected-(U1-A0{slash}0.02-Pad5)*%
X165140000Y-84326000D03*
%TO.P,U1,6,A1/0.03*%
%TO.N,Net-(U1-A1{slash}0.03)*%
X162600000Y-84326000D03*
%TO.P,U1,7,A2/0.04*%
%TO.N,Net-(U1-A2{slash}0.04)*%
X160060000Y-84326000D03*
%TO.P,U1,8,A3/0.05*%
%TO.N,Net-(U1-A3{slash}0.05)*%
X157520000Y-84326000D03*
%TO.P,U1,9,A4/0.28*%
%TO.N,Net-(U1-A4{slash}0.28)*%
X154980000Y-84326000D03*
%TO.P,U1,10,A5/0.29*%
%TO.N,Net-(U1-A5{slash}0.29)*%
X152440000Y-84326000D03*
%TO.P,U1,11,SCK*%
%TO.N,Net-(TFT1-D13{slash}SCLK)*%
X149900000Y-84326000D03*
%TO.P,U1,12,MOSI*%
%TO.N,Net-(TFT1-D11{slash}MOSI)*%
X147360000Y-84326000D03*
%TO.P,U1,13,MISO*%
%TO.N,Net-(TFT1-D12{slash}MISO)*%
X144820000Y-84326000D03*
%TO.P,U1,14,RXD*%
%TO.N,unconnected-(U1-RXD-Pad14)*%
X142280000Y-84326000D03*
%TO.P,U1,15,TXD*%
%TO.N,unconnected-(U1-TXD-Pad15)*%
X139740000Y-84326000D03*
%TO.P,U1,16,DFU*%
%TO.N,unconnected-(U1-DFU-Pad16)*%
X137200000Y-84326000D03*
%TO.P,U1,17,SDA*%
%TO.N,unconnected-(U1-SDA-Pad17)*%
X137200000Y-64006000D03*
%TO.P,U1,18,SCL*%
%TO.N,unconnected-(U1-SCL-Pad18)*%
X139740000Y-64006000D03*
%TO.P,U1,19,P0.27*%
%TO.N,unconnected-(U1-P0.27-Pad19)*%
X142280000Y-64006000D03*
%TO.P,U1,20,A6/P0.30*%
%TO.N,unconnected-(U1-A6{slash}P0.30-Pad20)*%
X144820000Y-64006000D03*
%TO.P,U1,21,A7/P0.31*%
%TO.N,unconnected-(U1-A7{slash}P0.31-Pad21)*%
X147360000Y-64006000D03*
%TO.P,U1,22,P0.11*%
%TO.N,Net-(TFT1-D10{slash}TFT_CS)*%
X149900000Y-64006000D03*
%TO.P,U1,23,P0.07*%
%TO.N,Net-(TFT1-D9{slash}TFT_DC)*%
X152440000Y-64006000D03*
%TO.P,U1,24,P0.15*%
%TO.N,Net-(TFT1-D8{slash}Touch_CS)*%
X154980000Y-64006000D03*
%TO.P,U1,25,P0.16*%
%TO.N,Net-(U1-P0.16)*%
X157520000Y-64006000D03*
%TO.P,U1,26,VBUS*%
%TO.N,unconnected-(U1-VBUS-Pad26)*%
X160060000Y-64006000D03*
%TO.P,U1,27,EN*%
%TO.N,unconnected-(U1-EN-Pad27)*%
X162600000Y-64006000D03*
%TO.P,U1,28,VBAT*%
%TO.N,unconnected-(U1-VBAT-Pad28)*%
X165140000Y-64006000D03*
%TD*%
D19*
%TO.P,M1,1,+*%
%TO.N,Net-(D1-K)*%
X121360000Y-85106000D03*
D20*
%TO.P,M1,2,-*%
%TO.N,Net-(D1-A)*%
X121360000Y-83106000D03*
%TD*%
D10*
%TO.P,R6,1*%
%TO.N,Net-(U1-P0.16)*%
X128360000Y-60596000D03*
D11*
%TO.P,R6,2*%
%TO.N,Net-(Q1-B)*%
X128360000Y-68216000D03*
%TD*%
D21*
%TO.P,C1,1*%
%TO.N,Net-(D1-K)*%
X113860000Y-79856000D03*
%TO.P,C1,2*%
%TO.N,Net-(D1-A)*%
X113860000Y-77356000D03*
%TD*%
D22*
%TO.N,Net-(TFT1-D13{slash}SCLK)*%
X147860000Y-72006000D03*
%TO.N,Net-(U1-A3{slash}0.05)*%
X165460000Y-114406000D03*
%TO.N,Net-(U1-A1{slash}0.03)*%
X179760000Y-116606000D03*
%TO.N,Net-(U1-A4{slash}0.28)*%
X162460000Y-114406000D03*
%TO.N,Net-(D1-K)*%
X164360000Y-134306000D03*
%TO.N,Net-(Q1-E)*%
X167160000Y-104306000D03*
%TD*%
D23*
%TO.N,Net-(TFT1-D13{slash}SCLK)*%
X140929000Y-52997000D02*
X142320000Y-51606000D01*
X140929000Y-65075000D02*
X140929000Y-52997000D01*
X147860000Y-72006000D02*
X140929000Y-65075000D01*
%TO.N,Net-(U1-A3{slash}0.05)*%
X162560000Y-93006000D02*
X157520000Y-87966000D01*
X162560000Y-111506000D02*
X162560000Y-93006000D01*
X157520000Y-87966000D02*
X157520000Y-84326000D01*
X165460000Y-114406000D02*
X162560000Y-111506000D01*
%TO.N,Net-(U1-A1{slash}0.03)*%
X179760000Y-116606000D02*
X179090000Y-115936000D01*
X179090000Y-115936000D02*
X173460000Y-115936000D01*
%TO.N,Net-(U1-A4{slash}0.28)*%
X162160000Y-93171686D02*
X154980000Y-85991686D01*
X162160000Y-114106000D02*
X162160000Y-93171686D01*
X154980000Y-85991686D02*
X154980000Y-84326000D01*
X162460000Y-114406000D02*
X162160000Y-114106000D01*
%TO.N,Net-(D1-K)*%
X164360000Y-134306000D02*
X158360000Y-134306000D01*
%TO.N,Net-(Q1-E)*%
X168929000Y-85575000D02*
X167680000Y-84326000D01*
X167160000Y-104306000D02*
X168929000Y-102537000D01*
X168929000Y-102537000D02*
X168929000Y-85575000D01*
%TD*%
M02*
