%TF.GenerationSoftware,KiCad,Pcbnew,8.0.1*%
%TF.CreationDate,2024-05-06T19:00:19+02:00*%
%TF.ProjectId,teamagotchi,7465616d-6167-46f7-9463-68692e6b6963,rev?*%
%TF.SameCoordinates,Original*%
%TF.FileFunction,Copper,L2,Bot*%
%TF.FilePolarity,Positive*%
%FSLAX46Y46*%
G04 Gerber Fmt 4.6, Leading zero omitted, Abs format (unit mm)*
G04 Created by KiCad (PCBNEW 8.0.1) date 2024-05-06 19:00:19*
%MOMM*%
%LPD*%
G01*
G04 APERTURE LIST*
G04 Aperture macros list*
%AMRoundRect*
0 Rectangle with rounded corners*
0 $1 Rounding radius*
0 $2 $3 $4 $5 $6 $7 $8 $9 X,Y pos of 4 corners*
0 Add a 4 corners polygon primitive as box body*
4,1,4,$2,$3,$4,$5,$6,$7,$8,$9,$2,$3,0*
0 Add four circle primitives for the rounded corners*
1,1,$1+$1,$2,$3*
1,1,$1+$1,$4,$5*
1,1,$1+$1,$6,$7*
1,1,$1+$1,$8,$9*
0 Add four rect primitives between the rounded corners*
20,1,$1+$1,$2,$3,$4,$5,0*
20,1,$1+$1,$4,$5,$6,$7,0*
20,1,$1+$1,$6,$7,$8,$9,0*
20,1,$1+$1,$8,$9,$2,$3,0*%
G04 Aperture macros list end*
%TA.AperFunction,ComponentPad*%
%ADD10C,1.778000*%
%TD*%
%TA.AperFunction,ComponentPad*%
%ADD11O,2.900000X1.700000*%
%TD*%
%TA.AperFunction,ComponentPad*%
%ADD12C,1.400000*%
%TD*%
%TA.AperFunction,ComponentPad*%
%ADD13O,1.400000X1.400000*%
%TD*%
%TA.AperFunction,ComponentPad*%
%ADD14C,1.600000*%
%TD*%
%TA.AperFunction,ComponentPad*%
%ADD15R,1.850000X1.850000*%
%TD*%
%TA.AperFunction,ComponentPad*%
%ADD16C,1.850000*%
%TD*%
%TA.AperFunction,ComponentPad*%
%ADD17R,2.200000X2.200000*%
%TD*%
%TA.AperFunction,ComponentPad*%
%ADD18O,2.200000X2.200000*%
%TD*%
%TA.AperFunction,ComponentPad*%
%ADD19R,1.778000X1.778000*%
%TD*%
%TA.AperFunction,ComponentPad*%
%ADD20RoundRect,0.250000X0.650000X-0.350000X0.650000X0.350000X-0.650000X0.350000X-0.650000X-0.350000X0*%
%TD*%
%TA.AperFunction,ComponentPad*%
%ADD21O,1.800000X1.200000*%
%TD*%
%TA.AperFunction,ViaPad*%
%ADD22C,0.600000*%
%TD*%
%TA.AperFunction,Conductor*%
%ADD23C,0.200000*%
%TD*%
G04 APERTURE END LIST*
D10*
%TO.P,TFT1,67*%
%TO.N,N/C*%
X152480000Y-99866000D03*
%TO.P,TFT1,51*%
X144860000Y-99866000D03*
%TO.P,TFT1,50,3/5V*%
%TO.N,/3.3V*%
X147400000Y-99866000D03*
%TO.P,TFT1,41*%
%TO.N,N/C*%
X155020000Y-99866000D03*
%TO.P,TFT1,40,GND*%
%TO.N,/GND*%
X157560000Y-99866000D03*
%TO.P,TFT1,28*%
%TO.N,N/C*%
X177880000Y-99866000D03*
%TO.P,TFT1,27*%
X175340000Y-99866000D03*
%TO.P,TFT1,26*%
X172800000Y-99866000D03*
%TO.P,TFT1,25*%
X170260000Y-99866000D03*
%TO.P,TFT1,24*%
X167720000Y-99866000D03*
%TO.P,TFT1,23*%
X165180000Y-99866000D03*
%TO.P,TFT1,22*%
X160100000Y-99866000D03*
%TO.P,TFT1,17*%
X132160000Y-51606000D03*
%TO.P,TFT1,16*%
X134700000Y-51606000D03*
%TO.P,TFT1,15*%
X137240000Y-51606000D03*
%TO.P,TFT1,14*%
X139780000Y-51606000D03*
%TO.P,TFT1,13,D13/SCLK*%
%TO.N,/SCK*%
X142320000Y-51606000D03*
%TO.P,TFT1,12,D12/MISO*%
%TO.N,/MISO*%
X144860000Y-51606000D03*
%TO.P,TFT1,11,D11/MOSI*%
%TO.N,/MOSI*%
X147400000Y-51606000D03*
%TO.P,TFT1,10,D10/TFT_CS*%
%TO.N,/TFT_CS*%
X149940000Y-51606000D03*
%TO.P,TFT1,9,D9/TFT_DC*%
%TO.N,/TFT_DC*%
X152480000Y-51606000D03*
%TO.P,TFT1,8,D8/Touch_CS*%
%TO.N,/TOUCH_CS*%
X155020000Y-51606000D03*
%TO.P,TFT1,7*%
%TO.N,N/C*%
X160100000Y-51606000D03*
%TO.P,TFT1,6*%
X162640000Y-51606000D03*
%TO.P,TFT1,5*%
X165180000Y-51606000D03*
%TO.P,TFT1,4,D4/SD_CS*%
%TO.N,/SD_CS*%
X167720000Y-51606000D03*
%TO.P,TFT1,3,D3*%
%TO.N,/BACK_LITE*%
X170260000Y-51606000D03*
%TO.P,TFT1,2*%
%TO.N,N/C*%
X172800000Y-51606000D03*
%TO.P,TFT1,1*%
X175340000Y-51606000D03*
%TO.P,TFT1,0*%
X177880000Y-51606000D03*
%TO.P,TFT1,*%
%TO.N,*%
X149940000Y-99866000D03*
X142320000Y-99866000D03*
%TD*%
D11*
%TO.P,SW4,1,1*%
%TO.N,/GND*%
X114860000Y-126806000D03*
X127360000Y-126806000D03*
%TO.P,SW4,2,2*%
%TO.N,Net-(R7-Pad2)*%
X114860000Y-131806000D03*
X127360000Y-131806000D03*
%TD*%
D12*
%TO.P,R6,1*%
%TO.N,/3.3V*%
X159760000Y-146416000D03*
D13*
%TO.P,R6,2*%
%TO.N,Net-(R5-Pad2)*%
X159760000Y-138796000D03*
%TD*%
%TO.P,R4,2*%
%TO.N,Net-(R3-Pad2)*%
X154560000Y-118906000D03*
D12*
%TO.P,R4,1*%
%TO.N,/3.3V*%
X154560000Y-111286000D03*
%TD*%
%TO.P,R12,1*%
%TO.N,/VIB_MOTOR*%
X127660000Y-60486000D03*
D13*
%TO.P,R12,2*%
%TO.N,Net-(Q2-Pad1)*%
X127660000Y-68106000D03*
%TD*%
D12*
%TO.P,R10,1*%
%TO.N,/3.3V*%
X150960000Y-146426000D03*
D13*
%TO.P,R10,2*%
%TO.N,Net-(R10-Pad2)*%
X150960000Y-138806000D03*
%TD*%
D12*
%TO.P,R9,1*%
%TO.N,/SW5*%
X148860000Y-146426000D03*
D13*
%TO.P,R9,2*%
%TO.N,Net-(R10-Pad2)*%
X148860000Y-138806000D03*
%TD*%
D12*
%TO.P,R8,1*%
%TO.N,/3.3V*%
X116960000Y-147226000D03*
D13*
%TO.P,R8,2*%
%TO.N,Net-(R7-Pad2)*%
X116960000Y-139606000D03*
%TD*%
D12*
%TO.P,R7,1*%
%TO.N,/SW4*%
X114860000Y-147216000D03*
D13*
%TO.P,R7,2*%
%TO.N,Net-(R7-Pad2)*%
X114860000Y-139596000D03*
%TD*%
D11*
%TO.P,SW2,1,1*%
%TO.N,/GND*%
X130360000Y-112306000D03*
X142860000Y-112306000D03*
%TO.P,SW2,2,2*%
%TO.N,Net-(R3-Pad2)*%
X130360000Y-117306000D03*
X142860000Y-117306000D03*
%TD*%
D14*
%TO.P,C6,2*%
%TO.N,/GND*%
X148860000Y-151856000D03*
%TO.P,C6,1*%
%TO.N,/SW5*%
X148860000Y-149356000D03*
%TD*%
%TO.P,C5,2*%
%TO.N,/GND*%
X114760000Y-153056000D03*
%TO.P,C5,1*%
%TO.N,/SW4*%
X114760000Y-150556000D03*
%TD*%
%TO.P,C4,2*%
%TO.N,/GND*%
X157660000Y-151956000D03*
%TO.P,C4,1*%
%TO.N,/SW3*%
X157660000Y-149456000D03*
%TD*%
%TO.P,C3,1*%
%TO.N,/SW2*%
X156660000Y-107856000D03*
%TO.P,C3,2*%
%TO.N,/GND*%
X156660000Y-105356000D03*
%TD*%
%TO.P,C2,2*%
%TO.N,/GND*%
X174860000Y-105146000D03*
%TO.P,C2,1*%
%TO.N,/SW1*%
X174860000Y-107646000D03*
%TD*%
D11*
%TO.P,SW5,1,1*%
%TO.N,/GND*%
X130360000Y-141306000D03*
X142860000Y-141306000D03*
%TO.P,SW5,2,2*%
%TO.N,Net-(R10-Pad2)*%
X130360000Y-146306000D03*
X142860000Y-146306000D03*
%TD*%
D15*
%TO.P,Q2,1*%
%TO.N,Net-(Q2-Pad1)*%
X123860000Y-74106000D03*
D16*
%TO.P,Q2,2*%
%TO.N,Net-(D1-A)*%
X121320000Y-74106000D03*
%TO.P,Q2,3*%
%TO.N,/GND*%
X118780000Y-74106000D03*
%TD*%
D13*
%TO.P,R3,2*%
%TO.N,Net-(R3-Pad2)*%
X156660000Y-118906000D03*
D12*
%TO.P,R3,1*%
%TO.N,/SW2*%
X156660000Y-111286000D03*
%TD*%
D11*
%TO.P,SW3,1,1*%
%TO.N,/GND*%
X145860000Y-126806000D03*
X158360000Y-126806000D03*
%TO.P,SW3,2,2*%
%TO.N,Net-(R5-Pad2)*%
X145860000Y-131806000D03*
X158360000Y-131806000D03*
%TD*%
%TO.P,SW1,2,2*%
%TO.N,Net-(R1-Pad2)*%
X179110000Y-131806000D03*
X166610000Y-131806000D03*
%TO.P,SW1,1,1*%
%TO.N,/GND*%
X179110000Y-126806000D03*
X166610000Y-126806000D03*
%TD*%
D12*
%TO.P,R2,1*%
%TO.N,/3.3V*%
X172760000Y-111086000D03*
D13*
%TO.P,R2,2*%
%TO.N,Net-(R1-Pad2)*%
X172760000Y-118706000D03*
%TD*%
D12*
%TO.P,R1,1*%
%TO.N,/SW1*%
X174860000Y-111086000D03*
D13*
%TO.P,R1,2*%
%TO.N,Net-(R1-Pad2)*%
X174860000Y-118706000D03*
%TD*%
D12*
%TO.P,R5,1*%
%TO.N,/SW3*%
X157660000Y-146416000D03*
D13*
%TO.P,R5,2*%
%TO.N,Net-(R5-Pad2)*%
X157660000Y-138796000D03*
%TD*%
D17*
%TO.P,D1,1,K*%
%TO.N,/3.3V*%
X124260000Y-51406000D03*
D18*
%TO.P,D1,2,A*%
%TO.N,Net-(D1-A)*%
X114100000Y-51406000D03*
%TD*%
D19*
%TO.P,U1,1,~{RESET}*%
%TO.N,unconnected-(U1-~{RESET}-Pad1)*%
X175300000Y-84326000D03*
D10*
%TO.P,U1,2,3V3*%
%TO.N,/3.3V*%
X172760000Y-84326000D03*
%TO.P,U1,3,3V3*%
X170220000Y-84326000D03*
%TO.P,U1,4,GND*%
%TO.N,/GND*%
X167680000Y-84326000D03*
%TO.P,U1,5,A0/0.02*%
%TO.N,unconnected-(U1-A0{slash}0.02-Pad5)*%
X165140000Y-84326000D03*
%TO.P,U1,6,A1/0.03*%
%TO.N,/SW1*%
X162600000Y-84326000D03*
%TO.P,U1,7,A2/0.04*%
%TO.N,/SW3*%
X160060000Y-84326000D03*
%TO.P,U1,8,A3/0.05*%
%TO.N,/SW2*%
X157520000Y-84326000D03*
%TO.P,U1,9,A4/0.28*%
%TO.N,/SW5*%
X154980000Y-84326000D03*
%TO.P,U1,10,A5/0.29*%
%TO.N,/SW4*%
X152440000Y-84326000D03*
%TO.P,U1,11,SCK*%
%TO.N,/SCK*%
X149900000Y-84326000D03*
%TO.P,U1,12,MOSI*%
%TO.N,/MOSI*%
X147360000Y-84326000D03*
%TO.P,U1,13,MISO*%
%TO.N,/MISO*%
X144820000Y-84326000D03*
%TO.P,U1,14,RXD*%
%TO.N,unconnected-(U1-RXD-Pad14)*%
X142280000Y-84326000D03*
%TO.P,U1,15,TXD*%
%TO.N,unconnected-(U1-TXD-Pad15)*%
X139740000Y-84326000D03*
%TO.P,U1,16,DFU*%
%TO.N,unconnected-(U1-DFU-Pad16)*%
X137200000Y-84326000D03*
%TO.P,U1,17,SDA*%
%TO.N,unconnected-(U1-SDA-Pad17)*%
X137200000Y-64006000D03*
%TO.P,U1,18,SCL*%
%TO.N,unconnected-(U1-SCL-Pad18)*%
X139740000Y-64006000D03*
%TO.P,U1,19,P0.27*%
%TO.N,/SD_CS*%
X142280000Y-64006000D03*
%TO.P,U1,20,A6/P0.30*%
%TO.N,/BACK_LITE*%
X144820000Y-64006000D03*
%TO.P,U1,21,A7/P0.31*%
%TO.N,unconnected-(U1-A7{slash}P0.31-Pad21)*%
X147360000Y-64006000D03*
%TO.P,U1,22,P0.11*%
%TO.N,/TFT_CS*%
X149900000Y-64006000D03*
%TO.P,U1,23,P0.07*%
%TO.N,/TFT_DC*%
X152440000Y-64006000D03*
%TO.P,U1,24,P0.15*%
%TO.N,/TOUCH_CS*%
X154980000Y-64006000D03*
%TO.P,U1,25,P0.16*%
%TO.N,/VIB_MOTOR*%
X157520000Y-64006000D03*
%TO.P,U1,26,VBUS*%
%TO.N,unconnected-(U1-VBUS-Pad26)*%
X160060000Y-64006000D03*
%TO.P,U1,27,EN*%
%TO.N,unconnected-(U1-EN-Pad27)*%
X162600000Y-64006000D03*
%TO.P,U1,28,VBAT*%
%TO.N,unconnected-(U1-VBAT-Pad28)*%
X165140000Y-64006000D03*
%TD*%
D20*
%TO.P,M1,1,+*%
%TO.N,/3.3V*%
X121360000Y-85106000D03*
D21*
%TO.P,M1,2,-*%
%TO.N,Net-(D1-A)*%
X121360000Y-83106000D03*
%TD*%
D14*
%TO.P,C1,1*%
%TO.N,/3.3V*%
X113860000Y-79856000D03*
%TO.P,C1,2*%
%TO.N,Net-(D1-A)*%
X113860000Y-77356000D03*
%TD*%
D22*
%TO.N,/SCK*%
X147860000Y-72006000D03*
%TD*%
D23*
%TO.N,Net-(Q2-Pad1)*%
X123860000Y-72006000D02*
X123860000Y-74106000D01*
X127660000Y-68206000D02*
X123860000Y-72006000D01*
X127660000Y-68106000D02*
X127660000Y-68206000D01*
%TO.N,/SD_CS*%
X152880000Y-53406000D02*
X142280000Y-64006000D01*
X165920000Y-53406000D02*
X152880000Y-53406000D01*
X167720000Y-51606000D02*
X165920000Y-53406000D01*
%TO.N,/BACK_LITE*%
X155020000Y-53806000D02*
X144820000Y-64006000D01*
X168060000Y-53806000D02*
X155020000Y-53806000D01*
X170260000Y-51606000D02*
X168060000Y-53806000D01*
%TO.N,/SCK*%
X140929000Y-52997000D02*
X142320000Y-51606000D01*
X140929000Y-65075000D02*
X140929000Y-52997000D01*
X147860000Y-72006000D02*
X140929000Y-65075000D01*
%TD*%
%TA.AperFunction,Conductor*%
%TO.N,/GND*%
G36*
X184402539Y-47226185D02*
G01*
X184448294Y-47278989D01*
X184459500Y-47330500D01*
X184459500Y-158081500D01*
X184439815Y-158148539D01*
X184387011Y-158194294D01*
X184335500Y-158205500D01*
X110584500Y-158205500D01*
X110517461Y-158185815D01*
X110471706Y-158133011D01*
X110460500Y-158081500D01*
X110460500Y-150556001D01*
X113454532Y-150556001D01*
X113474364Y-150782686D01*
X113474366Y-150782697D01*
X113533258Y-151002488D01*
X113533261Y-151002497D01*
X113629431Y-151208732D01*
X113629432Y-151208734D01*
X113759954Y-151395141D01*
X113920858Y-151556045D01*
X113920861Y-151556047D01*
X114107266Y-151686568D01*
X114122975Y-151693893D01*
X114175414Y-151740064D01*
X114194567Y-151807257D01*
X114174352Y-151874138D01*
X114122979Y-151918656D01*
X114107514Y-151925867D01*
X114107512Y-151925868D01*
X114034526Y-151976973D01*
X114034526Y-151976974D01*
X114713553Y-152656000D01*
X114707339Y-152656000D01*
X114605606Y-152683259D01*
X114514394Y-152735920D01*
X114439920Y-152810394D01*
X114387259Y-152901606D01*
X114360000Y-153003339D01*
X114360000Y-153009552D01*
X113680974Y-152330526D01*
X113680973Y-152330526D01*
X113629868Y-152403512D01*
X113629866Y-152403516D01*
X113533734Y-152609673D01*
X113533730Y-152609682D01*
X113474860Y-152829389D01*
X113474858Y-152829400D01*
X113455034Y-153055997D01*
X113455034Y-153056002D01*
X113474858Y-153282599D01*
X113474860Y-153282610D01*
X113533730Y-153502317D01*
X113533735Y-153502331D01*
X113629863Y-153708478D01*
X113680974Y-153781472D01*
X114360000Y-153102446D01*
X114360000Y-153108661D01*
X114387259Y-153210394D01*
X114439920Y-153301606D01*
X114514394Y-153376080D01*
X114605606Y-153428741D01*
X114707339Y-153456000D01*
X114713553Y-153456000D01*
X114034526Y-154135025D01*
X114107513Y-154186132D01*
X114107521Y-154186136D01*
X114313668Y-154282264D01*
X114313682Y-154282269D01*
X114533389Y-154341139D01*
X114533400Y-154341141D01*
X114759998Y-154360966D01*
X114760002Y-154360966D01*
X114986599Y-154341141D01*
X114986610Y-154341139D01*
X115206317Y-154282269D01*
X115206331Y-154282264D01*
X115412478Y-154186136D01*
X115485471Y-154135024D01*
X114806447Y-153456000D01*
X114812661Y-153456000D01*
X114914394Y-153428741D01*
X115005606Y-153376080D01*
X115080080Y-153301606D01*
X115132741Y-153210394D01*
X115160000Y-153108661D01*
X115160000Y-153102447D01*
X115839024Y-153781471D01*
X115890136Y-153708478D01*
X115986264Y-153502331D01*
X115986269Y-153502317D01*
X116045139Y-153282610D01*
X116045141Y-153282599D01*
X116064966Y-153056002D01*
X116064966Y-153055997D01*
X116045141Y-152829400D01*
X116045139Y-152829389D01*
X115986269Y-152609682D01*
X115986264Y-152609668D01*
X115890136Y-152403521D01*
X115890132Y-152403513D01*
X115839025Y-152330526D01*
X115160000Y-153009551D01*
X115160000Y-153003339D01*
X115132741Y-152901606D01*
X115080080Y-152810394D01*
X115005606Y-152735920D01*
X114914394Y-152683259D01*
X114812661Y-152656000D01*
X114806448Y-152656000D01*
X115485472Y-151976974D01*
X115412480Y-151925864D01*
X115397024Y-151918657D01*
X115344585Y-151872484D01*
X115325433Y-151805290D01*
X115345649Y-151738409D01*
X115397023Y-151693893D01*
X115412734Y-151686568D01*
X115599139Y-151556047D01*
X115760047Y-151395139D01*
X115890568Y-151208734D01*
X115986739Y-151002496D01*
X116045635Y-150782692D01*
X116065468Y-150556000D01*
X116045635Y-150329308D01*
X115986739Y-150109504D01*
X115890568Y-149903266D01*
X115760047Y-149716861D01*
X115760045Y-149716858D01*
X115599141Y-149555954D01*
X115412734Y-149425432D01*
X115412732Y-149425431D01*
X115206497Y-149329261D01*
X115206488Y-149329258D01*
X114986697Y-149270366D01*
X114986693Y-149270365D01*
X114986692Y-149270365D01*
X114986691Y-149270364D01*
X114986686Y-149270364D01*
X114760002Y-149250532D01*
X114759998Y-149250532D01*
X114533313Y-149270364D01*
X114533302Y-149270366D01*
X114313511Y-149329258D01*
X114313502Y-149329261D01*
X114107267Y-149425431D01*
X114107265Y-149425432D01*
X113920858Y-149555954D01*
X113759954Y-149716858D01*
X113629432Y-149903265D01*
X113629431Y-149903267D01*
X113533261Y-150109502D01*
X113533258Y-150109511D01*
X113474366Y-150329302D01*
X113474364Y-150329313D01*
X113454532Y-150555998D01*
X113454532Y-150556001D01*
X110460500Y-150556001D01*
X110460500Y-147216000D01*
X113654357Y-147216000D01*
X113674884Y-147437535D01*
X113674885Y-147437537D01*
X113735769Y-147651523D01*
X113735775Y-147651538D01*
X113834938Y-147850683D01*
X113834943Y-147850691D01*
X113969020Y-148028238D01*
X114133437Y-148178123D01*
X114133439Y-148178125D01*
X114322595Y-148295245D01*
X114322596Y-148295245D01*
X114322599Y-148295247D01*
X114530060Y-148375618D01*
X114748757Y-148416500D01*
X114748759Y-148416500D01*
X114971241Y-148416500D01*
X114971243Y-148416500D01*
X115189940Y-148375618D01*
X115397401Y-148295247D01*
X115586562Y-148178124D01*
X115750981Y-148028236D01*
X115807271Y-147953695D01*
X115863378Y-147912061D01*
X115933090Y-147907368D01*
X115994272Y-147941110D01*
X116005178Y-147953697D01*
X116069017Y-148038234D01*
X116069019Y-148038237D01*
X116233437Y-148188123D01*
X116233439Y-148188125D01*
X116422595Y-148305245D01*
X116422596Y-148305245D01*
X116422599Y-148305247D01*
X116630060Y-148385618D01*
X116848757Y-148426500D01*
X116848759Y-148426500D01*
X117071241Y-148426500D01*
X117071243Y-148426500D01*
X117231454Y-148396551D01*
X135459500Y-148396551D01*
X135487829Y-148575410D01*
X135543787Y-148747636D01*
X135543788Y-148747639D01*
X135626006Y-148908997D01*
X135732441Y-149055494D01*
X135732445Y-149055499D01*
X135860500Y-149183554D01*
X135860505Y-149183558D01*
X135952688Y-149250532D01*
X136007006Y-149289996D01*
X136112484Y-149343740D01*
X136168360Y-149372211D01*
X136168363Y-149372212D01*
X136254476Y-149400191D01*
X136340591Y-149428171D01*
X136423429Y-149441291D01*
X136519449Y-149456500D01*
X136519454Y-149456500D01*
X136700551Y-149456500D01*
X136787259Y-149442765D01*
X136879409Y-149428171D01*
X137051639Y-149372211D01*
X137083453Y-149356001D01*
X147554532Y-149356001D01*
X147574364Y-149582686D01*
X147574366Y-149582697D01*
X147633258Y-149802488D01*
X147633261Y-149802497D01*
X147729431Y-150008732D01*
X147729432Y-150008734D01*
X147859954Y-150195141D01*
X148020858Y-150356045D01*
X148020861Y-150356047D01*
X148207266Y-150486568D01*
X148222975Y-150493893D01*
X148275414Y-150540064D01*
X148294567Y-150607257D01*
X148274352Y-150674138D01*
X148222979Y-150718656D01*
X148207514Y-150725867D01*
X148207512Y-150725868D01*
X148134526Y-150776973D01*
X148134526Y-150776974D01*
X148813553Y-151456000D01*
X148807339Y-151456000D01*
X148705606Y-151483259D01*
X148614394Y-151535920D01*
X148539920Y-151610394D01*
X148487259Y-151701606D01*
X148460000Y-151803339D01*
X148460000Y-151809552D01*
X147780974Y-151130526D01*
X147780973Y-151130526D01*
X147729868Y-151203512D01*
X147729866Y-151203516D01*
X147633734Y-151409673D01*
X147633730Y-151409682D01*
X147574860Y-151629389D01*
X147574858Y-151629400D01*
X147555034Y-151855997D01*
X147555034Y-151856002D01*
X147574858Y-152082599D01*
X147574860Y-152082610D01*
X147633730Y-152302317D01*
X147633735Y-152302331D01*
X147729863Y-152508478D01*
X147780974Y-152581472D01*
X148460000Y-151902446D01*
X148460000Y-151908661D01*
X148487259Y-152010394D01*
X148539920Y-152101606D01*
X148614394Y-152176080D01*
X148705606Y-152228741D01*
X148807339Y-152256000D01*
X148813553Y-152256000D01*
X148134526Y-152935025D01*
X148207513Y-152986132D01*
X148207521Y-152986136D01*
X148413668Y-153082264D01*
X148413682Y-153082269D01*
X148633389Y-153141139D01*
X148633400Y-153141141D01*
X148859998Y-153160966D01*
X148860002Y-153160966D01*
X149086599Y-153141141D01*
X149086610Y-153141139D01*
X149306317Y-153082269D01*
X149306331Y-153082264D01*
X149512478Y-152986136D01*
X149585471Y-152935024D01*
X148906447Y-152256000D01*
X148912661Y-152256000D01*
X149014394Y-152228741D01*
X149105606Y-152176080D01*
X149180080Y-152101606D01*
X149232741Y-152010394D01*
X149260000Y-151908661D01*
X149260000Y-151902447D01*
X149939024Y-152581471D01*
X149990136Y-152508478D01*
X150086264Y-152302331D01*
X150086269Y-152302317D01*
X150145139Y-152082610D01*
X150145141Y-152082599D01*
X150164966Y-151856002D01*
X150164966Y-151855997D01*
X150145141Y-151629400D01*
X150145139Y-151629389D01*
X150086269Y-151409682D01*
X150086264Y-151409668D01*
X149990136Y-151203521D01*
X149990132Y-151203513D01*
X149939025Y-151130526D01*
X149260000Y-151809551D01*
X149260000Y-151803339D01*
X149232741Y-151701606D01*
X149180080Y-151610394D01*
X149105606Y-151535920D01*
X149014394Y-151483259D01*
X148912661Y-151456000D01*
X148906448Y-151456000D01*
X149585472Y-150776974D01*
X149512480Y-150725864D01*
X149497024Y-150718657D01*
X149444585Y-150672484D01*
X149425433Y-150605290D01*
X149445649Y-150538409D01*
X149497023Y-150493893D01*
X149512734Y-150486568D01*
X149699139Y-150356047D01*
X149860047Y-150195139D01*
X149990568Y-150008734D01*
X150086739Y-149802496D01*
X150145635Y-149582692D01*
X150156719Y-149456001D01*
X156354532Y-149456001D01*
X156374364Y-149682686D01*
X156374366Y-149682697D01*
X156433258Y-149902488D01*
X156433261Y-149902497D01*
X156529431Y-150108732D01*
X156529432Y-150108734D01*
X156659954Y-150295141D01*
X156820858Y-150456045D01*
X156820861Y-150456047D01*
X157007266Y-150586568D01*
X157022975Y-150593893D01*
X157075414Y-150640064D01*
X157094567Y-150707257D01*
X157074352Y-150774138D01*
X157022979Y-150818656D01*
X157007514Y-150825867D01*
X157007512Y-150825868D01*
X156934526Y-150876973D01*
X156934526Y-150876974D01*
X157613553Y-151556000D01*
X157607339Y-151556000D01*
X157505606Y-151583259D01*
X157414394Y-151635920D01*
X157339920Y-151710394D01*
X157287259Y-151801606D01*
X157260000Y-151903339D01*
X157260000Y-151909552D01*
X156580974Y-151230526D01*
X156580973Y-151230526D01*
X156529868Y-151303512D01*
X156529866Y-151303516D01*
X156433734Y-151509673D01*
X156433730Y-151509682D01*
X156374860Y-151729389D01*
X156374858Y-151729400D01*
X156355034Y-151955997D01*
X156355034Y-151956002D01*
X156374858Y-152182599D01*
X156374860Y-152182610D01*
X156433730Y-152402317D01*
X156433735Y-152402331D01*
X156529863Y-152608478D01*
X156580974Y-152681472D01*
X157260000Y-152002446D01*
X157260000Y-152008661D01*
X157287259Y-152110394D01*
X157339920Y-152201606D01*
X157414394Y-152276080D01*
X157505606Y-152328741D01*
X157607339Y-152356000D01*
X157613553Y-152356000D01*
X156934526Y-153035025D01*
X157007513Y-153086132D01*
X157007521Y-153086136D01*
X157213668Y-153182264D01*
X157213682Y-153182269D01*
X157433389Y-153241139D01*
X157433400Y-153241141D01*
X157659998Y-153260966D01*
X157660002Y-153260966D01*
X157886599Y-153241141D01*
X157886610Y-153241139D01*
X158106317Y-153182269D01*
X158106331Y-153182264D01*
X158312478Y-153086136D01*
X158385471Y-153035024D01*
X157706447Y-152356000D01*
X157712661Y-152356000D01*
X157814394Y-152328741D01*
X157905606Y-152276080D01*
X157980080Y-152201606D01*
X158032741Y-152110394D01*
X158060000Y-152008661D01*
X158060000Y-152002447D01*
X158739024Y-152681471D01*
X158790136Y-152608478D01*
X158886264Y-152402331D01*
X158886269Y-152402317D01*
X158945139Y-152182610D01*
X158945141Y-152182599D01*
X158964966Y-151956002D01*
X158964966Y-151955997D01*
X158945141Y-151729400D01*
X158945139Y-151729389D01*
X158886269Y-151509682D01*
X158886264Y-151509668D01*
X158790136Y-151303521D01*
X158790132Y-151303513D01*
X158739025Y-151230526D01*
X158060000Y-151909551D01*
X158060000Y-151903339D01*
X158032741Y-151801606D01*
X157980080Y-151710394D01*
X157905606Y-151635920D01*
X157814394Y-151583259D01*
X157712661Y-151556000D01*
X157706448Y-151556000D01*
X158385472Y-150876974D01*
X158312480Y-150825864D01*
X158297024Y-150818657D01*
X158244585Y-150772484D01*
X158225433Y-150705290D01*
X158245649Y-150638409D01*
X158297023Y-150593893D01*
X158312734Y-150586568D01*
X158499139Y-150456047D01*
X158660047Y-150295139D01*
X158790568Y-150108734D01*
X158886739Y-149902496D01*
X158945635Y-149682692D01*
X158965468Y-149456000D01*
X158945635Y-149229308D01*
X158886739Y-149009504D01*
X158790568Y-148803266D01*
X158660047Y-148616861D01*
X158660045Y-148616858D01*
X158499141Y-148455954D01*
X158312734Y-148325432D01*
X158312732Y-148325431D01*
X158106497Y-148229261D01*
X158106488Y-148229258D01*
X157886697Y-148170366D01*
X157886693Y-148170365D01*
X157886692Y-148170365D01*
X157886691Y-148170364D01*
X157886686Y-148170364D01*
X157660002Y-148150532D01*
X157659998Y-148150532D01*
X157433313Y-148170364D01*
X157433302Y-148170366D01*
X157213511Y-148229258D01*
X157213502Y-148229261D01*
X157007267Y-148325431D01*
X157007265Y-148325432D01*
X156820858Y-148455954D01*
X156659954Y-148616858D01*
X156529432Y-148803265D01*
X156529431Y-148803267D01*
X156433261Y-149009502D01*
X156433258Y-149009511D01*
X156374366Y-149229302D01*
X156374364Y-149229313D01*
X156354532Y-149455998D01*
X156354532Y-149456001D01*
X150156719Y-149456001D01*
X150165468Y-149356000D01*
X150145635Y-149129308D01*
X150086739Y-148909504D01*
X149990568Y-148703266D01*
X149860047Y-148516861D01*
X149860045Y-148516858D01*
X149699141Y-148355954D01*
X149512734Y-148225432D01*
X149512732Y-148225431D01*
X149306497Y-148129261D01*
X149306488Y-148129258D01*
X149086697Y-148070366D01*
X149086693Y-148070365D01*
X149086692Y-148070365D01*
X149086691Y-148070364D01*
X149086686Y-148070364D01*
X148860002Y-148050532D01*
X148859998Y-148050532D01*
X148633313Y-148070364D01*
X148633302Y-148070366D01*
X148413511Y-148129258D01*
X148413502Y-148129261D01*
X148207267Y-148225431D01*
X148207265Y-148225432D01*
X148020858Y-148355954D01*
X147859954Y-148516858D01*
X147729432Y-148703265D01*
X147729431Y-148703267D01*
X147633261Y-148909502D01*
X147633258Y-148909511D01*
X147574366Y-149129302D01*
X147574364Y-149129313D01*
X147554532Y-149355998D01*
X147554532Y-149356001D01*
X137083453Y-149356001D01*
X137212994Y-149289996D01*
X137359501Y-149183553D01*
X137487553Y-149055501D01*
X137593996Y-148908994D01*
X137676211Y-148747639D01*
X137732171Y-148575409D01*
X137757340Y-148416500D01*
X137760500Y-148396551D01*
X137760500Y-148215448D01*
X137737520Y-148070364D01*
X137732171Y-148036591D01*
X137701148Y-147941110D01*
X137676212Y-147864363D01*
X137676211Y-147864360D01*
X137646270Y-147805599D01*
X137593996Y-147703006D01*
X137556592Y-147651523D01*
X137487558Y-147556505D01*
X137487554Y-147556500D01*
X137359499Y-147428445D01*
X137359494Y-147428441D01*
X137212997Y-147322006D01*
X137212996Y-147322005D01*
X137212994Y-147322004D01*
X137161300Y-147295664D01*
X137051639Y-147239788D01*
X137051636Y-147239787D01*
X136879410Y-147183829D01*
X136700551Y-147155500D01*
X136700546Y-147155500D01*
X136519454Y-147155500D01*
X136519449Y-147155500D01*
X136340589Y-147183829D01*
X136168363Y-147239787D01*
X136168360Y-147239788D01*
X136007002Y-147322006D01*
X135860505Y-147428441D01*
X135860500Y-147428445D01*
X135732445Y-147556500D01*
X135732441Y-147556505D01*
X135626006Y-147703002D01*
X135543788Y-147864360D01*
X135543787Y-147864363D01*
X135487829Y-148036589D01*
X135459500Y-148215448D01*
X135459500Y-148396551D01*
X117231454Y-148396551D01*
X117289940Y-148385618D01*
X117497401Y-148305247D01*
X117686562Y-148188124D01*
X117850981Y-148038236D01*
X117985058Y-147860689D01*
X118084229Y-147661528D01*
X118145115Y-147447536D01*
X118165643Y-147226000D01*
X118149398Y-147050691D01*
X118145115Y-147004464D01*
X118145114Y-147004462D01*
X118142269Y-146994464D01*
X118084229Y-146790472D01*
X118079250Y-146780472D01*
X117985061Y-146591316D01*
X117985056Y-146591308D01*
X117850979Y-146413761D01*
X117849362Y-146412287D01*
X128409500Y-146412287D01*
X128409734Y-146413762D01*
X128437855Y-146591316D01*
X128442754Y-146622243D01*
X128497416Y-146790476D01*
X128508444Y-146824414D01*
X128604951Y-147013820D01*
X128729890Y-147185786D01*
X128880213Y-147336109D01*
X129052179Y-147461048D01*
X129052181Y-147461049D01*
X129052184Y-147461051D01*
X129241588Y-147557557D01*
X129443757Y-147623246D01*
X129653713Y-147656500D01*
X129653714Y-147656500D01*
X131066286Y-147656500D01*
X131066287Y-147656500D01*
X131276243Y-147623246D01*
X131478412Y-147557557D01*
X131667816Y-147461051D01*
X131689789Y-147445086D01*
X131839786Y-147336109D01*
X131839788Y-147336106D01*
X131839792Y-147336104D01*
X131990104Y-147185792D01*
X131990106Y-147185788D01*
X131990109Y-147185786D01*
X132115048Y-147013820D01*
X132115047Y-147013820D01*
X132115051Y-147013816D01*
X132211557Y-146824412D01*
X132277246Y-146622243D01*
X132310500Y-146412287D01*
X140909500Y-146412287D01*
X140909734Y-146413762D01*
X140937855Y-146591316D01*
X140942754Y-146622243D01*
X140997416Y-146790476D01*
X141008444Y-146824414D01*
X141104951Y-147013820D01*
X141229890Y-147185786D01*
X141380213Y-147336109D01*
X141552179Y-147461048D01*
X141552181Y-147461049D01*
X141552184Y-147461051D01*
X141741588Y-147557557D01*
X141943757Y-147623246D01*
X142153713Y-147656500D01*
X142153714Y-147656500D01*
X143566286Y-147656500D01*
X143566287Y-147656500D01*
X143776243Y-147623246D01*
X143978412Y-147557557D01*
X144167816Y-147461051D01*
X144189789Y-147445086D01*
X144339786Y-147336109D01*
X144339788Y-147336106D01*
X144339792Y-147336104D01*
X144490104Y-147185792D01*
X144490106Y-147185788D01*
X144490109Y-147185786D01*
X144615048Y-147013820D01*
X144615047Y-147013820D01*
X144615051Y-147013816D01*
X144711557Y-146824412D01*
X144777246Y-146622243D01*
X144808328Y-146426000D01*
X147654357Y-146426000D01*
X147674884Y-146647535D01*
X147674885Y-146647537D01*
X147735769Y-146861523D01*
X147735775Y-146861538D01*
X147834938Y-147060683D01*
X147834943Y-147060691D01*
X147969020Y-147238238D01*
X148133437Y-147388123D01*
X148133439Y-147388125D01*
X148322595Y-147505245D01*
X148322596Y-147505245D01*
X148322599Y-147505247D01*
X148530060Y-147585618D01*
X148748757Y-147626500D01*
X148748759Y-147626500D01*
X148971241Y-147626500D01*
X148971243Y-147626500D01*
X149189940Y-147585618D01*
X149397401Y-147505247D01*
X149586562Y-147388124D01*
X149750981Y-147238236D01*
X149811047Y-147158695D01*
X149867154Y-147117060D01*
X149936866Y-147112368D01*
X149998048Y-147146110D01*
X150008947Y-147158688D01*
X150061469Y-147228238D01*
X150069021Y-147238238D01*
X150160908Y-147322004D01*
X150222467Y-147378123D01*
X150233437Y-147388123D01*
X150233439Y-147388125D01*
X150422595Y-147505245D01*
X150422596Y-147505245D01*
X150422599Y-147505247D01*
X150630060Y-147585618D01*
X150848757Y-147626500D01*
X150848759Y-147626500D01*
X151071241Y-147626500D01*
X151071243Y-147626500D01*
X151289940Y-147585618D01*
X151497401Y-147505247D01*
X151686562Y-147388124D01*
X151826282Y-147260751D01*
X151850979Y-147238238D01*
X151858533Y-147228236D01*
X151985058Y-147060689D01*
X152084229Y-146861528D01*
X152145115Y-146647536D01*
X152165643Y-146426000D01*
X152164716Y-146416000D01*
X156454357Y-146416000D01*
X156474884Y-146637535D01*
X156474885Y-146637537D01*
X156535769Y-146851523D01*
X156535775Y-146851538D01*
X156634938Y-147050683D01*
X156634943Y-147050691D01*
X156769020Y-147228238D01*
X156933437Y-147378123D01*
X156933439Y-147378125D01*
X157122595Y-147495245D01*
X157122596Y-147495245D01*
X157122599Y-147495247D01*
X157330060Y-147575618D01*
X157548757Y-147616500D01*
X157548759Y-147616500D01*
X157771241Y-147616500D01*
X157771243Y-147616500D01*
X157989940Y-147575618D01*
X158197401Y-147495247D01*
X158386562Y-147378124D01*
X158550981Y-147228236D01*
X158611047Y-147148695D01*
X158667154Y-147107060D01*
X158736866Y-147102368D01*
X158798048Y-147136110D01*
X158808947Y-147148688D01*
X158869019Y-147228236D01*
X158869021Y-147228238D01*
X159033437Y-147378123D01*
X159033439Y-147378125D01*
X159222595Y-147495245D01*
X159222596Y-147495245D01*
X159222599Y-147495247D01*
X159430060Y-147575618D01*
X159648757Y-147616500D01*
X159648759Y-147616500D01*
X159871241Y-147616500D01*
X159871243Y-147616500D01*
X160089940Y-147575618D01*
X160297401Y-147495247D01*
X160486562Y-147378124D01*
X160650981Y-147228236D01*
X160785058Y-147050689D01*
X160884229Y-146851528D01*
X160945115Y-146637536D01*
X160965643Y-146416000D01*
X160945115Y-146194464D01*
X160884229Y-145980472D01*
X160790040Y-145791316D01*
X160785061Y-145781316D01*
X160785056Y-145781308D01*
X160650979Y-145603761D01*
X160486562Y-145453876D01*
X160486560Y-145453874D01*
X160297404Y-145336754D01*
X160297398Y-145336752D01*
X160089940Y-145256382D01*
X159871243Y-145215500D01*
X159648757Y-145215500D01*
X159430060Y-145256382D01*
X159379689Y-145275896D01*
X159222601Y-145336752D01*
X159222595Y-145336754D01*
X159033439Y-145453874D01*
X159033437Y-145453876D01*
X158869020Y-145603761D01*
X158808954Y-145683303D01*
X158752845Y-145724939D01*
X158683133Y-145729630D01*
X158621951Y-145695888D01*
X158611046Y-145683303D01*
X158550979Y-145603761D01*
X158386562Y-145453876D01*
X158386560Y-145453874D01*
X158197404Y-145336754D01*
X158197398Y-145336752D01*
X157989940Y-145256382D01*
X157771243Y-145215500D01*
X157548757Y-145215500D01*
X157330060Y-145256382D01*
X157279689Y-145275896D01*
X157122601Y-145336752D01*
X157122595Y-145336754D01*
X156933439Y-145453874D01*
X156933437Y-145453876D01*
X156769020Y-145603761D01*
X156634943Y-145781308D01*
X156634938Y-145781316D01*
X156535775Y-145980461D01*
X156535769Y-145980476D01*
X156474885Y-146194462D01*
X156474884Y-146194464D01*
X156454357Y-146415999D01*
X156454357Y-146416000D01*
X152164716Y-146416000D01*
X152145115Y-146204464D01*
X152084229Y-145990472D01*
X152084224Y-145990461D01*
X151985061Y-145791316D01*
X151985056Y-145791308D01*
X151850979Y-145613761D01*
X151686562Y-145463876D01*
X151686560Y-145463874D01*
X151497404Y-145346754D01*
X151497398Y-145346752D01*
X151289940Y-145266382D01*
X151071243Y-145225500D01*
X150848757Y-145225500D01*
X150630060Y-145266382D01*
X150605502Y-145275896D01*
X150422601Y-145346752D01*
X150422595Y-145346754D01*
X150233439Y-145463874D01*
X150233437Y-145463876D01*
X150069020Y-145613761D01*
X150008954Y-145693303D01*
X149952845Y-145734939D01*
X149883133Y-145739630D01*
X149821951Y-145705888D01*
X149811046Y-145693303D01*
X149750979Y-145613761D01*
X149586562Y-145463876D01*
X149586560Y-145463874D01*
X149397404Y-145346754D01*
X149397398Y-145346752D01*
X149189940Y-145266382D01*
X148971243Y-145225500D01*
X148748757Y-145225500D01*
X148530060Y-145266382D01*
X148505502Y-145275896D01*
X148322601Y-145346752D01*
X148322595Y-145346754D01*
X148133439Y-145463874D01*
X148133437Y-145463876D01*
X147969020Y-145613761D01*
X147834943Y-145791308D01*
X147834938Y-145791316D01*
X147735775Y-145990461D01*
X147735769Y-145990476D01*
X147674885Y-146204462D01*
X147674884Y-146204464D01*
X147654357Y-146425999D01*
X147654357Y-146426000D01*
X144808328Y-146426000D01*
X144810500Y-146412287D01*
X144810500Y-146199713D01*
X144777246Y-145989757D01*
X144711557Y-145787588D01*
X144615051Y-145598184D01*
X144615049Y-145598181D01*
X144615048Y-145598179D01*
X144490109Y-145426213D01*
X144339786Y-145275890D01*
X144167820Y-145150951D01*
X143978414Y-145054444D01*
X143978413Y-145054443D01*
X143978412Y-145054443D01*
X143776243Y-144988754D01*
X143776241Y-144988753D01*
X143776240Y-144988753D01*
X143614957Y-144963208D01*
X143566287Y-144955500D01*
X142153713Y-144955500D01*
X142105042Y-144963208D01*
X141943760Y-144988753D01*
X141741585Y-145054444D01*
X141552179Y-145150951D01*
X141380213Y-145275890D01*
X141229890Y-145426213D01*
X141104951Y-145598179D01*
X141008444Y-145787585D01*
X140942753Y-145989760D01*
X140919472Y-146136752D01*
X140909500Y-146199713D01*
X140909500Y-146412287D01*
X132310500Y-146412287D01*
X132310500Y-146199713D01*
X132277246Y-145989757D01*
X132211557Y-145787588D01*
X132115051Y-145598184D01*
X132115049Y-145598181D01*
X132115048Y-145598179D01*
X131990109Y-145426213D01*
X131839786Y-145275890D01*
X131667820Y-145150951D01*
X131478414Y-145054444D01*
X131478413Y-145054443D01*
X131478412Y-145054443D01*
X131276243Y-144988754D01*
X131276241Y-144988753D01*
X131276240Y-144988753D01*
X131114957Y-144963208D01*
X131066287Y-144955500D01*
X129653713Y-144955500D01*
X129605042Y-144963208D01*
X129443760Y-144988753D01*
X129241585Y-145054444D01*
X129052179Y-145150951D01*
X128880213Y-145275890D01*
X128729890Y-145426213D01*
X128604951Y-145598179D01*
X128508444Y-145787585D01*
X128442753Y-145989760D01*
X128419472Y-146136752D01*
X128409500Y-146199713D01*
X128409500Y-146412287D01*
X117849362Y-146412287D01*
X117686562Y-146263876D01*
X117686560Y-146263874D01*
X117497404Y-146146754D01*
X117497398Y-146146752D01*
X117289940Y-146066382D01*
X117071243Y-146025500D01*
X116848757Y-146025500D01*
X116630060Y-146066382D01*
X116498864Y-146117207D01*
X116422601Y-146146752D01*
X116422595Y-146146754D01*
X116233439Y-146263874D01*
X116233437Y-146263876D01*
X116069020Y-146413762D01*
X116012729Y-146488303D01*
X115956619Y-146529939D01*
X115886907Y-146534630D01*
X115825726Y-146500888D01*
X115814827Y-146488311D01*
X115750981Y-146403764D01*
X115586562Y-146253876D01*
X115586560Y-146253874D01*
X115397404Y-146136754D01*
X115397398Y-146136752D01*
X115189940Y-146056382D01*
X114971243Y-146015500D01*
X114748757Y-146015500D01*
X114530060Y-146056382D01*
X114398864Y-146107207D01*
X114322601Y-146136752D01*
X114322595Y-146136754D01*
X114133439Y-146253874D01*
X114133437Y-146253876D01*
X113969020Y-146403761D01*
X113834943Y-146581308D01*
X113834938Y-146581316D01*
X113735775Y-146780461D01*
X113735769Y-146780476D01*
X113674885Y-146994462D01*
X113674884Y-146994464D01*
X113654357Y-147215999D01*
X113654357Y-147216000D01*
X110460500Y-147216000D01*
X110460500Y-141556000D01*
X128432769Y-141556000D01*
X128443242Y-141622126D01*
X128443242Y-141622129D01*
X128508904Y-141824217D01*
X128605379Y-142013557D01*
X128730272Y-142185459D01*
X128730276Y-142185464D01*
X128880535Y-142335723D01*
X128880540Y-142335727D01*
X129052442Y-142460620D01*
X129241782Y-142557095D01*
X129443870Y-142622757D01*
X129653754Y-142656000D01*
X130110000Y-142656000D01*
X130110000Y-141854482D01*
X130128409Y-141865111D01*
X130281009Y-141906000D01*
X130438991Y-141906000D01*
X130591591Y-141865111D01*
X130610000Y-141854482D01*
X130610000Y-142656000D01*
X131066246Y-142656000D01*
X131276127Y-142622757D01*
X131276130Y-142622757D01*
X131478217Y-142557095D01*
X131667557Y-142460620D01*
X131839459Y-142335727D01*
X131839464Y-142335723D01*
X131989723Y-142185464D01*
X131989727Y-142185459D01*
X132114620Y-142013557D01*
X132211095Y-141824217D01*
X132276757Y-141622129D01*
X132276757Y-141622126D01*
X132287231Y-141556000D01*
X140932769Y-141556000D01*
X140943242Y-141622126D01*
X140943242Y-141622129D01*
X141008904Y-141824217D01*
X141105379Y-142013557D01*
X141230272Y-142185459D01*
X141230276Y-142185464D01*
X141380535Y-142335723D01*
X141380540Y-142335727D01*
X141552442Y-142460620D01*
X141741782Y-142557095D01*
X141943870Y-142622757D01*
X142153754Y-142656000D01*
X142610000Y-142656000D01*
X142610000Y-141854482D01*
X142628409Y-141865111D01*
X142781009Y-141906000D01*
X142938991Y-141906000D01*
X143091591Y-141865111D01*
X143110000Y-141854482D01*
X143110000Y-142656000D01*
X143566246Y-142656000D01*
X143776127Y-142622757D01*
X143776130Y-142622757D01*
X143978217Y-142557095D01*
X144167557Y-142460620D01*
X144339459Y-142335727D01*
X144339464Y-142335723D01*
X144489723Y-142185464D01*
X144489727Y-142185459D01*
X144614620Y-142013557D01*
X144711095Y-141824217D01*
X144776757Y-141622129D01*
X144776757Y-141622126D01*
X144787231Y-141556000D01*
X143408482Y-141556000D01*
X143419111Y-141537591D01*
X143460000Y-141384991D01*
X143460000Y-141227009D01*
X143419111Y-141074409D01*
X143408482Y-141056000D01*
X144787231Y-141056000D01*
X144776757Y-140989873D01*
X144776757Y-140989870D01*
X144711095Y-140787782D01*
X144614620Y-140598442D01*
X144489727Y-140426540D01*
X144489723Y-140426535D01*
X144339464Y-140276276D01*
X144339459Y-140276272D01*
X144167557Y-140151379D01*
X143978217Y-140054904D01*
X143776129Y-139989242D01*
X143566246Y-139956000D01*
X143110000Y-139956000D01*
X143110000Y-140757517D01*
X143091591Y-140746889D01*
X142938991Y-140706000D01*
X142781009Y-140706000D01*
X142628409Y-140746889D01*
X142610000Y-140757517D01*
X142610000Y-139956000D01*
X142153754Y-139956000D01*
X141943872Y-139989242D01*
X141943869Y-139989242D01*
X141741782Y-140054904D01*
X141552442Y-140151379D01*
X141380540Y-140276272D01*
X141380535Y-140276276D01*
X141230276Y-140426535D01*
X141230272Y-140426540D01*
X141105379Y-140598442D01*
X141008904Y-140787782D01*
X140943242Y-140989870D01*
X140943242Y-140989873D01*
X140932769Y-141056000D01*
X142311518Y-141056000D01*
X142300889Y-141074409D01*
X142260000Y-141227009D01*
X142260000Y-141384991D01*
X142300889Y-141537591D01*
X142311518Y-141556000D01*
X140932769Y-141556000D01*
X132287231Y-141556000D01*
X130908482Y-141556000D01*
X130919111Y-141537591D01*
X130960000Y-141384991D01*
X130960000Y-141227009D01*
X130919111Y-141074409D01*
X130908482Y-141056000D01*
X132287231Y-141056000D01*
X132276757Y-140989873D01*
X132276757Y-140989870D01*
X132211095Y-140787782D01*
X132114620Y-140598442D01*
X131989727Y-140426540D01*
X131989723Y-140426535D01*
X131839464Y-140276276D01*
X131839459Y-140276272D01*
X131667557Y-140151379D01*
X131478217Y-140054904D01*
X131276129Y-139989242D01*
X131066246Y-139956000D01*
X130610000Y-139956000D01*
X130610000Y-140757517D01*
X130591591Y-140746889D01*
X130438991Y-140706000D01*
X130281009Y-140706000D01*
X130128409Y-140746889D01*
X130110000Y-140757517D01*
X130110000Y-139956000D01*
X129653754Y-139956000D01*
X129443872Y-139989242D01*
X129443869Y-139989242D01*
X129241782Y-140054904D01*
X129052442Y-140151379D01*
X128880540Y-140276272D01*
X128880535Y-140276276D01*
X128730276Y-140426535D01*
X128730272Y-140426540D01*
X128605379Y-140598442D01*
X128508904Y-140787782D01*
X128443242Y-140989870D01*
X128443242Y-140989873D01*
X128432769Y-141056000D01*
X129811518Y-141056000D01*
X129800889Y-141074409D01*
X129760000Y-141227009D01*
X129760000Y-141384991D01*
X129800889Y-141537591D01*
X129811518Y-141556000D01*
X128432769Y-141556000D01*
X110460500Y-141556000D01*
X110460500Y-139596000D01*
X113654357Y-139596000D01*
X113674884Y-139817535D01*
X113674885Y-139817537D01*
X113735769Y-140031523D01*
X113735775Y-140031538D01*
X113834938Y-140230683D01*
X113834943Y-140230691D01*
X113969020Y-140408238D01*
X114133437Y-140558123D01*
X114133439Y-140558125D01*
X114322595Y-140675245D01*
X114322596Y-140675245D01*
X114322599Y-140675247D01*
X114530060Y-140755618D01*
X114748757Y-140796500D01*
X114748759Y-140796500D01*
X114971241Y-140796500D01*
X114971243Y-140796500D01*
X115189940Y-140755618D01*
X115397401Y-140675247D01*
X115586562Y-140558124D01*
X115750981Y-140408236D01*
X115807271Y-140333695D01*
X115863378Y-140292061D01*
X115933090Y-140287368D01*
X115994272Y-140321110D01*
X116005178Y-140333697D01*
X116069017Y-140418234D01*
X116069019Y-140418237D01*
X116233437Y-140568123D01*
X116233439Y-140568125D01*
X116422595Y-140685245D01*
X116422596Y-140685245D01*
X116422599Y-140685247D01*
X116630060Y-140765618D01*
X116848757Y-140806500D01*
X116848759Y-140806500D01*
X117071241Y-140806500D01*
X117071243Y-140806500D01*
X117289940Y-140765618D01*
X117497401Y-140685247D01*
X117686562Y-140568124D01*
X117841872Y-140426540D01*
X117850979Y-140418238D01*
X117850983Y-140418234D01*
X117985058Y-140240689D01*
X118084229Y-140041528D01*
X118145115Y-139827536D01*
X118165643Y-139606000D01*
X118162808Y-139575410D01*
X118146235Y-139396551D01*
X135459500Y-139396551D01*
X135487829Y-139575410D01*
X135543787Y-139747636D01*
X135543788Y-139747639D01*
X135626006Y-139908997D01*
X135732441Y-140055494D01*
X135732445Y-140055499D01*
X135860500Y-140183554D01*
X135860505Y-140183558D01*
X135925368Y-140230683D01*
X136007006Y-140289996D01*
X136112484Y-140343740D01*
X136168360Y-140372211D01*
X136168363Y-140372212D01*
X136254476Y-140400191D01*
X136340591Y-140428171D01*
X136423429Y-140441291D01*
X136519449Y-140456500D01*
X136519454Y-140456500D01*
X136700551Y-140456500D01*
X136787259Y-140442765D01*
X136879409Y-140428171D01*
X137051639Y-140372211D01*
X137212994Y-140289996D01*
X137359501Y-140183553D01*
X137487553Y-140055501D01*
X137593996Y-139908994D01*
X137676211Y-139747639D01*
X137732171Y-139575409D01*
X137746907Y-139482368D01*
X137760500Y-139396551D01*
X137760500Y-139215448D01*
X137744019Y-139111397D01*
X137732171Y-139036591D01*
X137677492Y-138868303D01*
X137676212Y-138864363D01*
X137676211Y-138864360D01*
X137646474Y-138806000D01*
X147654357Y-138806000D01*
X147674884Y-139027535D01*
X147674885Y-139027537D01*
X147735769Y-139241523D01*
X147735775Y-139241538D01*
X147834938Y-139440683D01*
X147834943Y-139440691D01*
X147969020Y-139618238D01*
X148133437Y-139768123D01*
X148133439Y-139768125D01*
X148322595Y-139885245D01*
X148322596Y-139885245D01*
X148322599Y-139885247D01*
X148530060Y-139965618D01*
X148748757Y-140006500D01*
X148748759Y-140006500D01*
X148971241Y-140006500D01*
X148971243Y-140006500D01*
X149189940Y-139965618D01*
X149397401Y-139885247D01*
X149586562Y-139768124D01*
X149750981Y-139618236D01*
X149811047Y-139538695D01*
X149867154Y-139497060D01*
X149936866Y-139492368D01*
X149998048Y-139526110D01*
X150008947Y-139538688D01*
X150069019Y-139618236D01*
X150222467Y-139758123D01*
X150233437Y-139768123D01*
X150233439Y-139768125D01*
X150422595Y-139885245D01*
X150422596Y-139885245D01*
X150422599Y-139885247D01*
X150630060Y-139965618D01*
X150848757Y-140006500D01*
X150848759Y-140006500D01*
X151071241Y-140006500D01*
X151071243Y-140006500D01*
X151289940Y-139965618D01*
X151497401Y-139885247D01*
X151686562Y-139768124D01*
X151850981Y-139618236D01*
X151985058Y-139440689D01*
X152084229Y-139241528D01*
X152145115Y-139027536D01*
X152165643Y-138806000D01*
X152164716Y-138796000D01*
X156454357Y-138796000D01*
X156474884Y-139017535D01*
X156474885Y-139017537D01*
X156535769Y-139231523D01*
X156535775Y-139231538D01*
X156634938Y-139430683D01*
X156634943Y-139430691D01*
X156769020Y-139608238D01*
X156933437Y-139758123D01*
X156933439Y-139758125D01*
X157122595Y-139875245D01*
X157122596Y-139875245D01*
X157122599Y-139875247D01*
X157330060Y-139955618D01*
X157548757Y-139996500D01*
X157548759Y-139996500D01*
X157771241Y-139996500D01*
X157771243Y-139996500D01*
X157989940Y-139955618D01*
X158197401Y-139875247D01*
X158386562Y-139758124D01*
X158550981Y-139608236D01*
X158611047Y-139528695D01*
X158667154Y-139487060D01*
X158736866Y-139482368D01*
X158798048Y-139516110D01*
X158808947Y-139528688D01*
X158869019Y-139608236D01*
X158869021Y-139608238D01*
X159033437Y-139758123D01*
X159033439Y-139758125D01*
X159222595Y-139875245D01*
X159222596Y-139875245D01*
X159222599Y-139875247D01*
X159430060Y-139955618D01*
X159648757Y-139996500D01*
X159648759Y-139996500D01*
X159871241Y-139996500D01*
X159871243Y-139996500D01*
X160089940Y-139955618D01*
X160297401Y-139875247D01*
X160486562Y-139758124D01*
X160650981Y-139608236D01*
X160785058Y-139430689D01*
X160884229Y-139231528D01*
X160945115Y-139017536D01*
X160965643Y-138796000D01*
X160945115Y-138574464D01*
X160884229Y-138360472D01*
X160884224Y-138360461D01*
X160785061Y-138161316D01*
X160785056Y-138161308D01*
X160650979Y-137983761D01*
X160486562Y-137833876D01*
X160486560Y-137833874D01*
X160297404Y-137716754D01*
X160297398Y-137716752D01*
X160089940Y-137636382D01*
X159871243Y-137595500D01*
X159648757Y-137595500D01*
X159430060Y-137636382D01*
X159298864Y-137687207D01*
X159222601Y-137716752D01*
X159222595Y-137716754D01*
X159033439Y-137833874D01*
X159033437Y-137833876D01*
X158869020Y-137983761D01*
X158808954Y-138063303D01*
X158752845Y-138104939D01*
X158683133Y-138109630D01*
X158621951Y-138075888D01*
X158611046Y-138063303D01*
X158550979Y-137983761D01*
X158386562Y-137833876D01*
X158386560Y-137833874D01*
X158197404Y-137716754D01*
X158197398Y-137716752D01*
X157989940Y-137636382D01*
X157771243Y-137595500D01*
X157548757Y-137595500D01*
X157330060Y-137636382D01*
X157198864Y-137687207D01*
X157122601Y-137716752D01*
X157122595Y-137716754D01*
X156933439Y-137833874D01*
X156933437Y-137833876D01*
X156769020Y-137983761D01*
X156634943Y-138161308D01*
X156634938Y-138161316D01*
X156535775Y-138360461D01*
X156535769Y-138360476D01*
X156474885Y-138574462D01*
X156474884Y-138574464D01*
X156454357Y-138795999D01*
X156454357Y-138796000D01*
X152164716Y-138796000D01*
X152145115Y-138584464D01*
X152084229Y-138370472D01*
X152079250Y-138360472D01*
X151985061Y-138171316D01*
X151985056Y-138171308D01*
X151850979Y-137993761D01*
X151686562Y-137843876D01*
X151686560Y-137843874D01*
X151497404Y-137726754D01*
X151497398Y-137726752D01*
X151289940Y-137646382D01*
X151071243Y-137605500D01*
X150848757Y-137605500D01*
X150630060Y-137646382D01*
X150498864Y-137697207D01*
X150422601Y-137726752D01*
X150422595Y-137726754D01*
X150233439Y-137843874D01*
X150233437Y-137843876D01*
X150069020Y-137993761D01*
X150008954Y-138073303D01*
X149952845Y-138114939D01*
X149883133Y-138119630D01*
X149821951Y-138085888D01*
X149811046Y-138073303D01*
X149750979Y-137993761D01*
X149586562Y-137843876D01*
X149586560Y-137843874D01*
X149397404Y-137726754D01*
X149397398Y-137726752D01*
X149189940Y-137646382D01*
X148971243Y-137605500D01*
X148748757Y-137605500D01*
X148530060Y-137646382D01*
X148398864Y-137697207D01*
X148322601Y-137726752D01*
X148322595Y-137726754D01*
X148133439Y-137843874D01*
X148133437Y-137843876D01*
X147969020Y-137993761D01*
X147834943Y-138171308D01*
X147834938Y-138171316D01*
X147735775Y-138370461D01*
X147735769Y-138370476D01*
X147674885Y-138584462D01*
X147674884Y-138584464D01*
X147654357Y-138805999D01*
X147654357Y-138806000D01*
X137646474Y-138806000D01*
X137641379Y-138796000D01*
X137593996Y-138703006D01*
X137551036Y-138643876D01*
X137487558Y-138556505D01*
X137487554Y-138556500D01*
X137359499Y-138428445D01*
X137359494Y-138428441D01*
X137212997Y-138322006D01*
X137212996Y-138322005D01*
X137212994Y-138322004D01*
X137161300Y-138295664D01*
X137051639Y-138239788D01*
X137051636Y-138239787D01*
X136879410Y-138183829D01*
X136700551Y-138155500D01*
X136700546Y-138155500D01*
X136519454Y-138155500D01*
X136519449Y-138155500D01*
X136340589Y-138183829D01*
X136168363Y-138239787D01*
X136168360Y-138239788D01*
X136007002Y-138322006D01*
X135860505Y-138428441D01*
X135860500Y-138428445D01*
X135732445Y-138556500D01*
X135732441Y-138556505D01*
X135626006Y-138703002D01*
X135543788Y-138864360D01*
X135543787Y-138864363D01*
X135487829Y-139036589D01*
X135459500Y-139215448D01*
X135459500Y-139396551D01*
X118146235Y-139396551D01*
X118145115Y-139384464D01*
X118145114Y-139384462D01*
X118142269Y-139374464D01*
X118084229Y-139170472D01*
X118079250Y-139160472D01*
X117985061Y-138971316D01*
X117985056Y-138971308D01*
X117850979Y-138793761D01*
X117686562Y-138643876D01*
X117686560Y-138643874D01*
X117497404Y-138526754D01*
X117497398Y-138526752D01*
X117289940Y-138446382D01*
X117071243Y-138405500D01*
X116848757Y-138405500D01*
X116630060Y-138446382D01*
X116498864Y-138497207D01*
X116422601Y-138526752D01*
X116422595Y-138526754D01*
X116233439Y-138643874D01*
X116233437Y-138643876D01*
X116069020Y-138793762D01*
X116012729Y-138868303D01*
X115956619Y-138909939D01*
X115886907Y-138914630D01*
X115825726Y-138880888D01*
X115814827Y-138868311D01*
X115750981Y-138783764D01*
X115662389Y-138703002D01*
X115586562Y-138633876D01*
X115586560Y-138633874D01*
X115397404Y-138516754D01*
X115397398Y-138516752D01*
X115189940Y-138436382D01*
X114971243Y-138395500D01*
X114748757Y-138395500D01*
X114530060Y-138436382D01*
X114398864Y-138487207D01*
X114322601Y-138516752D01*
X114322595Y-138516754D01*
X114133439Y-138633874D01*
X114133437Y-138633876D01*
X113969020Y-138783761D01*
X113834943Y-138961308D01*
X113834938Y-138961316D01*
X113735775Y-139160461D01*
X113735769Y-139160476D01*
X113674885Y-139374462D01*
X113674884Y-139374464D01*
X113654357Y-139595999D01*
X113654357Y-139596000D01*
X110460500Y-139596000D01*
X110460500Y-133896551D01*
X119959500Y-133896551D01*
X119987829Y-134075410D01*
X120043787Y-134247636D01*
X120043788Y-134247639D01*
X120126006Y-134408997D01*
X120232441Y-134555494D01*
X120232445Y-134555499D01*
X120360500Y-134683554D01*
X120360505Y-134683558D01*
X120488287Y-134776396D01*
X120507006Y-134789996D01*
X120612484Y-134843740D01*
X120668360Y-134872211D01*
X120668363Y-134872212D01*
X120754476Y-134900191D01*
X120840591Y-134928171D01*
X120923429Y-134941291D01*
X121019449Y-134956500D01*
X121019454Y-134956500D01*
X121200551Y-134956500D01*
X121287259Y-134942765D01*
X121379409Y-134928171D01*
X121551639Y-134872211D01*
X121712994Y-134789996D01*
X121859501Y-134683553D01*
X121987553Y-134555501D01*
X122093996Y-134408994D01*
X122176211Y-134247639D01*
X122232171Y-134075409D01*
X122246765Y-133983259D01*
X122260500Y-133896551D01*
X150959500Y-133896551D01*
X150987829Y-134075410D01*
X151043787Y-134247636D01*
X151043788Y-134247639D01*
X151126006Y-134408997D01*
X151232441Y-134555494D01*
X151232445Y-134555499D01*
X151360500Y-134683554D01*
X151360505Y-134683558D01*
X151488287Y-134776396D01*
X151507006Y-134789996D01*
X151612484Y-134843740D01*
X151668360Y-134872211D01*
X151668363Y-134872212D01*
X151754476Y-134900191D01*
X151840591Y-134928171D01*
X151923429Y-134941291D01*
X152019449Y-134956500D01*
X152019454Y-134956500D01*
X152200551Y-134956500D01*
X152287259Y-134942765D01*
X152379409Y-134928171D01*
X152551639Y-134872211D01*
X152712994Y-134789996D01*
X152859501Y-134683553D01*
X152987553Y-134555501D01*
X153093996Y-134408994D01*
X153176211Y-134247639D01*
X153232171Y-134075409D01*
X153246765Y-133983259D01*
X153260500Y-133896551D01*
X171709500Y-133896551D01*
X171737829Y-134075410D01*
X171793787Y-134247636D01*
X171793788Y-134247639D01*
X171876006Y-134408997D01*
X171982441Y-134555494D01*
X171982445Y-134555499D01*
X172110500Y-134683554D01*
X172110505Y-134683558D01*
X172238287Y-134776396D01*
X172257006Y-134789996D01*
X172362484Y-134843740D01*
X172418360Y-134872211D01*
X172418363Y-134872212D01*
X172504476Y-134900191D01*
X172590591Y-134928171D01*
X172673429Y-134941291D01*
X172769449Y-134956500D01*
X172769454Y-134956500D01*
X172950551Y-134956500D01*
X173037259Y-134942765D01*
X173129409Y-134928171D01*
X173301639Y-134872211D01*
X173462994Y-134789996D01*
X173609501Y-134683553D01*
X173737553Y-134555501D01*
X173843996Y-134408994D01*
X173926211Y-134247639D01*
X173982171Y-134075409D01*
X173996765Y-133983259D01*
X174010500Y-133896551D01*
X174010500Y-133715448D01*
X173994019Y-133611397D01*
X173982171Y-133536591D01*
X173926211Y-133364361D01*
X173926211Y-133364360D01*
X173897740Y-133308484D01*
X173843996Y-133203006D01*
X173810208Y-133156500D01*
X173737558Y-133056505D01*
X173737554Y-133056500D01*
X173609499Y-132928445D01*
X173609494Y-132928441D01*
X173462997Y-132822006D01*
X173462996Y-132822005D01*
X173462994Y-132822004D01*
X173411300Y-132795664D01*
X173301639Y-132739788D01*
X173301636Y-132739787D01*
X173129410Y-132683829D01*
X172950551Y-132655500D01*
X172950546Y-132655500D01*
X172769454Y-132655500D01*
X172769449Y-132655500D01*
X172590589Y-132683829D01*
X172418363Y-132739787D01*
X172418360Y-132739788D01*
X172257002Y-132822006D01*
X172110505Y-132928441D01*
X172110500Y-132928445D01*
X171982445Y-133056500D01*
X171982441Y-133056505D01*
X171876006Y-133203002D01*
X171793788Y-133364360D01*
X171793787Y-133364363D01*
X171737829Y-133536589D01*
X171709500Y-133715448D01*
X171709500Y-133896551D01*
X153260500Y-133896551D01*
X153260500Y-133715448D01*
X153244019Y-133611397D01*
X153232171Y-133536591D01*
X153176211Y-133364361D01*
X153176211Y-133364360D01*
X153147740Y-133308484D01*
X153093996Y-133203006D01*
X153060208Y-133156500D01*
X152987558Y-133056505D01*
X152987554Y-133056500D01*
X152859499Y-132928445D01*
X152859494Y-132928441D01*
X152712997Y-132822006D01*
X152712996Y-132822005D01*
X152712994Y-132822004D01*
X152661300Y-132795664D01*
X152551639Y-132739788D01*
X152551636Y-132739787D01*
X152379410Y-132683829D01*
X152200551Y-132655500D01*
X152200546Y-132655500D01*
X152019454Y-132655500D01*
X152019449Y-132655500D01*
X151840589Y-132683829D01*
X151668363Y-132739787D01*
X151668360Y-132739788D01*
X151507002Y-132822006D01*
X151360505Y-132928441D01*
X151360500Y-132928445D01*
X151232445Y-133056500D01*
X151232441Y-133056505D01*
X151126006Y-133203002D01*
X151043788Y-133364360D01*
X151043787Y-133364363D01*
X150987829Y-133536589D01*
X150959500Y-133715448D01*
X150959500Y-133896551D01*
X122260500Y-133896551D01*
X122260500Y-133715448D01*
X122244019Y-133611397D01*
X122232171Y-133536591D01*
X122176211Y-133364361D01*
X122176211Y-133364360D01*
X122147740Y-133308484D01*
X122093996Y-133203006D01*
X122060208Y-133156500D01*
X121987558Y-133056505D01*
X121987554Y-133056500D01*
X121859499Y-132928445D01*
X121859494Y-132928441D01*
X121712997Y-132822006D01*
X121712996Y-132822005D01*
X121712994Y-132822004D01*
X121661300Y-132795664D01*
X121551639Y-132739788D01*
X121551636Y-132739787D01*
X121379410Y-132683829D01*
X121200551Y-132655500D01*
X121200546Y-132655500D01*
X121019454Y-132655500D01*
X121019449Y-132655500D01*
X120840589Y-132683829D01*
X120668363Y-132739787D01*
X120668360Y-132739788D01*
X120507002Y-132822006D01*
X120360505Y-132928441D01*
X120360500Y-132928445D01*
X120232445Y-133056500D01*
X120232441Y-133056505D01*
X120126006Y-133203002D01*
X120043788Y-133364360D01*
X120043787Y-133364363D01*
X119987829Y-133536589D01*
X119959500Y-133715448D01*
X119959500Y-133896551D01*
X110460500Y-133896551D01*
X110460500Y-131912286D01*
X112909500Y-131912286D01*
X112942753Y-132122239D01*
X113008444Y-132324414D01*
X113104951Y-132513820D01*
X113229890Y-132685786D01*
X113380213Y-132836109D01*
X113552179Y-132961048D01*
X113552181Y-132961049D01*
X113552184Y-132961051D01*
X113741588Y-133057557D01*
X113943757Y-133123246D01*
X114153713Y-133156500D01*
X114153714Y-133156500D01*
X115566286Y-133156500D01*
X115566287Y-133156500D01*
X115776243Y-133123246D01*
X115978412Y-133057557D01*
X116167816Y-132961051D01*
X116212700Y-132928441D01*
X116339786Y-132836109D01*
X116339788Y-132836106D01*
X116339792Y-132836104D01*
X116490104Y-132685792D01*
X116490106Y-132685788D01*
X116490109Y-132685786D01*
X116615048Y-132513820D01*
X116615047Y-132513820D01*
X116615051Y-132513816D01*
X116711557Y-132324412D01*
X116777246Y-132122243D01*
X116810500Y-131912287D01*
X116810500Y-131912286D01*
X125409500Y-131912286D01*
X125442753Y-132122239D01*
X125508444Y-132324414D01*
X125604951Y-132513820D01*
X125729890Y-132685786D01*
X125880213Y-132836109D01*
X126052179Y-132961048D01*
X126052181Y-132961049D01*
X126052184Y-132961051D01*
X126241588Y-133057557D01*
X126443757Y-133123246D01*
X126653713Y-133156500D01*
X126653714Y-133156500D01*
X128066286Y-133156500D01*
X128066287Y-133156500D01*
X128276243Y-133123246D01*
X128478412Y-133057557D01*
X128667816Y-132961051D01*
X128712700Y-132928441D01*
X128839786Y-132836109D01*
X128839788Y-132836106D01*
X128839792Y-132836104D01*
X128990104Y-132685792D01*
X128990106Y-132685788D01*
X128990109Y-132685786D01*
X129115048Y-132513820D01*
X129115047Y-132513820D01*
X129115051Y-132513816D01*
X129211557Y-132324412D01*
X129277246Y-132122243D01*
X129310500Y-131912287D01*
X129310500Y-131912286D01*
X143909500Y-131912286D01*
X143942753Y-132122239D01*
X144008444Y-132324414D01*
X144104951Y-132513820D01*
X144229890Y-132685786D01*
X144380213Y-132836109D01*
X144552179Y-132961048D01*
X144552181Y-132961049D01*
X144552184Y-132961051D01*
X144741588Y-133057557D01*
X144943757Y-133123246D01*
X145153713Y-133156500D01*
X145153714Y-133156500D01*
X146566286Y-133156500D01*
X146566287Y-133156500D01*
X146776243Y-133123246D01*
X146978412Y-133057557D01*
X147167816Y-132961051D01*
X147212700Y-132928441D01*
X147339786Y-132836109D01*
X147339788Y-132836106D01*
X147339792Y-132836104D01*
X147490104Y-132685792D01*
X147490106Y-132685788D01*
X147490109Y-132685786D01*
X147615048Y-132513820D01*
X147615047Y-132513820D01*
X147615051Y-132513816D01*
X147711557Y-132324412D01*
X147777246Y-132122243D01*
X147810500Y-131912287D01*
X147810500Y-131912286D01*
X156409500Y-131912286D01*
X156442753Y-132122239D01*
X156508444Y-132324414D01*
X156604951Y-132513820D01*
X156729890Y-132685786D01*
X156880213Y-132836109D01*
X157052179Y-132961048D01*
X157052181Y-132961049D01*
X157052184Y-132961051D01*
X157241588Y-133057557D01*
X157443757Y-133123246D01*
X157653713Y-133156500D01*
X157653714Y-133156500D01*
X159066286Y-133156500D01*
X159066287Y-133156500D01*
X159276243Y-133123246D01*
X159478412Y-133057557D01*
X159667816Y-132961051D01*
X159712700Y-132928441D01*
X159839786Y-132836109D01*
X159839788Y-132836106D01*
X159839792Y-132836104D01*
X159990104Y-132685792D01*
X159990106Y-132685788D01*
X159990109Y-132685786D01*
X160115048Y-132513820D01*
X160115047Y-132513820D01*
X160115051Y-132513816D01*
X160211557Y-132324412D01*
X160277246Y-132122243D01*
X160310500Y-131912287D01*
X160310500Y-131912286D01*
X164659500Y-131912286D01*
X164692753Y-132122239D01*
X164758444Y-132324414D01*
X164854951Y-132513820D01*
X164979890Y-132685786D01*
X165130213Y-132836109D01*
X165302179Y-132961048D01*
X165302181Y-132961049D01*
X165302184Y-132961051D01*
X165491588Y-133057557D01*
X165693757Y-133123246D01*
X165903713Y-133156500D01*
X165903714Y-133156500D01*
X167316286Y-133156500D01*
X167316287Y-133156500D01*
X167526243Y-133123246D01*
X167728412Y-133057557D01*
X167917816Y-132961051D01*
X167962700Y-132928441D01*
X168089786Y-132836109D01*
X168089788Y-132836106D01*
X168089792Y-132836104D01*
X168240104Y-132685792D01*
X168240106Y-132685788D01*
X168240109Y-132685786D01*
X168365048Y-132513820D01*
X168365047Y-132513820D01*
X168365051Y-132513816D01*
X168461557Y-132324412D01*
X168527246Y-132122243D01*
X168560500Y-131912287D01*
X168560500Y-131912286D01*
X177159500Y-131912286D01*
X177192753Y-132122239D01*
X177258444Y-132324414D01*
X177354951Y-132513820D01*
X177479890Y-132685786D01*
X177630213Y-132836109D01*
X177802179Y-132961048D01*
X177802181Y-132961049D01*
X177802184Y-132961051D01*
X177991588Y-133057557D01*
X178193757Y-133123246D01*
X178403713Y-133156500D01*
X178403714Y-133156500D01*
X179816286Y-133156500D01*
X179816287Y-133156500D01*
X180026243Y-133123246D01*
X180228412Y-133057557D01*
X180417816Y-132961051D01*
X180462700Y-132928441D01*
X180589786Y-132836109D01*
X180589788Y-132836106D01*
X180589792Y-132836104D01*
X180740104Y-132685792D01*
X180740106Y-132685788D01*
X180740109Y-132685786D01*
X180865048Y-132513820D01*
X180865047Y-132513820D01*
X180865051Y-132513816D01*
X180961557Y-132324412D01*
X181027246Y-132122243D01*
X181060500Y-131912287D01*
X181060500Y-131699713D01*
X181027246Y-131489757D01*
X180961557Y-131287588D01*
X180865051Y-131098184D01*
X180865049Y-131098181D01*
X180865048Y-131098179D01*
X180740109Y-130926213D01*
X180589786Y-130775890D01*
X180417820Y-130650951D01*
X180228414Y-130554444D01*
X180228413Y-130554443D01*
X180228412Y-130554443D01*
X180026243Y-130488754D01*
X180026241Y-130488753D01*
X180026240Y-130488753D01*
X179864957Y-130463208D01*
X179816287Y-130455500D01*
X178403713Y-130455500D01*
X178355042Y-130463208D01*
X178193760Y-130488753D01*
X177991585Y-130554444D01*
X177802179Y-130650951D01*
X177630213Y-130775890D01*
X177479890Y-130926213D01*
X177354951Y-131098179D01*
X177258444Y-131287585D01*
X177192753Y-131489760D01*
X177159500Y-131699713D01*
X177159500Y-131912286D01*
X168560500Y-131912286D01*
X168560500Y-131699713D01*
X168527246Y-131489757D01*
X168461557Y-131287588D01*
X168365051Y-131098184D01*
X168365049Y-131098181D01*
X168365048Y-131098179D01*
X168240109Y-130926213D01*
X168089786Y-130775890D01*
X167917820Y-130650951D01*
X167728414Y-130554444D01*
X167728413Y-130554443D01*
X167728412Y-130554443D01*
X167526243Y-130488754D01*
X167526241Y-130488753D01*
X167526240Y-130488753D01*
X167364957Y-130463208D01*
X167316287Y-130455500D01*
X165903713Y-130455500D01*
X165855042Y-130463208D01*
X165693760Y-130488753D01*
X165491585Y-130554444D01*
X165302179Y-130650951D01*
X165130213Y-130775890D01*
X164979890Y-130926213D01*
X164854951Y-131098179D01*
X164758444Y-131287585D01*
X164692753Y-131489760D01*
X164659500Y-131699713D01*
X164659500Y-131912286D01*
X160310500Y-131912286D01*
X160310500Y-131699713D01*
X160277246Y-131489757D01*
X160211557Y-131287588D01*
X160115051Y-131098184D01*
X160115049Y-131098181D01*
X160115048Y-131098179D01*
X159990109Y-130926213D01*
X159839786Y-130775890D01*
X159667820Y-130650951D01*
X159478414Y-130554444D01*
X159478413Y-130554443D01*
X159478412Y-130554443D01*
X159276243Y-130488754D01*
X159276241Y-130488753D01*
X159276240Y-130488753D01*
X159114957Y-130463208D01*
X159066287Y-130455500D01*
X157653713Y-130455500D01*
X157605042Y-130463208D01*
X157443760Y-130488753D01*
X157241585Y-130554444D01*
X157052179Y-130650951D01*
X156880213Y-130775890D01*
X156729890Y-130926213D01*
X156604951Y-131098179D01*
X156508444Y-131287585D01*
X156442753Y-131489760D01*
X156409500Y-131699713D01*
X156409500Y-131912286D01*
X147810500Y-131912286D01*
X147810500Y-131699713D01*
X147777246Y-131489757D01*
X147711557Y-131287588D01*
X147615051Y-131098184D01*
X147615049Y-131098181D01*
X147615048Y-131098179D01*
X147490109Y-130926213D01*
X147339786Y-130775890D01*
X147167820Y-130650951D01*
X146978414Y-130554444D01*
X146978413Y-130554443D01*
X146978412Y-130554443D01*
X146776243Y-130488754D01*
X146776241Y-130488753D01*
X146776240Y-130488753D01*
X146614957Y-130463208D01*
X146566287Y-130455500D01*
X145153713Y-130455500D01*
X145105042Y-130463208D01*
X144943760Y-130488753D01*
X144741585Y-130554444D01*
X144552179Y-130650951D01*
X144380213Y-130775890D01*
X144229890Y-130926213D01*
X144104951Y-131098179D01*
X144008444Y-131287585D01*
X143942753Y-131489760D01*
X143909500Y-131699713D01*
X143909500Y-131912286D01*
X129310500Y-131912286D01*
X129310500Y-131699713D01*
X129277246Y-131489757D01*
X129211557Y-131287588D01*
X129115051Y-131098184D01*
X129115049Y-131098181D01*
X129115048Y-131098179D01*
X128990109Y-130926213D01*
X128839786Y-130775890D01*
X128667820Y-130650951D01*
X128478414Y-130554444D01*
X128478413Y-130554443D01*
X128478412Y-130554443D01*
X128276243Y-130488754D01*
X128276241Y-130488753D01*
X128276240Y-130488753D01*
X128114957Y-130463208D01*
X128066287Y-130455500D01*
X126653713Y-130455500D01*
X126605042Y-130463208D01*
X126443760Y-130488753D01*
X126241585Y-130554444D01*
X126052179Y-130650951D01*
X125880213Y-130775890D01*
X125729890Y-130926213D01*
X125604951Y-131098179D01*
X125508444Y-131287585D01*
X125442753Y-131489760D01*
X125409500Y-131699713D01*
X125409500Y-131912286D01*
X116810500Y-131912286D01*
X116810500Y-131699713D01*
X116777246Y-131489757D01*
X116711557Y-131287588D01*
X116615051Y-131098184D01*
X116615049Y-131098181D01*
X116615048Y-131098179D01*
X116490109Y-130926213D01*
X116339786Y-130775890D01*
X116167820Y-130650951D01*
X115978414Y-130554444D01*
X115978413Y-130554443D01*
X115978412Y-130554443D01*
X115776243Y-130488754D01*
X115776241Y-130488753D01*
X115776240Y-130488753D01*
X115614957Y-130463208D01*
X115566287Y-130455500D01*
X114153713Y-130455500D01*
X114105042Y-130463208D01*
X113943760Y-130488753D01*
X113741585Y-130554444D01*
X113552179Y-130650951D01*
X113380213Y-130775890D01*
X113229890Y-130926213D01*
X113104951Y-131098179D01*
X113008444Y-131287585D01*
X112942753Y-131489760D01*
X112909500Y-131699713D01*
X112909500Y-131912286D01*
X110460500Y-131912286D01*
X110460500Y-127056000D01*
X112932769Y-127056000D01*
X112943242Y-127122126D01*
X112943242Y-127122129D01*
X113008904Y-127324217D01*
X113105379Y-127513557D01*
X113230272Y-127685459D01*
X113230276Y-127685464D01*
X113380535Y-127835723D01*
X113380540Y-127835727D01*
X113552442Y-127960620D01*
X113741782Y-128057095D01*
X113943870Y-128122757D01*
X114153754Y-128156000D01*
X114610000Y-128156000D01*
X114610000Y-127354482D01*
X114628409Y-127365111D01*
X114781009Y-127406000D01*
X114938991Y-127406000D01*
X115091591Y-127365111D01*
X115110000Y-127354482D01*
X115110000Y-128156000D01*
X115566246Y-128156000D01*
X115776127Y-128122757D01*
X115776130Y-128122757D01*
X115978217Y-128057095D01*
X116167557Y-127960620D01*
X116339459Y-127835727D01*
X116339464Y-127835723D01*
X116489723Y-127685464D01*
X116489727Y-127685459D01*
X116614620Y-127513557D01*
X116711095Y-127324217D01*
X116776757Y-127122129D01*
X116776757Y-127122126D01*
X116787231Y-127056000D01*
X125432769Y-127056000D01*
X125443242Y-127122126D01*
X125443242Y-127122129D01*
X125508904Y-127324217D01*
X125605379Y-127513557D01*
X125730272Y-127685459D01*
X125730276Y-127685464D01*
X125880535Y-127835723D01*
X125880540Y-127835727D01*
X126052442Y-127960620D01*
X126241782Y-128057095D01*
X126443870Y-128122757D01*
X126653754Y-128156000D01*
X127110000Y-128156000D01*
X127110000Y-127354482D01*
X127128409Y-127365111D01*
X127281009Y-127406000D01*
X127438991Y-127406000D01*
X127591591Y-127365111D01*
X127610000Y-127354482D01*
X127610000Y-128156000D01*
X128066246Y-128156000D01*
X128276127Y-128122757D01*
X128276130Y-128122757D01*
X128478217Y-128057095D01*
X128667557Y-127960620D01*
X128839459Y-127835727D01*
X128839464Y-127835723D01*
X128989723Y-127685464D01*
X128989727Y-127685459D01*
X129114620Y-127513557D01*
X129211095Y-127324217D01*
X129276757Y-127122129D01*
X129276757Y-127122126D01*
X129287231Y-127056000D01*
X143932769Y-127056000D01*
X143943242Y-127122126D01*
X143943242Y-127122129D01*
X144008904Y-127324217D01*
X144105379Y-127513557D01*
X144230272Y-127685459D01*
X144230276Y-127685464D01*
X144380535Y-127835723D01*
X144380540Y-127835727D01*
X144552442Y-127960620D01*
X144741782Y-128057095D01*
X144943870Y-128122757D01*
X145153754Y-128156000D01*
X145610000Y-128156000D01*
X145610000Y-127354482D01*
X145628409Y-127365111D01*
X145781009Y-127406000D01*
X145938991Y-127406000D01*
X146091591Y-127365111D01*
X146110000Y-127354482D01*
X146110000Y-128156000D01*
X146566246Y-128156000D01*
X146776127Y-128122757D01*
X146776130Y-128122757D01*
X146978217Y-128057095D01*
X147167557Y-127960620D01*
X147339459Y-127835727D01*
X147339464Y-127835723D01*
X147489723Y-127685464D01*
X147489727Y-127685459D01*
X147614620Y-127513557D01*
X147711095Y-127324217D01*
X147776757Y-127122129D01*
X147776757Y-127122126D01*
X147787231Y-127056000D01*
X156432769Y-127056000D01*
X156443242Y-127122126D01*
X156443242Y-127122129D01*
X156508904Y-127324217D01*
X156605379Y-127513557D01*
X156730272Y-127685459D01*
X156730276Y-127685464D01*
X156880535Y-127835723D01*
X156880540Y-127835727D01*
X157052442Y-127960620D01*
X157241782Y-128057095D01*
X157443870Y-128122757D01*
X157653754Y-128156000D01*
X158110000Y-128156000D01*
X158110000Y-127354482D01*
X158128409Y-127365111D01*
X158281009Y-127406000D01*
X158438991Y-127406000D01*
X158591591Y-127365111D01*
X158610000Y-127354482D01*
X158610000Y-128156000D01*
X159066246Y-128156000D01*
X159276127Y-128122757D01*
X159276130Y-128122757D01*
X159478217Y-128057095D01*
X159667557Y-127960620D01*
X159839459Y-127835727D01*
X159839464Y-127835723D01*
X159989723Y-127685464D01*
X159989727Y-127685459D01*
X160114620Y-127513557D01*
X160211095Y-127324217D01*
X160276757Y-127122129D01*
X160276757Y-127122126D01*
X160287231Y-127056000D01*
X164682769Y-127056000D01*
X164693242Y-127122126D01*
X164693242Y-127122129D01*
X164758904Y-127324217D01*
X164855379Y-127513557D01*
X164980272Y-127685459D01*
X164980276Y-127685464D01*
X165130535Y-127835723D01*
X165130540Y-127835727D01*
X165302442Y-127960620D01*
X165491782Y-128057095D01*
X165693870Y-128122757D01*
X165903754Y-128156000D01*
X166360000Y-128156000D01*
X166360000Y-127354482D01*
X166378409Y-127365111D01*
X166531009Y-127406000D01*
X166688991Y-127406000D01*
X166841591Y-127365111D01*
X166860000Y-127354482D01*
X166860000Y-128156000D01*
X167316246Y-128156000D01*
X167526127Y-128122757D01*
X167526130Y-128122757D01*
X167728217Y-128057095D01*
X167917557Y-127960620D01*
X168089459Y-127835727D01*
X168089464Y-127835723D01*
X168239723Y-127685464D01*
X168239727Y-127685459D01*
X168364620Y-127513557D01*
X168461095Y-127324217D01*
X168526757Y-127122129D01*
X168526757Y-127122126D01*
X168537231Y-127056000D01*
X177182769Y-127056000D01*
X177193242Y-127122126D01*
X177193242Y-127122129D01*
X177258904Y-127324217D01*
X177355379Y-127513557D01*
X177480272Y-127685459D01*
X177480276Y-127685464D01*
X177630535Y-127835723D01*
X177630540Y-127835727D01*
X177802442Y-127960620D01*
X177991782Y-128057095D01*
X178193870Y-128122757D01*
X178403754Y-128156000D01*
X178860000Y-128156000D01*
X178860000Y-127354482D01*
X178878409Y-127365111D01*
X179031009Y-127406000D01*
X179188991Y-127406000D01*
X179341591Y-127365111D01*
X179360000Y-127354482D01*
X179360000Y-128156000D01*
X179816246Y-128156000D01*
X180026127Y-128122757D01*
X180026130Y-128122757D01*
X180228217Y-128057095D01*
X180417557Y-127960620D01*
X180589459Y-127835727D01*
X180589464Y-127835723D01*
X180739723Y-127685464D01*
X180739727Y-127685459D01*
X180864620Y-127513557D01*
X180961095Y-127324217D01*
X181026757Y-127122129D01*
X181026757Y-127122126D01*
X181037231Y-127056000D01*
X179658482Y-127056000D01*
X179669111Y-127037591D01*
X179710000Y-126884991D01*
X179710000Y-126727009D01*
X179669111Y-126574409D01*
X179658482Y-126556000D01*
X181037231Y-126556000D01*
X181026757Y-126489873D01*
X181026757Y-126489870D01*
X180961095Y-126287782D01*
X180864620Y-126098442D01*
X180739727Y-125926540D01*
X180739723Y-125926535D01*
X180589464Y-125776276D01*
X180589459Y-125776272D01*
X180417557Y-125651379D01*
X180228217Y-125554904D01*
X180026129Y-125489242D01*
X179816246Y-125456000D01*
X179360000Y-125456000D01*
X179360000Y-126257517D01*
X179341591Y-126246889D01*
X179188991Y-126206000D01*
X179031009Y-126206000D01*
X178878409Y-126246889D01*
X178860000Y-126257517D01*
X178860000Y-125456000D01*
X178403754Y-125456000D01*
X178193872Y-125489242D01*
X178193869Y-125489242D01*
X177991782Y-125554904D01*
X177802442Y-125651379D01*
X177630540Y-125776272D01*
X177630535Y-125776276D01*
X177480276Y-125926535D01*
X177480272Y-125926540D01*
X177355379Y-126098442D01*
X177258904Y-126287782D01*
X177193242Y-126489870D01*
X177193242Y-126489873D01*
X177182769Y-126556000D01*
X178561518Y-126556000D01*
X178550889Y-126574409D01*
X178510000Y-126727009D01*
X178510000Y-126884991D01*
X178550889Y-127037591D01*
X178561518Y-127056000D01*
X177182769Y-127056000D01*
X168537231Y-127056000D01*
X167158482Y-127056000D01*
X167169111Y-127037591D01*
X167210000Y-126884991D01*
X167210000Y-126727009D01*
X167169111Y-126574409D01*
X167158482Y-126556000D01*
X168537231Y-126556000D01*
X168526757Y-126489873D01*
X168526757Y-126489870D01*
X168461095Y-126287782D01*
X168364620Y-126098442D01*
X168239727Y-125926540D01*
X168239723Y-125926535D01*
X168089464Y-125776276D01*
X168089459Y-125776272D01*
X167917557Y-125651379D01*
X167728217Y-125554904D01*
X167526129Y-125489242D01*
X167316246Y-125456000D01*
X166860000Y-125456000D01*
X166860000Y-126257517D01*
X166841591Y-126246889D01*
X166688991Y-126206000D01*
X166531009Y-126206000D01*
X166378409Y-126246889D01*
X166360000Y-126257517D01*
X166360000Y-125456000D01*
X165903754Y-125456000D01*
X165693872Y-125489242D01*
X165693869Y-125489242D01*
X165491782Y-125554904D01*
X165302442Y-125651379D01*
X165130540Y-125776272D01*
X165130535Y-125776276D01*
X164980276Y-125926535D01*
X164980272Y-125926540D01*
X164855379Y-126098442D01*
X164758904Y-126287782D01*
X164693242Y-126489870D01*
X164693242Y-126489873D01*
X164682769Y-126556000D01*
X166061518Y-126556000D01*
X166050889Y-126574409D01*
X166010000Y-126727009D01*
X166010000Y-126884991D01*
X166050889Y-127037591D01*
X166061518Y-127056000D01*
X164682769Y-127056000D01*
X160287231Y-127056000D01*
X158908482Y-127056000D01*
X158919111Y-127037591D01*
X158960000Y-126884991D01*
X158960000Y-126727009D01*
X158919111Y-126574409D01*
X158908482Y-126556000D01*
X160287231Y-126556000D01*
X160276757Y-126489873D01*
X160276757Y-126489870D01*
X160211095Y-126287782D01*
X160114620Y-126098442D01*
X159989727Y-125926540D01*
X159989723Y-125926535D01*
X159839464Y-125776276D01*
X159839459Y-125776272D01*
X159667557Y-125651379D01*
X159478217Y-125554904D01*
X159276129Y-125489242D01*
X159066246Y-125456000D01*
X158610000Y-125456000D01*
X158610000Y-126257517D01*
X158591591Y-126246889D01*
X158438991Y-126206000D01*
X158281009Y-126206000D01*
X158128409Y-126246889D01*
X158110000Y-126257517D01*
X158110000Y-125456000D01*
X157653754Y-125456000D01*
X157443872Y-125489242D01*
X157443869Y-125489242D01*
X157241782Y-125554904D01*
X157052442Y-125651379D01*
X156880540Y-125776272D01*
X156880535Y-125776276D01*
X156730276Y-125926535D01*
X156730272Y-125926540D01*
X156605379Y-126098442D01*
X156508904Y-126287782D01*
X156443242Y-126489870D01*
X156443242Y-126489873D01*
X156432769Y-126556000D01*
X157811518Y-126556000D01*
X157800889Y-126574409D01*
X157760000Y-126727009D01*
X157760000Y-126884991D01*
X157800889Y-127037591D01*
X157811518Y-127056000D01*
X156432769Y-127056000D01*
X147787231Y-127056000D01*
X146408482Y-127056000D01*
X146419111Y-127037591D01*
X146460000Y-126884991D01*
X146460000Y-126727009D01*
X146419111Y-126574409D01*
X146408482Y-126556000D01*
X147787231Y-126556000D01*
X147776757Y-126489873D01*
X147776757Y-126489870D01*
X147711095Y-126287782D01*
X147614620Y-126098442D01*
X147489727Y-125926540D01*
X147489723Y-125926535D01*
X147339464Y-125776276D01*
X147339459Y-125776272D01*
X147167557Y-125651379D01*
X146978217Y-125554904D01*
X146776129Y-125489242D01*
X146566246Y-125456000D01*
X146110000Y-125456000D01*
X146110000Y-126257517D01*
X146091591Y-126246889D01*
X145938991Y-126206000D01*
X145781009Y-126206000D01*
X145628409Y-126246889D01*
X145610000Y-126257517D01*
X145610000Y-125456000D01*
X145153754Y-125456000D01*
X144943872Y-125489242D01*
X144943869Y-125489242D01*
X144741782Y-125554904D01*
X144552442Y-125651379D01*
X144380540Y-125776272D01*
X144380535Y-125776276D01*
X144230276Y-125926535D01*
X144230272Y-125926540D01*
X144105379Y-126098442D01*
X144008904Y-126287782D01*
X143943242Y-126489870D01*
X143943242Y-126489873D01*
X143932769Y-126556000D01*
X145311518Y-126556000D01*
X145300889Y-126574409D01*
X145260000Y-126727009D01*
X145260000Y-126884991D01*
X145300889Y-127037591D01*
X145311518Y-127056000D01*
X143932769Y-127056000D01*
X129287231Y-127056000D01*
X127908482Y-127056000D01*
X127919111Y-127037591D01*
X127960000Y-126884991D01*
X127960000Y-126727009D01*
X127919111Y-126574409D01*
X127908482Y-126556000D01*
X129287231Y-126556000D01*
X129276757Y-126489873D01*
X129276757Y-126489870D01*
X129211095Y-126287782D01*
X129114620Y-126098442D01*
X128989727Y-125926540D01*
X128989723Y-125926535D01*
X128839464Y-125776276D01*
X128839459Y-125776272D01*
X128667557Y-125651379D01*
X128478217Y-125554904D01*
X128276129Y-125489242D01*
X128066246Y-125456000D01*
X127610000Y-125456000D01*
X127610000Y-126257517D01*
X127591591Y-126246889D01*
X127438991Y-126206000D01*
X127281009Y-126206000D01*
X127128409Y-126246889D01*
X127110000Y-126257517D01*
X127110000Y-125456000D01*
X126653754Y-125456000D01*
X126443872Y-125489242D01*
X126443869Y-125489242D01*
X126241782Y-125554904D01*
X126052442Y-125651379D01*
X125880540Y-125776272D01*
X125880535Y-125776276D01*
X125730276Y-125926535D01*
X125730272Y-125926540D01*
X125605379Y-126098442D01*
X125508904Y-126287782D01*
X125443242Y-126489870D01*
X125443242Y-126489873D01*
X125432769Y-126556000D01*
X126811518Y-126556000D01*
X126800889Y-126574409D01*
X126760000Y-126727009D01*
X126760000Y-126884991D01*
X126800889Y-127037591D01*
X126811518Y-127056000D01*
X125432769Y-127056000D01*
X116787231Y-127056000D01*
X115408482Y-127056000D01*
X115419111Y-127037591D01*
X115460000Y-126884991D01*
X115460000Y-126727009D01*
X115419111Y-126574409D01*
X115408482Y-126556000D01*
X116787231Y-126556000D01*
X116776757Y-126489873D01*
X116776757Y-126489870D01*
X116711095Y-126287782D01*
X116614620Y-126098442D01*
X116489727Y-125926540D01*
X116489723Y-125926535D01*
X116339464Y-125776276D01*
X116339459Y-125776272D01*
X116167557Y-125651379D01*
X115978217Y-125554904D01*
X115776129Y-125489242D01*
X115566246Y-125456000D01*
X115110000Y-125456000D01*
X115110000Y-126257517D01*
X115091591Y-126246889D01*
X114938991Y-126206000D01*
X114781009Y-126206000D01*
X114628409Y-126246889D01*
X114610000Y-126257517D01*
X114610000Y-125456000D01*
X114153754Y-125456000D01*
X113943872Y-125489242D01*
X113943869Y-125489242D01*
X113741782Y-125554904D01*
X113552442Y-125651379D01*
X113380540Y-125776272D01*
X113380535Y-125776276D01*
X113230276Y-125926535D01*
X113230272Y-125926540D01*
X113105379Y-126098442D01*
X113008904Y-126287782D01*
X112943242Y-126489870D01*
X112943242Y-126489873D01*
X112932769Y-126556000D01*
X114311518Y-126556000D01*
X114300889Y-126574409D01*
X114260000Y-126727009D01*
X114260000Y-126884991D01*
X114300889Y-127037591D01*
X114311518Y-127056000D01*
X112932769Y-127056000D01*
X110460500Y-127056000D01*
X110460500Y-124896551D01*
X119959500Y-124896551D01*
X119987829Y-125075410D01*
X120043787Y-125247636D01*
X120043788Y-125247639D01*
X120126006Y-125408997D01*
X120232441Y-125555494D01*
X120232445Y-125555499D01*
X120360500Y-125683554D01*
X120360505Y-125683558D01*
X120488116Y-125776272D01*
X120507006Y-125789996D01*
X120612484Y-125843740D01*
X120668360Y-125872211D01*
X120668363Y-125872212D01*
X120754476Y-125900191D01*
X120840591Y-125928171D01*
X120923429Y-125941291D01*
X121019449Y-125956500D01*
X121019454Y-125956500D01*
X121200551Y-125956500D01*
X121287259Y-125942765D01*
X121379409Y-125928171D01*
X121551639Y-125872211D01*
X121712994Y-125789996D01*
X121859501Y-125683553D01*
X121987553Y-125555501D01*
X122093996Y-125408994D01*
X122176211Y-125247639D01*
X122232171Y-125075409D01*
X122246765Y-124983259D01*
X122260500Y-124896551D01*
X150959500Y-124896551D01*
X150987829Y-125075410D01*
X151043787Y-125247636D01*
X151043788Y-125247639D01*
X151126006Y-125408997D01*
X151232441Y-125555494D01*
X151232445Y-125555499D01*
X151360500Y-125683554D01*
X151360505Y-125683558D01*
X151488116Y-125776272D01*
X151507006Y-125789996D01*
X151612484Y-125843740D01*
X151668360Y-125872211D01*
X151668363Y-125872212D01*
X151754476Y-125900191D01*
X151840591Y-125928171D01*
X151923429Y-125941291D01*
X152019449Y-125956500D01*
X152019454Y-125956500D01*
X152200551Y-125956500D01*
X152287259Y-125942765D01*
X152379409Y-125928171D01*
X152551639Y-125872211D01*
X152712994Y-125789996D01*
X152859501Y-125683553D01*
X152987553Y-125555501D01*
X153093996Y-125408994D01*
X153176211Y-125247639D01*
X153232171Y-125075409D01*
X153246765Y-124983259D01*
X153260500Y-124896551D01*
X171709500Y-124896551D01*
X171737829Y-125075410D01*
X171793787Y-125247636D01*
X171793788Y-125247639D01*
X171876006Y-125408997D01*
X171982441Y-125555494D01*
X171982445Y-125555499D01*
X172110500Y-125683554D01*
X172110505Y-125683558D01*
X172238116Y-125776272D01*
X172257006Y-125789996D01*
X172362484Y-125843740D01*
X172418360Y-125872211D01*
X172418363Y-125872212D01*
X172504476Y-125900191D01*
X172590591Y-125928171D01*
X172673429Y-125941291D01*
X172769449Y-125956500D01*
X172769454Y-125956500D01*
X172950551Y-125956500D01*
X173037259Y-125942765D01*
X173129409Y-125928171D01*
X173301639Y-125872211D01*
X173462994Y-125789996D01*
X173609501Y-125683553D01*
X173737553Y-125555501D01*
X173843996Y-125408994D01*
X173926211Y-125247639D01*
X173982171Y-125075409D01*
X173996765Y-124983259D01*
X174010500Y-124896551D01*
X174010500Y-124715448D01*
X173994019Y-124611397D01*
X173982171Y-124536591D01*
X173926211Y-124364361D01*
X173926211Y-124364360D01*
X173897740Y-124308484D01*
X173843996Y-124203006D01*
X173830396Y-124184287D01*
X173737558Y-124056505D01*
X173737554Y-124056500D01*
X173609499Y-123928445D01*
X173609494Y-123928441D01*
X173462997Y-123822006D01*
X173462996Y-123822005D01*
X173462994Y-123822004D01*
X173411300Y-123795664D01*
X173301639Y-123739788D01*
X173301636Y-123739787D01*
X173129410Y-123683829D01*
X172950551Y-123655500D01*
X172950546Y-123655500D01*
X172769454Y-123655500D01*
X172769449Y-123655500D01*
X172590589Y-123683829D01*
X172418363Y-123739787D01*
X172418360Y-123739788D01*
X172257002Y-123822006D01*
X172110505Y-123928441D01*
X172110500Y-123928445D01*
X171982445Y-124056500D01*
X171982441Y-124056505D01*
X171876006Y-124203002D01*
X171793788Y-124364360D01*
X171793787Y-124364363D01*
X171737829Y-124536589D01*
X171709500Y-124715448D01*
X171709500Y-124896551D01*
X153260500Y-124896551D01*
X153260500Y-124715448D01*
X153244019Y-124611397D01*
X153232171Y-124536591D01*
X153176211Y-124364361D01*
X153176211Y-124364360D01*
X153147740Y-124308484D01*
X153093996Y-124203006D01*
X153080396Y-124184287D01*
X152987558Y-124056505D01*
X152987554Y-124056500D01*
X152859499Y-123928445D01*
X152859494Y-123928441D01*
X152712997Y-123822006D01*
X152712996Y-123822005D01*
X152712994Y-123822004D01*
X152661300Y-123795664D01*
X152551639Y-123739788D01*
X152551636Y-123739787D01*
X152379410Y-123683829D01*
X152200551Y-123655500D01*
X152200546Y-123655500D01*
X152019454Y-123655500D01*
X152019449Y-123655500D01*
X151840589Y-123683829D01*
X151668363Y-123739787D01*
X151668360Y-123739788D01*
X151507002Y-123822006D01*
X151360505Y-123928441D01*
X151360500Y-123928445D01*
X151232445Y-124056500D01*
X151232441Y-124056505D01*
X151126006Y-124203002D01*
X151043788Y-124364360D01*
X151043787Y-124364363D01*
X150987829Y-124536589D01*
X150959500Y-124715448D01*
X150959500Y-124896551D01*
X122260500Y-124896551D01*
X122260500Y-124715448D01*
X122244019Y-124611397D01*
X122232171Y-124536591D01*
X122176211Y-124364361D01*
X122176211Y-124364360D01*
X122147740Y-124308484D01*
X122093996Y-124203006D01*
X122080396Y-124184287D01*
X121987558Y-124056505D01*
X121987554Y-124056500D01*
X121859499Y-123928445D01*
X121859494Y-123928441D01*
X121712997Y-123822006D01*
X121712996Y-123822005D01*
X121712994Y-123822004D01*
X121661300Y-123795664D01*
X121551639Y-123739788D01*
X121551636Y-123739787D01*
X121379410Y-123683829D01*
X121200551Y-123655500D01*
X121200546Y-123655500D01*
X121019454Y-123655500D01*
X121019449Y-123655500D01*
X120840589Y-123683829D01*
X120668363Y-123739787D01*
X120668360Y-123739788D01*
X120507002Y-123822006D01*
X120360505Y-123928441D01*
X120360500Y-123928445D01*
X120232445Y-124056500D01*
X120232441Y-124056505D01*
X120126006Y-124203002D01*
X120043788Y-124364360D01*
X120043787Y-124364363D01*
X119987829Y-124536589D01*
X119959500Y-124715448D01*
X119959500Y-124896551D01*
X110460500Y-124896551D01*
X110460500Y-119396551D01*
X135459500Y-119396551D01*
X135487829Y-119575410D01*
X135543787Y-119747636D01*
X135543788Y-119747639D01*
X135562950Y-119785245D01*
X135624733Y-119906500D01*
X135626006Y-119908997D01*
X135732441Y-120055494D01*
X135732445Y-120055499D01*
X135860500Y-120183554D01*
X135860505Y-120183558D01*
X135988287Y-120276396D01*
X136007006Y-120289996D01*
X136112484Y-120343740D01*
X136168360Y-120372211D01*
X136168363Y-120372212D01*
X136254476Y-120400191D01*
X136340591Y-120428171D01*
X136423429Y-120441291D01*
X136519449Y-120456500D01*
X136519454Y-120456500D01*
X136700551Y-120456500D01*
X136787259Y-120442765D01*
X136879409Y-120428171D01*
X137051639Y-120372211D01*
X137212994Y-120289996D01*
X137359501Y-120183553D01*
X137487553Y-120055501D01*
X137593996Y-119908994D01*
X137676211Y-119747639D01*
X137732171Y-119575409D01*
X137760419Y-119397060D01*
X137760500Y-119396551D01*
X137760500Y-119215448D01*
X137744019Y-119111397D01*
X137732171Y-119036591D01*
X137696738Y-118927537D01*
X137689740Y-118906000D01*
X153354357Y-118906000D01*
X153374884Y-119127535D01*
X153374885Y-119127537D01*
X153435769Y-119341523D01*
X153435775Y-119341538D01*
X153534938Y-119540683D01*
X153534943Y-119540691D01*
X153669020Y-119718238D01*
X153833437Y-119868123D01*
X153833439Y-119868125D01*
X154022595Y-119985245D01*
X154022596Y-119985245D01*
X154022599Y-119985247D01*
X154230060Y-120065618D01*
X154448757Y-120106500D01*
X154448759Y-120106500D01*
X154671241Y-120106500D01*
X154671243Y-120106500D01*
X154889940Y-120065618D01*
X155097401Y-119985247D01*
X155286562Y-119868124D01*
X155450981Y-119718236D01*
X155511047Y-119638695D01*
X155567154Y-119597060D01*
X155636866Y-119592368D01*
X155698048Y-119626110D01*
X155708947Y-119638688D01*
X155769019Y-119718236D01*
X155769021Y-119718238D01*
X155933437Y-119868123D01*
X155933439Y-119868125D01*
X156122595Y-119985245D01*
X156122596Y-119985245D01*
X156122599Y-119985247D01*
X156330060Y-120065618D01*
X156548757Y-120106500D01*
X156548759Y-120106500D01*
X156771241Y-120106500D01*
X156771243Y-120106500D01*
X156989940Y-120065618D01*
X157197401Y-119985247D01*
X157386562Y-119868124D01*
X157550981Y-119718236D01*
X157685058Y-119540689D01*
X157784229Y-119341528D01*
X157845115Y-119127536D01*
X157865643Y-118906000D01*
X157847111Y-118706000D01*
X171554357Y-118706000D01*
X171574884Y-118927535D01*
X171574885Y-118927537D01*
X171635769Y-119141523D01*
X171635775Y-119141538D01*
X171734938Y-119340683D01*
X171734943Y-119340691D01*
X171869020Y-119518238D01*
X172033437Y-119668123D01*
X172033439Y-119668125D01*
X172222595Y-119785245D01*
X172222596Y-119785245D01*
X172222599Y-119785247D01*
X172430060Y-119865618D01*
X172648757Y-119906500D01*
X172648759Y-119906500D01*
X172871241Y-119906500D01*
X172871243Y-119906500D01*
X173089940Y-119865618D01*
X173297401Y-119785247D01*
X173486562Y-119668124D01*
X173650981Y-119518236D01*
X173711047Y-119438695D01*
X173767154Y-119397060D01*
X173836866Y-119392368D01*
X173898048Y-119426110D01*
X173908947Y-119438688D01*
X173948149Y-119490599D01*
X173969021Y-119518238D01*
X174133437Y-119668123D01*
X174133439Y-119668125D01*
X174322595Y-119785245D01*
X174322596Y-119785245D01*
X174322599Y-119785247D01*
X174530060Y-119865618D01*
X174748757Y-119906500D01*
X174748759Y-119906500D01*
X174971241Y-119906500D01*
X174971243Y-119906500D01*
X175189940Y-119865618D01*
X175397401Y-119785247D01*
X175586562Y-119668124D01*
X175750981Y-119518236D01*
X175885058Y-119340689D01*
X175984229Y-119141528D01*
X176045115Y-118927536D01*
X176065643Y-118706000D01*
X176063647Y-118684464D01*
X176045115Y-118484464D01*
X176045114Y-118484462D01*
X176041130Y-118470461D01*
X175984229Y-118270472D01*
X175968951Y-118239789D01*
X175885061Y-118071316D01*
X175885056Y-118071308D01*
X175750979Y-117893761D01*
X175586562Y-117743876D01*
X175586560Y-117743874D01*
X175397404Y-117626754D01*
X175397398Y-117626752D01*
X175385759Y-117622243D01*
X175189940Y-117546382D01*
X174971243Y-117505500D01*
X174748757Y-117505500D01*
X174530060Y-117546382D01*
X174398864Y-117597207D01*
X174322601Y-117626752D01*
X174322595Y-117626754D01*
X174133439Y-117743874D01*
X174133437Y-117743876D01*
X173969020Y-117893761D01*
X173908954Y-117973303D01*
X173852845Y-118014939D01*
X173783133Y-118019630D01*
X173721951Y-117985888D01*
X173711046Y-117973303D01*
X173650979Y-117893761D01*
X173486562Y-117743876D01*
X173486560Y-117743874D01*
X173297404Y-117626754D01*
X173297398Y-117626752D01*
X173285759Y-117622243D01*
X173089940Y-117546382D01*
X172871243Y-117505500D01*
X172648757Y-117505500D01*
X172430060Y-117546382D01*
X172298864Y-117597207D01*
X172222601Y-117626752D01*
X172222595Y-117626754D01*
X172033439Y-117743874D01*
X172033437Y-117743876D01*
X171869020Y-117893761D01*
X171734943Y-118071308D01*
X171734938Y-118071316D01*
X171635775Y-118270461D01*
X171635769Y-118270476D01*
X171574885Y-118484462D01*
X171574884Y-118484464D01*
X171554357Y-118705999D01*
X171554357Y-118706000D01*
X157847111Y-118706000D01*
X157845115Y-118684464D01*
X157784229Y-118470472D01*
X157779538Y-118461051D01*
X157685061Y-118271316D01*
X157685056Y-118271308D01*
X157550979Y-118093761D01*
X157386562Y-117943876D01*
X157386560Y-117943874D01*
X157197404Y-117826754D01*
X157197398Y-117826752D01*
X157191358Y-117824412D01*
X156989940Y-117746382D01*
X156771243Y-117705500D01*
X156548757Y-117705500D01*
X156330060Y-117746382D01*
X156198864Y-117797207D01*
X156122601Y-117826752D01*
X156122595Y-117826754D01*
X155933439Y-117943874D01*
X155933437Y-117943876D01*
X155769020Y-118093761D01*
X155708954Y-118173303D01*
X155652845Y-118214939D01*
X155583133Y-118219630D01*
X155521951Y-118185888D01*
X155511046Y-118173303D01*
X155450979Y-118093761D01*
X155286562Y-117943876D01*
X155286560Y-117943874D01*
X155097404Y-117826754D01*
X155097398Y-117826752D01*
X155091358Y-117824412D01*
X154889940Y-117746382D01*
X154671243Y-117705500D01*
X154448757Y-117705500D01*
X154230060Y-117746382D01*
X154098864Y-117797207D01*
X154022601Y-117826752D01*
X154022595Y-117826754D01*
X153833439Y-117943874D01*
X153833437Y-117943876D01*
X153669020Y-118093761D01*
X153534943Y-118271308D01*
X153534938Y-118271316D01*
X153435775Y-118470461D01*
X153435769Y-118470476D01*
X153374885Y-118684462D01*
X153374884Y-118684464D01*
X153354357Y-118905999D01*
X153354357Y-118906000D01*
X137689740Y-118906000D01*
X137676212Y-118864363D01*
X137676211Y-118864360D01*
X137647740Y-118808484D01*
X137593996Y-118703006D01*
X137560208Y-118656500D01*
X137487558Y-118556505D01*
X137487554Y-118556500D01*
X137359499Y-118428445D01*
X137359494Y-118428441D01*
X137212997Y-118322006D01*
X137212996Y-118322005D01*
X137212994Y-118322004D01*
X137161300Y-118295664D01*
X137051639Y-118239788D01*
X137051636Y-118239787D01*
X136879410Y-118183829D01*
X136700551Y-118155500D01*
X136700546Y-118155500D01*
X136519454Y-118155500D01*
X136519449Y-118155500D01*
X136340589Y-118183829D01*
X136168363Y-118239787D01*
X136168360Y-118239788D01*
X136007002Y-118322006D01*
X135860505Y-118428441D01*
X135860500Y-118428445D01*
X135732445Y-118556500D01*
X135732441Y-118556505D01*
X135626006Y-118703002D01*
X135543788Y-118864360D01*
X135543787Y-118864363D01*
X135487829Y-119036589D01*
X135459500Y-119215448D01*
X135459500Y-119396551D01*
X110460500Y-119396551D01*
X110460500Y-117412287D01*
X128409500Y-117412287D01*
X128442754Y-117622243D01*
X128483089Y-117746382D01*
X128508444Y-117824414D01*
X128604951Y-118013820D01*
X128729890Y-118185786D01*
X128880213Y-118336109D01*
X129052179Y-118461048D01*
X129052181Y-118461049D01*
X129052184Y-118461051D01*
X129241588Y-118557557D01*
X129443757Y-118623246D01*
X129653713Y-118656500D01*
X129653714Y-118656500D01*
X131066286Y-118656500D01*
X131066287Y-118656500D01*
X131276243Y-118623246D01*
X131478412Y-118557557D01*
X131667816Y-118461051D01*
X131712700Y-118428441D01*
X131839786Y-118336109D01*
X131839788Y-118336106D01*
X131839792Y-118336104D01*
X131990104Y-118185792D01*
X131990106Y-118185788D01*
X131990109Y-118185786D01*
X132115048Y-118013820D01*
X132115047Y-118013820D01*
X132115051Y-118013816D01*
X132211557Y-117824412D01*
X132277246Y-117622243D01*
X132310500Y-117412287D01*
X140909500Y-117412287D01*
X140942754Y-117622243D01*
X140983089Y-117746382D01*
X141008444Y-117824414D01*
X141104951Y-118013820D01*
X141229890Y-118185786D01*
X141380213Y-118336109D01*
X141552179Y-118461048D01*
X141552181Y-118461049D01*
X141552184Y-118461051D01*
X141741588Y-118557557D01*
X141943757Y-118623246D01*
X142153713Y-118656500D01*
X142153714Y-118656500D01*
X143566286Y-118656500D01*
X143566287Y-118656500D01*
X143776243Y-118623246D01*
X143978412Y-118557557D01*
X144167816Y-118461051D01*
X144212700Y-118428441D01*
X144339786Y-118336109D01*
X144339788Y-118336106D01*
X144339792Y-118336104D01*
X144490104Y-118185792D01*
X144490106Y-118185788D01*
X144490109Y-118185786D01*
X144615048Y-118013820D01*
X144615047Y-118013820D01*
X144615051Y-118013816D01*
X144711557Y-117824412D01*
X144777246Y-117622243D01*
X144810500Y-117412287D01*
X144810500Y-117199713D01*
X144777246Y-116989757D01*
X144711557Y-116787588D01*
X144615051Y-116598184D01*
X144615049Y-116598181D01*
X144615048Y-116598179D01*
X144490109Y-116426213D01*
X144339786Y-116275890D01*
X144167820Y-116150951D01*
X143978414Y-116054444D01*
X143978413Y-116054443D01*
X143978412Y-116054443D01*
X143776243Y-115988754D01*
X143776241Y-115988753D01*
X143776240Y-115988753D01*
X143614957Y-115963208D01*
X143566287Y-115955500D01*
X142153713Y-115955500D01*
X142105042Y-115963208D01*
X141943760Y-115988753D01*
X141741585Y-116054444D01*
X141552179Y-116150951D01*
X141380213Y-116275890D01*
X141229890Y-116426213D01*
X141104951Y-116598179D01*
X141008444Y-116787585D01*
X140942753Y-116989760D01*
X140909500Y-117199713D01*
X140909500Y-117412287D01*
X132310500Y-117412287D01*
X132310500Y-117199713D01*
X132277246Y-116989757D01*
X132211557Y-116787588D01*
X132115051Y-116598184D01*
X132115049Y-116598181D01*
X132115048Y-116598179D01*
X131990109Y-116426213D01*
X131839786Y-116275890D01*
X131667820Y-116150951D01*
X131478414Y-116054444D01*
X131478413Y-116054443D01*
X131478412Y-116054443D01*
X131276243Y-115988754D01*
X131276241Y-115988753D01*
X131276240Y-115988753D01*
X131114957Y-115963208D01*
X131066287Y-115955500D01*
X129653713Y-115955500D01*
X129605042Y-115963208D01*
X129443760Y-115988753D01*
X129241585Y-116054444D01*
X129052179Y-116150951D01*
X128880213Y-116275890D01*
X128729890Y-116426213D01*
X128604951Y-116598179D01*
X128508444Y-116787585D01*
X128442753Y-116989760D01*
X128409500Y-117199713D01*
X128409500Y-117412287D01*
X110460500Y-117412287D01*
X110460500Y-112556000D01*
X128432769Y-112556000D01*
X128443242Y-112622126D01*
X128443242Y-112622129D01*
X128508904Y-112824217D01*
X128605379Y-113013557D01*
X128730272Y-113185459D01*
X128730276Y-113185464D01*
X128880535Y-113335723D01*
X128880540Y-113335727D01*
X129052442Y-113460620D01*
X129241782Y-113557095D01*
X129443870Y-113622757D01*
X129653754Y-113656000D01*
X130110000Y-113656000D01*
X130110000Y-112854482D01*
X130128409Y-112865111D01*
X130281009Y-112906000D01*
X130438991Y-112906000D01*
X130591591Y-112865111D01*
X130610000Y-112854482D01*
X130610000Y-113656000D01*
X131066246Y-113656000D01*
X131276127Y-113622757D01*
X131276130Y-113622757D01*
X131478217Y-113557095D01*
X131667557Y-113460620D01*
X131839459Y-113335727D01*
X131839464Y-113335723D01*
X131989723Y-113185464D01*
X131989727Y-113185459D01*
X132114620Y-113013557D01*
X132211095Y-112824217D01*
X132276757Y-112622129D01*
X132276757Y-112622126D01*
X132287231Y-112556000D01*
X140932769Y-112556000D01*
X140943242Y-112622126D01*
X140943242Y-112622129D01*
X141008904Y-112824217D01*
X141105379Y-113013557D01*
X141230272Y-113185459D01*
X141230276Y-113185464D01*
X141380535Y-113335723D01*
X141380540Y-113335727D01*
X141552442Y-113460620D01*
X141741782Y-113557095D01*
X141943870Y-113622757D01*
X142153754Y-113656000D01*
X142610000Y-113656000D01*
X142610000Y-112854482D01*
X142628409Y-112865111D01*
X142781009Y-112906000D01*
X142938991Y-112906000D01*
X143091591Y-112865111D01*
X143110000Y-112854482D01*
X143110000Y-113656000D01*
X143566246Y-113656000D01*
X143776127Y-113622757D01*
X143776130Y-113622757D01*
X143978217Y-113557095D01*
X144167557Y-113460620D01*
X144339459Y-113335727D01*
X144339464Y-113335723D01*
X144489723Y-113185464D01*
X144489727Y-113185459D01*
X144614620Y-113013557D01*
X144711095Y-112824217D01*
X144776757Y-112622129D01*
X144776757Y-112622126D01*
X144787231Y-112556000D01*
X143408482Y-112556000D01*
X143419111Y-112537591D01*
X143460000Y-112384991D01*
X143460000Y-112227009D01*
X143419111Y-112074409D01*
X143408482Y-112056000D01*
X144787231Y-112056000D01*
X144776757Y-111989873D01*
X144776757Y-111989870D01*
X144711095Y-111787782D01*
X144614620Y-111598442D01*
X144489727Y-111426540D01*
X144489723Y-111426535D01*
X144349188Y-111286000D01*
X153354357Y-111286000D01*
X153374884Y-111507535D01*
X153374885Y-111507537D01*
X153435769Y-111721523D01*
X153435775Y-111721538D01*
X153534938Y-111920683D01*
X153534943Y-111920691D01*
X153669020Y-112098238D01*
X153833437Y-112248123D01*
X153833439Y-112248125D01*
X154022595Y-112365245D01*
X154022596Y-112365245D01*
X154022599Y-112365247D01*
X154230060Y-112445618D01*
X154448757Y-112486500D01*
X154448759Y-112486500D01*
X154671241Y-112486500D01*
X154671243Y-112486500D01*
X154889940Y-112445618D01*
X155097401Y-112365247D01*
X155286562Y-112248124D01*
X155450981Y-112098236D01*
X155511047Y-112018695D01*
X155567154Y-111977060D01*
X155636866Y-111972368D01*
X155698048Y-112006110D01*
X155708947Y-112018688D01*
X155751026Y-112074409D01*
X155769021Y-112098238D01*
X155933437Y-112248123D01*
X155933439Y-112248125D01*
X156122595Y-112365245D01*
X156122596Y-112365245D01*
X156122599Y-112365247D01*
X156330060Y-112445618D01*
X156548757Y-112486500D01*
X156548759Y-112486500D01*
X156771241Y-112486500D01*
X156771243Y-112486500D01*
X156989940Y-112445618D01*
X157197401Y-112365247D01*
X157386562Y-112248124D01*
X157550981Y-112098236D01*
X157685058Y-111920689D01*
X157784229Y-111721528D01*
X157845115Y-111507536D01*
X157865643Y-111286000D01*
X157847111Y-111086000D01*
X171554357Y-111086000D01*
X171574884Y-111307535D01*
X171574885Y-111307537D01*
X171635769Y-111521523D01*
X171635775Y-111521538D01*
X171734938Y-111720683D01*
X171734943Y-111720691D01*
X171869020Y-111898238D01*
X172033437Y-112048123D01*
X172033439Y-112048125D01*
X172222595Y-112165245D01*
X172222596Y-112165245D01*
X172222599Y-112165247D01*
X172430060Y-112245618D01*
X172648757Y-112286500D01*
X172648759Y-112286500D01*
X172871241Y-112286500D01*
X172871243Y-112286500D01*
X173089940Y-112245618D01*
X173297401Y-112165247D01*
X173486562Y-112048124D01*
X173650981Y-111898236D01*
X173711047Y-111818695D01*
X173767154Y-111777060D01*
X173836866Y-111772368D01*
X173898048Y-111806110D01*
X173908947Y-111818688D01*
X173948149Y-111870599D01*
X173969021Y-111898238D01*
X174133437Y-112048123D01*
X174133439Y-112048125D01*
X174322595Y-112165245D01*
X174322596Y-112165245D01*
X174322599Y-112165247D01*
X174530060Y-112245618D01*
X174748757Y-112286500D01*
X174748759Y-112286500D01*
X174971241Y-112286500D01*
X174971243Y-112286500D01*
X175189940Y-112245618D01*
X175397401Y-112165247D01*
X175586562Y-112048124D01*
X175750981Y-111898236D01*
X175885058Y-111720689D01*
X175984229Y-111521528D01*
X176045115Y-111307536D01*
X176065643Y-111086000D01*
X176063647Y-111064464D01*
X176045115Y-110864464D01*
X176045114Y-110864462D01*
X176041130Y-110850461D01*
X175984229Y-110650472D01*
X175956577Y-110594939D01*
X175885061Y-110451316D01*
X175885056Y-110451308D01*
X175750979Y-110273761D01*
X175586562Y-110123876D01*
X175586560Y-110123874D01*
X175397404Y-110006754D01*
X175397398Y-110006752D01*
X175189940Y-109926382D01*
X174971243Y-109885500D01*
X174748757Y-109885500D01*
X174530060Y-109926382D01*
X174398864Y-109977207D01*
X174322601Y-110006752D01*
X174322595Y-110006754D01*
X174133439Y-110123874D01*
X174133437Y-110123876D01*
X173969020Y-110273761D01*
X173908954Y-110353303D01*
X173852845Y-110394939D01*
X173783133Y-110399630D01*
X173721951Y-110365888D01*
X173711046Y-110353303D01*
X173650979Y-110273761D01*
X173486562Y-110123876D01*
X173486560Y-110123874D01*
X173297404Y-110006754D01*
X173297398Y-110006752D01*
X173089940Y-109926382D01*
X172871243Y-109885500D01*
X172648757Y-109885500D01*
X172430060Y-109926382D01*
X172298864Y-109977207D01*
X172222601Y-110006752D01*
X172222595Y-110006754D01*
X172033439Y-110123874D01*
X172033437Y-110123876D01*
X171869020Y-110273761D01*
X171734943Y-110451308D01*
X171734938Y-110451316D01*
X171635775Y-110650461D01*
X171635769Y-110650476D01*
X171574885Y-110864462D01*
X171574884Y-110864464D01*
X171554357Y-111085999D01*
X171554357Y-111086000D01*
X157847111Y-111086000D01*
X157845115Y-111064464D01*
X157784229Y-110850472D01*
X157733024Y-110747639D01*
X157685061Y-110651316D01*
X157685056Y-110651308D01*
X157550979Y-110473761D01*
X157386562Y-110323876D01*
X157386560Y-110323874D01*
X157197404Y-110206754D01*
X157197398Y-110206752D01*
X156989940Y-110126382D01*
X156771243Y-110085500D01*
X156548757Y-110085500D01*
X156330060Y-110126382D01*
X156198864Y-110177207D01*
X156122601Y-110206752D01*
X156122595Y-110206754D01*
X155933439Y-110323874D01*
X155933437Y-110323876D01*
X155769020Y-110473761D01*
X155708954Y-110553303D01*
X155652845Y-110594939D01*
X155583133Y-110599630D01*
X155521951Y-110565888D01*
X155511046Y-110553303D01*
X155450979Y-110473761D01*
X155286562Y-110323876D01*
X155286560Y-110323874D01*
X155097404Y-110206754D01*
X155097398Y-110206752D01*
X154889940Y-110126382D01*
X154671243Y-110085500D01*
X154448757Y-110085500D01*
X154230060Y-110126382D01*
X154098864Y-110177207D01*
X154022601Y-110206752D01*
X154022595Y-110206754D01*
X153833439Y-110323874D01*
X153833437Y-110323876D01*
X153669020Y-110473761D01*
X153534943Y-110651308D01*
X153534938Y-110651316D01*
X153435775Y-110850461D01*
X153435769Y-110850476D01*
X153374885Y-111064462D01*
X153374884Y-111064464D01*
X153354357Y-111285999D01*
X153354357Y-111286000D01*
X144349188Y-111286000D01*
X144339464Y-111276276D01*
X144339459Y-111276272D01*
X144167557Y-111151379D01*
X143978217Y-111054904D01*
X143776129Y-110989242D01*
X143566246Y-110956000D01*
X143110000Y-110956000D01*
X143110000Y-111757517D01*
X143091591Y-111746889D01*
X142938991Y-111706000D01*
X142781009Y-111706000D01*
X142628409Y-111746889D01*
X142610000Y-111757517D01*
X142610000Y-110956000D01*
X142153754Y-110956000D01*
X141943872Y-110989242D01*
X141943869Y-110989242D01*
X141741782Y-111054904D01*
X141552442Y-111151379D01*
X141380540Y-111276272D01*
X141380535Y-111276276D01*
X141230276Y-111426535D01*
X141230272Y-111426540D01*
X141105379Y-111598442D01*
X141008904Y-111787782D01*
X140943242Y-111989870D01*
X140943242Y-111989873D01*
X140932769Y-112056000D01*
X142311518Y-112056000D01*
X142300889Y-112074409D01*
X142260000Y-112227009D01*
X142260000Y-112384991D01*
X142300889Y-112537591D01*
X142311518Y-112556000D01*
X140932769Y-112556000D01*
X132287231Y-112556000D01*
X130908482Y-112556000D01*
X130919111Y-112537591D01*
X130960000Y-112384991D01*
X130960000Y-112227009D01*
X130919111Y-112074409D01*
X130908482Y-112056000D01*
X132287231Y-112056000D01*
X132276757Y-111989873D01*
X132276757Y-111989870D01*
X132211095Y-111787782D01*
X132114620Y-111598442D01*
X131989727Y-111426540D01*
X131989723Y-111426535D01*
X131839464Y-111276276D01*
X131839459Y-111276272D01*
X131667557Y-111151379D01*
X131478217Y-111054904D01*
X131276129Y-110989242D01*
X131066246Y-110956000D01*
X130610000Y-110956000D01*
X130610000Y-111757517D01*
X130591591Y-111746889D01*
X130438991Y-111706000D01*
X130281009Y-111706000D01*
X130128409Y-111746889D01*
X130110000Y-111757517D01*
X130110000Y-110956000D01*
X129653754Y-110956000D01*
X129443872Y-110989242D01*
X129443869Y-110989242D01*
X129241782Y-111054904D01*
X129052442Y-111151379D01*
X128880540Y-111276272D01*
X128880535Y-111276276D01*
X128730276Y-111426535D01*
X128730272Y-111426540D01*
X128605379Y-111598442D01*
X128508904Y-111787782D01*
X128443242Y-111989870D01*
X128443242Y-111989873D01*
X128432769Y-112056000D01*
X129811518Y-112056000D01*
X129800889Y-112074409D01*
X129760000Y-112227009D01*
X129760000Y-112384991D01*
X129800889Y-112537591D01*
X129811518Y-112556000D01*
X128432769Y-112556000D01*
X110460500Y-112556000D01*
X110460500Y-110396551D01*
X135459500Y-110396551D01*
X135487829Y-110575410D01*
X135543787Y-110747636D01*
X135543788Y-110747639D01*
X135626006Y-110908997D01*
X135732441Y-111055494D01*
X135732445Y-111055499D01*
X135860500Y-111183554D01*
X135860505Y-111183558D01*
X135988116Y-111276272D01*
X136007006Y-111289996D01*
X136112484Y-111343740D01*
X136168360Y-111372211D01*
X136168363Y-111372212D01*
X136254476Y-111400191D01*
X136340591Y-111428171D01*
X136423429Y-111441291D01*
X136519449Y-111456500D01*
X136519454Y-111456500D01*
X136700551Y-111456500D01*
X136787259Y-111442765D01*
X136879409Y-111428171D01*
X137051639Y-111372211D01*
X137212994Y-111289996D01*
X137359501Y-111183553D01*
X137487553Y-111055501D01*
X137593996Y-110908994D01*
X137676211Y-110747639D01*
X137732171Y-110575409D01*
X137748270Y-110473761D01*
X137760500Y-110396551D01*
X137760500Y-110215448D01*
X137739917Y-110085500D01*
X137732171Y-110036591D01*
X137696363Y-109926382D01*
X137676212Y-109864363D01*
X137676211Y-109864360D01*
X137647740Y-109808484D01*
X137593996Y-109703006D01*
X137580396Y-109684287D01*
X137487558Y-109556505D01*
X137487554Y-109556500D01*
X137359499Y-109428445D01*
X137359494Y-109428441D01*
X137212997Y-109322006D01*
X137212996Y-109322005D01*
X137212994Y-109322004D01*
X137161300Y-109295664D01*
X137051639Y-109239788D01*
X137051636Y-109239787D01*
X136879410Y-109183829D01*
X136700551Y-109155500D01*
X136700546Y-109155500D01*
X136519454Y-109155500D01*
X136519449Y-109155500D01*
X136340589Y-109183829D01*
X136168363Y-109239787D01*
X136168360Y-109239788D01*
X136007002Y-109322006D01*
X135860505Y-109428441D01*
X135860500Y-109428445D01*
X135732445Y-109556500D01*
X135732441Y-109556505D01*
X135626006Y-109703002D01*
X135543788Y-109864360D01*
X135543787Y-109864363D01*
X135487829Y-110036589D01*
X135459500Y-110215448D01*
X135459500Y-110396551D01*
X110460500Y-110396551D01*
X110460500Y-107856001D01*
X155354532Y-107856001D01*
X155374364Y-108082686D01*
X155374366Y-108082697D01*
X155433258Y-108302488D01*
X155433261Y-108302497D01*
X155529431Y-108508732D01*
X155529432Y-108508734D01*
X155659954Y-108695141D01*
X155820858Y-108856045D01*
X155820861Y-108856047D01*
X156007266Y-108986568D01*
X156213504Y-109082739D01*
X156433308Y-109141635D01*
X156591786Y-109155500D01*
X156659998Y-109161468D01*
X156660000Y-109161468D01*
X156660002Y-109161468D01*
X156728214Y-109155500D01*
X156886692Y-109141635D01*
X157106496Y-109082739D01*
X157312734Y-108986568D01*
X157499139Y-108856047D01*
X157660047Y-108695139D01*
X157790568Y-108508734D01*
X157886739Y-108302496D01*
X157945635Y-108082692D01*
X157965468Y-107856000D01*
X157947095Y-107646001D01*
X173554532Y-107646001D01*
X173574364Y-107872686D01*
X173574366Y-107872697D01*
X173633258Y-108092488D01*
X173633261Y-108092497D01*
X173729431Y-108298732D01*
X173729432Y-108298734D01*
X173859954Y-108485141D01*
X174020858Y-108646045D01*
X174020861Y-108646047D01*
X174207266Y-108776568D01*
X174413504Y-108872739D01*
X174633308Y-108931635D01*
X174795230Y-108945801D01*
X174859998Y-108951468D01*
X174860000Y-108951468D01*
X174860002Y-108951468D01*
X174916673Y-108946509D01*
X175086692Y-108931635D01*
X175306496Y-108872739D01*
X175512734Y-108776568D01*
X175699139Y-108646047D01*
X175860047Y-108485139D01*
X175990568Y-108298734D01*
X176086739Y-108092496D01*
X176145635Y-107872692D01*
X176165468Y-107646000D01*
X176145635Y-107419308D01*
X176086739Y-107199504D01*
X175990568Y-106993266D01*
X175860047Y-106806861D01*
X175860045Y-106806858D01*
X175699141Y-106645954D01*
X175512734Y-106515432D01*
X175512730Y-106515430D01*
X175497022Y-106508105D01*
X175444583Y-106461931D01*
X175425433Y-106394737D01*
X175445650Y-106327857D01*
X175497028Y-106283340D01*
X175512481Y-106276134D01*
X175585471Y-106225024D01*
X174906447Y-105546000D01*
X174912661Y-105546000D01*
X175014394Y-105518741D01*
X175105606Y-105466080D01*
X175180080Y-105391606D01*
X175232741Y-105300394D01*
X175260000Y-105198661D01*
X175260000Y-105192447D01*
X175939024Y-105871471D01*
X175990136Y-105798478D01*
X176086264Y-105592331D01*
X176086269Y-105592317D01*
X176145139Y-105372610D01*
X176145141Y-105372599D01*
X176164966Y-105146002D01*
X176164966Y-105145997D01*
X176145141Y-104919400D01*
X176145139Y-104919389D01*
X176086269Y-104699682D01*
X176086264Y-104699668D01*
X175990136Y-104493521D01*
X175990132Y-104493513D01*
X175939025Y-104420526D01*
X175260000Y-105099551D01*
X175260000Y-105093339D01*
X175232741Y-104991606D01*
X175180080Y-104900394D01*
X175105606Y-104825920D01*
X175014394Y-104773259D01*
X174912661Y-104746000D01*
X174906448Y-104746000D01*
X175585472Y-104066974D01*
X175512478Y-104015863D01*
X175306331Y-103919735D01*
X175306317Y-103919730D01*
X175086610Y-103860860D01*
X175086599Y-103860858D01*
X174860002Y-103841034D01*
X174859998Y-103841034D01*
X174633400Y-103860858D01*
X174633389Y-103860860D01*
X174413682Y-103919730D01*
X174413673Y-103919734D01*
X174207516Y-104015866D01*
X174207512Y-104015868D01*
X174134526Y-104066973D01*
X174134526Y-104066974D01*
X174813553Y-104746000D01*
X174807339Y-104746000D01*
X174705606Y-104773259D01*
X174614394Y-104825920D01*
X174539920Y-104900394D01*
X174487259Y-104991606D01*
X174460000Y-105093339D01*
X174460000Y-105099552D01*
X173780974Y-104420526D01*
X173780973Y-104420526D01*
X173729868Y-104493512D01*
X173729866Y-104493516D01*
X173633734Y-104699673D01*
X173633730Y-104699682D01*
X173574860Y-104919389D01*
X173574858Y-104919400D01*
X173555034Y-105145997D01*
X173555034Y-105146002D01*
X173574858Y-105372599D01*
X173574860Y-105372610D01*
X173633730Y-105592317D01*
X173633735Y-105592331D01*
X173729863Y-105798478D01*
X173780974Y-105871472D01*
X174460000Y-105192446D01*
X174460000Y-105198661D01*
X174487259Y-105300394D01*
X174539920Y-105391606D01*
X174614394Y-105466080D01*
X174705606Y-105518741D01*
X174807339Y-105546000D01*
X174813553Y-105546000D01*
X174134526Y-106225025D01*
X174207513Y-106276132D01*
X174207515Y-106276133D01*
X174222973Y-106283341D01*
X174275413Y-106329513D01*
X174294566Y-106396706D01*
X174274351Y-106463587D01*
X174222979Y-106508104D01*
X174207270Y-106515429D01*
X174207265Y-106515432D01*
X174020858Y-106645954D01*
X173859954Y-106806858D01*
X173729432Y-106993265D01*
X173729431Y-106993267D01*
X173633261Y-107199502D01*
X173633258Y-107199511D01*
X173574366Y-107419302D01*
X173574364Y-107419313D01*
X173554532Y-107645998D01*
X173554532Y-107646001D01*
X157947095Y-107646001D01*
X157945635Y-107629308D01*
X157886739Y-107409504D01*
X157790568Y-107203266D01*
X157660047Y-107016861D01*
X157660045Y-107016858D01*
X157499141Y-106855954D01*
X157312734Y-106725432D01*
X157312730Y-106725430D01*
X157297022Y-106718105D01*
X157244583Y-106671931D01*
X157225433Y-106604737D01*
X157245650Y-106537857D01*
X157297028Y-106493340D01*
X157312481Y-106486134D01*
X157385471Y-106435024D01*
X156706447Y-105756000D01*
X156712661Y-105756000D01*
X156814394Y-105728741D01*
X156905606Y-105676080D01*
X156980080Y-105601606D01*
X157032741Y-105510394D01*
X157060000Y-105408661D01*
X157060000Y-105402447D01*
X157739024Y-106081471D01*
X157790136Y-106008478D01*
X157886264Y-105802331D01*
X157886269Y-105802317D01*
X157945139Y-105582610D01*
X157945141Y-105582599D01*
X157964966Y-105356002D01*
X157964966Y-105355997D01*
X157945141Y-105129400D01*
X157945139Y-105129389D01*
X157886269Y-104909682D01*
X157886264Y-104909668D01*
X157790136Y-104703521D01*
X157790132Y-104703513D01*
X157739025Y-104630526D01*
X157060000Y-105309551D01*
X157060000Y-105303339D01*
X157032741Y-105201606D01*
X156980080Y-105110394D01*
X156905606Y-105035920D01*
X156814394Y-104983259D01*
X156712661Y-104956000D01*
X156706448Y-104956000D01*
X157385472Y-104276974D01*
X157312478Y-104225863D01*
X157106331Y-104129735D01*
X157106317Y-104129730D01*
X156886610Y-104070860D01*
X156886599Y-104070858D01*
X156660002Y-104051034D01*
X156659998Y-104051034D01*
X156433400Y-104070858D01*
X156433389Y-104070860D01*
X156213682Y-104129730D01*
X156213673Y-104129734D01*
X156007516Y-104225866D01*
X156007512Y-104225868D01*
X155934526Y-104276973D01*
X155934526Y-104276974D01*
X156613553Y-104956000D01*
X156607339Y-104956000D01*
X156505606Y-104983259D01*
X156414394Y-105035920D01*
X156339920Y-105110394D01*
X156287259Y-105201606D01*
X156260000Y-105303339D01*
X156260000Y-105309552D01*
X155580974Y-104630526D01*
X155580973Y-104630526D01*
X155529868Y-104703512D01*
X155529866Y-104703516D01*
X155433734Y-104909673D01*
X155433730Y-104909682D01*
X155374860Y-105129389D01*
X155374858Y-105129400D01*
X155355034Y-105355997D01*
X155355034Y-105356002D01*
X155374858Y-105582599D01*
X155374860Y-105582610D01*
X155433730Y-105802317D01*
X155433735Y-105802331D01*
X155529863Y-106008478D01*
X155580974Y-106081472D01*
X156260000Y-105402446D01*
X156260000Y-105408661D01*
X156287259Y-105510394D01*
X156339920Y-105601606D01*
X156414394Y-105676080D01*
X156505606Y-105728741D01*
X156607339Y-105756000D01*
X156613553Y-105756000D01*
X155934526Y-106435025D01*
X156007513Y-106486132D01*
X156007515Y-106486133D01*
X156022973Y-106493341D01*
X156075413Y-106539513D01*
X156094566Y-106606706D01*
X156074351Y-106673587D01*
X156022979Y-106718104D01*
X156007270Y-106725429D01*
X156007265Y-106725432D01*
X155820858Y-106855954D01*
X155659954Y-107016858D01*
X155529432Y-107203265D01*
X155529431Y-107203267D01*
X155433261Y-107409502D01*
X155433258Y-107409511D01*
X155374366Y-107629302D01*
X155374364Y-107629313D01*
X155354532Y-107855998D01*
X155354532Y-107856001D01*
X110460500Y-107856001D01*
X110460500Y-99866005D01*
X140925738Y-99866005D01*
X140944753Y-100095484D01*
X141001282Y-100318714D01*
X141093782Y-100529594D01*
X141219728Y-100722370D01*
X141219731Y-100722373D01*
X141375692Y-100891792D01*
X141489139Y-100980091D01*
X141556868Y-101032807D01*
X141557411Y-101033229D01*
X141759931Y-101142828D01*
X141873025Y-101181653D01*
X141977725Y-101217597D01*
X141977727Y-101217597D01*
X141977729Y-101217598D01*
X142204863Y-101255500D01*
X142204864Y-101255500D01*
X142435136Y-101255500D01*
X142435137Y-101255500D01*
X142662271Y-101217598D01*
X142663693Y-101217110D01*
X142670662Y-101214717D01*
X142880069Y-101142828D01*
X143082589Y-101033229D01*
X143264308Y-100891792D01*
X143420269Y-100722373D01*
X143420271Y-100722370D01*
X143486191Y-100621472D01*
X143539337Y-100576115D01*
X143608569Y-100566691D01*
X143671905Y-100596193D01*
X143693809Y-100621472D01*
X143759728Y-100722370D01*
X143759731Y-100722373D01*
X143915692Y-100891792D01*
X144029139Y-100980091D01*
X144096868Y-101032807D01*
X144097411Y-101033229D01*
X144299931Y-101142828D01*
X144413025Y-101181653D01*
X144517725Y-101217597D01*
X144517727Y-101217597D01*
X144517729Y-101217598D01*
X144744863Y-101255500D01*
X144744864Y-101255500D01*
X144975136Y-101255500D01*
X144975137Y-101255500D01*
X145202271Y-101217598D01*
X145203693Y-101217110D01*
X145210662Y-101214717D01*
X145420069Y-101142828D01*
X145622589Y-101033229D01*
X145804308Y-100891792D01*
X145960269Y-100722373D01*
X145960271Y-100722370D01*
X146026191Y-100621472D01*
X146079337Y-100576115D01*
X146148569Y-100566691D01*
X146211905Y-100596193D01*
X146233809Y-100621472D01*
X146299728Y-100722370D01*
X146299731Y-100722373D01*
X146455692Y-100891792D01*
X146569139Y-100980091D01*
X146636868Y-101032807D01*
X146637411Y-101033229D01*
X146839931Y-101142828D01*
X146953025Y-101181653D01*
X147057725Y-101217597D01*
X147057727Y-101217597D01*
X147057729Y-101217598D01*
X147284863Y-101255500D01*
X147284864Y-101255500D01*
X147515136Y-101255500D01*
X147515137Y-101255500D01*
X147742271Y-101217598D01*
X147743693Y-101217110D01*
X147750662Y-101214717D01*
X147960069Y-101142828D01*
X148162589Y-101033229D01*
X148344308Y-100891792D01*
X148500269Y-100722373D01*
X148500271Y-100722370D01*
X148566191Y-100621472D01*
X148619337Y-100576115D01*
X148688569Y-100566691D01*
X148751905Y-100596193D01*
X148773809Y-100621472D01*
X148839728Y-100722370D01*
X148839731Y-100722373D01*
X148995692Y-100891792D01*
X149109139Y-100980091D01*
X149176868Y-101032807D01*
X149177411Y-101033229D01*
X149379931Y-101142828D01*
X149493025Y-101181653D01*
X149597725Y-101217597D01*
X149597727Y-101217597D01*
X149597729Y-101217598D01*
X149824863Y-101255500D01*
X149824864Y-101255500D01*
X150055136Y-101255500D01*
X150055137Y-101255500D01*
X150282271Y-101217598D01*
X150283693Y-101217110D01*
X150290662Y-101214717D01*
X150500069Y-101142828D01*
X150702589Y-101033229D01*
X150884308Y-100891792D01*
X151040269Y-100722373D01*
X151040271Y-100722370D01*
X151106191Y-100621472D01*
X151159337Y-100576115D01*
X151228569Y-100566691D01*
X151291905Y-100596193D01*
X151313809Y-100621472D01*
X151379728Y-100722370D01*
X151379731Y-100722373D01*
X151535692Y-100891792D01*
X151649139Y-100980091D01*
X151716868Y-101032807D01*
X151717411Y-101033229D01*
X151919931Y-101142828D01*
X152033025Y-101181653D01*
X152137725Y-101217597D01*
X152137727Y-101217597D01*
X152137729Y-101217598D01*
X152364863Y-101255500D01*
X152364864Y-101255500D01*
X152595136Y-101255500D01*
X152595137Y-101255500D01*
X152822271Y-101217598D01*
X152823693Y-101217110D01*
X152830662Y-101214717D01*
X153040069Y-101142828D01*
X153242589Y-101033229D01*
X153424308Y-100891792D01*
X153580269Y-100722373D01*
X153580271Y-100722370D01*
X153646191Y-100621472D01*
X153699337Y-100576115D01*
X153768569Y-100566691D01*
X153831905Y-100596193D01*
X153853809Y-100621472D01*
X153919728Y-100722370D01*
X153919731Y-100722373D01*
X154075692Y-100891792D01*
X154189139Y-100980091D01*
X154256868Y-101032807D01*
X154257411Y-101033229D01*
X154459931Y-101142828D01*
X154573025Y-101181653D01*
X154677725Y-101217597D01*
X154677727Y-101217597D01*
X154677729Y-101217598D01*
X154904863Y-101255500D01*
X154904864Y-101255500D01*
X155135136Y-101255500D01*
X155135137Y-101255500D01*
X155362271Y-101217598D01*
X155363693Y-101217110D01*
X155370662Y-101214717D01*
X155580069Y-101142828D01*
X155782589Y-101033229D01*
X155964308Y-100891792D01*
X156120269Y-100722373D01*
X156186490Y-100621013D01*
X156239636Y-100575657D01*
X156308868Y-100566233D01*
X156372203Y-100595735D01*
X156394108Y-100621013D01*
X156416760Y-100655685D01*
X157077037Y-99995408D01*
X157094075Y-100058993D01*
X157159901Y-100173007D01*
X157252993Y-100266099D01*
X157367007Y-100331925D01*
X157430590Y-100348962D01*
X156769040Y-101010512D01*
X156769040Y-101010514D01*
X156797677Y-101032803D01*
X156797683Y-101032807D01*
X157000131Y-101142367D01*
X157000140Y-101142370D01*
X157217849Y-101217110D01*
X157444905Y-101255000D01*
X157675095Y-101255000D01*
X157902150Y-101217110D01*
X158119859Y-101142370D01*
X158119868Y-101142367D01*
X158322315Y-101032807D01*
X158322316Y-101032806D01*
X158350958Y-101010513D01*
X158350959Y-101010511D01*
X157689410Y-100348962D01*
X157752993Y-100331925D01*
X157867007Y-100266099D01*
X157960099Y-100173007D01*
X158025925Y-100058993D01*
X158042962Y-99995409D01*
X158703238Y-100655685D01*
X158725892Y-100621012D01*
X158779038Y-100575656D01*
X158848269Y-100566232D01*
X158911605Y-100595734D01*
X158933509Y-100621013D01*
X158999728Y-100722370D01*
X158999731Y-100722373D01*
X159155692Y-100891792D01*
X159269139Y-100980091D01*
X159336868Y-101032807D01*
X159337411Y-101033229D01*
X159539931Y-101142828D01*
X159653025Y-101181653D01*
X159757725Y-101217597D01*
X159757727Y-101217597D01*
X159757729Y-101217598D01*
X159984863Y-101255500D01*
X159984864Y-101255500D01*
X160215136Y-101255500D01*
X160215137Y-101255500D01*
X160442271Y-101217598D01*
X160443693Y-101217110D01*
X160450662Y-101214717D01*
X160660069Y-101142828D01*
X160862589Y-101033229D01*
X161044308Y-100891792D01*
X161200269Y-100722373D01*
X161326217Y-100529595D01*
X161418717Y-100318716D01*
X161475246Y-100095488D01*
X161483697Y-99993493D01*
X161494262Y-99866005D01*
X163785738Y-99866005D01*
X163804753Y-100095484D01*
X163861282Y-100318714D01*
X163953782Y-100529594D01*
X164079728Y-100722370D01*
X164079731Y-100722373D01*
X164235692Y-100891792D01*
X164349139Y-100980091D01*
X164416868Y-101032807D01*
X164417411Y-101033229D01*
X164619931Y-101142828D01*
X164733025Y-101181653D01*
X164837725Y-101217597D01*
X164837727Y-101217597D01*
X164837729Y-101217598D01*
X165064863Y-101255500D01*
X165064864Y-101255500D01*
X165295136Y-101255500D01*
X165295137Y-101255500D01*
X165522271Y-101217598D01*
X165523693Y-101217110D01*
X165530662Y-101214717D01*
X165740069Y-101142828D01*
X165942589Y-101033229D01*
X166124308Y-100891792D01*
X166280269Y-100722373D01*
X166280271Y-100722370D01*
X166346191Y-100621472D01*
X166399337Y-100576115D01*
X166468569Y-100566691D01*
X166531905Y-100596193D01*
X166553809Y-100621472D01*
X166619728Y-100722370D01*
X166619731Y-100722373D01*
X166775692Y-100891792D01*
X166889139Y-100980091D01*
X166956868Y-101032807D01*
X166957411Y-101033229D01*
X167159931Y-101142828D01*
X167273025Y-101181653D01*
X167377725Y-101217597D01*
X167377727Y-101217597D01*
X167377729Y-101217598D01*
X167604863Y-101255500D01*
X167604864Y-101255500D01*
X167835136Y-101255500D01*
X167835137Y-101255500D01*
X168062271Y-101217598D01*
X168063693Y-101217110D01*
X168070662Y-101214717D01*
X168280069Y-101142828D01*
X168482589Y-101033229D01*
X168664308Y-100891792D01*
X168820269Y-100722373D01*
X168820271Y-100722370D01*
X168886191Y-100621472D01*
X168939337Y-100576115D01*
X169008569Y-100566691D01*
X169071905Y-100596193D01*
X169093809Y-100621472D01*
X169159728Y-100722370D01*
X169159731Y-100722373D01*
X169315692Y-100891792D01*
X169429139Y-100980091D01*
X169496868Y-101032807D01*
X169497411Y-101033229D01*
X169699931Y-101142828D01*
X169813025Y-101181653D01*
X169917725Y-101217597D01*
X169917727Y-101217597D01*
X169917729Y-101217598D01*
X170144863Y-101255500D01*
X170144864Y-101255500D01*
X170375136Y-101255500D01*
X170375137Y-101255500D01*
X170602271Y-101217598D01*
X170603693Y-101217110D01*
X170610662Y-101214717D01*
X170820069Y-101142828D01*
X171022589Y-101033229D01*
X171204308Y-100891792D01*
X171360269Y-100722373D01*
X171360271Y-100722370D01*
X171426191Y-100621472D01*
X171479337Y-100576115D01*
X171548569Y-100566691D01*
X171611905Y-100596193D01*
X171633809Y-100621472D01*
X171699728Y-100722370D01*
X171699731Y-100722373D01*
X171855692Y-100891792D01*
X171969139Y-100980091D01*
X172036868Y-101032807D01*
X172037411Y-101033229D01*
X172239931Y-101142828D01*
X172353025Y-101181653D01*
X172457725Y-101217597D01*
X172457727Y-101217597D01*
X172457729Y-101217598D01*
X172684863Y-101255500D01*
X172684864Y-101255500D01*
X172915136Y-101255500D01*
X172915137Y-101255500D01*
X173142271Y-101217598D01*
X173143693Y-101217110D01*
X173150662Y-101214717D01*
X173360069Y-101142828D01*
X173562589Y-101033229D01*
X173744308Y-100891792D01*
X173900269Y-100722373D01*
X173900271Y-100722370D01*
X173966191Y-100621472D01*
X174019337Y-100576115D01*
X174088569Y-100566691D01*
X174151905Y-100596193D01*
X174173809Y-100621472D01*
X174239728Y-100722370D01*
X174239731Y-100722373D01*
X174395692Y-100891792D01*
X174509139Y-100980091D01*
X174576868Y-101032807D01*
X174577411Y-101033229D01*
X174779931Y-101142828D01*
X174893025Y-101181653D01*
X174997725Y-101217597D01*
X174997727Y-101217597D01*
X174997729Y-101217598D01*
X175224863Y-101255500D01*
X175224864Y-101255500D01*
X175455136Y-101255500D01*
X175455137Y-101255500D01*
X175682271Y-101217598D01*
X175683693Y-101217110D01*
X175690662Y-101214717D01*
X175900069Y-101142828D01*
X176102589Y-101033229D01*
X176284308Y-100891792D01*
X176440269Y-100722373D01*
X176440271Y-100722370D01*
X176506191Y-100621472D01*
X176559337Y-100576115D01*
X176628569Y-100566691D01*
X176691905Y-100596193D01*
X176713809Y-100621472D01*
X176779728Y-100722370D01*
X176779731Y-100722373D01*
X176935692Y-100891792D01*
X177049139Y-100980091D01*
X177116868Y-101032807D01*
X177117411Y-101033229D01*
X177319931Y-101142828D01*
X177433025Y-101181653D01*
X177537725Y-101217597D01*
X177537727Y-101217597D01*
X177537729Y-101217598D01*
X177764863Y-101255500D01*
X177764864Y-101255500D01*
X177995136Y-101255500D01*
X177995137Y-101255500D01*
X178222271Y-101217598D01*
X178223693Y-101217110D01*
X178230662Y-101214717D01*
X178440069Y-101142828D01*
X178642589Y-101033229D01*
X178824308Y-100891792D01*
X178980269Y-100722373D01*
X179106217Y-100529595D01*
X179198717Y-100318716D01*
X179255246Y-100095488D01*
X179263697Y-99993493D01*
X179274262Y-99866005D01*
X179274262Y-99865994D01*
X179255246Y-99636515D01*
X179255246Y-99636512D01*
X179198717Y-99413284D01*
X179106217Y-99202405D01*
X179076123Y-99156342D01*
X178980271Y-99009629D01*
X178953355Y-98980390D01*
X178824308Y-98840208D01*
X178671775Y-98721487D01*
X178642591Y-98698772D01*
X178440069Y-98589172D01*
X178440061Y-98589169D01*
X178222274Y-98514402D01*
X178051920Y-98485975D01*
X177995137Y-98476500D01*
X177764863Y-98476500D01*
X177719436Y-98484080D01*
X177537725Y-98514402D01*
X177319938Y-98589169D01*
X177319930Y-98589172D01*
X177117408Y-98698772D01*
X176935694Y-98840206D01*
X176935689Y-98840211D01*
X176779727Y-99009630D01*
X176713808Y-99110528D01*
X176660662Y-99155884D01*
X176591431Y-99165308D01*
X176528095Y-99135806D01*
X176506192Y-99110528D01*
X176440272Y-99009630D01*
X176403104Y-98969256D01*
X176284308Y-98840208D01*
X176131775Y-98721487D01*
X176102591Y-98698772D01*
X175900069Y-98589172D01*
X175900061Y-98589169D01*
X175682274Y-98514402D01*
X175511920Y-98485975D01*
X175455137Y-98476500D01*
X175224863Y-98476500D01*
X175179436Y-98484080D01*
X174997725Y-98514402D01*
X174779938Y-98589169D01*
X174779930Y-98589172D01*
X174577408Y-98698772D01*
X174395694Y-98840206D01*
X174395689Y-98840211D01*
X174239727Y-99009630D01*
X174173808Y-99110528D01*
X174120662Y-99155884D01*
X174051431Y-99165308D01*
X173988095Y-99135806D01*
X173966192Y-99110528D01*
X173900272Y-99009630D01*
X173863104Y-98969256D01*
X173744308Y-98840208D01*
X173591775Y-98721487D01*
X173562591Y-98698772D01*
X173360069Y-98589172D01*
X173360061Y-98589169D01*
X173142274Y-98514402D01*
X172971920Y-98485975D01*
X172915137Y-98476500D01*
X172684863Y-98476500D01*
X172639436Y-98484080D01*
X172457725Y-98514402D01*
X172239938Y-98589169D01*
X172239930Y-98589172D01*
X172037408Y-98698772D01*
X171855694Y-98840206D01*
X171855689Y-98840211D01*
X171699727Y-99009630D01*
X171633808Y-99110528D01*
X171580662Y-99155884D01*
X171511431Y-99165308D01*
X171448095Y-99135806D01*
X171426192Y-99110528D01*
X171360272Y-99009630D01*
X171323104Y-98969256D01*
X171204308Y-98840208D01*
X171051775Y-98721487D01*
X171022591Y-98698772D01*
X170820069Y-98589172D01*
X170820061Y-98589169D01*
X170602274Y-98514402D01*
X170431920Y-98485975D01*
X170375137Y-98476500D01*
X170144863Y-98476500D01*
X170099436Y-98484080D01*
X169917725Y-98514402D01*
X169699938Y-98589169D01*
X169699930Y-98589172D01*
X169497408Y-98698772D01*
X169315694Y-98840206D01*
X169315689Y-98840211D01*
X169159727Y-99009630D01*
X169093808Y-99110528D01*
X169040662Y-99155884D01*
X168971431Y-99165308D01*
X168908095Y-99135806D01*
X168886192Y-99110528D01*
X168820272Y-99009630D01*
X168783104Y-98969256D01*
X168664308Y-98840208D01*
X168511775Y-98721487D01*
X168482591Y-98698772D01*
X168280069Y-98589172D01*
X168280061Y-98589169D01*
X168062274Y-98514402D01*
X167891920Y-98485975D01*
X167835137Y-98476500D01*
X167604863Y-98476500D01*
X167559436Y-98484080D01*
X167377725Y-98514402D01*
X167159938Y-98589169D01*
X167159930Y-98589172D01*
X166957408Y-98698772D01*
X166775694Y-98840206D01*
X166775689Y-98840211D01*
X166619727Y-99009630D01*
X166553808Y-99110528D01*
X166500662Y-99155884D01*
X166431431Y-99165308D01*
X166368095Y-99135806D01*
X166346192Y-99110528D01*
X166280272Y-99009630D01*
X166243104Y-98969256D01*
X166124308Y-98840208D01*
X165971775Y-98721487D01*
X165942591Y-98698772D01*
X165740069Y-98589172D01*
X165740061Y-98589169D01*
X165522274Y-98514402D01*
X165351920Y-98485975D01*
X165295137Y-98476500D01*
X165064863Y-98476500D01*
X165019436Y-98484080D01*
X164837725Y-98514402D01*
X164619938Y-98589169D01*
X164619930Y-98589172D01*
X164417408Y-98698772D01*
X164235694Y-98840206D01*
X164235689Y-98840211D01*
X164079728Y-99009629D01*
X163953782Y-99202405D01*
X163861282Y-99413285D01*
X163804753Y-99636515D01*
X163785738Y-99865994D01*
X163785738Y-99866005D01*
X161494262Y-99866005D01*
X161494262Y-99865994D01*
X161475246Y-99636515D01*
X161475246Y-99636512D01*
X161418717Y-99413284D01*
X161326217Y-99202405D01*
X161296123Y-99156342D01*
X161200271Y-99009629D01*
X161173355Y-98980390D01*
X161044308Y-98840208D01*
X160891775Y-98721487D01*
X160862591Y-98698772D01*
X160660069Y-98589172D01*
X160660061Y-98589169D01*
X160442274Y-98514402D01*
X160271920Y-98485975D01*
X160215137Y-98476500D01*
X159984863Y-98476500D01*
X159939436Y-98484080D01*
X159757725Y-98514402D01*
X159539938Y-98589169D01*
X159539930Y-98589172D01*
X159337408Y-98698772D01*
X159155694Y-98840206D01*
X159155689Y-98840211D01*
X158999727Y-99009631D01*
X158933508Y-99110987D01*
X158880362Y-99156343D01*
X158811131Y-99165767D01*
X158747795Y-99136265D01*
X158725892Y-99110987D01*
X158703238Y-99076313D01*
X158042962Y-99736589D01*
X158025925Y-99673007D01*
X157960099Y-99558993D01*
X157867007Y-99465901D01*
X157752993Y-99400075D01*
X157689409Y-99383037D01*
X158350958Y-98721486D01*
X158350958Y-98721484D01*
X158322322Y-98699196D01*
X158322316Y-98699192D01*
X158119868Y-98589632D01*
X158119859Y-98589629D01*
X157902150Y-98514889D01*
X157675095Y-98477000D01*
X157444905Y-98477000D01*
X157217849Y-98514889D01*
X157000140Y-98589629D01*
X157000132Y-98589632D01*
X156797681Y-98699194D01*
X156769040Y-98721485D01*
X156769040Y-98721487D01*
X157430591Y-99383037D01*
X157367007Y-99400075D01*
X157252993Y-99465901D01*
X157159901Y-99558993D01*
X157094075Y-99673007D01*
X157077037Y-99736591D01*
X156416760Y-99076314D01*
X156394108Y-99110986D01*
X156340961Y-99156342D01*
X156271730Y-99165766D01*
X156208394Y-99136264D01*
X156186490Y-99110986D01*
X156186191Y-99110528D01*
X156120269Y-99009627D01*
X155964308Y-98840208D01*
X155811775Y-98721487D01*
X155782591Y-98698772D01*
X155580069Y-98589172D01*
X155580061Y-98589169D01*
X155362274Y-98514402D01*
X155191920Y-98485975D01*
X155135137Y-98476500D01*
X154904863Y-98476500D01*
X154859436Y-98484080D01*
X154677725Y-98514402D01*
X154459938Y-98589169D01*
X154459930Y-98589172D01*
X154257408Y-98698772D01*
X154075694Y-98840206D01*
X154075689Y-98840211D01*
X153919727Y-99009630D01*
X153853808Y-99110528D01*
X153800662Y-99155884D01*
X153731431Y-99165308D01*
X153668095Y-99135806D01*
X153646192Y-99110528D01*
X153580272Y-99009630D01*
X153543104Y-98969256D01*
X153424308Y-98840208D01*
X153271775Y-98721487D01*
X153242591Y-98698772D01*
X153040069Y-98589172D01*
X153040061Y-98589169D01*
X152822274Y-98514402D01*
X152651920Y-98485975D01*
X152595137Y-98476500D01*
X152364863Y-98476500D01*
X152319436Y-98484080D01*
X152137725Y-98514402D01*
X151919938Y-98589169D01*
X151919930Y-98589172D01*
X151717408Y-98698772D01*
X151535694Y-98840206D01*
X151535689Y-98840211D01*
X151379727Y-99009630D01*
X151313808Y-99110528D01*
X151260662Y-99155884D01*
X151191431Y-99165308D01*
X151128095Y-99135806D01*
X151106192Y-99110528D01*
X151040272Y-99009630D01*
X151003104Y-98969256D01*
X150884308Y-98840208D01*
X150731775Y-98721487D01*
X150702591Y-98698772D01*
X150500069Y-98589172D01*
X150500061Y-98589169D01*
X150282274Y-98514402D01*
X150111920Y-98485975D01*
X150055137Y-98476500D01*
X149824863Y-98476500D01*
X149779436Y-98484080D01*
X149597725Y-98514402D01*
X149379938Y-98589169D01*
X149379930Y-98589172D01*
X149177408Y-98698772D01*
X148995694Y-98840206D01*
X148995689Y-98840211D01*
X148839727Y-99009630D01*
X148773808Y-99110528D01*
X148720662Y-99155884D01*
X148651431Y-99165308D01*
X148588095Y-99135806D01*
X148566192Y-99110528D01*
X148500272Y-99009630D01*
X148463104Y-98969256D01*
X148344308Y-98840208D01*
X148191775Y-98721487D01*
X148162591Y-98698772D01*
X147960069Y-98589172D01*
X147960061Y-98589169D01*
X147742274Y-98514402D01*
X147571920Y-98485975D01*
X147515137Y-98476500D01*
X147284863Y-98476500D01*
X147239436Y-98484080D01*
X147057725Y-98514402D01*
X146839938Y-98589169D01*
X146839930Y-98589172D01*
X146637408Y-98698772D01*
X146455694Y-98840206D01*
X146455689Y-98840211D01*
X146299727Y-99009630D01*
X146233808Y-99110528D01*
X146180662Y-99155884D01*
X146111431Y-99165308D01*
X146048095Y-99135806D01*
X146026192Y-99110528D01*
X145960272Y-99009630D01*
X145923104Y-98969256D01*
X145804308Y-98840208D01*
X145651775Y-98721487D01*
X145622591Y-98698772D01*
X145420069Y-98589172D01*
X145420061Y-98589169D01*
X145202274Y-98514402D01*
X145031920Y-98485975D01*
X144975137Y-98476500D01*
X144744863Y-98476500D01*
X144699436Y-98484080D01*
X144517725Y-98514402D01*
X144299938Y-98589169D01*
X144299930Y-98589172D01*
X144097408Y-98698772D01*
X143915694Y-98840206D01*
X143915689Y-98840211D01*
X143759727Y-99009630D01*
X143693808Y-99110528D01*
X143640662Y-99155884D01*
X143571431Y-99165308D01*
X143508095Y-99135806D01*
X143486192Y-99110528D01*
X143420272Y-99009630D01*
X143383104Y-98969256D01*
X143264308Y-98840208D01*
X143111775Y-98721487D01*
X143082591Y-98698772D01*
X142880069Y-98589172D01*
X142880061Y-98589169D01*
X142662274Y-98514402D01*
X142491920Y-98485975D01*
X142435137Y-98476500D01*
X142204863Y-98476500D01*
X142159436Y-98484080D01*
X141977725Y-98514402D01*
X141759938Y-98589169D01*
X141759930Y-98589172D01*
X141557408Y-98698772D01*
X141375694Y-98840206D01*
X141375689Y-98840211D01*
X141219728Y-99009629D01*
X141093782Y-99202405D01*
X141001282Y-99413285D01*
X140944753Y-99636515D01*
X140925738Y-99865994D01*
X140925738Y-99866005D01*
X110460500Y-99866005D01*
X110460500Y-85506001D01*
X119959500Y-85506001D01*
X119959501Y-85506019D01*
X119970000Y-85608796D01*
X119970001Y-85608799D01*
X120005359Y-85715500D01*
X120025186Y-85775334D01*
X120117288Y-85924656D01*
X120241344Y-86048712D01*
X120390666Y-86140814D01*
X120557203Y-86195999D01*
X120659991Y-86206500D01*
X122060008Y-86206499D01*
X122162797Y-86195999D01*
X122329334Y-86140814D01*
X122478656Y-86048712D01*
X122602712Y-85924656D01*
X122694814Y-85775334D01*
X122749999Y-85608797D01*
X122760500Y-85506009D01*
X122760499Y-84705992D01*
X122749999Y-84603203D01*
X122694814Y-84436666D01*
X122626558Y-84326005D01*
X135805738Y-84326005D01*
X135824753Y-84555484D01*
X135881282Y-84778714D01*
X135973782Y-84989594D01*
X136099728Y-85182370D01*
X136099731Y-85182373D01*
X136255692Y-85351792D01*
X136369139Y-85440091D01*
X136436868Y-85492807D01*
X136437411Y-85493229D01*
X136639931Y-85602828D01*
X136753025Y-85641653D01*
X136857725Y-85677597D01*
X136857727Y-85677597D01*
X136857729Y-85677598D01*
X137084863Y-85715500D01*
X137084864Y-85715500D01*
X137315136Y-85715500D01*
X137315137Y-85715500D01*
X137542271Y-85677598D01*
X137543693Y-85677110D01*
X137550662Y-85674717D01*
X137760069Y-85602828D01*
X137962589Y-85493229D01*
X138144308Y-85351792D01*
X138300269Y-85182373D01*
X138300271Y-85182370D01*
X138366191Y-85081472D01*
X138419337Y-85036115D01*
X138488569Y-85026691D01*
X138551905Y-85056193D01*
X138573809Y-85081472D01*
X138639728Y-85182370D01*
X138639731Y-85182373D01*
X138795692Y-85351792D01*
X138909139Y-85440091D01*
X138976868Y-85492807D01*
X138977411Y-85493229D01*
X139179931Y-85602828D01*
X139293025Y-85641653D01*
X139397725Y-85677597D01*
X139397727Y-85677597D01*
X139397729Y-85677598D01*
X139624863Y-85715500D01*
X139624864Y-85715500D01*
X139855136Y-85715500D01*
X139855137Y-85715500D01*
X140082271Y-85677598D01*
X140083693Y-85677110D01*
X140090662Y-85674717D01*
X140300069Y-85602828D01*
X140502589Y-85493229D01*
X140684308Y-85351792D01*
X140840269Y-85182373D01*
X140840271Y-85182370D01*
X140906191Y-85081472D01*
X140959337Y-85036115D01*
X141028569Y-85026691D01*
X141091905Y-85056193D01*
X141113809Y-85081472D01*
X141179728Y-85182370D01*
X141179731Y-85182373D01*
X141335692Y-85351792D01*
X141449139Y-85440091D01*
X141516868Y-85492807D01*
X141517411Y-85493229D01*
X141719931Y-85602828D01*
X141833025Y-85641653D01*
X141937725Y-85677597D01*
X141937727Y-85677597D01*
X141937729Y-85677598D01*
X142164863Y-85715500D01*
X142164864Y-85715500D01*
X142395136Y-85715500D01*
X142395137Y-85715500D01*
X142622271Y-85677598D01*
X142623693Y-85677110D01*
X142630662Y-85674717D01*
X142840069Y-85602828D01*
X143042589Y-85493229D01*
X143224308Y-85351792D01*
X143380269Y-85182373D01*
X143380271Y-85182370D01*
X143446191Y-85081472D01*
X143499337Y-85036115D01*
X143568569Y-85026691D01*
X143631905Y-85056193D01*
X143653809Y-85081472D01*
X143719728Y-85182370D01*
X143719731Y-85182373D01*
X143875692Y-85351792D01*
X143989139Y-85440091D01*
X144056868Y-85492807D01*
X144057411Y-85493229D01*
X144259931Y-85602828D01*
X144373025Y-85641653D01*
X144477725Y-85677597D01*
X144477727Y-85677597D01*
X144477729Y-85677598D01*
X144704863Y-85715500D01*
X144704864Y-85715500D01*
X144935136Y-85715500D01*
X144935137Y-85715500D01*
X145162271Y-85677598D01*
X145163693Y-85677110D01*
X145170662Y-85674717D01*
X145380069Y-85602828D01*
X145582589Y-85493229D01*
X145764308Y-85351792D01*
X145920269Y-85182373D01*
X145920271Y-85182370D01*
X145986191Y-85081472D01*
X146039337Y-85036115D01*
X146108569Y-85026691D01*
X146171905Y-85056193D01*
X146193809Y-85081472D01*
X146259728Y-85182370D01*
X146259731Y-85182373D01*
X146415692Y-85351792D01*
X146529139Y-85440091D01*
X146596868Y-85492807D01*
X146597411Y-85493229D01*
X146799931Y-85602828D01*
X146913025Y-85641653D01*
X147017725Y-85677597D01*
X147017727Y-85677597D01*
X147017729Y-85677598D01*
X147244863Y-85715500D01*
X147244864Y-85715500D01*
X147475136Y-85715500D01*
X147475137Y-85715500D01*
X147702271Y-85677598D01*
X147703693Y-85677110D01*
X147710662Y-85674717D01*
X147920069Y-85602828D01*
X148122589Y-85493229D01*
X148304308Y-85351792D01*
X148460269Y-85182373D01*
X148460271Y-85182370D01*
X148526191Y-85081472D01*
X148579337Y-85036115D01*
X148648569Y-85026691D01*
X148711905Y-85056193D01*
X148733809Y-85081472D01*
X148799728Y-85182370D01*
X148799731Y-85182373D01*
X148955692Y-85351792D01*
X149069139Y-85440091D01*
X149136868Y-85492807D01*
X149137411Y-85493229D01*
X149339931Y-85602828D01*
X149453025Y-85641653D01*
X149557725Y-85677597D01*
X149557727Y-85677597D01*
X149557729Y-85677598D01*
X149784863Y-85715500D01*
X149784864Y-85715500D01*
X150015136Y-85715500D01*
X150015137Y-85715500D01*
X150242271Y-85677598D01*
X150243693Y-85677110D01*
X150250662Y-85674717D01*
X150460069Y-85602828D01*
X150662589Y-85493229D01*
X150844308Y-85351792D01*
X151000269Y-85182373D01*
X151000271Y-85182370D01*
X151066191Y-85081472D01*
X151119337Y-85036115D01*
X151188569Y-85026691D01*
X151251905Y-85056193D01*
X151273809Y-85081472D01*
X151339728Y-85182370D01*
X151339731Y-85182373D01*
X151495692Y-85351792D01*
X151609139Y-85440091D01*
X151676868Y-85492807D01*
X151677411Y-85493229D01*
X151879931Y-85602828D01*
X151993025Y-85641653D01*
X152097725Y-85677597D01*
X152097727Y-85677597D01*
X152097729Y-85677598D01*
X152324863Y-85715500D01*
X152324864Y-85715500D01*
X152555136Y-85715500D01*
X152555137Y-85715500D01*
X152782271Y-85677598D01*
X152783693Y-85677110D01*
X152790662Y-85674717D01*
X153000069Y-85602828D01*
X153202589Y-85493229D01*
X153384308Y-85351792D01*
X153540269Y-85182373D01*
X153540271Y-85182370D01*
X153606191Y-85081472D01*
X153659337Y-85036115D01*
X153728569Y-85026691D01*
X153791905Y-85056193D01*
X153813809Y-85081472D01*
X153879728Y-85182370D01*
X153879731Y-85182373D01*
X154035692Y-85351792D01*
X154149139Y-85440091D01*
X154216868Y-85492807D01*
X154217411Y-85493229D01*
X154419931Y-85602828D01*
X154533025Y-85641653D01*
X154637725Y-85677597D01*
X154637727Y-85677597D01*
X154637729Y-85677598D01*
X154864863Y-85715500D01*
X154864864Y-85715500D01*
X155095136Y-85715500D01*
X155095137Y-85715500D01*
X155322271Y-85677598D01*
X155323693Y-85677110D01*
X155330662Y-85674717D01*
X155540069Y-85602828D01*
X155742589Y-85493229D01*
X155924308Y-85351792D01*
X156080269Y-85182373D01*
X156080271Y-85182370D01*
X156146191Y-85081472D01*
X156199337Y-85036115D01*
X156268569Y-85026691D01*
X156331905Y-85056193D01*
X156353809Y-85081472D01*
X156419728Y-85182370D01*
X156419731Y-85182373D01*
X156575692Y-85351792D01*
X156689139Y-85440091D01*
X156756868Y-85492807D01*
X156757411Y-85493229D01*
X156959931Y-85602828D01*
X157073025Y-85641653D01*
X157177725Y-85677597D01*
X157177727Y-85677597D01*
X157177729Y-85677598D01*
X157404863Y-85715500D01*
X157404864Y-85715500D01*
X157635136Y-85715500D01*
X157635137Y-85715500D01*
X157862271Y-85677598D01*
X157863693Y-85677110D01*
X157870662Y-85674717D01*
X158080069Y-85602828D01*
X158282589Y-85493229D01*
X158464308Y-85351792D01*
X158620269Y-85182373D01*
X158620271Y-85182370D01*
X158686191Y-85081472D01*
X158739337Y-85036115D01*
X158808569Y-85026691D01*
X158871905Y-85056193D01*
X158893809Y-85081472D01*
X158959728Y-85182370D01*
X158959731Y-85182373D01*
X159115692Y-85351792D01*
X159229139Y-85440091D01*
X159296868Y-85492807D01*
X159297411Y-85493229D01*
X159499931Y-85602828D01*
X159613025Y-85641653D01*
X159717725Y-85677597D01*
X159717727Y-85677597D01*
X159717729Y-85677598D01*
X159944863Y-85715500D01*
X159944864Y-85715500D01*
X160175136Y-85715500D01*
X160175137Y-85715500D01*
X160402271Y-85677598D01*
X160403693Y-85677110D01*
X160410662Y-85674717D01*
X160620069Y-85602828D01*
X160822589Y-85493229D01*
X161004308Y-85351792D01*
X161160269Y-85182373D01*
X161160271Y-85182370D01*
X161226191Y-85081472D01*
X161279337Y-85036115D01*
X161348569Y-85026691D01*
X161411905Y-85056193D01*
X161433809Y-85081472D01*
X161499728Y-85182370D01*
X161499731Y-85182373D01*
X161655692Y-85351792D01*
X161769139Y-85440091D01*
X161836868Y-85492807D01*
X161837411Y-85493229D01*
X162039931Y-85602828D01*
X162153025Y-85641653D01*
X162257725Y-85677597D01*
X162257727Y-85677597D01*
X162257729Y-85677598D01*
X162484863Y-85715500D01*
X162484864Y-85715500D01*
X162715136Y-85715500D01*
X162715137Y-85715500D01*
X162942271Y-85677598D01*
X162943693Y-85677110D01*
X162950662Y-85674717D01*
X163160069Y-85602828D01*
X163362589Y-85493229D01*
X163544308Y-85351792D01*
X163700269Y-85182373D01*
X163700271Y-85182370D01*
X163766191Y-85081472D01*
X163819337Y-85036115D01*
X163888569Y-85026691D01*
X163951905Y-85056193D01*
X163973809Y-85081472D01*
X164039728Y-85182370D01*
X164039731Y-85182373D01*
X164195692Y-85351792D01*
X164309139Y-85440091D01*
X164376868Y-85492807D01*
X164377411Y-85493229D01*
X164579931Y-85602828D01*
X164693025Y-85641653D01*
X164797725Y-85677597D01*
X164797727Y-85677597D01*
X164797729Y-85677598D01*
X165024863Y-85715500D01*
X165024864Y-85715500D01*
X165255136Y-85715500D01*
X165255137Y-85715500D01*
X165482271Y-85677598D01*
X165483693Y-85677110D01*
X165490662Y-85674717D01*
X165700069Y-85602828D01*
X165902589Y-85493229D01*
X166084308Y-85351792D01*
X166240269Y-85182373D01*
X166306490Y-85081013D01*
X166359636Y-85035657D01*
X166428868Y-85026233D01*
X166492203Y-85055735D01*
X166514108Y-85081013D01*
X166536760Y-85115685D01*
X167197037Y-84455408D01*
X167214075Y-84518993D01*
X167279901Y-84633007D01*
X167372993Y-84726099D01*
X167487007Y-84791925D01*
X167550590Y-84808962D01*
X166889040Y-85470512D01*
X166889040Y-85470514D01*
X166917677Y-85492803D01*
X166917683Y-85492807D01*
X167120131Y-85602367D01*
X167120140Y-85602370D01*
X167337849Y-85677110D01*
X167564905Y-85715000D01*
X167795095Y-85715000D01*
X168022150Y-85677110D01*
X168239859Y-85602370D01*
X168239868Y-85602367D01*
X168442315Y-85492807D01*
X168442316Y-85492806D01*
X168470958Y-85470513D01*
X168470959Y-85470511D01*
X167809410Y-84808962D01*
X167872993Y-84791925D01*
X167987007Y-84726099D01*
X168080099Y-84633007D01*
X168145925Y-84518993D01*
X168162962Y-84455409D01*
X168823238Y-85115685D01*
X168845892Y-85081012D01*
X168899038Y-85035656D01*
X168968269Y-85026232D01*
X169031605Y-85055734D01*
X169053509Y-85081013D01*
X169119728Y-85182370D01*
X169119731Y-85182373D01*
X169275692Y-85351792D01*
X169389139Y-85440091D01*
X169456868Y-85492807D01*
X169457411Y-85493229D01*
X169659931Y-85602828D01*
X169773025Y-85641653D01*
X169877725Y-85677597D01*
X169877727Y-85677597D01*
X169877729Y-85677598D01*
X170104863Y-85715500D01*
X170104864Y-85715500D01*
X170335136Y-85715500D01*
X170335137Y-85715500D01*
X170562271Y-85677598D01*
X170563693Y-85677110D01*
X170570662Y-85674717D01*
X170780069Y-85602828D01*
X170982589Y-85493229D01*
X171164308Y-85351792D01*
X171320269Y-85182373D01*
X171320271Y-85182370D01*
X171386191Y-85081472D01*
X171439337Y-85036115D01*
X171508569Y-85026691D01*
X171571905Y-85056193D01*
X171593809Y-85081472D01*
X171659728Y-85182370D01*
X171659731Y-85182373D01*
X171815692Y-85351792D01*
X171929139Y-85440091D01*
X171996868Y-85492807D01*
X171997411Y-85493229D01*
X172199931Y-85602828D01*
X172313025Y-85641653D01*
X172417725Y-85677597D01*
X172417727Y-85677597D01*
X172417729Y-85677598D01*
X172644863Y-85715500D01*
X172644864Y-85715500D01*
X172875136Y-85715500D01*
X172875137Y-85715500D01*
X173102271Y-85677598D01*
X173103693Y-85677110D01*
X173110662Y-85674717D01*
X173320069Y-85602828D01*
X173522589Y-85493229D01*
X173704308Y-85351792D01*
X173726571Y-85327607D01*
X173786453Y-85291618D01*
X173856292Y-85293717D01*
X173913909Y-85333240D01*
X173933981Y-85368257D01*
X173967203Y-85457330D01*
X173967206Y-85457335D01*
X174053452Y-85572544D01*
X174053455Y-85572547D01*
X174168664Y-85658793D01*
X174168671Y-85658797D01*
X174303517Y-85709091D01*
X174303516Y-85709091D01*
X174310444Y-85709835D01*
X174363127Y-85715500D01*
X176236872Y-85715499D01*
X176296483Y-85709091D01*
X176431331Y-85658796D01*
X176546546Y-85572546D01*
X176632796Y-85457331D01*
X176683091Y-85322483D01*
X176689500Y-85262873D01*
X176689499Y-83389128D01*
X176683091Y-83329517D01*
X176672162Y-83300216D01*
X176632797Y-83194671D01*
X176632793Y-83194664D01*
X176546547Y-83079455D01*
X176546544Y-83079452D01*
X176431335Y-82993206D01*
X176431328Y-82993202D01*
X176296482Y-82942908D01*
X176296483Y-82942908D01*
X176236883Y-82936501D01*
X176236881Y-82936500D01*
X176236873Y-82936500D01*
X176236864Y-82936500D01*
X174363129Y-82936500D01*
X174363123Y-82936501D01*
X174303516Y-82942908D01*
X174168671Y-82993202D01*
X174168664Y-82993206D01*
X174053455Y-83079452D01*
X174053452Y-83079455D01*
X173967206Y-83194664D01*
X173967203Y-83194670D01*
X173933981Y-83283742D01*
X173892109Y-83339675D01*
X173826645Y-83364092D01*
X173758372Y-83349240D01*
X173726569Y-83324390D01*
X173704316Y-83300216D01*
X173704312Y-83300212D01*
X173704308Y-83300208D01*
X173568714Y-83194671D01*
X173522591Y-83158772D01*
X173320069Y-83049172D01*
X173320061Y-83049169D01*
X173102274Y-82974402D01*
X172913538Y-82942908D01*
X172875137Y-82936500D01*
X172644863Y-82936500D01*
X172606462Y-82942908D01*
X172417725Y-82974402D01*
X172199938Y-83049169D01*
X172199930Y-83049172D01*
X171997408Y-83158772D01*
X171815694Y-83300206D01*
X171815689Y-83300211D01*
X171659727Y-83469630D01*
X171593808Y-83570528D01*
X171540662Y-83615884D01*
X171471431Y-83625308D01*
X171408095Y-83595806D01*
X171386192Y-83570528D01*
X171320272Y-83469630D01*
X171246165Y-83389129D01*
X171164308Y-83300208D01*
X171028714Y-83194671D01*
X170982591Y-83158772D01*
X170780069Y-83049172D01*
X170780061Y-83049169D01*
X170562274Y-82974402D01*
X170373538Y-82942908D01*
X170335137Y-82936500D01*
X170104863Y-82936500D01*
X170066462Y-82942908D01*
X169877725Y-82974402D01*
X169659938Y-83049169D01*
X169659930Y-83049172D01*
X169457408Y-83158772D01*
X169275694Y-83300206D01*
X169275689Y-83300211D01*
X169119727Y-83469631D01*
X169053508Y-83570987D01*
X169000362Y-83616343D01*
X168931131Y-83625767D01*
X168867795Y-83596265D01*
X168845892Y-83570987D01*
X168823238Y-83536313D01*
X168162962Y-84196589D01*
X168145925Y-84133007D01*
X168080099Y-84018993D01*
X167987007Y-83925901D01*
X167872993Y-83860075D01*
X167809409Y-83843037D01*
X168470958Y-83181486D01*
X168470958Y-83181484D01*
X168442322Y-83159196D01*
X168442316Y-83159192D01*
X168239868Y-83049632D01*
X168239859Y-83049629D01*
X168022150Y-82974889D01*
X167795095Y-82937000D01*
X167564905Y-82937000D01*
X167337849Y-82974889D01*
X167120140Y-83049629D01*
X167120132Y-83049632D01*
X166917681Y-83159194D01*
X166889040Y-83181485D01*
X166889040Y-83181487D01*
X167550591Y-83843037D01*
X167487007Y-83860075D01*
X167372993Y-83925901D01*
X167279901Y-84018993D01*
X167214075Y-84133007D01*
X167197037Y-84196591D01*
X166536760Y-83536314D01*
X166514108Y-83570986D01*
X166460961Y-83616342D01*
X166391730Y-83625766D01*
X166328394Y-83596264D01*
X166306490Y-83570986D01*
X166306191Y-83570528D01*
X166240269Y-83469627D01*
X166084308Y-83300208D01*
X165948714Y-83194671D01*
X165902591Y-83158772D01*
X165700069Y-83049172D01*
X165700061Y-83049169D01*
X165482274Y-82974402D01*
X165293538Y-82942908D01*
X165255137Y-82936500D01*
X165024863Y-82936500D01*
X164986462Y-82942908D01*
X164797725Y-82974402D01*
X164579938Y-83049169D01*
X164579930Y-83049172D01*
X164377408Y-83158772D01*
X164195694Y-83300206D01*
X164195689Y-83300211D01*
X164039727Y-83469630D01*
X163973808Y-83570528D01*
X163920662Y-83615884D01*
X163851431Y-83625308D01*
X163788095Y-83595806D01*
X163766192Y-83570528D01*
X163700272Y-83469630D01*
X163626165Y-83389129D01*
X163544308Y-83300208D01*
X163408714Y-83194671D01*
X163362591Y-83158772D01*
X163160069Y-83049172D01*
X163160061Y-83049169D01*
X162942274Y-82974402D01*
X162753538Y-82942908D01*
X162715137Y-82936500D01*
X162484863Y-82936500D01*
X162446462Y-82942908D01*
X162257725Y-82974402D01*
X162039938Y-83049169D01*
X162039930Y-83049172D01*
X161837408Y-83158772D01*
X161655694Y-83300206D01*
X161655689Y-83300211D01*
X161499727Y-83469630D01*
X161433808Y-83570528D01*
X161380662Y-83615884D01*
X161311431Y-83625308D01*
X161248095Y-83595806D01*
X161226192Y-83570528D01*
X161160272Y-83469630D01*
X161086165Y-83389129D01*
X161004308Y-83300208D01*
X160868714Y-83194671D01*
X160822591Y-83158772D01*
X160620069Y-83049172D01*
X160620061Y-83049169D01*
X160402274Y-82974402D01*
X160213538Y-82942908D01*
X160175137Y-82936500D01*
X159944863Y-82936500D01*
X159906462Y-82942908D01*
X159717725Y-82974402D01*
X159499938Y-83049169D01*
X159499930Y-83049172D01*
X159297408Y-83158772D01*
X159115694Y-83300206D01*
X159115689Y-83300211D01*
X158959727Y-83469630D01*
X158893808Y-83570528D01*
X158840662Y-83615884D01*
X158771431Y-83625308D01*
X158708095Y-83595806D01*
X158686192Y-83570528D01*
X158620272Y-83469630D01*
X158546165Y-83389129D01*
X158464308Y-83300208D01*
X158328714Y-83194671D01*
X158282591Y-83158772D01*
X158080069Y-83049172D01*
X158080061Y-83049169D01*
X157862274Y-82974402D01*
X157673538Y-82942908D01*
X157635137Y-82936500D01*
X157404863Y-82936500D01*
X157366462Y-82942908D01*
X157177725Y-82974402D01*
X156959938Y-83049169D01*
X156959930Y-83049172D01*
X156757408Y-83158772D01*
X156575694Y-83300206D01*
X156575689Y-83300211D01*
X156419727Y-83469630D01*
X156353808Y-83570528D01*
X156300662Y-83615884D01*
X156231431Y-83625308D01*
X156168095Y-83595806D01*
X156146192Y-83570528D01*
X156080272Y-83469630D01*
X156006165Y-83389129D01*
X155924308Y-83300208D01*
X155788714Y-83194671D01*
X155742591Y-83158772D01*
X155540069Y-83049172D01*
X155540061Y-83049169D01*
X155322274Y-82974402D01*
X155133538Y-82942908D01*
X155095137Y-82936500D01*
X154864863Y-82936500D01*
X154826462Y-82942908D01*
X154637725Y-82974402D01*
X154419938Y-83049169D01*
X154419930Y-83049172D01*
X154217408Y-83158772D01*
X154035694Y-83300206D01*
X154035689Y-83300211D01*
X153879727Y-83469630D01*
X153813808Y-83570528D01*
X153760662Y-83615884D01*
X153691431Y-83625308D01*
X153628095Y-83595806D01*
X153606192Y-83570528D01*
X153540272Y-83469630D01*
X153466165Y-83389129D01*
X153384308Y-83300208D01*
X153248714Y-83194671D01*
X153202591Y-83158772D01*
X153000069Y-83049172D01*
X153000061Y-83049169D01*
X152782274Y-82974402D01*
X152593538Y-82942908D01*
X152555137Y-82936500D01*
X152324863Y-82936500D01*
X152286462Y-82942908D01*
X152097725Y-82974402D01*
X151879938Y-83049169D01*
X151879930Y-83049172D01*
X151677408Y-83158772D01*
X151495694Y-83300206D01*
X151495689Y-83300211D01*
X151339727Y-83469630D01*
X151273808Y-83570528D01*
X151220662Y-83615884D01*
X151151431Y-83625308D01*
X151088095Y-83595806D01*
X151066192Y-83570528D01*
X151000272Y-83469630D01*
X150926165Y-83389129D01*
X150844308Y-83300208D01*
X150708714Y-83194671D01*
X150662591Y-83158772D01*
X150460069Y-83049172D01*
X150460061Y-83049169D01*
X150242274Y-82974402D01*
X150053538Y-82942908D01*
X150015137Y-82936500D01*
X149784863Y-82936500D01*
X149746462Y-82942908D01*
X149557725Y-82974402D01*
X149339938Y-83049169D01*
X149339930Y-83049172D01*
X149137408Y-83158772D01*
X148955694Y-83300206D01*
X148955689Y-83300211D01*
X148799727Y-83469630D01*
X148733808Y-83570528D01*
X148680662Y-83615884D01*
X148611431Y-83625308D01*
X148548095Y-83595806D01*
X148526192Y-83570528D01*
X148460272Y-83469630D01*
X148386165Y-83389129D01*
X148304308Y-83300208D01*
X148168714Y-83194671D01*
X148122591Y-83158772D01*
X147920069Y-83049172D01*
X147920061Y-83049169D01*
X147702274Y-82974402D01*
X147513538Y-82942908D01*
X147475137Y-82936500D01*
X147244863Y-82936500D01*
X147206462Y-82942908D01*
X147017725Y-82974402D01*
X146799938Y-83049169D01*
X146799930Y-83049172D01*
X146597408Y-83158772D01*
X146415694Y-83300206D01*
X146415689Y-83300211D01*
X146259727Y-83469630D01*
X146193808Y-83570528D01*
X146140662Y-83615884D01*
X146071431Y-83625308D01*
X146008095Y-83595806D01*
X145986192Y-83570528D01*
X145920272Y-83469630D01*
X145846165Y-83389129D01*
X145764308Y-83300208D01*
X145628714Y-83194671D01*
X145582591Y-83158772D01*
X145380069Y-83049172D01*
X145380061Y-83049169D01*
X145162274Y-82974402D01*
X144973538Y-82942908D01*
X144935137Y-82936500D01*
X144704863Y-82936500D01*
X144666462Y-82942908D01*
X144477725Y-82974402D01*
X144259938Y-83049169D01*
X144259930Y-83049172D01*
X144057408Y-83158772D01*
X143875694Y-83300206D01*
X143875689Y-83300211D01*
X143719727Y-83469630D01*
X143653808Y-83570528D01*
X143600662Y-83615884D01*
X143531431Y-83625308D01*
X143468095Y-83595806D01*
X143446192Y-83570528D01*
X143380272Y-83469630D01*
X143306165Y-83389129D01*
X143224308Y-83300208D01*
X143088714Y-83194671D01*
X143042591Y-83158772D01*
X142840069Y-83049172D01*
X142840061Y-83049169D01*
X142622274Y-82974402D01*
X142433538Y-82942908D01*
X142395137Y-82936500D01*
X142164863Y-82936500D01*
X142126462Y-82942908D01*
X141937725Y-82974402D01*
X141719938Y-83049169D01*
X141719930Y-83049172D01*
X141517408Y-83158772D01*
X141335694Y-83300206D01*
X141335689Y-83300211D01*
X141179727Y-83469630D01*
X141113808Y-83570528D01*
X141060662Y-83615884D01*
X140991431Y-83625308D01*
X140928095Y-83595806D01*
X140906192Y-83570528D01*
X140840272Y-83469630D01*
X140766165Y-83389129D01*
X140684308Y-83300208D01*
X140548714Y-83194671D01*
X140502591Y-83158772D01*
X140300069Y-83049172D01*
X140300061Y-83049169D01*
X140082274Y-82974402D01*
X139893538Y-82942908D01*
X139855137Y-82936500D01*
X139624863Y-82936500D01*
X139586462Y-82942908D01*
X139397725Y-82974402D01*
X139179938Y-83049169D01*
X139179930Y-83049172D01*
X138977408Y-83158772D01*
X138795694Y-83300206D01*
X138795689Y-83300211D01*
X138639727Y-83469630D01*
X138573808Y-83570528D01*
X138520662Y-83615884D01*
X138451431Y-83625308D01*
X138388095Y-83595806D01*
X138366192Y-83570528D01*
X138300272Y-83469630D01*
X138226165Y-83389129D01*
X138144308Y-83300208D01*
X138008714Y-83194671D01*
X137962591Y-83158772D01*
X137760069Y-83049172D01*
X137760061Y-83049169D01*
X137542274Y-82974402D01*
X137353538Y-82942908D01*
X137315137Y-82936500D01*
X137084863Y-82936500D01*
X137046462Y-82942908D01*
X136857725Y-82974402D01*
X136639938Y-83049169D01*
X136639930Y-83049172D01*
X136437408Y-83158772D01*
X136255694Y-83300206D01*
X136255689Y-83300211D01*
X136099728Y-83469629D01*
X135973782Y-83662405D01*
X135881282Y-83873285D01*
X135824753Y-84096515D01*
X135805738Y-84325994D01*
X135805738Y-84326005D01*
X122626558Y-84326005D01*
X122602712Y-84287344D01*
X122478656Y-84163288D01*
X122478652Y-84163285D01*
X122414456Y-84123688D01*
X122367731Y-84071740D01*
X122356510Y-84002777D01*
X122384353Y-83938695D01*
X122391850Y-83930491D01*
X122499414Y-83822928D01*
X122601232Y-83682788D01*
X122679873Y-83528445D01*
X122733402Y-83363701D01*
X122760500Y-83192611D01*
X122760500Y-83019389D01*
X122733402Y-82848299D01*
X122679873Y-82683555D01*
X122601232Y-82529212D01*
X122499414Y-82389072D01*
X122376928Y-82266586D01*
X122236788Y-82164768D01*
X122082445Y-82086127D01*
X121917701Y-82032598D01*
X121917699Y-82032597D01*
X121917698Y-82032597D01*
X121786271Y-82011781D01*
X121746611Y-82005500D01*
X120973389Y-82005500D01*
X120933728Y-82011781D01*
X120802302Y-82032597D01*
X120637552Y-82086128D01*
X120483211Y-82164768D01*
X120403256Y-82222859D01*
X120343072Y-82266586D01*
X120343070Y-82266588D01*
X120343069Y-82266588D01*
X120220588Y-82389069D01*
X120220588Y-82389070D01*
X120220586Y-82389072D01*
X120176859Y-82449256D01*
X120118768Y-82529211D01*
X120040128Y-82683552D01*
X119986597Y-82848302D01*
X119959500Y-83019389D01*
X119959500Y-83192610D01*
X119984307Y-83349240D01*
X119986598Y-83363701D01*
X120040127Y-83528445D01*
X120118768Y-83682788D01*
X120220586Y-83822928D01*
X120220588Y-83822930D01*
X120328127Y-83930469D01*
X120361612Y-83991792D01*
X120356628Y-84061484D01*
X120314756Y-84117417D01*
X120305544Y-84123688D01*
X120241344Y-84163287D01*
X120117289Y-84287342D01*
X120025187Y-84436663D01*
X120025186Y-84436666D01*
X119970001Y-84603203D01*
X119970001Y-84603204D01*
X119970000Y-84603204D01*
X119959500Y-84705983D01*
X119959500Y-85506001D01*
X110460500Y-85506001D01*
X110460500Y-81194695D01*
X122359500Y-81194695D01*
X122394103Y-81368658D01*
X122394106Y-81368667D01*
X122461983Y-81532540D01*
X122461990Y-81532553D01*
X122560535Y-81680034D01*
X122560538Y-81680038D01*
X122685961Y-81805461D01*
X122685965Y-81805464D01*
X122833446Y-81904009D01*
X122833459Y-81904016D01*
X122956363Y-81954923D01*
X122997334Y-81971894D01*
X122997336Y-81971894D01*
X122997341Y-81971896D01*
X123171304Y-82006499D01*
X123171307Y-82006500D01*
X123171309Y-82006500D01*
X123348693Y-82006500D01*
X123348694Y-82006499D01*
X123406682Y-81994964D01*
X123522658Y-81971896D01*
X123522661Y-81971894D01*
X123522666Y-81971894D01*
X123686547Y-81904013D01*
X123834035Y-81805464D01*
X123959464Y-81680035D01*
X124058013Y-81532547D01*
X124125894Y-81368666D01*
X124160500Y-81194691D01*
X124160500Y-81017309D01*
X124160500Y-81017306D01*
X124160499Y-81017304D01*
X124125896Y-80843341D01*
X124125893Y-80843332D01*
X124058016Y-80679459D01*
X124058009Y-80679446D01*
X123959464Y-80531965D01*
X123959461Y-80531961D01*
X123834038Y-80406538D01*
X123834034Y-80406535D01*
X123686553Y-80307990D01*
X123686540Y-80307983D01*
X123522667Y-80240106D01*
X123522658Y-80240103D01*
X123348694Y-80205500D01*
X123348691Y-80205500D01*
X123171309Y-80205500D01*
X123171306Y-80205500D01*
X122997341Y-80240103D01*
X122997332Y-80240106D01*
X122833459Y-80307983D01*
X122833446Y-80307990D01*
X122685965Y-80406535D01*
X122685961Y-80406538D01*
X122560538Y-80531961D01*
X122560535Y-80531965D01*
X122461990Y-80679446D01*
X122461983Y-80679459D01*
X122394106Y-80843332D01*
X122394103Y-80843341D01*
X122359500Y-81017304D01*
X122359500Y-81194695D01*
X110460500Y-81194695D01*
X110460500Y-79856000D01*
X112554532Y-79856000D01*
X112574365Y-80082692D01*
X112574366Y-80082694D01*
X112633258Y-80302488D01*
X112633261Y-80302497D01*
X112729431Y-80508732D01*
X112729432Y-80508734D01*
X112859954Y-80695141D01*
X113020858Y-80856045D01*
X113020861Y-80856047D01*
X113207266Y-80986568D01*
X113413504Y-81082739D01*
X113633308Y-81141635D01*
X113795230Y-81155801D01*
X113859998Y-81161468D01*
X113860000Y-81161468D01*
X113860002Y-81161468D01*
X113916673Y-81156509D01*
X114086692Y-81141635D01*
X114306496Y-81082739D01*
X114512734Y-80986568D01*
X114699139Y-80856047D01*
X114860047Y-80695139D01*
X114990568Y-80508734D01*
X115086739Y-80302496D01*
X115145635Y-80082692D01*
X115165468Y-79856000D01*
X115145635Y-79629308D01*
X115086739Y-79409504D01*
X114990568Y-79203266D01*
X114860047Y-79016861D01*
X114860045Y-79016858D01*
X114699141Y-78855954D01*
X114512734Y-78725432D01*
X114497614Y-78718381D01*
X114445176Y-78672211D01*
X114426023Y-78605018D01*
X114446238Y-78538136D01*
X114497614Y-78493618D01*
X114512734Y-78486568D01*
X114699139Y-78356047D01*
X114860047Y-78195139D01*
X114990568Y-78008734D01*
X115086739Y-77802496D01*
X115145635Y-77582692D01*
X115165468Y-77356000D01*
X115145635Y-77129308D01*
X115086739Y-76909504D01*
X114990568Y-76703266D01*
X114860047Y-76516861D01*
X114860045Y-76516858D01*
X114699141Y-76355954D01*
X114512734Y-76225432D01*
X114512732Y-76225431D01*
X114306497Y-76129261D01*
X114306488Y-76129258D01*
X114086697Y-76070366D01*
X114086693Y-76070365D01*
X114086692Y-76070365D01*
X114086691Y-76070364D01*
X114086686Y-76070364D01*
X113860002Y-76050532D01*
X113859998Y-76050532D01*
X113633313Y-76070364D01*
X113633302Y-76070366D01*
X113413511Y-76129258D01*
X113413502Y-76129261D01*
X113207267Y-76225431D01*
X113207265Y-76225432D01*
X113020858Y-76355954D01*
X112859954Y-76516858D01*
X112729432Y-76703265D01*
X112729431Y-76703267D01*
X112633261Y-76909502D01*
X112633258Y-76909511D01*
X112574366Y-77129302D01*
X112574364Y-77129313D01*
X112554532Y-77355998D01*
X112554532Y-77356001D01*
X112574364Y-77582686D01*
X112574366Y-77582697D01*
X112633258Y-77802488D01*
X112633261Y-77802497D01*
X112729431Y-78008732D01*
X112729432Y-78008734D01*
X112859954Y-78195141D01*
X113020858Y-78356045D01*
X113020861Y-78356047D01*
X113207266Y-78486568D01*
X113222387Y-78493619D01*
X113274825Y-78539791D01*
X113293976Y-78606985D01*
X113273760Y-78673866D01*
X113222387Y-78718380D01*
X113207266Y-78725432D01*
X113207264Y-78725433D01*
X113020858Y-78855954D01*
X112859954Y-79016858D01*
X112729432Y-79203265D01*
X112729431Y-79203267D01*
X112633261Y-79409502D01*
X112633258Y-79409511D01*
X112574366Y-79629302D01*
X112574364Y-79629313D01*
X112554532Y-79855998D01*
X112554532Y-79856000D01*
X110460500Y-79856000D01*
X110460500Y-74106005D01*
X117350116Y-74106005D01*
X117369617Y-74341347D01*
X117427591Y-74570283D01*
X117522454Y-74786549D01*
X117610749Y-74921695D01*
X118205745Y-74326700D01*
X118234994Y-74397312D01*
X118302298Y-74498040D01*
X118387960Y-74583702D01*
X118488688Y-74651006D01*
X118559298Y-74680253D01*
X117963386Y-75276165D01*
X117963386Y-75276167D01*
X117997919Y-75303045D01*
X117997925Y-75303049D01*
X118205621Y-75415449D01*
X118205629Y-75415452D01*
X118428981Y-75492129D01*
X118661921Y-75531000D01*
X118898079Y-75531000D01*
X119131018Y-75492129D01*
X119354370Y-75415452D01*
X119354388Y-75415445D01*
X119562066Y-75303054D01*
X119562075Y-75303048D01*
X119596612Y-75276166D01*
X119596613Y-75276165D01*
X119000701Y-74680253D01*
X119071312Y-74651006D01*
X119172040Y-74583702D01*
X119257702Y-74498040D01*
X119325006Y-74397312D01*
X119354253Y-74326701D01*
X119949248Y-74921696D01*
X119952277Y-74921382D01*
X119999036Y-74881477D01*
X120068267Y-74872052D01*
X120131603Y-74901553D01*
X120153509Y-74926832D01*
X120191227Y-74984564D01*
X120278045Y-75078872D01*
X120351227Y-75158368D01*
X120430927Y-75220401D01*
X120537119Y-75303054D01*
X120537654Y-75303470D01*
X120745421Y-75415908D01*
X120968861Y-75492616D01*
X121201880Y-75531500D01*
X121201881Y-75531500D01*
X121438119Y-75531500D01*
X121438120Y-75531500D01*
X121671139Y-75492616D01*
X121894579Y-75415908D01*
X122102346Y-75303470D01*
X122279121Y-75165880D01*
X122344111Y-75140239D01*
X122412651Y-75153805D01*
X122462976Y-75202273D01*
X122471462Y-75220401D01*
X122491203Y-75273330D01*
X122491206Y-75273335D01*
X122577452Y-75388544D01*
X122577455Y-75388547D01*
X122692664Y-75474793D01*
X122692671Y-75474797D01*
X122827517Y-75525091D01*
X122827516Y-75525091D01*
X122834444Y-75525835D01*
X122887127Y-75531500D01*
X124832872Y-75531499D01*
X124892483Y-75525091D01*
X125027331Y-75474796D01*
X125142546Y-75388546D01*
X125228796Y-75273331D01*
X125279091Y-75138483D01*
X125285500Y-75078873D01*
X125285499Y-73133128D01*
X125279091Y-73073517D01*
X125272966Y-73057096D01*
X125228797Y-72938671D01*
X125228793Y-72938664D01*
X125142547Y-72823455D01*
X125142544Y-72823452D01*
X125027335Y-72737206D01*
X125027328Y-72737202D01*
X124892482Y-72686908D01*
X124892483Y-72686908D01*
X124832883Y-72680501D01*
X124832881Y-72680500D01*
X124832873Y-72680500D01*
X124832865Y-72680500D01*
X124584500Y-72680500D01*
X124517461Y-72660815D01*
X124471706Y-72608011D01*
X124460500Y-72556500D01*
X124460500Y-72306097D01*
X124480185Y-72239058D01*
X124496819Y-72218416D01*
X125539937Y-71175298D01*
X127384571Y-69330663D01*
X127445892Y-69297180D01*
X127495033Y-69296457D01*
X127548757Y-69306500D01*
X127548759Y-69306500D01*
X127771241Y-69306500D01*
X127771243Y-69306500D01*
X127989940Y-69265618D01*
X128197401Y-69185247D01*
X128386562Y-69068124D01*
X128550981Y-68918236D01*
X128685058Y-68740689D01*
X128784229Y-68541528D01*
X128845115Y-68327536D01*
X128865643Y-68106000D01*
X128845115Y-67884464D01*
X128784229Y-67670472D01*
X128784224Y-67670461D01*
X128685061Y-67471316D01*
X128685056Y-67471308D01*
X128550979Y-67293761D01*
X128386562Y-67143876D01*
X128386560Y-67143874D01*
X128197404Y-67026754D01*
X128197398Y-67026752D01*
X127989940Y-66946382D01*
X127771243Y-66905500D01*
X127548757Y-66905500D01*
X127330060Y-66946382D01*
X127198864Y-66997207D01*
X127122601Y-67026752D01*
X127122595Y-67026754D01*
X126933439Y-67143874D01*
X126933437Y-67143876D01*
X126769020Y-67293761D01*
X126634943Y-67471308D01*
X126634938Y-67471316D01*
X126535775Y-67670461D01*
X126535769Y-67670476D01*
X126474885Y-67884462D01*
X126474884Y-67884464D01*
X126454357Y-68105999D01*
X126454357Y-68106000D01*
X126474884Y-68327535D01*
X126474885Y-68327537D01*
X126502420Y-68424312D01*
X126501833Y-68494179D01*
X126470835Y-68545927D01*
X123491286Y-71525478D01*
X123379481Y-71637282D01*
X123379479Y-71637285D01*
X123329361Y-71724094D01*
X123329359Y-71724096D01*
X123300425Y-71774209D01*
X123300424Y-71774210D01*
X123300423Y-71774215D01*
X123259499Y-71926943D01*
X123259499Y-71926945D01*
X123259499Y-72095046D01*
X123259500Y-72095059D01*
X123259500Y-72556500D01*
X123239815Y-72623539D01*
X123187011Y-72669294D01*
X123135500Y-72680500D01*
X122887130Y-72680500D01*
X122887123Y-72680501D01*
X122827516Y-72686908D01*
X122692671Y-72737202D01*
X122692664Y-72737206D01*
X122577455Y-72823452D01*
X122577452Y-72823455D01*
X122491206Y-72938664D01*
X122491203Y-72938670D01*
X122471462Y-72991598D01*
X122429590Y-73047532D01*
X122364125Y-73071948D01*
X122295852Y-73057096D01*
X122279121Y-73046120D01*
X122189792Y-72976592D01*
X122102348Y-72908531D01*
X121894580Y-72796092D01*
X121894571Y-72796089D01*
X121671141Y-72719384D01*
X121476521Y-72686908D01*
X121438120Y-72680500D01*
X121201880Y-72680500D01*
X121163479Y-72686908D01*
X120968858Y-72719384D01*
X120745428Y-72796089D01*
X120745419Y-72796092D01*
X120537651Y-72908531D01*
X120351228Y-73053631D01*
X120351223Y-73053635D01*
X120191225Y-73227438D01*
X120191223Y-73227440D01*
X120153509Y-73285166D01*
X120100363Y-73330523D01*
X120031132Y-73339946D01*
X119967796Y-73310444D01*
X119950451Y-73290427D01*
X119949248Y-73290302D01*
X119354253Y-73885297D01*
X119325006Y-73814688D01*
X119257702Y-73713960D01*
X119172040Y-73628298D01*
X119071312Y-73560994D01*
X119000701Y-73531746D01*
X119596612Y-72935833D01*
X119596612Y-72935831D01*
X119562080Y-72908954D01*
X119562074Y-72908950D01*
X119354378Y-72796550D01*
X119354370Y-72796547D01*
X119131018Y-72719870D01*
X118898079Y-72681000D01*
X118661921Y-72681000D01*
X118428981Y-72719870D01*
X118205629Y-72796547D01*
X118205621Y-72796550D01*
X117997922Y-72908952D01*
X117963386Y-72935831D01*
X117963385Y-72935833D01*
X118559298Y-73531746D01*
X118488688Y-73560994D01*
X118387960Y-73628298D01*
X118302298Y-73713960D01*
X118234994Y-73814688D01*
X118205745Y-73885298D01*
X117610749Y-73290302D01*
X117522454Y-73425450D01*
X117427591Y-73641716D01*
X117369617Y-73870652D01*
X117350116Y-74105994D01*
X117350116Y-74106005D01*
X110460500Y-74106005D01*
X110460500Y-60486000D01*
X126454357Y-60486000D01*
X126474884Y-60707535D01*
X126474885Y-60707537D01*
X126535769Y-60921523D01*
X126535775Y-60921538D01*
X126634938Y-61120683D01*
X126634943Y-61120691D01*
X126769020Y-61298238D01*
X126933437Y-61448123D01*
X126933439Y-61448125D01*
X127122595Y-61565245D01*
X127122596Y-61565245D01*
X127122599Y-61565247D01*
X127330060Y-61645618D01*
X127548757Y-61686500D01*
X127548759Y-61686500D01*
X127771241Y-61686500D01*
X127771243Y-61686500D01*
X127989940Y-61645618D01*
X128197401Y-61565247D01*
X128386562Y-61448124D01*
X128550981Y-61298236D01*
X128685058Y-61120689D01*
X128784229Y-60921528D01*
X128845115Y-60707536D01*
X128865643Y-60486000D01*
X128845115Y-60264464D01*
X128784229Y-60050472D01*
X128784224Y-60050461D01*
X128685061Y-59851316D01*
X128685056Y-59851308D01*
X128550979Y-59673761D01*
X128386562Y-59523876D01*
X128386560Y-59523874D01*
X128197404Y-59406754D01*
X128197398Y-59406752D01*
X127989940Y-59326382D01*
X127771243Y-59285500D01*
X127548757Y-59285500D01*
X127330060Y-59326382D01*
X127198864Y-59377207D01*
X127122601Y-59406752D01*
X127122595Y-59406754D01*
X126933439Y-59523874D01*
X126933437Y-59523876D01*
X126769020Y-59673761D01*
X126634943Y-59851308D01*
X126634938Y-59851316D01*
X126535775Y-60050461D01*
X126535769Y-60050476D01*
X126474885Y-60264462D01*
X126474884Y-60264464D01*
X126454357Y-60485999D01*
X126454357Y-60486000D01*
X110460500Y-60486000D01*
X110460500Y-51406000D01*
X112494551Y-51406000D01*
X112514317Y-51657151D01*
X112573126Y-51902110D01*
X112669533Y-52134859D01*
X112801160Y-52349653D01*
X112801161Y-52349656D01*
X112801164Y-52349659D01*
X112964776Y-52541224D01*
X113070819Y-52631793D01*
X113156343Y-52704838D01*
X113156346Y-52704839D01*
X113371140Y-52836466D01*
X113603889Y-52932873D01*
X113848852Y-52991683D01*
X114100000Y-53011449D01*
X114351148Y-52991683D01*
X114596111Y-52932873D01*
X114828859Y-52836466D01*
X115043659Y-52704836D01*
X115220417Y-52553870D01*
X122659500Y-52553870D01*
X122659501Y-52553876D01*
X122665908Y-52613483D01*
X122716202Y-52748328D01*
X122716206Y-52748335D01*
X122802452Y-52863544D01*
X122802455Y-52863547D01*
X122917664Y-52949793D01*
X122917671Y-52949797D01*
X123052517Y-53000091D01*
X123052516Y-53000091D01*
X123059444Y-53000835D01*
X123112127Y-53006500D01*
X125407872Y-53006499D01*
X125467483Y-53000091D01*
X125602331Y-52949796D01*
X125717546Y-52863546D01*
X125803796Y-52748331D01*
X125854091Y-52613483D01*
X125860500Y-52553873D01*
X125860500Y-51606005D01*
X130765738Y-51606005D01*
X130784753Y-51835484D01*
X130841282Y-52058714D01*
X130933782Y-52269594D01*
X131059728Y-52462370D01*
X131059731Y-52462373D01*
X131215692Y-52631792D01*
X131397411Y-52773229D01*
X131599931Y-52882828D01*
X131702218Y-52917943D01*
X131817725Y-52957597D01*
X131817727Y-52957597D01*
X131817729Y-52957598D01*
X132044863Y-52995500D01*
X132044864Y-52995500D01*
X132275136Y-52995500D01*
X132275137Y-52995500D01*
X132502271Y-52957598D01*
X132720069Y-52882828D01*
X132922589Y-52773229D01*
X133104308Y-52631792D01*
X133260269Y-52462373D01*
X133326191Y-52361472D01*
X133379337Y-52316115D01*
X133448569Y-52306691D01*
X133511905Y-52336193D01*
X133533809Y-52361472D01*
X133599728Y-52462370D01*
X133599731Y-52462373D01*
X133755692Y-52631792D01*
X133937411Y-52773229D01*
X134139931Y-52882828D01*
X134242218Y-52917943D01*
X134357725Y-52957597D01*
X134357727Y-52957597D01*
X134357729Y-52957598D01*
X134584863Y-52995500D01*
X134584864Y-52995500D01*
X134815136Y-52995500D01*
X134815137Y-52995500D01*
X135042271Y-52957598D01*
X135260069Y-52882828D01*
X135462589Y-52773229D01*
X135644308Y-52631792D01*
X135800269Y-52462373D01*
X135866191Y-52361472D01*
X135919337Y-52316115D01*
X135988569Y-52306691D01*
X136051905Y-52336193D01*
X136073809Y-52361472D01*
X136139728Y-52462370D01*
X136139731Y-52462373D01*
X136295692Y-52631792D01*
X136477411Y-52773229D01*
X136679931Y-52882828D01*
X136782218Y-52917943D01*
X136897725Y-52957597D01*
X136897727Y-52957597D01*
X136897729Y-52957598D01*
X137124863Y-52995500D01*
X137124864Y-52995500D01*
X137355136Y-52995500D01*
X137355137Y-52995500D01*
X137582271Y-52957598D01*
X137800069Y-52882828D01*
X138002589Y-52773229D01*
X138184308Y-52631792D01*
X138340269Y-52462373D01*
X138406191Y-52361472D01*
X138459337Y-52316115D01*
X138528569Y-52306691D01*
X138591905Y-52336193D01*
X138613809Y-52361472D01*
X138679728Y-52462370D01*
X138679731Y-52462373D01*
X138835692Y-52631792D01*
X139017411Y-52773229D01*
X139219931Y-52882828D01*
X139322218Y-52917943D01*
X139437725Y-52957597D01*
X139437727Y-52957597D01*
X139437729Y-52957598D01*
X139664863Y-52995500D01*
X139664864Y-52995500D01*
X139895136Y-52995500D01*
X139895137Y-52995500D01*
X140122271Y-52957598D01*
X140164237Y-52943190D01*
X140234033Y-52940040D01*
X140294454Y-52975126D01*
X140326316Y-53037308D01*
X140328499Y-53060472D01*
X140328499Y-53086046D01*
X140328500Y-53086059D01*
X140328500Y-62565259D01*
X140308815Y-62632298D01*
X140256011Y-62678053D01*
X140186853Y-62687997D01*
X140164238Y-62682540D01*
X140082276Y-62654402D01*
X139892992Y-62622817D01*
X139855137Y-62616500D01*
X139624863Y-62616500D01*
X139579436Y-62624080D01*
X139397725Y-62654402D01*
X139179938Y-62729169D01*
X139179930Y-62729172D01*
X138977408Y-62838772D01*
X138795694Y-62980206D01*
X138795689Y-62980211D01*
X138639727Y-63149630D01*
X138573808Y-63250528D01*
X138520662Y-63295884D01*
X138451431Y-63305308D01*
X138388095Y-63275806D01*
X138366192Y-63250528D01*
X138300272Y-63149630D01*
X138263104Y-63109256D01*
X138144308Y-62980208D01*
X138076036Y-62927070D01*
X137962591Y-62838772D01*
X137760069Y-62729172D01*
X137760061Y-62729169D01*
X137542274Y-62654402D01*
X137360849Y-62624128D01*
X137315137Y-62616500D01*
X137084863Y-62616500D01*
X137039436Y-62624080D01*
X136857725Y-62654402D01*
X136639938Y-62729169D01*
X136639930Y-62729172D01*
X136437408Y-62838772D01*
X136255694Y-62980206D01*
X136255689Y-62980211D01*
X136099728Y-63149629D01*
X135973782Y-63342405D01*
X135881282Y-63553285D01*
X135824753Y-63776515D01*
X135805738Y-64005994D01*
X135805738Y-64006005D01*
X135824753Y-64235484D01*
X135881282Y-64458714D01*
X135973782Y-64669594D01*
X136099728Y-64862370D01*
X136099731Y-64862373D01*
X136255692Y-65031792D01*
X136437411Y-65173229D01*
X136639931Y-65282828D01*
X136753025Y-65321653D01*
X136857725Y-65357597D01*
X136857727Y-65357597D01*
X136857729Y-65357598D01*
X137084863Y-65395500D01*
X137084864Y-65395500D01*
X137315136Y-65395500D01*
X137315137Y-65395500D01*
X137542271Y-65357598D01*
X137760069Y-65282828D01*
X137962589Y-65173229D01*
X138144308Y-65031792D01*
X138300269Y-64862373D01*
X138366191Y-64761472D01*
X138419337Y-64716115D01*
X138488569Y-64706691D01*
X138551905Y-64736193D01*
X138573809Y-64761472D01*
X138639728Y-64862370D01*
X138639731Y-64862373D01*
X138795692Y-65031792D01*
X138977411Y-65173229D01*
X139179931Y-65282828D01*
X139293025Y-65321653D01*
X139397725Y-65357597D01*
X139397727Y-65357597D01*
X139397729Y-65357598D01*
X139624863Y-65395500D01*
X139624864Y-65395500D01*
X139855136Y-65395500D01*
X139855137Y-65395500D01*
X140082271Y-65357598D01*
X140230285Y-65306785D01*
X140249819Y-65300079D01*
X140319618Y-65296929D01*
X140380039Y-65332015D01*
X140397475Y-65355371D01*
X140398360Y-65356904D01*
X140420825Y-65395816D01*
X140448479Y-65443714D01*
X140448481Y-65443717D01*
X140567349Y-65562585D01*
X140567355Y-65562590D01*
X147029298Y-72024533D01*
X147062783Y-72085856D01*
X147064837Y-72098330D01*
X147074630Y-72185249D01*
X147134210Y-72355521D01*
X147230184Y-72508262D01*
X147357738Y-72635816D01*
X147397524Y-72660815D01*
X147490735Y-72719384D01*
X147510478Y-72731789D01*
X147680745Y-72791368D01*
X147680750Y-72791369D01*
X147859996Y-72811565D01*
X147860000Y-72811565D01*
X147860004Y-72811565D01*
X148039249Y-72791369D01*
X148039252Y-72791368D01*
X148039255Y-72791368D01*
X148209522Y-72731789D01*
X148362262Y-72635816D01*
X148489816Y-72508262D01*
X148585789Y-72355522D01*
X148645368Y-72185255D01*
X148655532Y-72095046D01*
X148665565Y-72006003D01*
X148665565Y-72005996D01*
X148645369Y-71826750D01*
X148645368Y-71826745D01*
X148626985Y-71774209D01*
X148585789Y-71656478D01*
X148573727Y-71637282D01*
X148489815Y-71503737D01*
X148362262Y-71376184D01*
X148209521Y-71280210D01*
X148039249Y-71220630D01*
X147952330Y-71210837D01*
X147887916Y-71183770D01*
X147878533Y-71175298D01*
X142310416Y-65607181D01*
X142276931Y-65545858D01*
X142281915Y-65476166D01*
X142323787Y-65420233D01*
X142389251Y-65395816D01*
X142392904Y-65395685D01*
X142395128Y-65395501D01*
X142395134Y-65395500D01*
X142395137Y-65395500D01*
X142622271Y-65357598D01*
X142840069Y-65282828D01*
X143042589Y-65173229D01*
X143224308Y-65031792D01*
X143380269Y-64862373D01*
X143446191Y-64761472D01*
X143499337Y-64716115D01*
X143568569Y-64706691D01*
X143631905Y-64736193D01*
X143653809Y-64761472D01*
X143719728Y-64862370D01*
X143719731Y-64862373D01*
X143875692Y-65031792D01*
X144057411Y-65173229D01*
X144259931Y-65282828D01*
X144373025Y-65321653D01*
X144477725Y-65357597D01*
X144477727Y-65357597D01*
X144477729Y-65357598D01*
X144704863Y-65395500D01*
X144704864Y-65395500D01*
X144935136Y-65395500D01*
X144935137Y-65395500D01*
X145162271Y-65357598D01*
X145380069Y-65282828D01*
X145582589Y-65173229D01*
X145764308Y-65031792D01*
X145920269Y-64862373D01*
X145986191Y-64761472D01*
X146039337Y-64716115D01*
X146108569Y-64706691D01*
X146171905Y-64736193D01*
X146193809Y-64761472D01*
X146259728Y-64862370D01*
X146259731Y-64862373D01*
X146415692Y-65031792D01*
X146597411Y-65173229D01*
X146799931Y-65282828D01*
X146913025Y-65321653D01*
X147017725Y-65357597D01*
X147017727Y-65357597D01*
X147017729Y-65357598D01*
X147244863Y-65395500D01*
X147244864Y-65395500D01*
X147475136Y-65395500D01*
X147475137Y-65395500D01*
X147702271Y-65357598D01*
X147920069Y-65282828D01*
X148122589Y-65173229D01*
X148304308Y-65031792D01*
X148460269Y-64862373D01*
X148526191Y-64761472D01*
X148579337Y-64716115D01*
X148648569Y-64706691D01*
X148711905Y-64736193D01*
X148733809Y-64761472D01*
X148799728Y-64862370D01*
X148799731Y-64862373D01*
X148955692Y-65031792D01*
X149137411Y-65173229D01*
X149339931Y-65282828D01*
X149453025Y-65321653D01*
X149557725Y-65357597D01*
X149557727Y-65357597D01*
X149557729Y-65357598D01*
X149784863Y-65395500D01*
X149784864Y-65395500D01*
X150015136Y-65395500D01*
X150015137Y-65395500D01*
X150242271Y-65357598D01*
X150460069Y-65282828D01*
X150662589Y-65173229D01*
X150844308Y-65031792D01*
X151000269Y-64862373D01*
X151066191Y-64761472D01*
X151119337Y-64716115D01*
X151188569Y-64706691D01*
X151251905Y-64736193D01*
X151273809Y-64761472D01*
X151339728Y-64862370D01*
X151339731Y-64862373D01*
X151495692Y-65031792D01*
X151677411Y-65173229D01*
X151879931Y-65282828D01*
X151993025Y-65321653D01*
X152097725Y-65357597D01*
X152097727Y-65357597D01*
X152097729Y-65357598D01*
X152324863Y-65395500D01*
X152324864Y-65395500D01*
X152555136Y-65395500D01*
X152555137Y-65395500D01*
X152782271Y-65357598D01*
X153000069Y-65282828D01*
X153202589Y-65173229D01*
X153384308Y-65031792D01*
X153540269Y-64862373D01*
X153606191Y-64761472D01*
X153659337Y-64716115D01*
X153728569Y-64706691D01*
X153791905Y-64736193D01*
X153813809Y-64761472D01*
X153879728Y-64862370D01*
X153879731Y-64862373D01*
X154035692Y-65031792D01*
X154217411Y-65173229D01*
X154419931Y-65282828D01*
X154533025Y-65321653D01*
X154637725Y-65357597D01*
X154637727Y-65357597D01*
X154637729Y-65357598D01*
X154864863Y-65395500D01*
X154864864Y-65395500D01*
X155095136Y-65395500D01*
X155095137Y-65395500D01*
X155322271Y-65357598D01*
X155540069Y-65282828D01*
X155742589Y-65173229D01*
X155924308Y-65031792D01*
X156080269Y-64862373D01*
X156146191Y-64761472D01*
X156199337Y-64716115D01*
X156268569Y-64706691D01*
X156331905Y-64736193D01*
X156353809Y-64761472D01*
X156419728Y-64862370D01*
X156419731Y-64862373D01*
X156575692Y-65031792D01*
X156757411Y-65173229D01*
X156959931Y-65282828D01*
X157073025Y-65321653D01*
X157177725Y-65357597D01*
X157177727Y-65357597D01*
X157177729Y-65357598D01*
X157404863Y-65395500D01*
X157404864Y-65395500D01*
X157635136Y-65395500D01*
X157635137Y-65395500D01*
X157862271Y-65357598D01*
X158080069Y-65282828D01*
X158282589Y-65173229D01*
X158464308Y-65031792D01*
X158620269Y-64862373D01*
X158686191Y-64761472D01*
X158739337Y-64716115D01*
X158808569Y-64706691D01*
X158871905Y-64736193D01*
X158893809Y-64761472D01*
X158959728Y-64862370D01*
X158959731Y-64862373D01*
X159115692Y-65031792D01*
X159297411Y-65173229D01*
X159499931Y-65282828D01*
X159613025Y-65321653D01*
X159717725Y-65357597D01*
X159717727Y-65357597D01*
X159717729Y-65357598D01*
X159944863Y-65395500D01*
X159944864Y-65395500D01*
X160175136Y-65395500D01*
X160175137Y-65395500D01*
X160402271Y-65357598D01*
X160620069Y-65282828D01*
X160822589Y-65173229D01*
X161004308Y-65031792D01*
X161160269Y-64862373D01*
X161226191Y-64761472D01*
X161279337Y-64716115D01*
X161348569Y-64706691D01*
X161411905Y-64736193D01*
X161433809Y-64761472D01*
X161499728Y-64862370D01*
X161499731Y-64862373D01*
X161655692Y-65031792D01*
X161837411Y-65173229D01*
X162039931Y-65282828D01*
X162153025Y-65321653D01*
X162257725Y-65357597D01*
X162257727Y-65357597D01*
X162257729Y-65357598D01*
X162484863Y-65395500D01*
X162484864Y-65395500D01*
X162715136Y-65395500D01*
X162715137Y-65395500D01*
X162942271Y-65357598D01*
X163160069Y-65282828D01*
X163362589Y-65173229D01*
X163544308Y-65031792D01*
X163700269Y-64862373D01*
X163766191Y-64761472D01*
X163819337Y-64716115D01*
X163888569Y-64706691D01*
X163951905Y-64736193D01*
X163973809Y-64761472D01*
X164039728Y-64862370D01*
X164039731Y-64862373D01*
X164195692Y-65031792D01*
X164377411Y-65173229D01*
X164579931Y-65282828D01*
X164693025Y-65321653D01*
X164797725Y-65357597D01*
X164797727Y-65357597D01*
X164797729Y-65357598D01*
X165024863Y-65395500D01*
X165024864Y-65395500D01*
X165255136Y-65395500D01*
X165255137Y-65395500D01*
X165482271Y-65357598D01*
X165700069Y-65282828D01*
X165902589Y-65173229D01*
X166084308Y-65031792D01*
X166240269Y-64862373D01*
X166366217Y-64669595D01*
X166458717Y-64458716D01*
X166515246Y-64235488D01*
X166534262Y-64006000D01*
X166515246Y-63776512D01*
X166458717Y-63553284D01*
X166366217Y-63342405D01*
X166341980Y-63305308D01*
X166240271Y-63149629D01*
X166213355Y-63120390D01*
X166084308Y-62980208D01*
X166016036Y-62927070D01*
X165902591Y-62838772D01*
X165700069Y-62729172D01*
X165700061Y-62729169D01*
X165482274Y-62654402D01*
X165300849Y-62624128D01*
X165255137Y-62616500D01*
X165024863Y-62616500D01*
X164979436Y-62624080D01*
X164797725Y-62654402D01*
X164579938Y-62729169D01*
X164579930Y-62729172D01*
X164377408Y-62838772D01*
X164195694Y-62980206D01*
X164195689Y-62980211D01*
X164039727Y-63149630D01*
X163973808Y-63250528D01*
X163920662Y-63295884D01*
X163851431Y-63305308D01*
X163788095Y-63275806D01*
X163766192Y-63250528D01*
X163700272Y-63149630D01*
X163663104Y-63109256D01*
X163544308Y-62980208D01*
X163476036Y-62927070D01*
X163362591Y-62838772D01*
X163160069Y-62729172D01*
X163160061Y-62729169D01*
X162942274Y-62654402D01*
X162760849Y-62624128D01*
X162715137Y-62616500D01*
X162484863Y-62616500D01*
X162439436Y-62624080D01*
X162257725Y-62654402D01*
X162039938Y-62729169D01*
X162039930Y-62729172D01*
X161837408Y-62838772D01*
X161655694Y-62980206D01*
X161655689Y-62980211D01*
X161499727Y-63149630D01*
X161433808Y-63250528D01*
X161380662Y-63295884D01*
X161311431Y-63305308D01*
X161248095Y-63275806D01*
X161226192Y-63250528D01*
X161160272Y-63149630D01*
X161123104Y-63109256D01*
X161004308Y-62980208D01*
X160936036Y-62927070D01*
X160822591Y-62838772D01*
X160620069Y-62729172D01*
X160620061Y-62729169D01*
X160402274Y-62654402D01*
X160220849Y-62624128D01*
X160175137Y-62616500D01*
X159944863Y-62616500D01*
X159899436Y-62624080D01*
X159717725Y-62654402D01*
X159499938Y-62729169D01*
X159499930Y-62729172D01*
X159297408Y-62838772D01*
X159115694Y-62980206D01*
X159115689Y-62980211D01*
X158959727Y-63149630D01*
X158893808Y-63250528D01*
X158840662Y-63295884D01*
X158771431Y-63305308D01*
X158708095Y-63275806D01*
X158686192Y-63250528D01*
X158620272Y-63149630D01*
X158583104Y-63109256D01*
X158464308Y-62980208D01*
X158396036Y-62927070D01*
X158282591Y-62838772D01*
X158080069Y-62729172D01*
X158080061Y-62729169D01*
X157862274Y-62654402D01*
X157680849Y-62624128D01*
X157635137Y-62616500D01*
X157404863Y-62616500D01*
X157359436Y-62624080D01*
X157177725Y-62654402D01*
X156959938Y-62729169D01*
X156959930Y-62729172D01*
X156757408Y-62838772D01*
X156575694Y-62980206D01*
X156575689Y-62980211D01*
X156419727Y-63149630D01*
X156353808Y-63250528D01*
X156300662Y-63295884D01*
X156231431Y-63305308D01*
X156168095Y-63275806D01*
X156146192Y-63250528D01*
X156080272Y-63149630D01*
X156043104Y-63109256D01*
X155924308Y-62980208D01*
X155856036Y-62927070D01*
X155742591Y-62838772D01*
X155540069Y-62729172D01*
X155540061Y-62729169D01*
X155322274Y-62654402D01*
X155140849Y-62624128D01*
X155095137Y-62616500D01*
X154864863Y-62616500D01*
X154819436Y-62624080D01*
X154637725Y-62654402D01*
X154419938Y-62729169D01*
X154419930Y-62729172D01*
X154217408Y-62838772D01*
X154035694Y-62980206D01*
X154035689Y-62980211D01*
X153879727Y-63149630D01*
X153813808Y-63250528D01*
X153760662Y-63295884D01*
X153691431Y-63305308D01*
X153628095Y-63275806D01*
X153606192Y-63250528D01*
X153540272Y-63149630D01*
X153503104Y-63109256D01*
X153384308Y-62980208D01*
X153316036Y-62927070D01*
X153202591Y-62838772D01*
X153000069Y-62729172D01*
X153000061Y-62729169D01*
X152782274Y-62654402D01*
X152600849Y-62624128D01*
X152555137Y-62616500D01*
X152324863Y-62616500D01*
X152279436Y-62624080D01*
X152097725Y-62654402D01*
X151879938Y-62729169D01*
X151879930Y-62729172D01*
X151677408Y-62838772D01*
X151495694Y-62980206D01*
X151495689Y-62980211D01*
X151339727Y-63149630D01*
X151273808Y-63250528D01*
X151220662Y-63295884D01*
X151151431Y-63305308D01*
X151088095Y-63275806D01*
X151066192Y-63250528D01*
X151000272Y-63149630D01*
X150963104Y-63109256D01*
X150844308Y-62980208D01*
X150776036Y-62927070D01*
X150662591Y-62838772D01*
X150460069Y-62729172D01*
X150460061Y-62729169D01*
X150242274Y-62654402D01*
X150060849Y-62624128D01*
X150015137Y-62616500D01*
X149784863Y-62616500D01*
X149739436Y-62624080D01*
X149557725Y-62654402D01*
X149339938Y-62729169D01*
X149339930Y-62729172D01*
X149137408Y-62838772D01*
X148955694Y-62980206D01*
X148955689Y-62980211D01*
X148799727Y-63149630D01*
X148733808Y-63250528D01*
X148680662Y-63295884D01*
X148611431Y-63305308D01*
X148548095Y-63275806D01*
X148526192Y-63250528D01*
X148460272Y-63149630D01*
X148423104Y-63109256D01*
X148304308Y-62980208D01*
X148236036Y-62927070D01*
X148122591Y-62838772D01*
X147920069Y-62729172D01*
X147920061Y-62729169D01*
X147702274Y-62654402D01*
X147520849Y-62624128D01*
X147475137Y-62616500D01*
X147358096Y-62616500D01*
X147291057Y-62596815D01*
X147245302Y-62544011D01*
X147235358Y-62474853D01*
X147264383Y-62411297D01*
X147270415Y-62404819D01*
X155232416Y-54442819D01*
X155293739Y-54409334D01*
X155320097Y-54406500D01*
X167973331Y-54406500D01*
X167973347Y-54406501D01*
X167980943Y-54406501D01*
X168139054Y-54406501D01*
X168139057Y-54406501D01*
X168291785Y-54365577D01*
X168341904Y-54336639D01*
X168428716Y-54286520D01*
X168540520Y-54174716D01*
X168540520Y-54174714D01*
X168550728Y-54164507D01*
X168550730Y-54164504D01*
X169743818Y-52971415D01*
X169805139Y-52937932D01*
X169871760Y-52941816D01*
X169917729Y-52957598D01*
X170144863Y-52995500D01*
X170144864Y-52995500D01*
X170375136Y-52995500D01*
X170375137Y-52995500D01*
X170602271Y-52957598D01*
X170820069Y-52882828D01*
X171022589Y-52773229D01*
X171204308Y-52631792D01*
X171360269Y-52462373D01*
X171426191Y-52361472D01*
X171479337Y-52316115D01*
X171548569Y-52306691D01*
X171611905Y-52336193D01*
X171633809Y-52361472D01*
X171699728Y-52462370D01*
X171699731Y-52462373D01*
X171855692Y-52631792D01*
X172037411Y-52773229D01*
X172239931Y-52882828D01*
X172342218Y-52917943D01*
X172457725Y-52957597D01*
X172457727Y-52957597D01*
X172457729Y-52957598D01*
X172684863Y-52995500D01*
X172684864Y-52995500D01*
X172915136Y-52995500D01*
X172915137Y-52995500D01*
X173142271Y-52957598D01*
X173360069Y-52882828D01*
X173562589Y-52773229D01*
X173744308Y-52631792D01*
X173900269Y-52462373D01*
X173966191Y-52361472D01*
X174019337Y-52316115D01*
X174088569Y-52306691D01*
X174151905Y-52336193D01*
X174173809Y-52361472D01*
X174239728Y-52462370D01*
X174239731Y-52462373D01*
X174395692Y-52631792D01*
X174577411Y-52773229D01*
X174779931Y-52882828D01*
X174882218Y-52917943D01*
X174997725Y-52957597D01*
X174997727Y-52957597D01*
X174997729Y-52957598D01*
X175224863Y-52995500D01*
X175224864Y-52995500D01*
X175455136Y-52995500D01*
X175455137Y-52995500D01*
X175682271Y-52957598D01*
X175900069Y-52882828D01*
X176102589Y-52773229D01*
X176284308Y-52631792D01*
X176440269Y-52462373D01*
X176506191Y-52361472D01*
X176559337Y-52316115D01*
X176628569Y-52306691D01*
X176691905Y-52336193D01*
X176713809Y-52361472D01*
X176779728Y-52462370D01*
X176779731Y-52462373D01*
X176935692Y-52631792D01*
X177117411Y-52773229D01*
X177319931Y-52882828D01*
X177422218Y-52917943D01*
X177537725Y-52957597D01*
X177537727Y-52957597D01*
X177537729Y-52957598D01*
X177764863Y-52995500D01*
X177764864Y-52995500D01*
X177995136Y-52995500D01*
X177995137Y-52995500D01*
X178222271Y-52957598D01*
X178440069Y-52882828D01*
X178642589Y-52773229D01*
X178824308Y-52631792D01*
X178980269Y-52462373D01*
X179106217Y-52269595D01*
X179198717Y-52058716D01*
X179255246Y-51835488D01*
X179263697Y-51733493D01*
X179274262Y-51606005D01*
X179274262Y-51605994D01*
X179255246Y-51376515D01*
X179255246Y-51376512D01*
X179198717Y-51153284D01*
X179106217Y-50942405D01*
X179081980Y-50905308D01*
X178980271Y-50749629D01*
X178913540Y-50677140D01*
X178824308Y-50580208D01*
X178756036Y-50527070D01*
X178642591Y-50438772D01*
X178440069Y-50329172D01*
X178440061Y-50329169D01*
X178222274Y-50254402D01*
X178051920Y-50225975D01*
X177995137Y-50216500D01*
X177764863Y-50216500D01*
X177719436Y-50224080D01*
X177537725Y-50254402D01*
X177319938Y-50329169D01*
X177319930Y-50329172D01*
X177117408Y-50438772D01*
X176935694Y-50580206D01*
X176935689Y-50580211D01*
X176779727Y-50749630D01*
X176713808Y-50850528D01*
X176660662Y-50895884D01*
X176591431Y-50905308D01*
X176528095Y-50875806D01*
X176506192Y-50850528D01*
X176440272Y-50749630D01*
X176373540Y-50677140D01*
X176284308Y-50580208D01*
X176216036Y-50527070D01*
X176102591Y-50438772D01*
X175900069Y-50329172D01*
X175900061Y-50329169D01*
X175682274Y-50254402D01*
X175511920Y-50225975D01*
X175455137Y-50216500D01*
X175224863Y-50216500D01*
X175179436Y-50224080D01*
X174997725Y-50254402D01*
X174779938Y-50329169D01*
X174779930Y-50329172D01*
X174577408Y-50438772D01*
X174395694Y-50580206D01*
X174395689Y-50580211D01*
X174239727Y-50749630D01*
X174173808Y-50850528D01*
X174120662Y-50895884D01*
X174051431Y-50905308D01*
X173988095Y-50875806D01*
X173966192Y-50850528D01*
X173900272Y-50749630D01*
X173833540Y-50677140D01*
X173744308Y-50580208D01*
X173676036Y-50527070D01*
X173562591Y-50438772D01*
X173360069Y-50329172D01*
X173360061Y-50329169D01*
X173142274Y-50254402D01*
X172971920Y-50225975D01*
X172915137Y-50216500D01*
X172684863Y-50216500D01*
X172639436Y-50224080D01*
X172457725Y-50254402D01*
X172239938Y-50329169D01*
X172239930Y-50329172D01*
X172037408Y-50438772D01*
X171855694Y-50580206D01*
X171855689Y-50580211D01*
X171699727Y-50749630D01*
X171633808Y-50850528D01*
X171580662Y-50895884D01*
X171511431Y-50905308D01*
X171448095Y-50875806D01*
X171426192Y-50850528D01*
X171360272Y-50749630D01*
X171293540Y-50677140D01*
X171204308Y-50580208D01*
X171136036Y-50527070D01*
X171022591Y-50438772D01*
X170820069Y-50329172D01*
X170820061Y-50329169D01*
X170602274Y-50254402D01*
X170431920Y-50225975D01*
X170375137Y-50216500D01*
X170144863Y-50216500D01*
X170099436Y-50224080D01*
X169917725Y-50254402D01*
X169699938Y-50329169D01*
X169699930Y-50329172D01*
X169497408Y-50438772D01*
X169315694Y-50580206D01*
X169315689Y-50580211D01*
X169159727Y-50749630D01*
X169093808Y-50850528D01*
X169040662Y-50895884D01*
X168971431Y-50905308D01*
X168908095Y-50875806D01*
X168886192Y-50850528D01*
X168820272Y-50749630D01*
X168753540Y-50677140D01*
X168664308Y-50580208D01*
X168596036Y-50527070D01*
X168482591Y-50438772D01*
X168280069Y-50329172D01*
X168280061Y-50329169D01*
X168062274Y-50254402D01*
X167891920Y-50225975D01*
X167835137Y-50216500D01*
X167604863Y-50216500D01*
X167559436Y-50224080D01*
X167377725Y-50254402D01*
X167159938Y-50329169D01*
X167159930Y-50329172D01*
X166957408Y-50438772D01*
X166775694Y-50580206D01*
X166775689Y-50580211D01*
X166619727Y-50749630D01*
X166553808Y-50850528D01*
X166500662Y-50895884D01*
X166431431Y-50905308D01*
X166368095Y-50875806D01*
X166346192Y-50850528D01*
X166280272Y-50749630D01*
X166213540Y-50677140D01*
X166124308Y-50580208D01*
X166056036Y-50527070D01*
X165942591Y-50438772D01*
X165740069Y-50329172D01*
X165740061Y-50329169D01*
X165522274Y-50254402D01*
X165351920Y-50225975D01*
X165295137Y-50216500D01*
X165064863Y-50216500D01*
X165019436Y-50224080D01*
X164837725Y-50254402D01*
X164619938Y-50329169D01*
X164619930Y-50329172D01*
X164417408Y-50438772D01*
X164235694Y-50580206D01*
X164235689Y-50580211D01*
X164079727Y-50749630D01*
X164013808Y-50850528D01*
X163960662Y-50895884D01*
X163891431Y-50905308D01*
X163828095Y-50875806D01*
X163806192Y-50850528D01*
X163740272Y-50749630D01*
X163673540Y-50677140D01*
X163584308Y-50580208D01*
X163516036Y-50527070D01*
X163402591Y-50438772D01*
X163200069Y-50329172D01*
X163200061Y-50329169D01*
X162982274Y-50254402D01*
X162811920Y-50225975D01*
X162755137Y-50216500D01*
X162524863Y-50216500D01*
X162479436Y-50224080D01*
X162297725Y-50254402D01*
X162079938Y-50329169D01*
X162079930Y-50329172D01*
X161877408Y-50438772D01*
X161695694Y-50580206D01*
X161695689Y-50580211D01*
X161539727Y-50749630D01*
X161473808Y-50850528D01*
X161420662Y-50895884D01*
X161351431Y-50905308D01*
X161288095Y-50875806D01*
X161266192Y-50850528D01*
X161200272Y-50749630D01*
X161133540Y-50677140D01*
X161044308Y-50580208D01*
X160976036Y-50527070D01*
X160862591Y-50438772D01*
X160660069Y-50329172D01*
X160660061Y-50329169D01*
X160442274Y-50254402D01*
X160271920Y-50225975D01*
X160215137Y-50216500D01*
X159984863Y-50216500D01*
X159939436Y-50224080D01*
X159757725Y-50254402D01*
X159539938Y-50329169D01*
X159539930Y-50329172D01*
X159337408Y-50438772D01*
X159155694Y-50580206D01*
X159155689Y-50580211D01*
X158999728Y-50749629D01*
X158873782Y-50942405D01*
X158781282Y-51153285D01*
X158724753Y-51376515D01*
X158705738Y-51605994D01*
X158705738Y-51606005D01*
X158724753Y-51835484D01*
X158781282Y-52058714D01*
X158873782Y-52269594D01*
X158999728Y-52462370D01*
X158999731Y-52462373D01*
X159072317Y-52541223D01*
X159124140Y-52597517D01*
X159155062Y-52660172D01*
X159147202Y-52729598D01*
X159103055Y-52783753D01*
X159036637Y-52805444D01*
X159032910Y-52805500D01*
X156087090Y-52805500D01*
X156020051Y-52785815D01*
X155974296Y-52733011D01*
X155964352Y-52663853D01*
X155993377Y-52600297D01*
X155995860Y-52597517D01*
X156036028Y-52553883D01*
X156120269Y-52462373D01*
X156246217Y-52269595D01*
X156338717Y-52058716D01*
X156395246Y-51835488D01*
X156403697Y-51733493D01*
X156414262Y-51606005D01*
X156414262Y-51605994D01*
X156395246Y-51376515D01*
X156395246Y-51376512D01*
X156338717Y-51153284D01*
X156246217Y-50942405D01*
X156221980Y-50905308D01*
X156120271Y-50749629D01*
X156053540Y-50677140D01*
X155964308Y-50580208D01*
X155896036Y-50527070D01*
X155782591Y-50438772D01*
X155580069Y-50329172D01*
X155580061Y-50329169D01*
X155362274Y-50254402D01*
X155191920Y-50225975D01*
X155135137Y-50216500D01*
X154904863Y-50216500D01*
X154859436Y-50224080D01*
X154677725Y-50254402D01*
X154459938Y-50329169D01*
X154459930Y-50329172D01*
X154257408Y-50438772D01*
X154075694Y-50580206D01*
X154075689Y-50580211D01*
X153919727Y-50749630D01*
X153853808Y-50850528D01*
X153800662Y-50895884D01*
X153731431Y-50905308D01*
X153668095Y-50875806D01*
X153646192Y-50850528D01*
X153580272Y-50749630D01*
X153513540Y-50677140D01*
X153424308Y-50580208D01*
X153356036Y-50527070D01*
X153242591Y-50438772D01*
X153040069Y-50329172D01*
X153040061Y-50329169D01*
X152822274Y-50254402D01*
X152651920Y-50225975D01*
X152595137Y-50216500D01*
X152364863Y-50216500D01*
X152319436Y-50224080D01*
X152137725Y-50254402D01*
X151919938Y-50329169D01*
X151919930Y-50329172D01*
X151717408Y-50438772D01*
X151535694Y-50580206D01*
X151535689Y-50580211D01*
X151379727Y-50749630D01*
X151313808Y-50850528D01*
X151260662Y-50895884D01*
X151191431Y-50905308D01*
X151128095Y-50875806D01*
X151106192Y-50850528D01*
X151040272Y-50749630D01*
X150973540Y-50677140D01*
X150884308Y-50580208D01*
X150816036Y-50527070D01*
X150702591Y-50438772D01*
X150500069Y-50329172D01*
X150500061Y-50329169D01*
X150282274Y-50254402D01*
X150111920Y-50225975D01*
X150055137Y-50216500D01*
X149824863Y-50216500D01*
X149779436Y-50224080D01*
X149597725Y-50254402D01*
X149379938Y-50329169D01*
X149379930Y-50329172D01*
X149177408Y-50438772D01*
X148995694Y-50580206D01*
X148995689Y-50580211D01*
X148839727Y-50749630D01*
X148773808Y-50850528D01*
X148720662Y-50895884D01*
X148651431Y-50905308D01*
X148588095Y-50875806D01*
X148566192Y-50850528D01*
X148500272Y-50749630D01*
X148433540Y-50677140D01*
X148344308Y-50580208D01*
X148276036Y-50527070D01*
X148162591Y-50438772D01*
X147960069Y-50329172D01*
X147960061Y-50329169D01*
X147742274Y-50254402D01*
X147571920Y-50225975D01*
X147515137Y-50216500D01*
X147284863Y-50216500D01*
X147239436Y-50224080D01*
X147057725Y-50254402D01*
X146839938Y-50329169D01*
X146839930Y-50329172D01*
X146637408Y-50438772D01*
X146455694Y-50580206D01*
X146455689Y-50580211D01*
X146299727Y-50749630D01*
X146233808Y-50850528D01*
X146180662Y-50895884D01*
X146111431Y-50905308D01*
X146048095Y-50875806D01*
X146026192Y-50850528D01*
X145960272Y-50749630D01*
X145893540Y-50677140D01*
X145804308Y-50580208D01*
X145736036Y-50527070D01*
X145622591Y-50438772D01*
X145420069Y-50329172D01*
X145420061Y-50329169D01*
X145202274Y-50254402D01*
X145031920Y-50225975D01*
X144975137Y-50216500D01*
X144744863Y-50216500D01*
X144699436Y-50224080D01*
X144517725Y-50254402D01*
X144299938Y-50329169D01*
X144299930Y-50329172D01*
X144097408Y-50438772D01*
X143915694Y-50580206D01*
X143915689Y-50580211D01*
X143759727Y-50749630D01*
X143693808Y-50850528D01*
X143640662Y-50895884D01*
X143571431Y-50905308D01*
X143508095Y-50875806D01*
X143486192Y-50850528D01*
X143420272Y-50749630D01*
X143353540Y-50677140D01*
X143264308Y-50580208D01*
X143196036Y-50527070D01*
X143082591Y-50438772D01*
X142880069Y-50329172D01*
X142880061Y-50329169D01*
X142662274Y-50254402D01*
X142491920Y-50225975D01*
X142435137Y-50216500D01*
X142204863Y-50216500D01*
X142159436Y-50224080D01*
X141977725Y-50254402D01*
X141759938Y-50329169D01*
X141759930Y-50329172D01*
X141557408Y-50438772D01*
X141375694Y-50580206D01*
X141375689Y-50580211D01*
X141219727Y-50749630D01*
X141153808Y-50850528D01*
X141100662Y-50895884D01*
X141031431Y-50905308D01*
X140968095Y-50875806D01*
X140946192Y-50850528D01*
X140880272Y-50749630D01*
X140813540Y-50677140D01*
X140724308Y-50580208D01*
X140656036Y-50527070D01*
X140542591Y-50438772D01*
X140340069Y-50329172D01*
X140340061Y-50329169D01*
X140122274Y-50254402D01*
X139951920Y-50225975D01*
X139895137Y-50216500D01*
X139664863Y-50216500D01*
X139619436Y-50224080D01*
X139437725Y-50254402D01*
X139219938Y-50329169D01*
X139219930Y-50329172D01*
X139017408Y-50438772D01*
X138835694Y-50580206D01*
X138835689Y-50580211D01*
X138679727Y-50749630D01*
X138613808Y-50850528D01*
X138560662Y-50895884D01*
X138491431Y-50905308D01*
X138428095Y-50875806D01*
X138406192Y-50850528D01*
X138340272Y-50749630D01*
X138273540Y-50677140D01*
X138184308Y-50580208D01*
X138116036Y-50527070D01*
X138002591Y-50438772D01*
X137800069Y-50329172D01*
X137800061Y-50329169D01*
X137582274Y-50254402D01*
X137411920Y-50225975D01*
X137355137Y-50216500D01*
X137124863Y-50216500D01*
X137079436Y-50224080D01*
X136897725Y-50254402D01*
X136679938Y-50329169D01*
X136679930Y-50329172D01*
X136477408Y-50438772D01*
X136295694Y-50580206D01*
X136295689Y-50580211D01*
X136139727Y-50749630D01*
X136073808Y-50850528D01*
X136020662Y-50895884D01*
X135951431Y-50905308D01*
X135888095Y-50875806D01*
X135866192Y-50850528D01*
X135800272Y-50749630D01*
X135733540Y-50677140D01*
X135644308Y-50580208D01*
X135576036Y-50527070D01*
X135462591Y-50438772D01*
X135260069Y-50329172D01*
X135260061Y-50329169D01*
X135042274Y-50254402D01*
X134871920Y-50225975D01*
X134815137Y-50216500D01*
X134584863Y-50216500D01*
X134539436Y-50224080D01*
X134357725Y-50254402D01*
X134139938Y-50329169D01*
X134139930Y-50329172D01*
X133937408Y-50438772D01*
X133755694Y-50580206D01*
X133755689Y-50580211D01*
X133599727Y-50749630D01*
X133533808Y-50850528D01*
X133480662Y-50895884D01*
X133411431Y-50905308D01*
X133348095Y-50875806D01*
X133326192Y-50850528D01*
X133260272Y-50749630D01*
X133193540Y-50677140D01*
X133104308Y-50580208D01*
X133036036Y-50527070D01*
X132922591Y-50438772D01*
X132720069Y-50329172D01*
X132720061Y-50329169D01*
X132502274Y-50254402D01*
X132331920Y-50225975D01*
X132275137Y-50216500D01*
X132044863Y-50216500D01*
X131999436Y-50224080D01*
X131817725Y-50254402D01*
X131599938Y-50329169D01*
X131599930Y-50329172D01*
X131397408Y-50438772D01*
X131215694Y-50580206D01*
X131215689Y-50580211D01*
X131059728Y-50749629D01*
X130933782Y-50942405D01*
X130841282Y-51153285D01*
X130784753Y-51376515D01*
X130765738Y-51605994D01*
X130765738Y-51606005D01*
X125860500Y-51606005D01*
X125860499Y-50258128D01*
X125854091Y-50198517D01*
X125820017Y-50107161D01*
X125803797Y-50063671D01*
X125803793Y-50063664D01*
X125717547Y-49948455D01*
X125717544Y-49948452D01*
X125602335Y-49862206D01*
X125602328Y-49862202D01*
X125467482Y-49811908D01*
X125467483Y-49811908D01*
X125407883Y-49805501D01*
X125407881Y-49805500D01*
X125407873Y-49805500D01*
X125407864Y-49805500D01*
X123112129Y-49805500D01*
X123112123Y-49805501D01*
X123052516Y-49811908D01*
X122917671Y-49862202D01*
X122917664Y-49862206D01*
X122802455Y-49948452D01*
X122802452Y-49948455D01*
X122716206Y-50063664D01*
X122716202Y-50063671D01*
X122665908Y-50198517D01*
X122659900Y-50254402D01*
X122659501Y-50258123D01*
X122659500Y-50258135D01*
X122659500Y-52553870D01*
X115220417Y-52553870D01*
X115235224Y-52541224D01*
X115398836Y-52349659D01*
X115530466Y-52134859D01*
X115626873Y-51902111D01*
X115685683Y-51657148D01*
X115705449Y-51406000D01*
X115685683Y-51154852D01*
X115626873Y-50909889D01*
X115530466Y-50677140D01*
X115398839Y-50462346D01*
X115398838Y-50462343D01*
X115361875Y-50419066D01*
X115235224Y-50270776D01*
X115108571Y-50162604D01*
X115043656Y-50107161D01*
X115043653Y-50107160D01*
X114828859Y-49975533D01*
X114596110Y-49879126D01*
X114351151Y-49820317D01*
X114100000Y-49800551D01*
X113848848Y-49820317D01*
X113603889Y-49879126D01*
X113371140Y-49975533D01*
X113156346Y-50107160D01*
X113156343Y-50107161D01*
X112964776Y-50270776D01*
X112801161Y-50462343D01*
X112801160Y-50462346D01*
X112669533Y-50677140D01*
X112573126Y-50909889D01*
X112514317Y-51154848D01*
X112494551Y-51406000D01*
X110460500Y-51406000D01*
X110460500Y-47330500D01*
X110480185Y-47263461D01*
X110532989Y-47217706D01*
X110584500Y-47206500D01*
X184335500Y-47206500D01*
X184402539Y-47226185D01*
G37*
%TD.AperFunction*%
%TD*%
M02*
