%TF.GenerationSoftware,KiCad,Pcbnew,8.0.1*%
%TF.CreationDate,2024-05-06T19:00:19+02:00*%
%TF.ProjectId,teamagotchi,7465616d-6167-46f7-9463-68692e6b6963,rev?*%
%TF.SameCoordinates,Original*%
%TF.FileFunction,Soldermask,Bot*%
%TF.FilePolarity,Negative*%
%FSLAX46Y46*%
G04 Gerber Fmt 4.6, Leading zero omitted, Abs format (unit mm)*
G04 Created by KiCad (PCBNEW 8.0.1) date 2024-05-06 19:00:19*
%MOMM*%
%LPD*%
G01*
G04 APERTURE LIST*
G04 Aperture macros list*
%AMRoundRect*
0 Rectangle with rounded corners*
0 $1 Rounding radius*
0 $2 $3 $4 $5 $6 $7 $8 $9 X,Y pos of 4 corners*
0 Add a 4 corners polygon primitive as box body*
4,1,4,$2,$3,$4,$5,$6,$7,$8,$9,$2,$3,0*
0 Add four circle primitives for the rounded corners*
1,1,$1+$1,$2,$3*
1,1,$1+$1,$4,$5*
1,1,$1+$1,$6,$7*
1,1,$1+$1,$8,$9*
0 Add four rect primitives between the rounded corners*
20,1,$1+$1,$2,$3,$4,$5,0*
20,1,$1+$1,$4,$5,$6,$7,0*
20,1,$1+$1,$6,$7,$8,$9,0*
20,1,$1+$1,$8,$9,$2,$3,0*%
G04 Aperture macros list end*
%ADD10C,1.778000*%
%ADD11C,1.800000*%
%ADD12O,2.900000X1.700000*%
%ADD13C,1.400000*%
%ADD14O,1.400000X1.400000*%
%ADD15C,1.600000*%
%ADD16RoundRect,0.102000X0.925000X0.925000X-0.925000X0.925000X-0.925000X-0.925000X0.925000X-0.925000X0*%
%ADD17C,2.054000*%
%ADD18R,2.200000X2.200000*%
%ADD19O,2.200000X2.200000*%
%ADD20RoundRect,0.102000X0.889000X-0.889000X0.889000X0.889000X-0.889000X0.889000X-0.889000X-0.889000X0*%
%ADD21C,1.982000*%
%ADD22C,1.300000*%
%ADD23RoundRect,0.250000X0.650000X-0.350000X0.650000X0.350000X-0.650000X0.350000X-0.650000X-0.350000X0*%
%ADD24O,1.800000X1.200000*%
G04 APERTURE END LIST*
D10*
%TO.C,TFT1*%
X152480000Y-99866000D03*
X144860000Y-99866000D03*
X147400000Y-99866000D03*
X155020000Y-99866000D03*
X157560000Y-99866000D03*
X177880000Y-99866000D03*
X175340000Y-99866000D03*
X172800000Y-99866000D03*
X170260000Y-99866000D03*
X167720000Y-99866000D03*
X165180000Y-99866000D03*
X160100000Y-99866000D03*
X132160000Y-51606000D03*
X134700000Y-51606000D03*
X137240000Y-51606000D03*
X139780000Y-51606000D03*
X142320000Y-51606000D03*
X144860000Y-51606000D03*
X147400000Y-51606000D03*
X149940000Y-51606000D03*
X152480000Y-51606000D03*
X155020000Y-51606000D03*
X160100000Y-51606000D03*
X162640000Y-51606000D03*
X165180000Y-51606000D03*
X167720000Y-51606000D03*
X170260000Y-51606000D03*
X172800000Y-51606000D03*
X175340000Y-51606000D03*
X177880000Y-51606000D03*
X149940000Y-99866000D03*
X142320000Y-99866000D03*
%TD*%
D11*
%TO.C,SW4*%
X121110000Y-124806000D03*
X121110000Y-133806000D03*
D12*
X114860000Y-126806000D03*
X127360000Y-126806000D03*
X114860000Y-131806000D03*
X127360000Y-131806000D03*
%TD*%
D13*
%TO.C,R6*%
X159760000Y-146416000D03*
D14*
X159760000Y-138796000D03*
%TD*%
%TO.C,R4*%
X154560000Y-118906000D03*
D13*
X154560000Y-111286000D03*
%TD*%
%TO.C,R12*%
X127660000Y-60486000D03*
D14*
X127660000Y-68106000D03*
%TD*%
D13*
%TO.C,R10*%
X150960000Y-146426000D03*
D14*
X150960000Y-138806000D03*
%TD*%
D13*
%TO.C,R9*%
X148860000Y-146426000D03*
D14*
X148860000Y-138806000D03*
%TD*%
D13*
%TO.C,R8*%
X116960000Y-147226000D03*
D14*
X116960000Y-139606000D03*
%TD*%
D13*
%TO.C,R7*%
X114860000Y-147216000D03*
D14*
X114860000Y-139596000D03*
%TD*%
D11*
%TO.C,SW2*%
X136610000Y-110306000D03*
X136610000Y-119306000D03*
D12*
X130360000Y-112306000D03*
X142860000Y-112306000D03*
X130360000Y-117306000D03*
X142860000Y-117306000D03*
%TD*%
D15*
%TO.C,C6*%
X148860000Y-151856000D03*
X148860000Y-149356000D03*
%TD*%
%TO.C,C5*%
X114760000Y-153056000D03*
X114760000Y-150556000D03*
%TD*%
%TO.C,C4*%
X157660000Y-151956000D03*
X157660000Y-149456000D03*
%TD*%
%TO.C,C3*%
X156660000Y-107856000D03*
X156660000Y-105356000D03*
%TD*%
%TO.C,C2*%
X174860000Y-105146000D03*
X174860000Y-107646000D03*
%TD*%
D11*
%TO.C,SW5*%
X136610000Y-139306000D03*
X136610000Y-148306000D03*
D12*
X130360000Y-141306000D03*
X142860000Y-141306000D03*
X130360000Y-146306000D03*
X142860000Y-146306000D03*
%TD*%
D16*
%TO.C,Q2*%
X123860000Y-74106000D03*
D17*
X121320000Y-74106000D03*
X118780000Y-74106000D03*
%TD*%
D14*
%TO.C,R3*%
X156660000Y-118906000D03*
D13*
X156660000Y-111286000D03*
%TD*%
D11*
%TO.C,SW3*%
X152110000Y-124806000D03*
X152110000Y-133806000D03*
D12*
X145860000Y-126806000D03*
X158360000Y-126806000D03*
X145860000Y-131806000D03*
X158360000Y-131806000D03*
%TD*%
%TO.C,SW1*%
X179110000Y-131806000D03*
X166610000Y-131806000D03*
X179110000Y-126806000D03*
X166610000Y-126806000D03*
D11*
X172860000Y-133806000D03*
X172860000Y-124806000D03*
%TD*%
D13*
%TO.C,R2*%
X172760000Y-111086000D03*
D14*
X172760000Y-118706000D03*
%TD*%
D13*
%TO.C,R1*%
X174860000Y-111086000D03*
D14*
X174860000Y-118706000D03*
%TD*%
D13*
%TO.C,R5*%
X157660000Y-146416000D03*
D14*
X157660000Y-138796000D03*
%TD*%
D18*
%TO.C,D1*%
X124260000Y-51406000D03*
D19*
X114100000Y-51406000D03*
%TD*%
D20*
%TO.C,U1*%
X175300000Y-84326000D03*
D21*
X172760000Y-84326000D03*
X170220000Y-84326000D03*
X167680000Y-84326000D03*
X165140000Y-84326000D03*
X162600000Y-84326000D03*
X160060000Y-84326000D03*
X157520000Y-84326000D03*
X154980000Y-84326000D03*
X152440000Y-84326000D03*
X149900000Y-84326000D03*
X147360000Y-84326000D03*
X144820000Y-84326000D03*
X142280000Y-84326000D03*
X139740000Y-84326000D03*
X137200000Y-84326000D03*
X137200000Y-64006000D03*
X139740000Y-64006000D03*
X142280000Y-64006000D03*
X144820000Y-64006000D03*
X147360000Y-64006000D03*
X149900000Y-64006000D03*
X152440000Y-64006000D03*
X154980000Y-64006000D03*
X157520000Y-64006000D03*
X160060000Y-64006000D03*
X162600000Y-64006000D03*
X165140000Y-64006000D03*
%TD*%
D22*
%TO.C,M1*%
X123260000Y-81106000D03*
D23*
X121360000Y-85106000D03*
D24*
X121360000Y-83106000D03*
%TD*%
D15*
%TO.C,C1*%
X113860000Y-79856000D03*
X113860000Y-77356000D03*
%TD*%
M02*
