%TF.GenerationSoftware,KiCad,Pcbnew,8.0.1*%
%TF.CreationDate,2024-05-06T19:00:16+02:00*%
%TF.ProjectId,teamagotchi,7465616d-6167-46f7-9463-68692e6b6963,rev?*%
%TF.SameCoordinates,Original*%
%TF.FileFunction,Drillmap*%
%TF.FilePolarity,Positive*%
%FSLAX45Y45*%
G04 Gerber Fmt 4.5, Leading zero omitted, Abs format (unit mm)*
G04 Created by KiCad (PCBNEW 8.0.1) date 2024-05-06 19:00:16*
%MOMM*%
%LPD*%
G01*
G04 APERTURE LIST*
%ADD10C,0.050000*%
%ADD11C,0.200000*%
%ADD12C,0.100000*%
%ADD13C,0.110000*%
%ADD14C,0.120000*%
%ADD15C,0.123000*%
G04 APERTURE END LIST*
D10*
X18496000Y-4670600D02*
X18496000Y-15870600D01*
X10996000Y-4670600D02*
X18496000Y-4670600D01*
X10996000Y-15870600D02*
X10996000Y-4670600D01*
X10996000Y-15870600D02*
X18496000Y-15870600D01*
D11*
D12*
X14771000Y-7185600D02*
X14801000Y-7215600D01*
X14801000Y-7185600D02*
X14771000Y-7215600D01*
X11521000Y-13959600D02*
G75*
G02*
X11451000Y-13959600I-35000J0D01*
G01*
X11451000Y-13959600D02*
G75*
G02*
X11521000Y-13959600I35000J0D01*
G01*
X11521000Y-14721600D02*
G75*
G02*
X11451000Y-14721600I-35000J0D01*
G01*
X11451000Y-14721600D02*
G75*
G02*
X11521000Y-14721600I35000J0D01*
G01*
X11731000Y-13960600D02*
G75*
G02*
X11661000Y-13960600I-35000J0D01*
G01*
X11661000Y-13960600D02*
G75*
G02*
X11731000Y-13960600I35000J0D01*
G01*
X11731000Y-14722600D02*
G75*
G02*
X11661000Y-14722600I-35000J0D01*
G01*
X11661000Y-14722600D02*
G75*
G02*
X11731000Y-14722600I35000J0D01*
G01*
X12801000Y-6048600D02*
G75*
G02*
X12731000Y-6048600I-35000J0D01*
G01*
X12731000Y-6048600D02*
G75*
G02*
X12801000Y-6048600I35000J0D01*
G01*
X12801000Y-6810600D02*
G75*
G02*
X12731000Y-6810600I-35000J0D01*
G01*
X12731000Y-6810600D02*
G75*
G02*
X12801000Y-6810600I35000J0D01*
G01*
X14921000Y-13880600D02*
G75*
G02*
X14851000Y-13880600I-35000J0D01*
G01*
X14851000Y-13880600D02*
G75*
G02*
X14921000Y-13880600I35000J0D01*
G01*
X14921000Y-14642600D02*
G75*
G02*
X14851000Y-14642600I-35000J0D01*
G01*
X14851000Y-14642600D02*
G75*
G02*
X14921000Y-14642600I35000J0D01*
G01*
X15131000Y-13880600D02*
G75*
G02*
X15061000Y-13880600I-35000J0D01*
G01*
X15061000Y-13880600D02*
G75*
G02*
X15131000Y-13880600I35000J0D01*
G01*
X15131000Y-14642600D02*
G75*
G02*
X15061000Y-14642600I-35000J0D01*
G01*
X15061000Y-14642600D02*
G75*
G02*
X15131000Y-14642600I35000J0D01*
G01*
X15491000Y-11128600D02*
G75*
G02*
X15421000Y-11128600I-35000J0D01*
G01*
X15421000Y-11128600D02*
G75*
G02*
X15491000Y-11128600I35000J0D01*
G01*
X15491000Y-11890600D02*
G75*
G02*
X15421000Y-11890600I-35000J0D01*
G01*
X15421000Y-11890600D02*
G75*
G02*
X15491000Y-11890600I35000J0D01*
G01*
X15701000Y-11128600D02*
G75*
G02*
X15631000Y-11128600I-35000J0D01*
G01*
X15631000Y-11128600D02*
G75*
G02*
X15701000Y-11128600I35000J0D01*
G01*
X15701000Y-11890600D02*
G75*
G02*
X15631000Y-11890600I-35000J0D01*
G01*
X15631000Y-11890600D02*
G75*
G02*
X15701000Y-11890600I35000J0D01*
G01*
X15801000Y-13879600D02*
G75*
G02*
X15731000Y-13879600I-35000J0D01*
G01*
X15731000Y-13879600D02*
G75*
G02*
X15801000Y-13879600I35000J0D01*
G01*
X15801000Y-14641600D02*
G75*
G02*
X15731000Y-14641600I-35000J0D01*
G01*
X15731000Y-14641600D02*
G75*
G02*
X15801000Y-14641600I35000J0D01*
G01*
X16011000Y-13879600D02*
G75*
G02*
X15941000Y-13879600I-35000J0D01*
G01*
X15941000Y-13879600D02*
G75*
G02*
X16011000Y-13879600I35000J0D01*
G01*
X16011000Y-14641600D02*
G75*
G02*
X15941000Y-14641600I-35000J0D01*
G01*
X15941000Y-14641600D02*
G75*
G02*
X16011000Y-14641600I35000J0D01*
G01*
X17311000Y-11108600D02*
G75*
G02*
X17241000Y-11108600I-35000J0D01*
G01*
X17241000Y-11108600D02*
G75*
G02*
X17311000Y-11108600I35000J0D01*
G01*
X17311000Y-11870600D02*
G75*
G02*
X17241000Y-11870600I-35000J0D01*
G01*
X17241000Y-11870600D02*
G75*
G02*
X17311000Y-11870600I35000J0D01*
G01*
X17521000Y-11108600D02*
G75*
G02*
X17451000Y-11108600I-35000J0D01*
G01*
X17451000Y-11108600D02*
G75*
G02*
X17521000Y-11108600I35000J0D01*
G01*
X17521000Y-11870600D02*
G75*
G02*
X17451000Y-11870600I-35000J0D01*
G01*
X17451000Y-11870600D02*
G75*
G02*
X17521000Y-11870600I35000J0D01*
G01*
X11386000Y-7695600D02*
X11386000Y-7775600D01*
X11346000Y-7735600D02*
X11426000Y-7735600D01*
X11386000Y-7945600D02*
X11386000Y-8025600D01*
X11346000Y-7985600D02*
X11426000Y-7985600D01*
X11476000Y-15015600D02*
X11476000Y-15095600D01*
X11436000Y-15055600D02*
X11516000Y-15055600D01*
X11476000Y-15265600D02*
X11476000Y-15345600D01*
X11436000Y-15305600D02*
X11516000Y-15305600D01*
X12136000Y-8270600D02*
X12136000Y-8350600D01*
X12096000Y-8310600D02*
X12176000Y-8310600D01*
X12136000Y-8470600D02*
X12136000Y-8550600D01*
X12096000Y-8510600D02*
X12176000Y-8510600D01*
X14886000Y-14895600D02*
X14886000Y-14975600D01*
X14846000Y-14935600D02*
X14926000Y-14935600D01*
X14886000Y-15145600D02*
X14886000Y-15225600D01*
X14846000Y-15185600D02*
X14926000Y-15185600D01*
X15666000Y-10495600D02*
X15666000Y-10575600D01*
X15626000Y-10535600D02*
X15706000Y-10535600D01*
X15666000Y-10745600D02*
X15666000Y-10825600D01*
X15626000Y-10785600D02*
X15706000Y-10785600D01*
X15766000Y-14905600D02*
X15766000Y-14985600D01*
X15726000Y-14945600D02*
X15806000Y-14945600D01*
X15766000Y-15155600D02*
X15766000Y-15235600D01*
X15726000Y-15195600D02*
X15806000Y-15195600D01*
X17486000Y-10474600D02*
X17486000Y-10554600D01*
X17446000Y-10514600D02*
X17526000Y-10514600D01*
X17486000Y-10724600D02*
X17486000Y-10804600D01*
X17446000Y-10764600D02*
X17526000Y-10764600D01*
X13251356Y-5195956D02*
X13251356Y-5125244D01*
X13180644Y-5125244D01*
X13180644Y-5195956D01*
X13251356Y-5195956D01*
X13505356Y-5195956D02*
X13505356Y-5125244D01*
X13434644Y-5125244D01*
X13434644Y-5195956D01*
X13505356Y-5195956D01*
X13755356Y-6435956D02*
X13755356Y-6365244D01*
X13684644Y-6365244D01*
X13684644Y-6435956D01*
X13755356Y-6435956D01*
X13755356Y-8467956D02*
X13755356Y-8397244D01*
X13684644Y-8397244D01*
X13684644Y-8467956D01*
X13755356Y-8467956D01*
X13759356Y-5195956D02*
X13759356Y-5125244D01*
X13688644Y-5125244D01*
X13688644Y-5195956D01*
X13759356Y-5195956D01*
X14009356Y-6435956D02*
X14009356Y-6365244D01*
X13938644Y-6365244D01*
X13938644Y-6435956D01*
X14009356Y-6435956D01*
X14009356Y-8467956D02*
X14009356Y-8397244D01*
X13938644Y-8397244D01*
X13938644Y-8467956D01*
X14009356Y-8467956D01*
X14013356Y-5195956D02*
X14013356Y-5125244D01*
X13942644Y-5125244D01*
X13942644Y-5195956D01*
X14013356Y-5195956D01*
X14263356Y-6435956D02*
X14263356Y-6365244D01*
X14192644Y-6365244D01*
X14192644Y-6435956D01*
X14263356Y-6435956D01*
X14263356Y-8467956D02*
X14263356Y-8397244D01*
X14192644Y-8397244D01*
X14192644Y-8467956D01*
X14263356Y-8467956D01*
X14267356Y-5195956D02*
X14267356Y-5125244D01*
X14196644Y-5125244D01*
X14196644Y-5195956D01*
X14267356Y-5195956D01*
X14267356Y-10021956D02*
X14267356Y-9951244D01*
X14196644Y-9951244D01*
X14196644Y-10021956D01*
X14267356Y-10021956D01*
X14517356Y-6435956D02*
X14517356Y-6365244D01*
X14446644Y-6365244D01*
X14446644Y-6435956D01*
X14517356Y-6435956D01*
X14517356Y-8467956D02*
X14517356Y-8397244D01*
X14446644Y-8397244D01*
X14446644Y-8467956D01*
X14517356Y-8467956D01*
X14521356Y-5195956D02*
X14521356Y-5125244D01*
X14450644Y-5125244D01*
X14450644Y-5195956D01*
X14521356Y-5195956D01*
X14521356Y-10021956D02*
X14521356Y-9951244D01*
X14450644Y-9951244D01*
X14450644Y-10021956D01*
X14521356Y-10021956D01*
X14771356Y-6435956D02*
X14771356Y-6365244D01*
X14700644Y-6365244D01*
X14700644Y-6435956D01*
X14771356Y-6435956D01*
X14771356Y-8467956D02*
X14771356Y-8397244D01*
X14700644Y-8397244D01*
X14700644Y-8467956D01*
X14771356Y-8467956D01*
X14775356Y-5195956D02*
X14775356Y-5125244D01*
X14704644Y-5125244D01*
X14704644Y-5195956D01*
X14775356Y-5195956D01*
X14775356Y-10021956D02*
X14775356Y-9951244D01*
X14704644Y-9951244D01*
X14704644Y-10021956D01*
X14775356Y-10021956D01*
X15025356Y-6435956D02*
X15025356Y-6365244D01*
X14954644Y-6365244D01*
X14954644Y-6435956D01*
X15025356Y-6435956D01*
X15025356Y-8467956D02*
X15025356Y-8397244D01*
X14954644Y-8397244D01*
X14954644Y-8467956D01*
X15025356Y-8467956D01*
X15029356Y-5195956D02*
X15029356Y-5125244D01*
X14958644Y-5125244D01*
X14958644Y-5195956D01*
X15029356Y-5195956D01*
X15029356Y-10021956D02*
X15029356Y-9951244D01*
X14958644Y-9951244D01*
X14958644Y-10021956D01*
X15029356Y-10021956D01*
X15279356Y-6435956D02*
X15279356Y-6365244D01*
X15208644Y-6365244D01*
X15208644Y-6435956D01*
X15279356Y-6435956D01*
X15279356Y-8467956D02*
X15279356Y-8397244D01*
X15208644Y-8397244D01*
X15208644Y-8467956D01*
X15279356Y-8467956D01*
X15283356Y-5195956D02*
X15283356Y-5125244D01*
X15212644Y-5125244D01*
X15212644Y-5195956D01*
X15283356Y-5195956D01*
X15283356Y-10021956D02*
X15283356Y-9951244D01*
X15212644Y-9951244D01*
X15212644Y-10021956D01*
X15283356Y-10021956D01*
X15533356Y-6435956D02*
X15533356Y-6365244D01*
X15462644Y-6365244D01*
X15462644Y-6435956D01*
X15533356Y-6435956D01*
X15533356Y-8467956D02*
X15533356Y-8397244D01*
X15462644Y-8397244D01*
X15462644Y-8467956D01*
X15533356Y-8467956D01*
X15537356Y-5195956D02*
X15537356Y-5125244D01*
X15466644Y-5125244D01*
X15466644Y-5195956D01*
X15537356Y-5195956D01*
X15537356Y-10021956D02*
X15537356Y-9951244D01*
X15466644Y-9951244D01*
X15466644Y-10021956D01*
X15537356Y-10021956D01*
X15787356Y-6435956D02*
X15787356Y-6365244D01*
X15716644Y-6365244D01*
X15716644Y-6435956D01*
X15787356Y-6435956D01*
X15787356Y-8467956D02*
X15787356Y-8397244D01*
X15716644Y-8397244D01*
X15716644Y-8467956D01*
X15787356Y-8467956D01*
X15791356Y-10021956D02*
X15791356Y-9951244D01*
X15720644Y-9951244D01*
X15720644Y-10021956D01*
X15791356Y-10021956D01*
X16041356Y-6435956D02*
X16041356Y-6365244D01*
X15970644Y-6365244D01*
X15970644Y-6435956D01*
X16041356Y-6435956D01*
X16041356Y-8467956D02*
X16041356Y-8397244D01*
X15970644Y-8397244D01*
X15970644Y-8467956D01*
X16041356Y-8467956D01*
X16045356Y-5195956D02*
X16045356Y-5125244D01*
X15974644Y-5125244D01*
X15974644Y-5195956D01*
X16045356Y-5195956D01*
X16045356Y-10021956D02*
X16045356Y-9951244D01*
X15974644Y-9951244D01*
X15974644Y-10021956D01*
X16045356Y-10021956D01*
X16295356Y-6435956D02*
X16295356Y-6365244D01*
X16224644Y-6365244D01*
X16224644Y-6435956D01*
X16295356Y-6435956D01*
X16295356Y-8467956D02*
X16295356Y-8397244D01*
X16224644Y-8397244D01*
X16224644Y-8467956D01*
X16295356Y-8467956D01*
X16299356Y-5195956D02*
X16299356Y-5125244D01*
X16228644Y-5125244D01*
X16228644Y-5195956D01*
X16299356Y-5195956D01*
X16549356Y-6435956D02*
X16549356Y-6365244D01*
X16478644Y-6365244D01*
X16478644Y-6435956D01*
X16549356Y-6435956D01*
X16549356Y-8467956D02*
X16549356Y-8397244D01*
X16478644Y-8397244D01*
X16478644Y-8467956D01*
X16549356Y-8467956D01*
X16553356Y-5195956D02*
X16553356Y-5125244D01*
X16482644Y-5125244D01*
X16482644Y-5195956D01*
X16553356Y-5195956D01*
X16553356Y-10021956D02*
X16553356Y-9951244D01*
X16482644Y-9951244D01*
X16482644Y-10021956D01*
X16553356Y-10021956D01*
X16803356Y-8467956D02*
X16803356Y-8397244D01*
X16732644Y-8397244D01*
X16732644Y-8467956D01*
X16803356Y-8467956D01*
X16807356Y-5195956D02*
X16807356Y-5125244D01*
X16736644Y-5125244D01*
X16736644Y-5195956D01*
X16807356Y-5195956D01*
X16807356Y-10021956D02*
X16807356Y-9951244D01*
X16736644Y-9951244D01*
X16736644Y-10021956D01*
X16807356Y-10021956D01*
X17057356Y-8467956D02*
X17057356Y-8397244D01*
X16986644Y-8397244D01*
X16986644Y-8467956D01*
X17057356Y-8467956D01*
X17061356Y-5195956D02*
X17061356Y-5125244D01*
X16990644Y-5125244D01*
X16990644Y-5195956D01*
X17061356Y-5195956D01*
X17061356Y-10021956D02*
X17061356Y-9951244D01*
X16990644Y-9951244D01*
X16990644Y-10021956D01*
X17061356Y-10021956D01*
X17311356Y-8467956D02*
X17311356Y-8397244D01*
X17240644Y-8397244D01*
X17240644Y-8467956D01*
X17311356Y-8467956D01*
X17315356Y-5195956D02*
X17315356Y-5125244D01*
X17244644Y-5125244D01*
X17244644Y-5195956D01*
X17315356Y-5195956D01*
X17315356Y-10021956D02*
X17315356Y-9951244D01*
X17244644Y-9951244D01*
X17244644Y-10021956D01*
X17315356Y-10021956D01*
X17565356Y-8467956D02*
X17565356Y-8397244D01*
X17494644Y-8397244D01*
X17494644Y-8467956D01*
X17565356Y-8467956D01*
X17569356Y-5195956D02*
X17569356Y-5125244D01*
X17498644Y-5125244D01*
X17498644Y-5195956D01*
X17569356Y-5195956D01*
X17569356Y-10021956D02*
X17569356Y-9951244D01*
X17498644Y-9951244D01*
X17498644Y-10021956D01*
X17569356Y-10021956D01*
X17823356Y-5195956D02*
X17823356Y-5125244D01*
X17752644Y-5125244D01*
X17752644Y-5195956D01*
X17823356Y-5195956D01*
X17823356Y-10021956D02*
X17823356Y-9951244D01*
X17752644Y-9951244D01*
X17752644Y-10021956D01*
X17823356Y-10021956D01*
D13*
X11410000Y-5195600D02*
X11465000Y-5140600D01*
X11410000Y-5085600D01*
X11355000Y-5140600D01*
X11410000Y-5195600D01*
X12426000Y-5195600D02*
X12481000Y-5140600D01*
X12426000Y-5085600D01*
X12371000Y-5140600D01*
X12426000Y-5195600D01*
D14*
X11426000Y-12620600D02*
X11546000Y-12740600D01*
X11546000Y-12620600D02*
X11426000Y-12740600D01*
X11546000Y-12680600D02*
G75*
G02*
X11426000Y-12680600I-60000J0D01*
G01*
X11426000Y-12680600D02*
G75*
G02*
X11546000Y-12680600I60000J0D01*
G01*
X11426000Y-13120600D02*
X11546000Y-13240600D01*
X11546000Y-13120600D02*
X11426000Y-13240600D01*
X11546000Y-13180600D02*
G75*
G02*
X11426000Y-13180600I-60000J0D01*
G01*
X11426000Y-13180600D02*
G75*
G02*
X11546000Y-13180600I60000J0D01*
G01*
X12676000Y-12620600D02*
X12796000Y-12740600D01*
X12796000Y-12620600D02*
X12676000Y-12740600D01*
X12796000Y-12680600D02*
G75*
G02*
X12676000Y-12680600I-60000J0D01*
G01*
X12676000Y-12680600D02*
G75*
G02*
X12796000Y-12680600I60000J0D01*
G01*
X12676000Y-13120600D02*
X12796000Y-13240600D01*
X12796000Y-13120600D02*
X12676000Y-13240600D01*
X12796000Y-13180600D02*
G75*
G02*
X12676000Y-13180600I-60000J0D01*
G01*
X12676000Y-13180600D02*
G75*
G02*
X12796000Y-13180600I60000J0D01*
G01*
X12976000Y-11170600D02*
X13096000Y-11290600D01*
X13096000Y-11170600D02*
X12976000Y-11290600D01*
X13096000Y-11230600D02*
G75*
G02*
X12976000Y-11230600I-60000J0D01*
G01*
X12976000Y-11230600D02*
G75*
G02*
X13096000Y-11230600I60000J0D01*
G01*
X12976000Y-11670600D02*
X13096000Y-11790600D01*
X13096000Y-11670600D02*
X12976000Y-11790600D01*
X13096000Y-11730600D02*
G75*
G02*
X12976000Y-11730600I-60000J0D01*
G01*
X12976000Y-11730600D02*
G75*
G02*
X13096000Y-11730600I60000J0D01*
G01*
X12976000Y-14070600D02*
X13096000Y-14190600D01*
X13096000Y-14070600D02*
X12976000Y-14190600D01*
X13096000Y-14130600D02*
G75*
G02*
X12976000Y-14130600I-60000J0D01*
G01*
X12976000Y-14130600D02*
G75*
G02*
X13096000Y-14130600I60000J0D01*
G01*
X12976000Y-14570600D02*
X13096000Y-14690600D01*
X13096000Y-14570600D02*
X12976000Y-14690600D01*
X13096000Y-14630600D02*
G75*
G02*
X12976000Y-14630600I-60000J0D01*
G01*
X12976000Y-14630600D02*
G75*
G02*
X13096000Y-14630600I60000J0D01*
G01*
X14226000Y-11170600D02*
X14346000Y-11290600D01*
X14346000Y-11170600D02*
X14226000Y-11290600D01*
X14346000Y-11230600D02*
G75*
G02*
X14226000Y-11230600I-60000J0D01*
G01*
X14226000Y-11230600D02*
G75*
G02*
X14346000Y-11230600I60000J0D01*
G01*
X14226000Y-11670600D02*
X14346000Y-11790600D01*
X14346000Y-11670600D02*
X14226000Y-11790600D01*
X14346000Y-11730600D02*
G75*
G02*
X14226000Y-11730600I-60000J0D01*
G01*
X14226000Y-11730600D02*
G75*
G02*
X14346000Y-11730600I60000J0D01*
G01*
X14226000Y-14070600D02*
X14346000Y-14190600D01*
X14346000Y-14070600D02*
X14226000Y-14190600D01*
X14346000Y-14130600D02*
G75*
G02*
X14226000Y-14130600I-60000J0D01*
G01*
X14226000Y-14130600D02*
G75*
G02*
X14346000Y-14130600I60000J0D01*
G01*
X14226000Y-14570600D02*
X14346000Y-14690600D01*
X14346000Y-14570600D02*
X14226000Y-14690600D01*
X14346000Y-14630600D02*
G75*
G02*
X14226000Y-14630600I-60000J0D01*
G01*
X14226000Y-14630600D02*
G75*
G02*
X14346000Y-14630600I60000J0D01*
G01*
X14526000Y-12620600D02*
X14646000Y-12740600D01*
X14646000Y-12620600D02*
X14526000Y-12740600D01*
X14646000Y-12680600D02*
G75*
G02*
X14526000Y-12680600I-60000J0D01*
G01*
X14526000Y-12680600D02*
G75*
G02*
X14646000Y-12680600I60000J0D01*
G01*
X14526000Y-13120600D02*
X14646000Y-13240600D01*
X14646000Y-13120600D02*
X14526000Y-13240600D01*
X14646000Y-13180600D02*
G75*
G02*
X14526000Y-13180600I-60000J0D01*
G01*
X14526000Y-13180600D02*
G75*
G02*
X14646000Y-13180600I60000J0D01*
G01*
X15776000Y-12620600D02*
X15896000Y-12740600D01*
X15896000Y-12620600D02*
X15776000Y-12740600D01*
X15896000Y-12680600D02*
G75*
G02*
X15776000Y-12680600I-60000J0D01*
G01*
X15776000Y-12680600D02*
G75*
G02*
X15896000Y-12680600I60000J0D01*
G01*
X15776000Y-13120600D02*
X15896000Y-13240600D01*
X15896000Y-13120600D02*
X15776000Y-13240600D01*
X15896000Y-13180600D02*
G75*
G02*
X15776000Y-13180600I-60000J0D01*
G01*
X15776000Y-13180600D02*
G75*
G02*
X15896000Y-13180600I60000J0D01*
G01*
X16601000Y-12620600D02*
X16721000Y-12740600D01*
X16721000Y-12620600D02*
X16601000Y-12740600D01*
X16721000Y-12680600D02*
G75*
G02*
X16601000Y-12680600I-60000J0D01*
G01*
X16601000Y-12680600D02*
G75*
G02*
X16721000Y-12680600I60000J0D01*
G01*
X16601000Y-13120600D02*
X16721000Y-13240600D01*
X16721000Y-13120600D02*
X16601000Y-13240600D01*
X16721000Y-13180600D02*
G75*
G02*
X16601000Y-13180600I-60000J0D01*
G01*
X16601000Y-13180600D02*
G75*
G02*
X16721000Y-13180600I60000J0D01*
G01*
X17851000Y-12620600D02*
X17971000Y-12740600D01*
X17971000Y-12620600D02*
X17851000Y-12740600D01*
X17971000Y-12680600D02*
G75*
G02*
X17851000Y-12680600I-60000J0D01*
G01*
X17851000Y-12680600D02*
G75*
G02*
X17971000Y-12680600I60000J0D01*
G01*
X17851000Y-13120600D02*
X17971000Y-13240600D01*
X17971000Y-13120600D02*
X17851000Y-13240600D01*
X17971000Y-13180600D02*
G75*
G02*
X17851000Y-13180600I-60000J0D01*
G01*
X17851000Y-13180600D02*
G75*
G02*
X17971000Y-13180600I60000J0D01*
G01*
D15*
X11816500Y-7349100D02*
X11939500Y-7472100D01*
X11939500Y-7349100D02*
X11816500Y-7472100D01*
X11878000Y-7349100D02*
X11878000Y-7472100D01*
X11816500Y-7410600D02*
X11939500Y-7410600D01*
X12070500Y-7349100D02*
X12193500Y-7472100D01*
X12193500Y-7349100D02*
X12070500Y-7472100D01*
X12132000Y-7349100D02*
X12132000Y-7472100D01*
X12070500Y-7410600D02*
X12193500Y-7410600D01*
X12324500Y-7349100D02*
X12447500Y-7472100D01*
X12447500Y-7349100D02*
X12324500Y-7472100D01*
X12386000Y-7349100D02*
X12386000Y-7472100D01*
X12324500Y-7410600D02*
X12447500Y-7410600D01*
D11*
X11254277Y-16184584D02*
X11254277Y-15984584D01*
X11254277Y-15984584D02*
X11301896Y-15984584D01*
X11301896Y-15984584D02*
X11330467Y-15994108D01*
X11330467Y-15994108D02*
X11349515Y-16013155D01*
X11349515Y-16013155D02*
X11359039Y-16032203D01*
X11359039Y-16032203D02*
X11368562Y-16070298D01*
X11368562Y-16070298D02*
X11368562Y-16098869D01*
X11368562Y-16098869D02*
X11359039Y-16136965D01*
X11359039Y-16136965D02*
X11349515Y-16156012D01*
X11349515Y-16156012D02*
X11330467Y-16175060D01*
X11330467Y-16175060D02*
X11301896Y-16184584D01*
X11301896Y-16184584D02*
X11254277Y-16184584D01*
X11454277Y-16184584D02*
X11454277Y-16051250D01*
X11454277Y-16089346D02*
X11463801Y-16070298D01*
X11463801Y-16070298D02*
X11473324Y-16060774D01*
X11473324Y-16060774D02*
X11492372Y-16051250D01*
X11492372Y-16051250D02*
X11511420Y-16051250D01*
X11578086Y-16184584D02*
X11578086Y-16051250D01*
X11578086Y-15984584D02*
X11568562Y-15994108D01*
X11568562Y-15994108D02*
X11578086Y-16003631D01*
X11578086Y-16003631D02*
X11587610Y-15994108D01*
X11587610Y-15994108D02*
X11578086Y-15984584D01*
X11578086Y-15984584D02*
X11578086Y-16003631D01*
X11701896Y-16184584D02*
X11682848Y-16175060D01*
X11682848Y-16175060D02*
X11673324Y-16156012D01*
X11673324Y-16156012D02*
X11673324Y-15984584D01*
X11806658Y-16184584D02*
X11787610Y-16175060D01*
X11787610Y-16175060D02*
X11778086Y-16156012D01*
X11778086Y-16156012D02*
X11778086Y-15984584D01*
X12035229Y-16184584D02*
X12035229Y-15984584D01*
X12035229Y-15984584D02*
X12101896Y-16127441D01*
X12101896Y-16127441D02*
X12168562Y-15984584D01*
X12168562Y-15984584D02*
X12168562Y-16184584D01*
X12349515Y-16184584D02*
X12349515Y-16079822D01*
X12349515Y-16079822D02*
X12339991Y-16060774D01*
X12339991Y-16060774D02*
X12320943Y-16051250D01*
X12320943Y-16051250D02*
X12282848Y-16051250D01*
X12282848Y-16051250D02*
X12263801Y-16060774D01*
X12349515Y-16175060D02*
X12330467Y-16184584D01*
X12330467Y-16184584D02*
X12282848Y-16184584D01*
X12282848Y-16184584D02*
X12263801Y-16175060D01*
X12263801Y-16175060D02*
X12254277Y-16156012D01*
X12254277Y-16156012D02*
X12254277Y-16136965D01*
X12254277Y-16136965D02*
X12263801Y-16117917D01*
X12263801Y-16117917D02*
X12282848Y-16108393D01*
X12282848Y-16108393D02*
X12330467Y-16108393D01*
X12330467Y-16108393D02*
X12349515Y-16098869D01*
X12444753Y-16051250D02*
X12444753Y-16251250D01*
X12444753Y-16060774D02*
X12463801Y-16051250D01*
X12463801Y-16051250D02*
X12501896Y-16051250D01*
X12501896Y-16051250D02*
X12520943Y-16060774D01*
X12520943Y-16060774D02*
X12530467Y-16070298D01*
X12530467Y-16070298D02*
X12539991Y-16089346D01*
X12539991Y-16089346D02*
X12539991Y-16146488D01*
X12539991Y-16146488D02*
X12530467Y-16165536D01*
X12530467Y-16165536D02*
X12520943Y-16175060D01*
X12520943Y-16175060D02*
X12501896Y-16184584D01*
X12501896Y-16184584D02*
X12463801Y-16184584D01*
X12463801Y-16184584D02*
X12444753Y-16175060D01*
X12625705Y-16165536D02*
X12635229Y-16175060D01*
X12635229Y-16175060D02*
X12625705Y-16184584D01*
X12625705Y-16184584D02*
X12616182Y-16175060D01*
X12616182Y-16175060D02*
X12625705Y-16165536D01*
X12625705Y-16165536D02*
X12625705Y-16184584D01*
X12625705Y-16060774D02*
X12635229Y-16070298D01*
X12635229Y-16070298D02*
X12625705Y-16079822D01*
X12625705Y-16079822D02*
X12616182Y-16070298D01*
X12616182Y-16070298D02*
X12625705Y-16060774D01*
X12625705Y-16060774D02*
X12625705Y-16079822D01*
D12*
X10963500Y-16498100D02*
X10993500Y-16528100D01*
X10993500Y-16498100D02*
X10963500Y-16528100D01*
D11*
X11292372Y-16404584D02*
X11311420Y-16404584D01*
X11311420Y-16404584D02*
X11330467Y-16414108D01*
X11330467Y-16414108D02*
X11339991Y-16423631D01*
X11339991Y-16423631D02*
X11349515Y-16442679D01*
X11349515Y-16442679D02*
X11359039Y-16480774D01*
X11359039Y-16480774D02*
X11359039Y-16528393D01*
X11359039Y-16528393D02*
X11349515Y-16566488D01*
X11349515Y-16566488D02*
X11339991Y-16585536D01*
X11339991Y-16585536D02*
X11330467Y-16595060D01*
X11330467Y-16595060D02*
X11311420Y-16604584D01*
X11311420Y-16604584D02*
X11292372Y-16604584D01*
X11292372Y-16604584D02*
X11273324Y-16595060D01*
X11273324Y-16595060D02*
X11263801Y-16585536D01*
X11263801Y-16585536D02*
X11254277Y-16566488D01*
X11254277Y-16566488D02*
X11244753Y-16528393D01*
X11244753Y-16528393D02*
X11244753Y-16480774D01*
X11244753Y-16480774D02*
X11254277Y-16442679D01*
X11254277Y-16442679D02*
X11263801Y-16423631D01*
X11263801Y-16423631D02*
X11273324Y-16414108D01*
X11273324Y-16414108D02*
X11292372Y-16404584D01*
X11444753Y-16585536D02*
X11454277Y-16595060D01*
X11454277Y-16595060D02*
X11444753Y-16604584D01*
X11444753Y-16604584D02*
X11435229Y-16595060D01*
X11435229Y-16595060D02*
X11444753Y-16585536D01*
X11444753Y-16585536D02*
X11444753Y-16604584D01*
X11520943Y-16404584D02*
X11644753Y-16404584D01*
X11644753Y-16404584D02*
X11578086Y-16480774D01*
X11578086Y-16480774D02*
X11606658Y-16480774D01*
X11606658Y-16480774D02*
X11625705Y-16490298D01*
X11625705Y-16490298D02*
X11635229Y-16499822D01*
X11635229Y-16499822D02*
X11644753Y-16518869D01*
X11644753Y-16518869D02*
X11644753Y-16566488D01*
X11644753Y-16566488D02*
X11635229Y-16585536D01*
X11635229Y-16585536D02*
X11625705Y-16595060D01*
X11625705Y-16595060D02*
X11606658Y-16604584D01*
X11606658Y-16604584D02*
X11549515Y-16604584D01*
X11549515Y-16604584D02*
X11530467Y-16595060D01*
X11530467Y-16595060D02*
X11520943Y-16585536D01*
X11768562Y-16404584D02*
X11787610Y-16404584D01*
X11787610Y-16404584D02*
X11806658Y-16414108D01*
X11806658Y-16414108D02*
X11816182Y-16423631D01*
X11816182Y-16423631D02*
X11825705Y-16442679D01*
X11825705Y-16442679D02*
X11835229Y-16480774D01*
X11835229Y-16480774D02*
X11835229Y-16528393D01*
X11835229Y-16528393D02*
X11825705Y-16566488D01*
X11825705Y-16566488D02*
X11816182Y-16585536D01*
X11816182Y-16585536D02*
X11806658Y-16595060D01*
X11806658Y-16595060D02*
X11787610Y-16604584D01*
X11787610Y-16604584D02*
X11768562Y-16604584D01*
X11768562Y-16604584D02*
X11749515Y-16595060D01*
X11749515Y-16595060D02*
X11739991Y-16585536D01*
X11739991Y-16585536D02*
X11730467Y-16566488D01*
X11730467Y-16566488D02*
X11720943Y-16528393D01*
X11720943Y-16528393D02*
X11720943Y-16480774D01*
X11720943Y-16480774D02*
X11730467Y-16442679D01*
X11730467Y-16442679D02*
X11739991Y-16423631D01*
X11739991Y-16423631D02*
X11749515Y-16414108D01*
X11749515Y-16414108D02*
X11768562Y-16404584D01*
X11959039Y-16404584D02*
X11978086Y-16404584D01*
X11978086Y-16404584D02*
X11997134Y-16414108D01*
X11997134Y-16414108D02*
X12006658Y-16423631D01*
X12006658Y-16423631D02*
X12016182Y-16442679D01*
X12016182Y-16442679D02*
X12025705Y-16480774D01*
X12025705Y-16480774D02*
X12025705Y-16528393D01*
X12025705Y-16528393D02*
X12016182Y-16566488D01*
X12016182Y-16566488D02*
X12006658Y-16585536D01*
X12006658Y-16585536D02*
X11997134Y-16595060D01*
X11997134Y-16595060D02*
X11978086Y-16604584D01*
X11978086Y-16604584D02*
X11959039Y-16604584D01*
X11959039Y-16604584D02*
X11939991Y-16595060D01*
X11939991Y-16595060D02*
X11930467Y-16585536D01*
X11930467Y-16585536D02*
X11920943Y-16566488D01*
X11920943Y-16566488D02*
X11911420Y-16528393D01*
X11911420Y-16528393D02*
X11911420Y-16480774D01*
X11911420Y-16480774D02*
X11920943Y-16442679D01*
X11920943Y-16442679D02*
X11930467Y-16423631D01*
X11930467Y-16423631D02*
X11939991Y-16414108D01*
X11939991Y-16414108D02*
X11959039Y-16404584D01*
X12111420Y-16604584D02*
X12111420Y-16471250D01*
X12111420Y-16490298D02*
X12120943Y-16480774D01*
X12120943Y-16480774D02*
X12139991Y-16471250D01*
X12139991Y-16471250D02*
X12168563Y-16471250D01*
X12168563Y-16471250D02*
X12187610Y-16480774D01*
X12187610Y-16480774D02*
X12197134Y-16499822D01*
X12197134Y-16499822D02*
X12197134Y-16604584D01*
X12197134Y-16499822D02*
X12206658Y-16480774D01*
X12206658Y-16480774D02*
X12225705Y-16471250D01*
X12225705Y-16471250D02*
X12254277Y-16471250D01*
X12254277Y-16471250D02*
X12273324Y-16480774D01*
X12273324Y-16480774D02*
X12282848Y-16499822D01*
X12282848Y-16499822D02*
X12282848Y-16604584D01*
X12378086Y-16604584D02*
X12378086Y-16471250D01*
X12378086Y-16490298D02*
X12387610Y-16480774D01*
X12387610Y-16480774D02*
X12406658Y-16471250D01*
X12406658Y-16471250D02*
X12435229Y-16471250D01*
X12435229Y-16471250D02*
X12454277Y-16480774D01*
X12454277Y-16480774D02*
X12463801Y-16499822D01*
X12463801Y-16499822D02*
X12463801Y-16604584D01*
X12463801Y-16499822D02*
X12473324Y-16480774D01*
X12473324Y-16480774D02*
X12492372Y-16471250D01*
X12492372Y-16471250D02*
X12520943Y-16471250D01*
X12520943Y-16471250D02*
X12539991Y-16480774D01*
X12539991Y-16480774D02*
X12549515Y-16499822D01*
X12549515Y-16499822D02*
X12549515Y-16604584D01*
X12939991Y-16395060D02*
X12768563Y-16652203D01*
X13197134Y-16404584D02*
X13216182Y-16404584D01*
X13216182Y-16404584D02*
X13235229Y-16414108D01*
X13235229Y-16414108D02*
X13244753Y-16423631D01*
X13244753Y-16423631D02*
X13254277Y-16442679D01*
X13254277Y-16442679D02*
X13263801Y-16480774D01*
X13263801Y-16480774D02*
X13263801Y-16528393D01*
X13263801Y-16528393D02*
X13254277Y-16566488D01*
X13254277Y-16566488D02*
X13244753Y-16585536D01*
X13244753Y-16585536D02*
X13235229Y-16595060D01*
X13235229Y-16595060D02*
X13216182Y-16604584D01*
X13216182Y-16604584D02*
X13197134Y-16604584D01*
X13197134Y-16604584D02*
X13178086Y-16595060D01*
X13178086Y-16595060D02*
X13168563Y-16585536D01*
X13168563Y-16585536D02*
X13159039Y-16566488D01*
X13159039Y-16566488D02*
X13149515Y-16528393D01*
X13149515Y-16528393D02*
X13149515Y-16480774D01*
X13149515Y-16480774D02*
X13159039Y-16442679D01*
X13159039Y-16442679D02*
X13168563Y-16423631D01*
X13168563Y-16423631D02*
X13178086Y-16414108D01*
X13178086Y-16414108D02*
X13197134Y-16404584D01*
X13349515Y-16585536D02*
X13359039Y-16595060D01*
X13359039Y-16595060D02*
X13349515Y-16604584D01*
X13349515Y-16604584D02*
X13339991Y-16595060D01*
X13339991Y-16595060D02*
X13349515Y-16585536D01*
X13349515Y-16585536D02*
X13349515Y-16604584D01*
X13482848Y-16404584D02*
X13501896Y-16404584D01*
X13501896Y-16404584D02*
X13520944Y-16414108D01*
X13520944Y-16414108D02*
X13530467Y-16423631D01*
X13530467Y-16423631D02*
X13539991Y-16442679D01*
X13539991Y-16442679D02*
X13549515Y-16480774D01*
X13549515Y-16480774D02*
X13549515Y-16528393D01*
X13549515Y-16528393D02*
X13539991Y-16566488D01*
X13539991Y-16566488D02*
X13530467Y-16585536D01*
X13530467Y-16585536D02*
X13520944Y-16595060D01*
X13520944Y-16595060D02*
X13501896Y-16604584D01*
X13501896Y-16604584D02*
X13482848Y-16604584D01*
X13482848Y-16604584D02*
X13463801Y-16595060D01*
X13463801Y-16595060D02*
X13454277Y-16585536D01*
X13454277Y-16585536D02*
X13444753Y-16566488D01*
X13444753Y-16566488D02*
X13435229Y-16528393D01*
X13435229Y-16528393D02*
X13435229Y-16480774D01*
X13435229Y-16480774D02*
X13444753Y-16442679D01*
X13444753Y-16442679D02*
X13454277Y-16423631D01*
X13454277Y-16423631D02*
X13463801Y-16414108D01*
X13463801Y-16414108D02*
X13482848Y-16404584D01*
X13739991Y-16604584D02*
X13625706Y-16604584D01*
X13682848Y-16604584D02*
X13682848Y-16404584D01*
X13682848Y-16404584D02*
X13663801Y-16433155D01*
X13663801Y-16433155D02*
X13644753Y-16452203D01*
X13644753Y-16452203D02*
X13625706Y-16461727D01*
X13930467Y-16604584D02*
X13816182Y-16604584D01*
X13873325Y-16604584D02*
X13873325Y-16404584D01*
X13873325Y-16404584D02*
X13854277Y-16433155D01*
X13854277Y-16433155D02*
X13835229Y-16452203D01*
X13835229Y-16452203D02*
X13816182Y-16461727D01*
X14044753Y-16490298D02*
X14025706Y-16480774D01*
X14025706Y-16480774D02*
X14016182Y-16471250D01*
X14016182Y-16471250D02*
X14006658Y-16452203D01*
X14006658Y-16452203D02*
X14006658Y-16442679D01*
X14006658Y-16442679D02*
X14016182Y-16423631D01*
X14016182Y-16423631D02*
X14025706Y-16414108D01*
X14025706Y-16414108D02*
X14044753Y-16404584D01*
X14044753Y-16404584D02*
X14082848Y-16404584D01*
X14082848Y-16404584D02*
X14101896Y-16414108D01*
X14101896Y-16414108D02*
X14111420Y-16423631D01*
X14111420Y-16423631D02*
X14120944Y-16442679D01*
X14120944Y-16442679D02*
X14120944Y-16452203D01*
X14120944Y-16452203D02*
X14111420Y-16471250D01*
X14111420Y-16471250D02*
X14101896Y-16480774D01*
X14101896Y-16480774D02*
X14082848Y-16490298D01*
X14082848Y-16490298D02*
X14044753Y-16490298D01*
X14044753Y-16490298D02*
X14025706Y-16499822D01*
X14025706Y-16499822D02*
X14016182Y-16509346D01*
X14016182Y-16509346D02*
X14006658Y-16528393D01*
X14006658Y-16528393D02*
X14006658Y-16566488D01*
X14006658Y-16566488D02*
X14016182Y-16585536D01*
X14016182Y-16585536D02*
X14025706Y-16595060D01*
X14025706Y-16595060D02*
X14044753Y-16604584D01*
X14044753Y-16604584D02*
X14082848Y-16604584D01*
X14082848Y-16604584D02*
X14101896Y-16595060D01*
X14101896Y-16595060D02*
X14111420Y-16585536D01*
X14111420Y-16585536D02*
X14120944Y-16566488D01*
X14120944Y-16566488D02*
X14120944Y-16528393D01*
X14120944Y-16528393D02*
X14111420Y-16509346D01*
X14111420Y-16509346D02*
X14101896Y-16499822D01*
X14101896Y-16499822D02*
X14082848Y-16490298D01*
X14197134Y-16404584D02*
X14197134Y-16442679D01*
X14273325Y-16404584D02*
X14273325Y-16442679D01*
X14568563Y-16680774D02*
X14559039Y-16671250D01*
X14559039Y-16671250D02*
X14539991Y-16642679D01*
X14539991Y-16642679D02*
X14530468Y-16623631D01*
X14530468Y-16623631D02*
X14520944Y-16595060D01*
X14520944Y-16595060D02*
X14511420Y-16547441D01*
X14511420Y-16547441D02*
X14511420Y-16509346D01*
X14511420Y-16509346D02*
X14520944Y-16461727D01*
X14520944Y-16461727D02*
X14530468Y-16433155D01*
X14530468Y-16433155D02*
X14539991Y-16414108D01*
X14539991Y-16414108D02*
X14559039Y-16385536D01*
X14559039Y-16385536D02*
X14568563Y-16376012D01*
X14749515Y-16604584D02*
X14635229Y-16604584D01*
X14692372Y-16604584D02*
X14692372Y-16404584D01*
X14692372Y-16404584D02*
X14673325Y-16433155D01*
X14673325Y-16433155D02*
X14654277Y-16452203D01*
X14654277Y-16452203D02*
X14635229Y-16461727D01*
X14987610Y-16604584D02*
X14987610Y-16404584D01*
X15073325Y-16604584D02*
X15073325Y-16499822D01*
X15073325Y-16499822D02*
X15063801Y-16480774D01*
X15063801Y-16480774D02*
X15044753Y-16471250D01*
X15044753Y-16471250D02*
X15016182Y-16471250D01*
X15016182Y-16471250D02*
X14997134Y-16480774D01*
X14997134Y-16480774D02*
X14987610Y-16490298D01*
X15197134Y-16604584D02*
X15178087Y-16595060D01*
X15178087Y-16595060D02*
X15168563Y-16585536D01*
X15168563Y-16585536D02*
X15159039Y-16566488D01*
X15159039Y-16566488D02*
X15159039Y-16509346D01*
X15159039Y-16509346D02*
X15168563Y-16490298D01*
X15168563Y-16490298D02*
X15178087Y-16480774D01*
X15178087Y-16480774D02*
X15197134Y-16471250D01*
X15197134Y-16471250D02*
X15225706Y-16471250D01*
X15225706Y-16471250D02*
X15244753Y-16480774D01*
X15244753Y-16480774D02*
X15254277Y-16490298D01*
X15254277Y-16490298D02*
X15263801Y-16509346D01*
X15263801Y-16509346D02*
X15263801Y-16566488D01*
X15263801Y-16566488D02*
X15254277Y-16585536D01*
X15254277Y-16585536D02*
X15244753Y-16595060D01*
X15244753Y-16595060D02*
X15225706Y-16604584D01*
X15225706Y-16604584D02*
X15197134Y-16604584D01*
X15378087Y-16604584D02*
X15359039Y-16595060D01*
X15359039Y-16595060D02*
X15349515Y-16576012D01*
X15349515Y-16576012D02*
X15349515Y-16404584D01*
X15530468Y-16595060D02*
X15511420Y-16604584D01*
X15511420Y-16604584D02*
X15473325Y-16604584D01*
X15473325Y-16604584D02*
X15454277Y-16595060D01*
X15454277Y-16595060D02*
X15444753Y-16576012D01*
X15444753Y-16576012D02*
X15444753Y-16499822D01*
X15444753Y-16499822D02*
X15454277Y-16480774D01*
X15454277Y-16480774D02*
X15473325Y-16471250D01*
X15473325Y-16471250D02*
X15511420Y-16471250D01*
X15511420Y-16471250D02*
X15530468Y-16480774D01*
X15530468Y-16480774D02*
X15539991Y-16499822D01*
X15539991Y-16499822D02*
X15539991Y-16518869D01*
X15539991Y-16518869D02*
X15444753Y-16537917D01*
X15606658Y-16680774D02*
X15616182Y-16671250D01*
X15616182Y-16671250D02*
X15635230Y-16642679D01*
X15635230Y-16642679D02*
X15644753Y-16623631D01*
X15644753Y-16623631D02*
X15654277Y-16595060D01*
X15654277Y-16595060D02*
X15663801Y-16547441D01*
X15663801Y-16547441D02*
X15663801Y-16509346D01*
X15663801Y-16509346D02*
X15654277Y-16461727D01*
X15654277Y-16461727D02*
X15644753Y-16433155D01*
X15644753Y-16433155D02*
X15635230Y-16414108D01*
X15635230Y-16414108D02*
X15616182Y-16385536D01*
X15616182Y-16385536D02*
X15606658Y-16376012D01*
D12*
X10993500Y-16777100D02*
G75*
G02*
X10923500Y-16777100I-35000J0D01*
G01*
X10923500Y-16777100D02*
G75*
G02*
X10993500Y-16777100I35000J0D01*
G01*
D11*
X11292372Y-16668584D02*
X11311420Y-16668584D01*
X11311420Y-16668584D02*
X11330467Y-16678108D01*
X11330467Y-16678108D02*
X11339991Y-16687631D01*
X11339991Y-16687631D02*
X11349515Y-16706679D01*
X11349515Y-16706679D02*
X11359039Y-16744774D01*
X11359039Y-16744774D02*
X11359039Y-16792393D01*
X11359039Y-16792393D02*
X11349515Y-16830489D01*
X11349515Y-16830489D02*
X11339991Y-16849536D01*
X11339991Y-16849536D02*
X11330467Y-16859060D01*
X11330467Y-16859060D02*
X11311420Y-16868584D01*
X11311420Y-16868584D02*
X11292372Y-16868584D01*
X11292372Y-16868584D02*
X11273324Y-16859060D01*
X11273324Y-16859060D02*
X11263801Y-16849536D01*
X11263801Y-16849536D02*
X11254277Y-16830489D01*
X11254277Y-16830489D02*
X11244753Y-16792393D01*
X11244753Y-16792393D02*
X11244753Y-16744774D01*
X11244753Y-16744774D02*
X11254277Y-16706679D01*
X11254277Y-16706679D02*
X11263801Y-16687631D01*
X11263801Y-16687631D02*
X11273324Y-16678108D01*
X11273324Y-16678108D02*
X11292372Y-16668584D01*
X11444753Y-16849536D02*
X11454277Y-16859060D01*
X11454277Y-16859060D02*
X11444753Y-16868584D01*
X11444753Y-16868584D02*
X11435229Y-16859060D01*
X11435229Y-16859060D02*
X11444753Y-16849536D01*
X11444753Y-16849536D02*
X11444753Y-16868584D01*
X11520943Y-16668584D02*
X11654277Y-16668584D01*
X11654277Y-16668584D02*
X11568562Y-16868584D01*
X11768562Y-16668584D02*
X11787610Y-16668584D01*
X11787610Y-16668584D02*
X11806658Y-16678108D01*
X11806658Y-16678108D02*
X11816182Y-16687631D01*
X11816182Y-16687631D02*
X11825705Y-16706679D01*
X11825705Y-16706679D02*
X11835229Y-16744774D01*
X11835229Y-16744774D02*
X11835229Y-16792393D01*
X11835229Y-16792393D02*
X11825705Y-16830489D01*
X11825705Y-16830489D02*
X11816182Y-16849536D01*
X11816182Y-16849536D02*
X11806658Y-16859060D01*
X11806658Y-16859060D02*
X11787610Y-16868584D01*
X11787610Y-16868584D02*
X11768562Y-16868584D01*
X11768562Y-16868584D02*
X11749515Y-16859060D01*
X11749515Y-16859060D02*
X11739991Y-16849536D01*
X11739991Y-16849536D02*
X11730467Y-16830489D01*
X11730467Y-16830489D02*
X11720943Y-16792393D01*
X11720943Y-16792393D02*
X11720943Y-16744774D01*
X11720943Y-16744774D02*
X11730467Y-16706679D01*
X11730467Y-16706679D02*
X11739991Y-16687631D01*
X11739991Y-16687631D02*
X11749515Y-16678108D01*
X11749515Y-16678108D02*
X11768562Y-16668584D01*
X11959039Y-16668584D02*
X11978086Y-16668584D01*
X11978086Y-16668584D02*
X11997134Y-16678108D01*
X11997134Y-16678108D02*
X12006658Y-16687631D01*
X12006658Y-16687631D02*
X12016182Y-16706679D01*
X12016182Y-16706679D02*
X12025705Y-16744774D01*
X12025705Y-16744774D02*
X12025705Y-16792393D01*
X12025705Y-16792393D02*
X12016182Y-16830489D01*
X12016182Y-16830489D02*
X12006658Y-16849536D01*
X12006658Y-16849536D02*
X11997134Y-16859060D01*
X11997134Y-16859060D02*
X11978086Y-16868584D01*
X11978086Y-16868584D02*
X11959039Y-16868584D01*
X11959039Y-16868584D02*
X11939991Y-16859060D01*
X11939991Y-16859060D02*
X11930467Y-16849536D01*
X11930467Y-16849536D02*
X11920943Y-16830489D01*
X11920943Y-16830489D02*
X11911420Y-16792393D01*
X11911420Y-16792393D02*
X11911420Y-16744774D01*
X11911420Y-16744774D02*
X11920943Y-16706679D01*
X11920943Y-16706679D02*
X11930467Y-16687631D01*
X11930467Y-16687631D02*
X11939991Y-16678108D01*
X11939991Y-16678108D02*
X11959039Y-16668584D01*
X12111420Y-16868584D02*
X12111420Y-16735250D01*
X12111420Y-16754298D02*
X12120943Y-16744774D01*
X12120943Y-16744774D02*
X12139991Y-16735250D01*
X12139991Y-16735250D02*
X12168563Y-16735250D01*
X12168563Y-16735250D02*
X12187610Y-16744774D01*
X12187610Y-16744774D02*
X12197134Y-16763822D01*
X12197134Y-16763822D02*
X12197134Y-16868584D01*
X12197134Y-16763822D02*
X12206658Y-16744774D01*
X12206658Y-16744774D02*
X12225705Y-16735250D01*
X12225705Y-16735250D02*
X12254277Y-16735250D01*
X12254277Y-16735250D02*
X12273324Y-16744774D01*
X12273324Y-16744774D02*
X12282848Y-16763822D01*
X12282848Y-16763822D02*
X12282848Y-16868584D01*
X12378086Y-16868584D02*
X12378086Y-16735250D01*
X12378086Y-16754298D02*
X12387610Y-16744774D01*
X12387610Y-16744774D02*
X12406658Y-16735250D01*
X12406658Y-16735250D02*
X12435229Y-16735250D01*
X12435229Y-16735250D02*
X12454277Y-16744774D01*
X12454277Y-16744774D02*
X12463801Y-16763822D01*
X12463801Y-16763822D02*
X12463801Y-16868584D01*
X12463801Y-16763822D02*
X12473324Y-16744774D01*
X12473324Y-16744774D02*
X12492372Y-16735250D01*
X12492372Y-16735250D02*
X12520943Y-16735250D01*
X12520943Y-16735250D02*
X12539991Y-16744774D01*
X12539991Y-16744774D02*
X12549515Y-16763822D01*
X12549515Y-16763822D02*
X12549515Y-16868584D01*
X12939991Y-16659060D02*
X12768563Y-16916203D01*
X13197134Y-16668584D02*
X13216182Y-16668584D01*
X13216182Y-16668584D02*
X13235229Y-16678108D01*
X13235229Y-16678108D02*
X13244753Y-16687631D01*
X13244753Y-16687631D02*
X13254277Y-16706679D01*
X13254277Y-16706679D02*
X13263801Y-16744774D01*
X13263801Y-16744774D02*
X13263801Y-16792393D01*
X13263801Y-16792393D02*
X13254277Y-16830489D01*
X13254277Y-16830489D02*
X13244753Y-16849536D01*
X13244753Y-16849536D02*
X13235229Y-16859060D01*
X13235229Y-16859060D02*
X13216182Y-16868584D01*
X13216182Y-16868584D02*
X13197134Y-16868584D01*
X13197134Y-16868584D02*
X13178086Y-16859060D01*
X13178086Y-16859060D02*
X13168563Y-16849536D01*
X13168563Y-16849536D02*
X13159039Y-16830489D01*
X13159039Y-16830489D02*
X13149515Y-16792393D01*
X13149515Y-16792393D02*
X13149515Y-16744774D01*
X13149515Y-16744774D02*
X13159039Y-16706679D01*
X13159039Y-16706679D02*
X13168563Y-16687631D01*
X13168563Y-16687631D02*
X13178086Y-16678108D01*
X13178086Y-16678108D02*
X13197134Y-16668584D01*
X13349515Y-16849536D02*
X13359039Y-16859060D01*
X13359039Y-16859060D02*
X13349515Y-16868584D01*
X13349515Y-16868584D02*
X13339991Y-16859060D01*
X13339991Y-16859060D02*
X13349515Y-16849536D01*
X13349515Y-16849536D02*
X13349515Y-16868584D01*
X13482848Y-16668584D02*
X13501896Y-16668584D01*
X13501896Y-16668584D02*
X13520944Y-16678108D01*
X13520944Y-16678108D02*
X13530467Y-16687631D01*
X13530467Y-16687631D02*
X13539991Y-16706679D01*
X13539991Y-16706679D02*
X13549515Y-16744774D01*
X13549515Y-16744774D02*
X13549515Y-16792393D01*
X13549515Y-16792393D02*
X13539991Y-16830489D01*
X13539991Y-16830489D02*
X13530467Y-16849536D01*
X13530467Y-16849536D02*
X13520944Y-16859060D01*
X13520944Y-16859060D02*
X13501896Y-16868584D01*
X13501896Y-16868584D02*
X13482848Y-16868584D01*
X13482848Y-16868584D02*
X13463801Y-16859060D01*
X13463801Y-16859060D02*
X13454277Y-16849536D01*
X13454277Y-16849536D02*
X13444753Y-16830489D01*
X13444753Y-16830489D02*
X13435229Y-16792393D01*
X13435229Y-16792393D02*
X13435229Y-16744774D01*
X13435229Y-16744774D02*
X13444753Y-16706679D01*
X13444753Y-16706679D02*
X13454277Y-16687631D01*
X13454277Y-16687631D02*
X13463801Y-16678108D01*
X13463801Y-16678108D02*
X13482848Y-16668584D01*
X13625706Y-16687631D02*
X13635229Y-16678108D01*
X13635229Y-16678108D02*
X13654277Y-16668584D01*
X13654277Y-16668584D02*
X13701896Y-16668584D01*
X13701896Y-16668584D02*
X13720944Y-16678108D01*
X13720944Y-16678108D02*
X13730467Y-16687631D01*
X13730467Y-16687631D02*
X13739991Y-16706679D01*
X13739991Y-16706679D02*
X13739991Y-16725727D01*
X13739991Y-16725727D02*
X13730467Y-16754298D01*
X13730467Y-16754298D02*
X13616182Y-16868584D01*
X13616182Y-16868584D02*
X13739991Y-16868584D01*
X13806658Y-16668584D02*
X13939991Y-16668584D01*
X13939991Y-16668584D02*
X13854277Y-16868584D01*
X14101896Y-16668584D02*
X14063801Y-16668584D01*
X14063801Y-16668584D02*
X14044753Y-16678108D01*
X14044753Y-16678108D02*
X14035229Y-16687631D01*
X14035229Y-16687631D02*
X14016182Y-16716203D01*
X14016182Y-16716203D02*
X14006658Y-16754298D01*
X14006658Y-16754298D02*
X14006658Y-16830489D01*
X14006658Y-16830489D02*
X14016182Y-16849536D01*
X14016182Y-16849536D02*
X14025706Y-16859060D01*
X14025706Y-16859060D02*
X14044753Y-16868584D01*
X14044753Y-16868584D02*
X14082848Y-16868584D01*
X14082848Y-16868584D02*
X14101896Y-16859060D01*
X14101896Y-16859060D02*
X14111420Y-16849536D01*
X14111420Y-16849536D02*
X14120944Y-16830489D01*
X14120944Y-16830489D02*
X14120944Y-16782870D01*
X14120944Y-16782870D02*
X14111420Y-16763822D01*
X14111420Y-16763822D02*
X14101896Y-16754298D01*
X14101896Y-16754298D02*
X14082848Y-16744774D01*
X14082848Y-16744774D02*
X14044753Y-16744774D01*
X14044753Y-16744774D02*
X14025706Y-16754298D01*
X14025706Y-16754298D02*
X14016182Y-16763822D01*
X14016182Y-16763822D02*
X14006658Y-16782870D01*
X14197134Y-16668584D02*
X14197134Y-16706679D01*
X14273325Y-16668584D02*
X14273325Y-16706679D01*
X14568563Y-16944774D02*
X14559039Y-16935250D01*
X14559039Y-16935250D02*
X14539991Y-16906679D01*
X14539991Y-16906679D02*
X14530468Y-16887631D01*
X14530468Y-16887631D02*
X14520944Y-16859060D01*
X14520944Y-16859060D02*
X14511420Y-16811441D01*
X14511420Y-16811441D02*
X14511420Y-16773346D01*
X14511420Y-16773346D02*
X14520944Y-16725727D01*
X14520944Y-16725727D02*
X14530468Y-16697155D01*
X14530468Y-16697155D02*
X14539991Y-16678108D01*
X14539991Y-16678108D02*
X14559039Y-16649536D01*
X14559039Y-16649536D02*
X14568563Y-16640012D01*
X14635229Y-16687631D02*
X14644753Y-16678108D01*
X14644753Y-16678108D02*
X14663801Y-16668584D01*
X14663801Y-16668584D02*
X14711420Y-16668584D01*
X14711420Y-16668584D02*
X14730468Y-16678108D01*
X14730468Y-16678108D02*
X14739991Y-16687631D01*
X14739991Y-16687631D02*
X14749515Y-16706679D01*
X14749515Y-16706679D02*
X14749515Y-16725727D01*
X14749515Y-16725727D02*
X14739991Y-16754298D01*
X14739991Y-16754298D02*
X14625706Y-16868584D01*
X14625706Y-16868584D02*
X14749515Y-16868584D01*
X14825706Y-16687631D02*
X14835229Y-16678108D01*
X14835229Y-16678108D02*
X14854277Y-16668584D01*
X14854277Y-16668584D02*
X14901896Y-16668584D01*
X14901896Y-16668584D02*
X14920944Y-16678108D01*
X14920944Y-16678108D02*
X14930468Y-16687631D01*
X14930468Y-16687631D02*
X14939991Y-16706679D01*
X14939991Y-16706679D02*
X14939991Y-16725727D01*
X14939991Y-16725727D02*
X14930468Y-16754298D01*
X14930468Y-16754298D02*
X14816182Y-16868584D01*
X14816182Y-16868584D02*
X14939991Y-16868584D01*
X15178087Y-16868584D02*
X15178087Y-16668584D01*
X15263801Y-16868584D02*
X15263801Y-16763822D01*
X15263801Y-16763822D02*
X15254277Y-16744774D01*
X15254277Y-16744774D02*
X15235230Y-16735250D01*
X15235230Y-16735250D02*
X15206658Y-16735250D01*
X15206658Y-16735250D02*
X15187610Y-16744774D01*
X15187610Y-16744774D02*
X15178087Y-16754298D01*
X15387610Y-16868584D02*
X15368563Y-16859060D01*
X15368563Y-16859060D02*
X15359039Y-16849536D01*
X15359039Y-16849536D02*
X15349515Y-16830489D01*
X15349515Y-16830489D02*
X15349515Y-16773346D01*
X15349515Y-16773346D02*
X15359039Y-16754298D01*
X15359039Y-16754298D02*
X15368563Y-16744774D01*
X15368563Y-16744774D02*
X15387610Y-16735250D01*
X15387610Y-16735250D02*
X15416182Y-16735250D01*
X15416182Y-16735250D02*
X15435230Y-16744774D01*
X15435230Y-16744774D02*
X15444753Y-16754298D01*
X15444753Y-16754298D02*
X15454277Y-16773346D01*
X15454277Y-16773346D02*
X15454277Y-16830489D01*
X15454277Y-16830489D02*
X15444753Y-16849536D01*
X15444753Y-16849536D02*
X15435230Y-16859060D01*
X15435230Y-16859060D02*
X15416182Y-16868584D01*
X15416182Y-16868584D02*
X15387610Y-16868584D01*
X15568563Y-16868584D02*
X15549515Y-16859060D01*
X15549515Y-16859060D02*
X15539991Y-16840012D01*
X15539991Y-16840012D02*
X15539991Y-16668584D01*
X15720944Y-16859060D02*
X15701896Y-16868584D01*
X15701896Y-16868584D02*
X15663801Y-16868584D01*
X15663801Y-16868584D02*
X15644753Y-16859060D01*
X15644753Y-16859060D02*
X15635230Y-16840012D01*
X15635230Y-16840012D02*
X15635230Y-16763822D01*
X15635230Y-16763822D02*
X15644753Y-16744774D01*
X15644753Y-16744774D02*
X15663801Y-16735250D01*
X15663801Y-16735250D02*
X15701896Y-16735250D01*
X15701896Y-16735250D02*
X15720944Y-16744774D01*
X15720944Y-16744774D02*
X15730468Y-16763822D01*
X15730468Y-16763822D02*
X15730468Y-16782870D01*
X15730468Y-16782870D02*
X15635230Y-16801917D01*
X15806658Y-16859060D02*
X15825706Y-16868584D01*
X15825706Y-16868584D02*
X15863801Y-16868584D01*
X15863801Y-16868584D02*
X15882849Y-16859060D01*
X15882849Y-16859060D02*
X15892372Y-16840012D01*
X15892372Y-16840012D02*
X15892372Y-16830489D01*
X15892372Y-16830489D02*
X15882849Y-16811441D01*
X15882849Y-16811441D02*
X15863801Y-16801917D01*
X15863801Y-16801917D02*
X15835230Y-16801917D01*
X15835230Y-16801917D02*
X15816182Y-16792393D01*
X15816182Y-16792393D02*
X15806658Y-16773346D01*
X15806658Y-16773346D02*
X15806658Y-16763822D01*
X15806658Y-16763822D02*
X15816182Y-16744774D01*
X15816182Y-16744774D02*
X15835230Y-16735250D01*
X15835230Y-16735250D02*
X15863801Y-16735250D01*
X15863801Y-16735250D02*
X15882849Y-16744774D01*
X15959039Y-16944774D02*
X15968563Y-16935250D01*
X15968563Y-16935250D02*
X15987611Y-16906679D01*
X15987611Y-16906679D02*
X15997134Y-16887631D01*
X15997134Y-16887631D02*
X16006658Y-16859060D01*
X16006658Y-16859060D02*
X16016182Y-16811441D01*
X16016182Y-16811441D02*
X16016182Y-16773346D01*
X16016182Y-16773346D02*
X16006658Y-16725727D01*
X16006658Y-16725727D02*
X15997134Y-16697155D01*
X15997134Y-16697155D02*
X15987611Y-16678108D01*
X15987611Y-16678108D02*
X15968563Y-16649536D01*
X15968563Y-16649536D02*
X15959039Y-16640012D01*
D12*
X10953500Y-17001100D02*
X10953500Y-17081100D01*
X10913500Y-17041100D02*
X10993500Y-17041100D01*
D11*
X11292372Y-16932584D02*
X11311420Y-16932584D01*
X11311420Y-16932584D02*
X11330467Y-16942108D01*
X11330467Y-16942108D02*
X11339991Y-16951631D01*
X11339991Y-16951631D02*
X11349515Y-16970679D01*
X11349515Y-16970679D02*
X11359039Y-17008774D01*
X11359039Y-17008774D02*
X11359039Y-17056393D01*
X11359039Y-17056393D02*
X11349515Y-17094489D01*
X11349515Y-17094489D02*
X11339991Y-17113536D01*
X11339991Y-17113536D02*
X11330467Y-17123060D01*
X11330467Y-17123060D02*
X11311420Y-17132584D01*
X11311420Y-17132584D02*
X11292372Y-17132584D01*
X11292372Y-17132584D02*
X11273324Y-17123060D01*
X11273324Y-17123060D02*
X11263801Y-17113536D01*
X11263801Y-17113536D02*
X11254277Y-17094489D01*
X11254277Y-17094489D02*
X11244753Y-17056393D01*
X11244753Y-17056393D02*
X11244753Y-17008774D01*
X11244753Y-17008774D02*
X11254277Y-16970679D01*
X11254277Y-16970679D02*
X11263801Y-16951631D01*
X11263801Y-16951631D02*
X11273324Y-16942108D01*
X11273324Y-16942108D02*
X11292372Y-16932584D01*
X11444753Y-17113536D02*
X11454277Y-17123060D01*
X11454277Y-17123060D02*
X11444753Y-17132584D01*
X11444753Y-17132584D02*
X11435229Y-17123060D01*
X11435229Y-17123060D02*
X11444753Y-17113536D01*
X11444753Y-17113536D02*
X11444753Y-17132584D01*
X11568562Y-17018298D02*
X11549515Y-17008774D01*
X11549515Y-17008774D02*
X11539991Y-16999250D01*
X11539991Y-16999250D02*
X11530467Y-16980203D01*
X11530467Y-16980203D02*
X11530467Y-16970679D01*
X11530467Y-16970679D02*
X11539991Y-16951631D01*
X11539991Y-16951631D02*
X11549515Y-16942108D01*
X11549515Y-16942108D02*
X11568562Y-16932584D01*
X11568562Y-16932584D02*
X11606658Y-16932584D01*
X11606658Y-16932584D02*
X11625705Y-16942108D01*
X11625705Y-16942108D02*
X11635229Y-16951631D01*
X11635229Y-16951631D02*
X11644753Y-16970679D01*
X11644753Y-16970679D02*
X11644753Y-16980203D01*
X11644753Y-16980203D02*
X11635229Y-16999250D01*
X11635229Y-16999250D02*
X11625705Y-17008774D01*
X11625705Y-17008774D02*
X11606658Y-17018298D01*
X11606658Y-17018298D02*
X11568562Y-17018298D01*
X11568562Y-17018298D02*
X11549515Y-17027822D01*
X11549515Y-17027822D02*
X11539991Y-17037346D01*
X11539991Y-17037346D02*
X11530467Y-17056393D01*
X11530467Y-17056393D02*
X11530467Y-17094489D01*
X11530467Y-17094489D02*
X11539991Y-17113536D01*
X11539991Y-17113536D02*
X11549515Y-17123060D01*
X11549515Y-17123060D02*
X11568562Y-17132584D01*
X11568562Y-17132584D02*
X11606658Y-17132584D01*
X11606658Y-17132584D02*
X11625705Y-17123060D01*
X11625705Y-17123060D02*
X11635229Y-17113536D01*
X11635229Y-17113536D02*
X11644753Y-17094489D01*
X11644753Y-17094489D02*
X11644753Y-17056393D01*
X11644753Y-17056393D02*
X11635229Y-17037346D01*
X11635229Y-17037346D02*
X11625705Y-17027822D01*
X11625705Y-17027822D02*
X11606658Y-17018298D01*
X11768562Y-16932584D02*
X11787610Y-16932584D01*
X11787610Y-16932584D02*
X11806658Y-16942108D01*
X11806658Y-16942108D02*
X11816182Y-16951631D01*
X11816182Y-16951631D02*
X11825705Y-16970679D01*
X11825705Y-16970679D02*
X11835229Y-17008774D01*
X11835229Y-17008774D02*
X11835229Y-17056393D01*
X11835229Y-17056393D02*
X11825705Y-17094489D01*
X11825705Y-17094489D02*
X11816182Y-17113536D01*
X11816182Y-17113536D02*
X11806658Y-17123060D01*
X11806658Y-17123060D02*
X11787610Y-17132584D01*
X11787610Y-17132584D02*
X11768562Y-17132584D01*
X11768562Y-17132584D02*
X11749515Y-17123060D01*
X11749515Y-17123060D02*
X11739991Y-17113536D01*
X11739991Y-17113536D02*
X11730467Y-17094489D01*
X11730467Y-17094489D02*
X11720943Y-17056393D01*
X11720943Y-17056393D02*
X11720943Y-17008774D01*
X11720943Y-17008774D02*
X11730467Y-16970679D01*
X11730467Y-16970679D02*
X11739991Y-16951631D01*
X11739991Y-16951631D02*
X11749515Y-16942108D01*
X11749515Y-16942108D02*
X11768562Y-16932584D01*
X11959039Y-16932584D02*
X11978086Y-16932584D01*
X11978086Y-16932584D02*
X11997134Y-16942108D01*
X11997134Y-16942108D02*
X12006658Y-16951631D01*
X12006658Y-16951631D02*
X12016182Y-16970679D01*
X12016182Y-16970679D02*
X12025705Y-17008774D01*
X12025705Y-17008774D02*
X12025705Y-17056393D01*
X12025705Y-17056393D02*
X12016182Y-17094489D01*
X12016182Y-17094489D02*
X12006658Y-17113536D01*
X12006658Y-17113536D02*
X11997134Y-17123060D01*
X11997134Y-17123060D02*
X11978086Y-17132584D01*
X11978086Y-17132584D02*
X11959039Y-17132584D01*
X11959039Y-17132584D02*
X11939991Y-17123060D01*
X11939991Y-17123060D02*
X11930467Y-17113536D01*
X11930467Y-17113536D02*
X11920943Y-17094489D01*
X11920943Y-17094489D02*
X11911420Y-17056393D01*
X11911420Y-17056393D02*
X11911420Y-17008774D01*
X11911420Y-17008774D02*
X11920943Y-16970679D01*
X11920943Y-16970679D02*
X11930467Y-16951631D01*
X11930467Y-16951631D02*
X11939991Y-16942108D01*
X11939991Y-16942108D02*
X11959039Y-16932584D01*
X12111420Y-17132584D02*
X12111420Y-16999250D01*
X12111420Y-17018298D02*
X12120943Y-17008774D01*
X12120943Y-17008774D02*
X12139991Y-16999250D01*
X12139991Y-16999250D02*
X12168563Y-16999250D01*
X12168563Y-16999250D02*
X12187610Y-17008774D01*
X12187610Y-17008774D02*
X12197134Y-17027822D01*
X12197134Y-17027822D02*
X12197134Y-17132584D01*
X12197134Y-17027822D02*
X12206658Y-17008774D01*
X12206658Y-17008774D02*
X12225705Y-16999250D01*
X12225705Y-16999250D02*
X12254277Y-16999250D01*
X12254277Y-16999250D02*
X12273324Y-17008774D01*
X12273324Y-17008774D02*
X12282848Y-17027822D01*
X12282848Y-17027822D02*
X12282848Y-17132584D01*
X12378086Y-17132584D02*
X12378086Y-16999250D01*
X12378086Y-17018298D02*
X12387610Y-17008774D01*
X12387610Y-17008774D02*
X12406658Y-16999250D01*
X12406658Y-16999250D02*
X12435229Y-16999250D01*
X12435229Y-16999250D02*
X12454277Y-17008774D01*
X12454277Y-17008774D02*
X12463801Y-17027822D01*
X12463801Y-17027822D02*
X12463801Y-17132584D01*
X12463801Y-17027822D02*
X12473324Y-17008774D01*
X12473324Y-17008774D02*
X12492372Y-16999250D01*
X12492372Y-16999250D02*
X12520943Y-16999250D01*
X12520943Y-16999250D02*
X12539991Y-17008774D01*
X12539991Y-17008774D02*
X12549515Y-17027822D01*
X12549515Y-17027822D02*
X12549515Y-17132584D01*
X12939991Y-16923060D02*
X12768563Y-17180203D01*
X13197134Y-16932584D02*
X13216182Y-16932584D01*
X13216182Y-16932584D02*
X13235229Y-16942108D01*
X13235229Y-16942108D02*
X13244753Y-16951631D01*
X13244753Y-16951631D02*
X13254277Y-16970679D01*
X13254277Y-16970679D02*
X13263801Y-17008774D01*
X13263801Y-17008774D02*
X13263801Y-17056393D01*
X13263801Y-17056393D02*
X13254277Y-17094489D01*
X13254277Y-17094489D02*
X13244753Y-17113536D01*
X13244753Y-17113536D02*
X13235229Y-17123060D01*
X13235229Y-17123060D02*
X13216182Y-17132584D01*
X13216182Y-17132584D02*
X13197134Y-17132584D01*
X13197134Y-17132584D02*
X13178086Y-17123060D01*
X13178086Y-17123060D02*
X13168563Y-17113536D01*
X13168563Y-17113536D02*
X13159039Y-17094489D01*
X13159039Y-17094489D02*
X13149515Y-17056393D01*
X13149515Y-17056393D02*
X13149515Y-17008774D01*
X13149515Y-17008774D02*
X13159039Y-16970679D01*
X13159039Y-16970679D02*
X13168563Y-16951631D01*
X13168563Y-16951631D02*
X13178086Y-16942108D01*
X13178086Y-16942108D02*
X13197134Y-16932584D01*
X13349515Y-17113536D02*
X13359039Y-17123060D01*
X13359039Y-17123060D02*
X13349515Y-17132584D01*
X13349515Y-17132584D02*
X13339991Y-17123060D01*
X13339991Y-17123060D02*
X13349515Y-17113536D01*
X13349515Y-17113536D02*
X13349515Y-17132584D01*
X13482848Y-16932584D02*
X13501896Y-16932584D01*
X13501896Y-16932584D02*
X13520944Y-16942108D01*
X13520944Y-16942108D02*
X13530467Y-16951631D01*
X13530467Y-16951631D02*
X13539991Y-16970679D01*
X13539991Y-16970679D02*
X13549515Y-17008774D01*
X13549515Y-17008774D02*
X13549515Y-17056393D01*
X13549515Y-17056393D02*
X13539991Y-17094489D01*
X13539991Y-17094489D02*
X13530467Y-17113536D01*
X13530467Y-17113536D02*
X13520944Y-17123060D01*
X13520944Y-17123060D02*
X13501896Y-17132584D01*
X13501896Y-17132584D02*
X13482848Y-17132584D01*
X13482848Y-17132584D02*
X13463801Y-17123060D01*
X13463801Y-17123060D02*
X13454277Y-17113536D01*
X13454277Y-17113536D02*
X13444753Y-17094489D01*
X13444753Y-17094489D02*
X13435229Y-17056393D01*
X13435229Y-17056393D02*
X13435229Y-17008774D01*
X13435229Y-17008774D02*
X13444753Y-16970679D01*
X13444753Y-16970679D02*
X13454277Y-16951631D01*
X13454277Y-16951631D02*
X13463801Y-16942108D01*
X13463801Y-16942108D02*
X13482848Y-16932584D01*
X13616182Y-16932584D02*
X13739991Y-16932584D01*
X13739991Y-16932584D02*
X13673325Y-17008774D01*
X13673325Y-17008774D02*
X13701896Y-17008774D01*
X13701896Y-17008774D02*
X13720944Y-17018298D01*
X13720944Y-17018298D02*
X13730467Y-17027822D01*
X13730467Y-17027822D02*
X13739991Y-17046870D01*
X13739991Y-17046870D02*
X13739991Y-17094489D01*
X13739991Y-17094489D02*
X13730467Y-17113536D01*
X13730467Y-17113536D02*
X13720944Y-17123060D01*
X13720944Y-17123060D02*
X13701896Y-17132584D01*
X13701896Y-17132584D02*
X13644753Y-17132584D01*
X13644753Y-17132584D02*
X13625706Y-17123060D01*
X13625706Y-17123060D02*
X13616182Y-17113536D01*
X13930467Y-17132584D02*
X13816182Y-17132584D01*
X13873325Y-17132584D02*
X13873325Y-16932584D01*
X13873325Y-16932584D02*
X13854277Y-16961155D01*
X13854277Y-16961155D02*
X13835229Y-16980203D01*
X13835229Y-16980203D02*
X13816182Y-16989727D01*
X14111420Y-16932584D02*
X14016182Y-16932584D01*
X14016182Y-16932584D02*
X14006658Y-17027822D01*
X14006658Y-17027822D02*
X14016182Y-17018298D01*
X14016182Y-17018298D02*
X14035229Y-17008774D01*
X14035229Y-17008774D02*
X14082848Y-17008774D01*
X14082848Y-17008774D02*
X14101896Y-17018298D01*
X14101896Y-17018298D02*
X14111420Y-17027822D01*
X14111420Y-17027822D02*
X14120944Y-17046870D01*
X14120944Y-17046870D02*
X14120944Y-17094489D01*
X14120944Y-17094489D02*
X14111420Y-17113536D01*
X14111420Y-17113536D02*
X14101896Y-17123060D01*
X14101896Y-17123060D02*
X14082848Y-17132584D01*
X14082848Y-17132584D02*
X14035229Y-17132584D01*
X14035229Y-17132584D02*
X14016182Y-17123060D01*
X14016182Y-17123060D02*
X14006658Y-17113536D01*
X14197134Y-16932584D02*
X14197134Y-16970679D01*
X14273325Y-16932584D02*
X14273325Y-16970679D01*
X14568563Y-17208774D02*
X14559039Y-17199250D01*
X14559039Y-17199250D02*
X14539991Y-17170679D01*
X14539991Y-17170679D02*
X14530468Y-17151631D01*
X14530468Y-17151631D02*
X14520944Y-17123060D01*
X14520944Y-17123060D02*
X14511420Y-17075441D01*
X14511420Y-17075441D02*
X14511420Y-17037346D01*
X14511420Y-17037346D02*
X14520944Y-16989727D01*
X14520944Y-16989727D02*
X14530468Y-16961155D01*
X14530468Y-16961155D02*
X14539991Y-16942108D01*
X14539991Y-16942108D02*
X14559039Y-16913536D01*
X14559039Y-16913536D02*
X14568563Y-16904012D01*
X14749515Y-17132584D02*
X14635229Y-17132584D01*
X14692372Y-17132584D02*
X14692372Y-16932584D01*
X14692372Y-16932584D02*
X14673325Y-16961155D01*
X14673325Y-16961155D02*
X14654277Y-16980203D01*
X14654277Y-16980203D02*
X14635229Y-16989727D01*
X14920944Y-16999250D02*
X14920944Y-17132584D01*
X14873325Y-16923060D02*
X14825706Y-17065917D01*
X14825706Y-17065917D02*
X14949515Y-17065917D01*
X15178087Y-17132584D02*
X15178087Y-16932584D01*
X15263801Y-17132584D02*
X15263801Y-17027822D01*
X15263801Y-17027822D02*
X15254277Y-17008774D01*
X15254277Y-17008774D02*
X15235230Y-16999250D01*
X15235230Y-16999250D02*
X15206658Y-16999250D01*
X15206658Y-16999250D02*
X15187610Y-17008774D01*
X15187610Y-17008774D02*
X15178087Y-17018298D01*
X15387610Y-17132584D02*
X15368563Y-17123060D01*
X15368563Y-17123060D02*
X15359039Y-17113536D01*
X15359039Y-17113536D02*
X15349515Y-17094489D01*
X15349515Y-17094489D02*
X15349515Y-17037346D01*
X15349515Y-17037346D02*
X15359039Y-17018298D01*
X15359039Y-17018298D02*
X15368563Y-17008774D01*
X15368563Y-17008774D02*
X15387610Y-16999250D01*
X15387610Y-16999250D02*
X15416182Y-16999250D01*
X15416182Y-16999250D02*
X15435230Y-17008774D01*
X15435230Y-17008774D02*
X15444753Y-17018298D01*
X15444753Y-17018298D02*
X15454277Y-17037346D01*
X15454277Y-17037346D02*
X15454277Y-17094489D01*
X15454277Y-17094489D02*
X15444753Y-17113536D01*
X15444753Y-17113536D02*
X15435230Y-17123060D01*
X15435230Y-17123060D02*
X15416182Y-17132584D01*
X15416182Y-17132584D02*
X15387610Y-17132584D01*
X15568563Y-17132584D02*
X15549515Y-17123060D01*
X15549515Y-17123060D02*
X15539991Y-17104012D01*
X15539991Y-17104012D02*
X15539991Y-16932584D01*
X15720944Y-17123060D02*
X15701896Y-17132584D01*
X15701896Y-17132584D02*
X15663801Y-17132584D01*
X15663801Y-17132584D02*
X15644753Y-17123060D01*
X15644753Y-17123060D02*
X15635230Y-17104012D01*
X15635230Y-17104012D02*
X15635230Y-17027822D01*
X15635230Y-17027822D02*
X15644753Y-17008774D01*
X15644753Y-17008774D02*
X15663801Y-16999250D01*
X15663801Y-16999250D02*
X15701896Y-16999250D01*
X15701896Y-16999250D02*
X15720944Y-17008774D01*
X15720944Y-17008774D02*
X15730468Y-17027822D01*
X15730468Y-17027822D02*
X15730468Y-17046870D01*
X15730468Y-17046870D02*
X15635230Y-17065917D01*
X15806658Y-17123060D02*
X15825706Y-17132584D01*
X15825706Y-17132584D02*
X15863801Y-17132584D01*
X15863801Y-17132584D02*
X15882849Y-17123060D01*
X15882849Y-17123060D02*
X15892372Y-17104012D01*
X15892372Y-17104012D02*
X15892372Y-17094489D01*
X15892372Y-17094489D02*
X15882849Y-17075441D01*
X15882849Y-17075441D02*
X15863801Y-17065917D01*
X15863801Y-17065917D02*
X15835230Y-17065917D01*
X15835230Y-17065917D02*
X15816182Y-17056393D01*
X15816182Y-17056393D02*
X15806658Y-17037346D01*
X15806658Y-17037346D02*
X15806658Y-17027822D01*
X15806658Y-17027822D02*
X15816182Y-17008774D01*
X15816182Y-17008774D02*
X15835230Y-16999250D01*
X15835230Y-16999250D02*
X15863801Y-16999250D01*
X15863801Y-16999250D02*
X15882849Y-17008774D01*
X15959039Y-17208774D02*
X15968563Y-17199250D01*
X15968563Y-17199250D02*
X15987611Y-17170679D01*
X15987611Y-17170679D02*
X15997134Y-17151631D01*
X15997134Y-17151631D02*
X16006658Y-17123060D01*
X16006658Y-17123060D02*
X16016182Y-17075441D01*
X16016182Y-17075441D02*
X16016182Y-17037346D01*
X16016182Y-17037346D02*
X16006658Y-16989727D01*
X16006658Y-16989727D02*
X15997134Y-16961155D01*
X15997134Y-16961155D02*
X15987611Y-16942108D01*
X15987611Y-16942108D02*
X15968563Y-16913536D01*
X15968563Y-16913536D02*
X15959039Y-16904012D01*
D12*
X10978856Y-17340456D02*
X10978856Y-17269744D01*
X10908144Y-17269744D01*
X10908144Y-17340456D01*
X10978856Y-17340456D01*
D11*
X11359039Y-17396584D02*
X11244753Y-17396584D01*
X11301896Y-17396584D02*
X11301896Y-17196584D01*
X11301896Y-17196584D02*
X11282848Y-17225155D01*
X11282848Y-17225155D02*
X11263801Y-17244203D01*
X11263801Y-17244203D02*
X11244753Y-17253727D01*
X11444753Y-17377536D02*
X11454277Y-17387060D01*
X11454277Y-17387060D02*
X11444753Y-17396584D01*
X11444753Y-17396584D02*
X11435229Y-17387060D01*
X11435229Y-17387060D02*
X11444753Y-17377536D01*
X11444753Y-17377536D02*
X11444753Y-17396584D01*
X11578086Y-17196584D02*
X11597134Y-17196584D01*
X11597134Y-17196584D02*
X11616182Y-17206108D01*
X11616182Y-17206108D02*
X11625705Y-17215631D01*
X11625705Y-17215631D02*
X11635229Y-17234679D01*
X11635229Y-17234679D02*
X11644753Y-17272774D01*
X11644753Y-17272774D02*
X11644753Y-17320393D01*
X11644753Y-17320393D02*
X11635229Y-17358489D01*
X11635229Y-17358489D02*
X11625705Y-17377536D01*
X11625705Y-17377536D02*
X11616182Y-17387060D01*
X11616182Y-17387060D02*
X11597134Y-17396584D01*
X11597134Y-17396584D02*
X11578086Y-17396584D01*
X11578086Y-17396584D02*
X11559039Y-17387060D01*
X11559039Y-17387060D02*
X11549515Y-17377536D01*
X11549515Y-17377536D02*
X11539991Y-17358489D01*
X11539991Y-17358489D02*
X11530467Y-17320393D01*
X11530467Y-17320393D02*
X11530467Y-17272774D01*
X11530467Y-17272774D02*
X11539991Y-17234679D01*
X11539991Y-17234679D02*
X11549515Y-17215631D01*
X11549515Y-17215631D02*
X11559039Y-17206108D01*
X11559039Y-17206108D02*
X11578086Y-17196584D01*
X11768562Y-17196584D02*
X11787610Y-17196584D01*
X11787610Y-17196584D02*
X11806658Y-17206108D01*
X11806658Y-17206108D02*
X11816182Y-17215631D01*
X11816182Y-17215631D02*
X11825705Y-17234679D01*
X11825705Y-17234679D02*
X11835229Y-17272774D01*
X11835229Y-17272774D02*
X11835229Y-17320393D01*
X11835229Y-17320393D02*
X11825705Y-17358489D01*
X11825705Y-17358489D02*
X11816182Y-17377536D01*
X11816182Y-17377536D02*
X11806658Y-17387060D01*
X11806658Y-17387060D02*
X11787610Y-17396584D01*
X11787610Y-17396584D02*
X11768562Y-17396584D01*
X11768562Y-17396584D02*
X11749515Y-17387060D01*
X11749515Y-17387060D02*
X11739991Y-17377536D01*
X11739991Y-17377536D02*
X11730467Y-17358489D01*
X11730467Y-17358489D02*
X11720943Y-17320393D01*
X11720943Y-17320393D02*
X11720943Y-17272774D01*
X11720943Y-17272774D02*
X11730467Y-17234679D01*
X11730467Y-17234679D02*
X11739991Y-17215631D01*
X11739991Y-17215631D02*
X11749515Y-17206108D01*
X11749515Y-17206108D02*
X11768562Y-17196584D01*
X11959039Y-17196584D02*
X11978086Y-17196584D01*
X11978086Y-17196584D02*
X11997134Y-17206108D01*
X11997134Y-17206108D02*
X12006658Y-17215631D01*
X12006658Y-17215631D02*
X12016182Y-17234679D01*
X12016182Y-17234679D02*
X12025705Y-17272774D01*
X12025705Y-17272774D02*
X12025705Y-17320393D01*
X12025705Y-17320393D02*
X12016182Y-17358489D01*
X12016182Y-17358489D02*
X12006658Y-17377536D01*
X12006658Y-17377536D02*
X11997134Y-17387060D01*
X11997134Y-17387060D02*
X11978086Y-17396584D01*
X11978086Y-17396584D02*
X11959039Y-17396584D01*
X11959039Y-17396584D02*
X11939991Y-17387060D01*
X11939991Y-17387060D02*
X11930467Y-17377536D01*
X11930467Y-17377536D02*
X11920943Y-17358489D01*
X11920943Y-17358489D02*
X11911420Y-17320393D01*
X11911420Y-17320393D02*
X11911420Y-17272774D01*
X11911420Y-17272774D02*
X11920943Y-17234679D01*
X11920943Y-17234679D02*
X11930467Y-17215631D01*
X11930467Y-17215631D02*
X11939991Y-17206108D01*
X11939991Y-17206108D02*
X11959039Y-17196584D01*
X12111420Y-17396584D02*
X12111420Y-17263250D01*
X12111420Y-17282298D02*
X12120943Y-17272774D01*
X12120943Y-17272774D02*
X12139991Y-17263250D01*
X12139991Y-17263250D02*
X12168563Y-17263250D01*
X12168563Y-17263250D02*
X12187610Y-17272774D01*
X12187610Y-17272774D02*
X12197134Y-17291822D01*
X12197134Y-17291822D02*
X12197134Y-17396584D01*
X12197134Y-17291822D02*
X12206658Y-17272774D01*
X12206658Y-17272774D02*
X12225705Y-17263250D01*
X12225705Y-17263250D02*
X12254277Y-17263250D01*
X12254277Y-17263250D02*
X12273324Y-17272774D01*
X12273324Y-17272774D02*
X12282848Y-17291822D01*
X12282848Y-17291822D02*
X12282848Y-17396584D01*
X12378086Y-17396584D02*
X12378086Y-17263250D01*
X12378086Y-17282298D02*
X12387610Y-17272774D01*
X12387610Y-17272774D02*
X12406658Y-17263250D01*
X12406658Y-17263250D02*
X12435229Y-17263250D01*
X12435229Y-17263250D02*
X12454277Y-17272774D01*
X12454277Y-17272774D02*
X12463801Y-17291822D01*
X12463801Y-17291822D02*
X12463801Y-17396584D01*
X12463801Y-17291822D02*
X12473324Y-17272774D01*
X12473324Y-17272774D02*
X12492372Y-17263250D01*
X12492372Y-17263250D02*
X12520943Y-17263250D01*
X12520943Y-17263250D02*
X12539991Y-17272774D01*
X12539991Y-17272774D02*
X12549515Y-17291822D01*
X12549515Y-17291822D02*
X12549515Y-17396584D01*
X12939991Y-17187060D02*
X12768563Y-17444203D01*
X13197134Y-17196584D02*
X13216182Y-17196584D01*
X13216182Y-17196584D02*
X13235229Y-17206108D01*
X13235229Y-17206108D02*
X13244753Y-17215631D01*
X13244753Y-17215631D02*
X13254277Y-17234679D01*
X13254277Y-17234679D02*
X13263801Y-17272774D01*
X13263801Y-17272774D02*
X13263801Y-17320393D01*
X13263801Y-17320393D02*
X13254277Y-17358489D01*
X13254277Y-17358489D02*
X13244753Y-17377536D01*
X13244753Y-17377536D02*
X13235229Y-17387060D01*
X13235229Y-17387060D02*
X13216182Y-17396584D01*
X13216182Y-17396584D02*
X13197134Y-17396584D01*
X13197134Y-17396584D02*
X13178086Y-17387060D01*
X13178086Y-17387060D02*
X13168563Y-17377536D01*
X13168563Y-17377536D02*
X13159039Y-17358489D01*
X13159039Y-17358489D02*
X13149515Y-17320393D01*
X13149515Y-17320393D02*
X13149515Y-17272774D01*
X13149515Y-17272774D02*
X13159039Y-17234679D01*
X13159039Y-17234679D02*
X13168563Y-17215631D01*
X13168563Y-17215631D02*
X13178086Y-17206108D01*
X13178086Y-17206108D02*
X13197134Y-17196584D01*
X13349515Y-17377536D02*
X13359039Y-17387060D01*
X13359039Y-17387060D02*
X13349515Y-17396584D01*
X13349515Y-17396584D02*
X13339991Y-17387060D01*
X13339991Y-17387060D02*
X13349515Y-17377536D01*
X13349515Y-17377536D02*
X13349515Y-17396584D01*
X13482848Y-17196584D02*
X13501896Y-17196584D01*
X13501896Y-17196584D02*
X13520944Y-17206108D01*
X13520944Y-17206108D02*
X13530467Y-17215631D01*
X13530467Y-17215631D02*
X13539991Y-17234679D01*
X13539991Y-17234679D02*
X13549515Y-17272774D01*
X13549515Y-17272774D02*
X13549515Y-17320393D01*
X13549515Y-17320393D02*
X13539991Y-17358489D01*
X13539991Y-17358489D02*
X13530467Y-17377536D01*
X13530467Y-17377536D02*
X13520944Y-17387060D01*
X13520944Y-17387060D02*
X13501896Y-17396584D01*
X13501896Y-17396584D02*
X13482848Y-17396584D01*
X13482848Y-17396584D02*
X13463801Y-17387060D01*
X13463801Y-17387060D02*
X13454277Y-17377536D01*
X13454277Y-17377536D02*
X13444753Y-17358489D01*
X13444753Y-17358489D02*
X13435229Y-17320393D01*
X13435229Y-17320393D02*
X13435229Y-17272774D01*
X13435229Y-17272774D02*
X13444753Y-17234679D01*
X13444753Y-17234679D02*
X13454277Y-17215631D01*
X13454277Y-17215631D02*
X13463801Y-17206108D01*
X13463801Y-17206108D02*
X13482848Y-17196584D01*
X13616182Y-17196584D02*
X13739991Y-17196584D01*
X13739991Y-17196584D02*
X13673325Y-17272774D01*
X13673325Y-17272774D02*
X13701896Y-17272774D01*
X13701896Y-17272774D02*
X13720944Y-17282298D01*
X13720944Y-17282298D02*
X13730467Y-17291822D01*
X13730467Y-17291822D02*
X13739991Y-17310870D01*
X13739991Y-17310870D02*
X13739991Y-17358489D01*
X13739991Y-17358489D02*
X13730467Y-17377536D01*
X13730467Y-17377536D02*
X13720944Y-17387060D01*
X13720944Y-17387060D02*
X13701896Y-17396584D01*
X13701896Y-17396584D02*
X13644753Y-17396584D01*
X13644753Y-17396584D02*
X13625706Y-17387060D01*
X13625706Y-17387060D02*
X13616182Y-17377536D01*
X13835229Y-17396584D02*
X13873325Y-17396584D01*
X13873325Y-17396584D02*
X13892372Y-17387060D01*
X13892372Y-17387060D02*
X13901896Y-17377536D01*
X13901896Y-17377536D02*
X13920944Y-17348965D01*
X13920944Y-17348965D02*
X13930467Y-17310870D01*
X13930467Y-17310870D02*
X13930467Y-17234679D01*
X13930467Y-17234679D02*
X13920944Y-17215631D01*
X13920944Y-17215631D02*
X13911420Y-17206108D01*
X13911420Y-17206108D02*
X13892372Y-17196584D01*
X13892372Y-17196584D02*
X13854277Y-17196584D01*
X13854277Y-17196584D02*
X13835229Y-17206108D01*
X13835229Y-17206108D02*
X13825706Y-17215631D01*
X13825706Y-17215631D02*
X13816182Y-17234679D01*
X13816182Y-17234679D02*
X13816182Y-17282298D01*
X13816182Y-17282298D02*
X13825706Y-17301346D01*
X13825706Y-17301346D02*
X13835229Y-17310870D01*
X13835229Y-17310870D02*
X13854277Y-17320393D01*
X13854277Y-17320393D02*
X13892372Y-17320393D01*
X13892372Y-17320393D02*
X13911420Y-17310870D01*
X13911420Y-17310870D02*
X13920944Y-17301346D01*
X13920944Y-17301346D02*
X13930467Y-17282298D01*
X14101896Y-17263250D02*
X14101896Y-17396584D01*
X14054277Y-17187060D02*
X14006658Y-17329917D01*
X14006658Y-17329917D02*
X14130467Y-17329917D01*
X14197134Y-17196584D02*
X14197134Y-17234679D01*
X14273325Y-17196584D02*
X14273325Y-17234679D01*
X14568563Y-17472774D02*
X14559039Y-17463250D01*
X14559039Y-17463250D02*
X14539991Y-17434679D01*
X14539991Y-17434679D02*
X14530468Y-17415631D01*
X14530468Y-17415631D02*
X14520944Y-17387060D01*
X14520944Y-17387060D02*
X14511420Y-17339441D01*
X14511420Y-17339441D02*
X14511420Y-17301346D01*
X14511420Y-17301346D02*
X14520944Y-17253727D01*
X14520944Y-17253727D02*
X14530468Y-17225155D01*
X14530468Y-17225155D02*
X14539991Y-17206108D01*
X14539991Y-17206108D02*
X14559039Y-17177536D01*
X14559039Y-17177536D02*
X14568563Y-17168012D01*
X14730468Y-17196584D02*
X14692372Y-17196584D01*
X14692372Y-17196584D02*
X14673325Y-17206108D01*
X14673325Y-17206108D02*
X14663801Y-17215631D01*
X14663801Y-17215631D02*
X14644753Y-17244203D01*
X14644753Y-17244203D02*
X14635229Y-17282298D01*
X14635229Y-17282298D02*
X14635229Y-17358489D01*
X14635229Y-17358489D02*
X14644753Y-17377536D01*
X14644753Y-17377536D02*
X14654277Y-17387060D01*
X14654277Y-17387060D02*
X14673325Y-17396584D01*
X14673325Y-17396584D02*
X14711420Y-17396584D01*
X14711420Y-17396584D02*
X14730468Y-17387060D01*
X14730468Y-17387060D02*
X14739991Y-17377536D01*
X14739991Y-17377536D02*
X14749515Y-17358489D01*
X14749515Y-17358489D02*
X14749515Y-17310870D01*
X14749515Y-17310870D02*
X14739991Y-17291822D01*
X14739991Y-17291822D02*
X14730468Y-17282298D01*
X14730468Y-17282298D02*
X14711420Y-17272774D01*
X14711420Y-17272774D02*
X14673325Y-17272774D01*
X14673325Y-17272774D02*
X14654277Y-17282298D01*
X14654277Y-17282298D02*
X14644753Y-17291822D01*
X14644753Y-17291822D02*
X14635229Y-17310870D01*
X14873325Y-17196584D02*
X14892372Y-17196584D01*
X14892372Y-17196584D02*
X14911420Y-17206108D01*
X14911420Y-17206108D02*
X14920944Y-17215631D01*
X14920944Y-17215631D02*
X14930468Y-17234679D01*
X14930468Y-17234679D02*
X14939991Y-17272774D01*
X14939991Y-17272774D02*
X14939991Y-17320393D01*
X14939991Y-17320393D02*
X14930468Y-17358489D01*
X14930468Y-17358489D02*
X14920944Y-17377536D01*
X14920944Y-17377536D02*
X14911420Y-17387060D01*
X14911420Y-17387060D02*
X14892372Y-17396584D01*
X14892372Y-17396584D02*
X14873325Y-17396584D01*
X14873325Y-17396584D02*
X14854277Y-17387060D01*
X14854277Y-17387060D02*
X14844753Y-17377536D01*
X14844753Y-17377536D02*
X14835229Y-17358489D01*
X14835229Y-17358489D02*
X14825706Y-17320393D01*
X14825706Y-17320393D02*
X14825706Y-17272774D01*
X14825706Y-17272774D02*
X14835229Y-17234679D01*
X14835229Y-17234679D02*
X14844753Y-17215631D01*
X14844753Y-17215631D02*
X14854277Y-17206108D01*
X14854277Y-17206108D02*
X14873325Y-17196584D01*
X15178087Y-17396584D02*
X15178087Y-17196584D01*
X15263801Y-17396584D02*
X15263801Y-17291822D01*
X15263801Y-17291822D02*
X15254277Y-17272774D01*
X15254277Y-17272774D02*
X15235230Y-17263250D01*
X15235230Y-17263250D02*
X15206658Y-17263250D01*
X15206658Y-17263250D02*
X15187610Y-17272774D01*
X15187610Y-17272774D02*
X15178087Y-17282298D01*
X15387610Y-17396584D02*
X15368563Y-17387060D01*
X15368563Y-17387060D02*
X15359039Y-17377536D01*
X15359039Y-17377536D02*
X15349515Y-17358489D01*
X15349515Y-17358489D02*
X15349515Y-17301346D01*
X15349515Y-17301346D02*
X15359039Y-17282298D01*
X15359039Y-17282298D02*
X15368563Y-17272774D01*
X15368563Y-17272774D02*
X15387610Y-17263250D01*
X15387610Y-17263250D02*
X15416182Y-17263250D01*
X15416182Y-17263250D02*
X15435230Y-17272774D01*
X15435230Y-17272774D02*
X15444753Y-17282298D01*
X15444753Y-17282298D02*
X15454277Y-17301346D01*
X15454277Y-17301346D02*
X15454277Y-17358489D01*
X15454277Y-17358489D02*
X15444753Y-17377536D01*
X15444753Y-17377536D02*
X15435230Y-17387060D01*
X15435230Y-17387060D02*
X15416182Y-17396584D01*
X15416182Y-17396584D02*
X15387610Y-17396584D01*
X15568563Y-17396584D02*
X15549515Y-17387060D01*
X15549515Y-17387060D02*
X15539991Y-17368012D01*
X15539991Y-17368012D02*
X15539991Y-17196584D01*
X15720944Y-17387060D02*
X15701896Y-17396584D01*
X15701896Y-17396584D02*
X15663801Y-17396584D01*
X15663801Y-17396584D02*
X15644753Y-17387060D01*
X15644753Y-17387060D02*
X15635230Y-17368012D01*
X15635230Y-17368012D02*
X15635230Y-17291822D01*
X15635230Y-17291822D02*
X15644753Y-17272774D01*
X15644753Y-17272774D02*
X15663801Y-17263250D01*
X15663801Y-17263250D02*
X15701896Y-17263250D01*
X15701896Y-17263250D02*
X15720944Y-17272774D01*
X15720944Y-17272774D02*
X15730468Y-17291822D01*
X15730468Y-17291822D02*
X15730468Y-17310870D01*
X15730468Y-17310870D02*
X15635230Y-17329917D01*
X15806658Y-17387060D02*
X15825706Y-17396584D01*
X15825706Y-17396584D02*
X15863801Y-17396584D01*
X15863801Y-17396584D02*
X15882849Y-17387060D01*
X15882849Y-17387060D02*
X15892372Y-17368012D01*
X15892372Y-17368012D02*
X15892372Y-17358489D01*
X15892372Y-17358489D02*
X15882849Y-17339441D01*
X15882849Y-17339441D02*
X15863801Y-17329917D01*
X15863801Y-17329917D02*
X15835230Y-17329917D01*
X15835230Y-17329917D02*
X15816182Y-17320393D01*
X15816182Y-17320393D02*
X15806658Y-17301346D01*
X15806658Y-17301346D02*
X15806658Y-17291822D01*
X15806658Y-17291822D02*
X15816182Y-17272774D01*
X15816182Y-17272774D02*
X15835230Y-17263250D01*
X15835230Y-17263250D02*
X15863801Y-17263250D01*
X15863801Y-17263250D02*
X15882849Y-17272774D01*
X15959039Y-17472774D02*
X15968563Y-17463250D01*
X15968563Y-17463250D02*
X15987611Y-17434679D01*
X15987611Y-17434679D02*
X15997134Y-17415631D01*
X15997134Y-17415631D02*
X16006658Y-17387060D01*
X16006658Y-17387060D02*
X16016182Y-17339441D01*
X16016182Y-17339441D02*
X16016182Y-17301346D01*
X16016182Y-17301346D02*
X16006658Y-17253727D01*
X16006658Y-17253727D02*
X15997134Y-17225155D01*
X15997134Y-17225155D02*
X15987611Y-17206108D01*
X15987611Y-17206108D02*
X15968563Y-17177536D01*
X15968563Y-17177536D02*
X15959039Y-17168012D01*
D13*
X10938500Y-17624100D02*
X10993500Y-17569100D01*
X10938500Y-17514100D01*
X10883500Y-17569100D01*
X10938500Y-17624100D01*
D11*
X11359039Y-17660584D02*
X11244753Y-17660584D01*
X11301896Y-17660584D02*
X11301896Y-17460584D01*
X11301896Y-17460584D02*
X11282848Y-17489155D01*
X11282848Y-17489155D02*
X11263801Y-17508203D01*
X11263801Y-17508203D02*
X11244753Y-17517727D01*
X11444753Y-17641536D02*
X11454277Y-17651060D01*
X11454277Y-17651060D02*
X11444753Y-17660584D01*
X11444753Y-17660584D02*
X11435229Y-17651060D01*
X11435229Y-17651060D02*
X11444753Y-17641536D01*
X11444753Y-17641536D02*
X11444753Y-17660584D01*
X11644753Y-17660584D02*
X11530467Y-17660584D01*
X11587610Y-17660584D02*
X11587610Y-17460584D01*
X11587610Y-17460584D02*
X11568562Y-17489155D01*
X11568562Y-17489155D02*
X11549515Y-17508203D01*
X11549515Y-17508203D02*
X11530467Y-17517727D01*
X11768562Y-17460584D02*
X11787610Y-17460584D01*
X11787610Y-17460584D02*
X11806658Y-17470108D01*
X11806658Y-17470108D02*
X11816182Y-17479631D01*
X11816182Y-17479631D02*
X11825705Y-17498679D01*
X11825705Y-17498679D02*
X11835229Y-17536774D01*
X11835229Y-17536774D02*
X11835229Y-17584393D01*
X11835229Y-17584393D02*
X11825705Y-17622489D01*
X11825705Y-17622489D02*
X11816182Y-17641536D01*
X11816182Y-17641536D02*
X11806658Y-17651060D01*
X11806658Y-17651060D02*
X11787610Y-17660584D01*
X11787610Y-17660584D02*
X11768562Y-17660584D01*
X11768562Y-17660584D02*
X11749515Y-17651060D01*
X11749515Y-17651060D02*
X11739991Y-17641536D01*
X11739991Y-17641536D02*
X11730467Y-17622489D01*
X11730467Y-17622489D02*
X11720943Y-17584393D01*
X11720943Y-17584393D02*
X11720943Y-17536774D01*
X11720943Y-17536774D02*
X11730467Y-17498679D01*
X11730467Y-17498679D02*
X11739991Y-17479631D01*
X11739991Y-17479631D02*
X11749515Y-17470108D01*
X11749515Y-17470108D02*
X11768562Y-17460584D01*
X11959039Y-17460584D02*
X11978086Y-17460584D01*
X11978086Y-17460584D02*
X11997134Y-17470108D01*
X11997134Y-17470108D02*
X12006658Y-17479631D01*
X12006658Y-17479631D02*
X12016182Y-17498679D01*
X12016182Y-17498679D02*
X12025705Y-17536774D01*
X12025705Y-17536774D02*
X12025705Y-17584393D01*
X12025705Y-17584393D02*
X12016182Y-17622489D01*
X12016182Y-17622489D02*
X12006658Y-17641536D01*
X12006658Y-17641536D02*
X11997134Y-17651060D01*
X11997134Y-17651060D02*
X11978086Y-17660584D01*
X11978086Y-17660584D02*
X11959039Y-17660584D01*
X11959039Y-17660584D02*
X11939991Y-17651060D01*
X11939991Y-17651060D02*
X11930467Y-17641536D01*
X11930467Y-17641536D02*
X11920943Y-17622489D01*
X11920943Y-17622489D02*
X11911420Y-17584393D01*
X11911420Y-17584393D02*
X11911420Y-17536774D01*
X11911420Y-17536774D02*
X11920943Y-17498679D01*
X11920943Y-17498679D02*
X11930467Y-17479631D01*
X11930467Y-17479631D02*
X11939991Y-17470108D01*
X11939991Y-17470108D02*
X11959039Y-17460584D01*
X12111420Y-17660584D02*
X12111420Y-17527250D01*
X12111420Y-17546298D02*
X12120943Y-17536774D01*
X12120943Y-17536774D02*
X12139991Y-17527250D01*
X12139991Y-17527250D02*
X12168563Y-17527250D01*
X12168563Y-17527250D02*
X12187610Y-17536774D01*
X12187610Y-17536774D02*
X12197134Y-17555822D01*
X12197134Y-17555822D02*
X12197134Y-17660584D01*
X12197134Y-17555822D02*
X12206658Y-17536774D01*
X12206658Y-17536774D02*
X12225705Y-17527250D01*
X12225705Y-17527250D02*
X12254277Y-17527250D01*
X12254277Y-17527250D02*
X12273324Y-17536774D01*
X12273324Y-17536774D02*
X12282848Y-17555822D01*
X12282848Y-17555822D02*
X12282848Y-17660584D01*
X12378086Y-17660584D02*
X12378086Y-17527250D01*
X12378086Y-17546298D02*
X12387610Y-17536774D01*
X12387610Y-17536774D02*
X12406658Y-17527250D01*
X12406658Y-17527250D02*
X12435229Y-17527250D01*
X12435229Y-17527250D02*
X12454277Y-17536774D01*
X12454277Y-17536774D02*
X12463801Y-17555822D01*
X12463801Y-17555822D02*
X12463801Y-17660584D01*
X12463801Y-17555822D02*
X12473324Y-17536774D01*
X12473324Y-17536774D02*
X12492372Y-17527250D01*
X12492372Y-17527250D02*
X12520943Y-17527250D01*
X12520943Y-17527250D02*
X12539991Y-17536774D01*
X12539991Y-17536774D02*
X12549515Y-17555822D01*
X12549515Y-17555822D02*
X12549515Y-17660584D01*
X12939991Y-17451060D02*
X12768563Y-17708203D01*
X13197134Y-17460584D02*
X13216182Y-17460584D01*
X13216182Y-17460584D02*
X13235229Y-17470108D01*
X13235229Y-17470108D02*
X13244753Y-17479631D01*
X13244753Y-17479631D02*
X13254277Y-17498679D01*
X13254277Y-17498679D02*
X13263801Y-17536774D01*
X13263801Y-17536774D02*
X13263801Y-17584393D01*
X13263801Y-17584393D02*
X13254277Y-17622489D01*
X13254277Y-17622489D02*
X13244753Y-17641536D01*
X13244753Y-17641536D02*
X13235229Y-17651060D01*
X13235229Y-17651060D02*
X13216182Y-17660584D01*
X13216182Y-17660584D02*
X13197134Y-17660584D01*
X13197134Y-17660584D02*
X13178086Y-17651060D01*
X13178086Y-17651060D02*
X13168563Y-17641536D01*
X13168563Y-17641536D02*
X13159039Y-17622489D01*
X13159039Y-17622489D02*
X13149515Y-17584393D01*
X13149515Y-17584393D02*
X13149515Y-17536774D01*
X13149515Y-17536774D02*
X13159039Y-17498679D01*
X13159039Y-17498679D02*
X13168563Y-17479631D01*
X13168563Y-17479631D02*
X13178086Y-17470108D01*
X13178086Y-17470108D02*
X13197134Y-17460584D01*
X13349515Y-17641536D02*
X13359039Y-17651060D01*
X13359039Y-17651060D02*
X13349515Y-17660584D01*
X13349515Y-17660584D02*
X13339991Y-17651060D01*
X13339991Y-17651060D02*
X13349515Y-17641536D01*
X13349515Y-17641536D02*
X13349515Y-17660584D01*
X13482848Y-17460584D02*
X13501896Y-17460584D01*
X13501896Y-17460584D02*
X13520944Y-17470108D01*
X13520944Y-17470108D02*
X13530467Y-17479631D01*
X13530467Y-17479631D02*
X13539991Y-17498679D01*
X13539991Y-17498679D02*
X13549515Y-17536774D01*
X13549515Y-17536774D02*
X13549515Y-17584393D01*
X13549515Y-17584393D02*
X13539991Y-17622489D01*
X13539991Y-17622489D02*
X13530467Y-17641536D01*
X13530467Y-17641536D02*
X13520944Y-17651060D01*
X13520944Y-17651060D02*
X13501896Y-17660584D01*
X13501896Y-17660584D02*
X13482848Y-17660584D01*
X13482848Y-17660584D02*
X13463801Y-17651060D01*
X13463801Y-17651060D02*
X13454277Y-17641536D01*
X13454277Y-17641536D02*
X13444753Y-17622489D01*
X13444753Y-17622489D02*
X13435229Y-17584393D01*
X13435229Y-17584393D02*
X13435229Y-17536774D01*
X13435229Y-17536774D02*
X13444753Y-17498679D01*
X13444753Y-17498679D02*
X13454277Y-17479631D01*
X13454277Y-17479631D02*
X13463801Y-17470108D01*
X13463801Y-17470108D02*
X13482848Y-17460584D01*
X13720944Y-17527250D02*
X13720944Y-17660584D01*
X13673325Y-17451060D02*
X13625706Y-17593917D01*
X13625706Y-17593917D02*
X13749515Y-17593917D01*
X13806658Y-17460584D02*
X13930467Y-17460584D01*
X13930467Y-17460584D02*
X13863801Y-17536774D01*
X13863801Y-17536774D02*
X13892372Y-17536774D01*
X13892372Y-17536774D02*
X13911420Y-17546298D01*
X13911420Y-17546298D02*
X13920944Y-17555822D01*
X13920944Y-17555822D02*
X13930467Y-17574870D01*
X13930467Y-17574870D02*
X13930467Y-17622489D01*
X13930467Y-17622489D02*
X13920944Y-17641536D01*
X13920944Y-17641536D02*
X13911420Y-17651060D01*
X13911420Y-17651060D02*
X13892372Y-17660584D01*
X13892372Y-17660584D02*
X13835229Y-17660584D01*
X13835229Y-17660584D02*
X13816182Y-17651060D01*
X13816182Y-17651060D02*
X13806658Y-17641536D01*
X13997134Y-17460584D02*
X14120944Y-17460584D01*
X14120944Y-17460584D02*
X14054277Y-17536774D01*
X14054277Y-17536774D02*
X14082848Y-17536774D01*
X14082848Y-17536774D02*
X14101896Y-17546298D01*
X14101896Y-17546298D02*
X14111420Y-17555822D01*
X14111420Y-17555822D02*
X14120944Y-17574870D01*
X14120944Y-17574870D02*
X14120944Y-17622489D01*
X14120944Y-17622489D02*
X14111420Y-17641536D01*
X14111420Y-17641536D02*
X14101896Y-17651060D01*
X14101896Y-17651060D02*
X14082848Y-17660584D01*
X14082848Y-17660584D02*
X14025706Y-17660584D01*
X14025706Y-17660584D02*
X14006658Y-17651060D01*
X14006658Y-17651060D02*
X13997134Y-17641536D01*
X14197134Y-17460584D02*
X14197134Y-17498679D01*
X14273325Y-17460584D02*
X14273325Y-17498679D01*
X14568563Y-17736774D02*
X14559039Y-17727250D01*
X14559039Y-17727250D02*
X14539991Y-17698679D01*
X14539991Y-17698679D02*
X14530468Y-17679631D01*
X14530468Y-17679631D02*
X14520944Y-17651060D01*
X14520944Y-17651060D02*
X14511420Y-17603441D01*
X14511420Y-17603441D02*
X14511420Y-17565346D01*
X14511420Y-17565346D02*
X14520944Y-17517727D01*
X14520944Y-17517727D02*
X14530468Y-17489155D01*
X14530468Y-17489155D02*
X14539991Y-17470108D01*
X14539991Y-17470108D02*
X14559039Y-17441536D01*
X14559039Y-17441536D02*
X14568563Y-17432012D01*
X14635229Y-17479631D02*
X14644753Y-17470108D01*
X14644753Y-17470108D02*
X14663801Y-17460584D01*
X14663801Y-17460584D02*
X14711420Y-17460584D01*
X14711420Y-17460584D02*
X14730468Y-17470108D01*
X14730468Y-17470108D02*
X14739991Y-17479631D01*
X14739991Y-17479631D02*
X14749515Y-17498679D01*
X14749515Y-17498679D02*
X14749515Y-17517727D01*
X14749515Y-17517727D02*
X14739991Y-17546298D01*
X14739991Y-17546298D02*
X14625706Y-17660584D01*
X14625706Y-17660584D02*
X14749515Y-17660584D01*
X14987610Y-17660584D02*
X14987610Y-17460584D01*
X15073325Y-17660584D02*
X15073325Y-17555822D01*
X15073325Y-17555822D02*
X15063801Y-17536774D01*
X15063801Y-17536774D02*
X15044753Y-17527250D01*
X15044753Y-17527250D02*
X15016182Y-17527250D01*
X15016182Y-17527250D02*
X14997134Y-17536774D01*
X14997134Y-17536774D02*
X14987610Y-17546298D01*
X15197134Y-17660584D02*
X15178087Y-17651060D01*
X15178087Y-17651060D02*
X15168563Y-17641536D01*
X15168563Y-17641536D02*
X15159039Y-17622489D01*
X15159039Y-17622489D02*
X15159039Y-17565346D01*
X15159039Y-17565346D02*
X15168563Y-17546298D01*
X15168563Y-17546298D02*
X15178087Y-17536774D01*
X15178087Y-17536774D02*
X15197134Y-17527250D01*
X15197134Y-17527250D02*
X15225706Y-17527250D01*
X15225706Y-17527250D02*
X15244753Y-17536774D01*
X15244753Y-17536774D02*
X15254277Y-17546298D01*
X15254277Y-17546298D02*
X15263801Y-17565346D01*
X15263801Y-17565346D02*
X15263801Y-17622489D01*
X15263801Y-17622489D02*
X15254277Y-17641536D01*
X15254277Y-17641536D02*
X15244753Y-17651060D01*
X15244753Y-17651060D02*
X15225706Y-17660584D01*
X15225706Y-17660584D02*
X15197134Y-17660584D01*
X15378087Y-17660584D02*
X15359039Y-17651060D01*
X15359039Y-17651060D02*
X15349515Y-17632012D01*
X15349515Y-17632012D02*
X15349515Y-17460584D01*
X15530468Y-17651060D02*
X15511420Y-17660584D01*
X15511420Y-17660584D02*
X15473325Y-17660584D01*
X15473325Y-17660584D02*
X15454277Y-17651060D01*
X15454277Y-17651060D02*
X15444753Y-17632012D01*
X15444753Y-17632012D02*
X15444753Y-17555822D01*
X15444753Y-17555822D02*
X15454277Y-17536774D01*
X15454277Y-17536774D02*
X15473325Y-17527250D01*
X15473325Y-17527250D02*
X15511420Y-17527250D01*
X15511420Y-17527250D02*
X15530468Y-17536774D01*
X15530468Y-17536774D02*
X15539991Y-17555822D01*
X15539991Y-17555822D02*
X15539991Y-17574870D01*
X15539991Y-17574870D02*
X15444753Y-17593917D01*
X15616182Y-17651060D02*
X15635230Y-17660584D01*
X15635230Y-17660584D02*
X15673325Y-17660584D01*
X15673325Y-17660584D02*
X15692372Y-17651060D01*
X15692372Y-17651060D02*
X15701896Y-17632012D01*
X15701896Y-17632012D02*
X15701896Y-17622489D01*
X15701896Y-17622489D02*
X15692372Y-17603441D01*
X15692372Y-17603441D02*
X15673325Y-17593917D01*
X15673325Y-17593917D02*
X15644753Y-17593917D01*
X15644753Y-17593917D02*
X15625706Y-17584393D01*
X15625706Y-17584393D02*
X15616182Y-17565346D01*
X15616182Y-17565346D02*
X15616182Y-17555822D01*
X15616182Y-17555822D02*
X15625706Y-17536774D01*
X15625706Y-17536774D02*
X15644753Y-17527250D01*
X15644753Y-17527250D02*
X15673325Y-17527250D01*
X15673325Y-17527250D02*
X15692372Y-17536774D01*
X15768563Y-17736774D02*
X15778087Y-17727250D01*
X15778087Y-17727250D02*
X15797134Y-17698679D01*
X15797134Y-17698679D02*
X15806658Y-17679631D01*
X15806658Y-17679631D02*
X15816182Y-17651060D01*
X15816182Y-17651060D02*
X15825706Y-17603441D01*
X15825706Y-17603441D02*
X15825706Y-17565346D01*
X15825706Y-17565346D02*
X15816182Y-17517727D01*
X15816182Y-17517727D02*
X15806658Y-17489155D01*
X15806658Y-17489155D02*
X15797134Y-17470108D01*
X15797134Y-17470108D02*
X15778087Y-17441536D01*
X15778087Y-17441536D02*
X15768563Y-17432012D01*
D14*
X10873500Y-17773100D02*
X10993500Y-17893100D01*
X10993500Y-17773100D02*
X10873500Y-17893100D01*
X10993500Y-17833100D02*
G75*
G02*
X10873500Y-17833100I-60000J0D01*
G01*
X10873500Y-17833100D02*
G75*
G02*
X10993500Y-17833100I60000J0D01*
G01*
D11*
X11359039Y-17924584D02*
X11244753Y-17924584D01*
X11301896Y-17924584D02*
X11301896Y-17724584D01*
X11301896Y-17724584D02*
X11282848Y-17753155D01*
X11282848Y-17753155D02*
X11263801Y-17772203D01*
X11263801Y-17772203D02*
X11244753Y-17781727D01*
X11444753Y-17905536D02*
X11454277Y-17915060D01*
X11454277Y-17915060D02*
X11444753Y-17924584D01*
X11444753Y-17924584D02*
X11435229Y-17915060D01*
X11435229Y-17915060D02*
X11444753Y-17905536D01*
X11444753Y-17905536D02*
X11444753Y-17924584D01*
X11530467Y-17743631D02*
X11539991Y-17734108D01*
X11539991Y-17734108D02*
X11559039Y-17724584D01*
X11559039Y-17724584D02*
X11606658Y-17724584D01*
X11606658Y-17724584D02*
X11625705Y-17734108D01*
X11625705Y-17734108D02*
X11635229Y-17743631D01*
X11635229Y-17743631D02*
X11644753Y-17762679D01*
X11644753Y-17762679D02*
X11644753Y-17781727D01*
X11644753Y-17781727D02*
X11635229Y-17810298D01*
X11635229Y-17810298D02*
X11520943Y-17924584D01*
X11520943Y-17924584D02*
X11644753Y-17924584D01*
X11768562Y-17724584D02*
X11787610Y-17724584D01*
X11787610Y-17724584D02*
X11806658Y-17734108D01*
X11806658Y-17734108D02*
X11816182Y-17743631D01*
X11816182Y-17743631D02*
X11825705Y-17762679D01*
X11825705Y-17762679D02*
X11835229Y-17800774D01*
X11835229Y-17800774D02*
X11835229Y-17848393D01*
X11835229Y-17848393D02*
X11825705Y-17886489D01*
X11825705Y-17886489D02*
X11816182Y-17905536D01*
X11816182Y-17905536D02*
X11806658Y-17915060D01*
X11806658Y-17915060D02*
X11787610Y-17924584D01*
X11787610Y-17924584D02*
X11768562Y-17924584D01*
X11768562Y-17924584D02*
X11749515Y-17915060D01*
X11749515Y-17915060D02*
X11739991Y-17905536D01*
X11739991Y-17905536D02*
X11730467Y-17886489D01*
X11730467Y-17886489D02*
X11720943Y-17848393D01*
X11720943Y-17848393D02*
X11720943Y-17800774D01*
X11720943Y-17800774D02*
X11730467Y-17762679D01*
X11730467Y-17762679D02*
X11739991Y-17743631D01*
X11739991Y-17743631D02*
X11749515Y-17734108D01*
X11749515Y-17734108D02*
X11768562Y-17724584D01*
X11959039Y-17724584D02*
X11978086Y-17724584D01*
X11978086Y-17724584D02*
X11997134Y-17734108D01*
X11997134Y-17734108D02*
X12006658Y-17743631D01*
X12006658Y-17743631D02*
X12016182Y-17762679D01*
X12016182Y-17762679D02*
X12025705Y-17800774D01*
X12025705Y-17800774D02*
X12025705Y-17848393D01*
X12025705Y-17848393D02*
X12016182Y-17886489D01*
X12016182Y-17886489D02*
X12006658Y-17905536D01*
X12006658Y-17905536D02*
X11997134Y-17915060D01*
X11997134Y-17915060D02*
X11978086Y-17924584D01*
X11978086Y-17924584D02*
X11959039Y-17924584D01*
X11959039Y-17924584D02*
X11939991Y-17915060D01*
X11939991Y-17915060D02*
X11930467Y-17905536D01*
X11930467Y-17905536D02*
X11920943Y-17886489D01*
X11920943Y-17886489D02*
X11911420Y-17848393D01*
X11911420Y-17848393D02*
X11911420Y-17800774D01*
X11911420Y-17800774D02*
X11920943Y-17762679D01*
X11920943Y-17762679D02*
X11930467Y-17743631D01*
X11930467Y-17743631D02*
X11939991Y-17734108D01*
X11939991Y-17734108D02*
X11959039Y-17724584D01*
X12111420Y-17924584D02*
X12111420Y-17791250D01*
X12111420Y-17810298D02*
X12120943Y-17800774D01*
X12120943Y-17800774D02*
X12139991Y-17791250D01*
X12139991Y-17791250D02*
X12168563Y-17791250D01*
X12168563Y-17791250D02*
X12187610Y-17800774D01*
X12187610Y-17800774D02*
X12197134Y-17819822D01*
X12197134Y-17819822D02*
X12197134Y-17924584D01*
X12197134Y-17819822D02*
X12206658Y-17800774D01*
X12206658Y-17800774D02*
X12225705Y-17791250D01*
X12225705Y-17791250D02*
X12254277Y-17791250D01*
X12254277Y-17791250D02*
X12273324Y-17800774D01*
X12273324Y-17800774D02*
X12282848Y-17819822D01*
X12282848Y-17819822D02*
X12282848Y-17924584D01*
X12378086Y-17924584D02*
X12378086Y-17791250D01*
X12378086Y-17810298D02*
X12387610Y-17800774D01*
X12387610Y-17800774D02*
X12406658Y-17791250D01*
X12406658Y-17791250D02*
X12435229Y-17791250D01*
X12435229Y-17791250D02*
X12454277Y-17800774D01*
X12454277Y-17800774D02*
X12463801Y-17819822D01*
X12463801Y-17819822D02*
X12463801Y-17924584D01*
X12463801Y-17819822D02*
X12473324Y-17800774D01*
X12473324Y-17800774D02*
X12492372Y-17791250D01*
X12492372Y-17791250D02*
X12520943Y-17791250D01*
X12520943Y-17791250D02*
X12539991Y-17800774D01*
X12539991Y-17800774D02*
X12549515Y-17819822D01*
X12549515Y-17819822D02*
X12549515Y-17924584D01*
X12939991Y-17715060D02*
X12768563Y-17972203D01*
X13197134Y-17724584D02*
X13216182Y-17724584D01*
X13216182Y-17724584D02*
X13235229Y-17734108D01*
X13235229Y-17734108D02*
X13244753Y-17743631D01*
X13244753Y-17743631D02*
X13254277Y-17762679D01*
X13254277Y-17762679D02*
X13263801Y-17800774D01*
X13263801Y-17800774D02*
X13263801Y-17848393D01*
X13263801Y-17848393D02*
X13254277Y-17886489D01*
X13254277Y-17886489D02*
X13244753Y-17905536D01*
X13244753Y-17905536D02*
X13235229Y-17915060D01*
X13235229Y-17915060D02*
X13216182Y-17924584D01*
X13216182Y-17924584D02*
X13197134Y-17924584D01*
X13197134Y-17924584D02*
X13178086Y-17915060D01*
X13178086Y-17915060D02*
X13168563Y-17905536D01*
X13168563Y-17905536D02*
X13159039Y-17886489D01*
X13159039Y-17886489D02*
X13149515Y-17848393D01*
X13149515Y-17848393D02*
X13149515Y-17800774D01*
X13149515Y-17800774D02*
X13159039Y-17762679D01*
X13159039Y-17762679D02*
X13168563Y-17743631D01*
X13168563Y-17743631D02*
X13178086Y-17734108D01*
X13178086Y-17734108D02*
X13197134Y-17724584D01*
X13349515Y-17905536D02*
X13359039Y-17915060D01*
X13359039Y-17915060D02*
X13349515Y-17924584D01*
X13349515Y-17924584D02*
X13339991Y-17915060D01*
X13339991Y-17915060D02*
X13349515Y-17905536D01*
X13349515Y-17905536D02*
X13349515Y-17924584D01*
X13482848Y-17724584D02*
X13501896Y-17724584D01*
X13501896Y-17724584D02*
X13520944Y-17734108D01*
X13520944Y-17734108D02*
X13530467Y-17743631D01*
X13530467Y-17743631D02*
X13539991Y-17762679D01*
X13539991Y-17762679D02*
X13549515Y-17800774D01*
X13549515Y-17800774D02*
X13549515Y-17848393D01*
X13549515Y-17848393D02*
X13539991Y-17886489D01*
X13539991Y-17886489D02*
X13530467Y-17905536D01*
X13530467Y-17905536D02*
X13520944Y-17915060D01*
X13520944Y-17915060D02*
X13501896Y-17924584D01*
X13501896Y-17924584D02*
X13482848Y-17924584D01*
X13482848Y-17924584D02*
X13463801Y-17915060D01*
X13463801Y-17915060D02*
X13454277Y-17905536D01*
X13454277Y-17905536D02*
X13444753Y-17886489D01*
X13444753Y-17886489D02*
X13435229Y-17848393D01*
X13435229Y-17848393D02*
X13435229Y-17800774D01*
X13435229Y-17800774D02*
X13444753Y-17762679D01*
X13444753Y-17762679D02*
X13454277Y-17743631D01*
X13454277Y-17743631D02*
X13463801Y-17734108D01*
X13463801Y-17734108D02*
X13482848Y-17724584D01*
X13720944Y-17791250D02*
X13720944Y-17924584D01*
X13673325Y-17715060D02*
X13625706Y-17857917D01*
X13625706Y-17857917D02*
X13749515Y-17857917D01*
X13806658Y-17724584D02*
X13939991Y-17724584D01*
X13939991Y-17724584D02*
X13854277Y-17924584D01*
X14006658Y-17743631D02*
X14016182Y-17734108D01*
X14016182Y-17734108D02*
X14035229Y-17724584D01*
X14035229Y-17724584D02*
X14082848Y-17724584D01*
X14082848Y-17724584D02*
X14101896Y-17734108D01*
X14101896Y-17734108D02*
X14111420Y-17743631D01*
X14111420Y-17743631D02*
X14120944Y-17762679D01*
X14120944Y-17762679D02*
X14120944Y-17781727D01*
X14120944Y-17781727D02*
X14111420Y-17810298D01*
X14111420Y-17810298D02*
X13997134Y-17924584D01*
X13997134Y-17924584D02*
X14120944Y-17924584D01*
X14197134Y-17724584D02*
X14197134Y-17762679D01*
X14273325Y-17724584D02*
X14273325Y-17762679D01*
X14568563Y-18000774D02*
X14559039Y-17991250D01*
X14559039Y-17991250D02*
X14539991Y-17962679D01*
X14539991Y-17962679D02*
X14530468Y-17943631D01*
X14530468Y-17943631D02*
X14520944Y-17915060D01*
X14520944Y-17915060D02*
X14511420Y-17867441D01*
X14511420Y-17867441D02*
X14511420Y-17829346D01*
X14511420Y-17829346D02*
X14520944Y-17781727D01*
X14520944Y-17781727D02*
X14530468Y-17753155D01*
X14530468Y-17753155D02*
X14539991Y-17734108D01*
X14539991Y-17734108D02*
X14559039Y-17705536D01*
X14559039Y-17705536D02*
X14568563Y-17696012D01*
X14635229Y-17743631D02*
X14644753Y-17734108D01*
X14644753Y-17734108D02*
X14663801Y-17724584D01*
X14663801Y-17724584D02*
X14711420Y-17724584D01*
X14711420Y-17724584D02*
X14730468Y-17734108D01*
X14730468Y-17734108D02*
X14739991Y-17743631D01*
X14739991Y-17743631D02*
X14749515Y-17762679D01*
X14749515Y-17762679D02*
X14749515Y-17781727D01*
X14749515Y-17781727D02*
X14739991Y-17810298D01*
X14739991Y-17810298D02*
X14625706Y-17924584D01*
X14625706Y-17924584D02*
X14749515Y-17924584D01*
X14873325Y-17724584D02*
X14892372Y-17724584D01*
X14892372Y-17724584D02*
X14911420Y-17734108D01*
X14911420Y-17734108D02*
X14920944Y-17743631D01*
X14920944Y-17743631D02*
X14930468Y-17762679D01*
X14930468Y-17762679D02*
X14939991Y-17800774D01*
X14939991Y-17800774D02*
X14939991Y-17848393D01*
X14939991Y-17848393D02*
X14930468Y-17886489D01*
X14930468Y-17886489D02*
X14920944Y-17905536D01*
X14920944Y-17905536D02*
X14911420Y-17915060D01*
X14911420Y-17915060D02*
X14892372Y-17924584D01*
X14892372Y-17924584D02*
X14873325Y-17924584D01*
X14873325Y-17924584D02*
X14854277Y-17915060D01*
X14854277Y-17915060D02*
X14844753Y-17905536D01*
X14844753Y-17905536D02*
X14835229Y-17886489D01*
X14835229Y-17886489D02*
X14825706Y-17848393D01*
X14825706Y-17848393D02*
X14825706Y-17800774D01*
X14825706Y-17800774D02*
X14835229Y-17762679D01*
X14835229Y-17762679D02*
X14844753Y-17743631D01*
X14844753Y-17743631D02*
X14854277Y-17734108D01*
X14854277Y-17734108D02*
X14873325Y-17724584D01*
X15178087Y-17924584D02*
X15178087Y-17724584D01*
X15263801Y-17924584D02*
X15263801Y-17819822D01*
X15263801Y-17819822D02*
X15254277Y-17800774D01*
X15254277Y-17800774D02*
X15235230Y-17791250D01*
X15235230Y-17791250D02*
X15206658Y-17791250D01*
X15206658Y-17791250D02*
X15187610Y-17800774D01*
X15187610Y-17800774D02*
X15178087Y-17810298D01*
X15387610Y-17924584D02*
X15368563Y-17915060D01*
X15368563Y-17915060D02*
X15359039Y-17905536D01*
X15359039Y-17905536D02*
X15349515Y-17886489D01*
X15349515Y-17886489D02*
X15349515Y-17829346D01*
X15349515Y-17829346D02*
X15359039Y-17810298D01*
X15359039Y-17810298D02*
X15368563Y-17800774D01*
X15368563Y-17800774D02*
X15387610Y-17791250D01*
X15387610Y-17791250D02*
X15416182Y-17791250D01*
X15416182Y-17791250D02*
X15435230Y-17800774D01*
X15435230Y-17800774D02*
X15444753Y-17810298D01*
X15444753Y-17810298D02*
X15454277Y-17829346D01*
X15454277Y-17829346D02*
X15454277Y-17886489D01*
X15454277Y-17886489D02*
X15444753Y-17905536D01*
X15444753Y-17905536D02*
X15435230Y-17915060D01*
X15435230Y-17915060D02*
X15416182Y-17924584D01*
X15416182Y-17924584D02*
X15387610Y-17924584D01*
X15568563Y-17924584D02*
X15549515Y-17915060D01*
X15549515Y-17915060D02*
X15539991Y-17896012D01*
X15539991Y-17896012D02*
X15539991Y-17724584D01*
X15720944Y-17915060D02*
X15701896Y-17924584D01*
X15701896Y-17924584D02*
X15663801Y-17924584D01*
X15663801Y-17924584D02*
X15644753Y-17915060D01*
X15644753Y-17915060D02*
X15635230Y-17896012D01*
X15635230Y-17896012D02*
X15635230Y-17819822D01*
X15635230Y-17819822D02*
X15644753Y-17800774D01*
X15644753Y-17800774D02*
X15663801Y-17791250D01*
X15663801Y-17791250D02*
X15701896Y-17791250D01*
X15701896Y-17791250D02*
X15720944Y-17800774D01*
X15720944Y-17800774D02*
X15730468Y-17819822D01*
X15730468Y-17819822D02*
X15730468Y-17838870D01*
X15730468Y-17838870D02*
X15635230Y-17857917D01*
X15806658Y-17915060D02*
X15825706Y-17924584D01*
X15825706Y-17924584D02*
X15863801Y-17924584D01*
X15863801Y-17924584D02*
X15882849Y-17915060D01*
X15882849Y-17915060D02*
X15892372Y-17896012D01*
X15892372Y-17896012D02*
X15892372Y-17886489D01*
X15892372Y-17886489D02*
X15882849Y-17867441D01*
X15882849Y-17867441D02*
X15863801Y-17857917D01*
X15863801Y-17857917D02*
X15835230Y-17857917D01*
X15835230Y-17857917D02*
X15816182Y-17848393D01*
X15816182Y-17848393D02*
X15806658Y-17829346D01*
X15806658Y-17829346D02*
X15806658Y-17819822D01*
X15806658Y-17819822D02*
X15816182Y-17800774D01*
X15816182Y-17800774D02*
X15835230Y-17791250D01*
X15835230Y-17791250D02*
X15863801Y-17791250D01*
X15863801Y-17791250D02*
X15882849Y-17800774D01*
X15959039Y-18000774D02*
X15968563Y-17991250D01*
X15968563Y-17991250D02*
X15987611Y-17962679D01*
X15987611Y-17962679D02*
X15997134Y-17943631D01*
X15997134Y-17943631D02*
X16006658Y-17915060D01*
X16006658Y-17915060D02*
X16016182Y-17867441D01*
X16016182Y-17867441D02*
X16016182Y-17829346D01*
X16016182Y-17829346D02*
X16006658Y-17781727D01*
X16006658Y-17781727D02*
X15997134Y-17753155D01*
X15997134Y-17753155D02*
X15987611Y-17734108D01*
X15987611Y-17734108D02*
X15968563Y-17705536D01*
X15968563Y-17705536D02*
X15959039Y-17696012D01*
D15*
X10870500Y-18035600D02*
X10993500Y-18158600D01*
X10993500Y-18035600D02*
X10870500Y-18158600D01*
X10932000Y-18035600D02*
X10932000Y-18158600D01*
X10870500Y-18097100D02*
X10993500Y-18097100D01*
D11*
X11359039Y-18188584D02*
X11244753Y-18188584D01*
X11301896Y-18188584D02*
X11301896Y-17988584D01*
X11301896Y-17988584D02*
X11282848Y-18017155D01*
X11282848Y-18017155D02*
X11263801Y-18036203D01*
X11263801Y-18036203D02*
X11244753Y-18045727D01*
X11444753Y-18169536D02*
X11454277Y-18179060D01*
X11454277Y-18179060D02*
X11444753Y-18188584D01*
X11444753Y-18188584D02*
X11435229Y-18179060D01*
X11435229Y-18179060D02*
X11444753Y-18169536D01*
X11444753Y-18169536D02*
X11444753Y-18188584D01*
X11530467Y-18007631D02*
X11539991Y-17998108D01*
X11539991Y-17998108D02*
X11559039Y-17988584D01*
X11559039Y-17988584D02*
X11606658Y-17988584D01*
X11606658Y-17988584D02*
X11625705Y-17998108D01*
X11625705Y-17998108D02*
X11635229Y-18007631D01*
X11635229Y-18007631D02*
X11644753Y-18026679D01*
X11644753Y-18026679D02*
X11644753Y-18045727D01*
X11644753Y-18045727D02*
X11635229Y-18074298D01*
X11635229Y-18074298D02*
X11520943Y-18188584D01*
X11520943Y-18188584D02*
X11644753Y-18188584D01*
X11711420Y-17988584D02*
X11835229Y-17988584D01*
X11835229Y-17988584D02*
X11768562Y-18064774D01*
X11768562Y-18064774D02*
X11797134Y-18064774D01*
X11797134Y-18064774D02*
X11816182Y-18074298D01*
X11816182Y-18074298D02*
X11825705Y-18083822D01*
X11825705Y-18083822D02*
X11835229Y-18102870D01*
X11835229Y-18102870D02*
X11835229Y-18150489D01*
X11835229Y-18150489D02*
X11825705Y-18169536D01*
X11825705Y-18169536D02*
X11816182Y-18179060D01*
X11816182Y-18179060D02*
X11797134Y-18188584D01*
X11797134Y-18188584D02*
X11739991Y-18188584D01*
X11739991Y-18188584D02*
X11720943Y-18179060D01*
X11720943Y-18179060D02*
X11711420Y-18169536D01*
X11959039Y-17988584D02*
X11978086Y-17988584D01*
X11978086Y-17988584D02*
X11997134Y-17998108D01*
X11997134Y-17998108D02*
X12006658Y-18007631D01*
X12006658Y-18007631D02*
X12016182Y-18026679D01*
X12016182Y-18026679D02*
X12025705Y-18064774D01*
X12025705Y-18064774D02*
X12025705Y-18112393D01*
X12025705Y-18112393D02*
X12016182Y-18150489D01*
X12016182Y-18150489D02*
X12006658Y-18169536D01*
X12006658Y-18169536D02*
X11997134Y-18179060D01*
X11997134Y-18179060D02*
X11978086Y-18188584D01*
X11978086Y-18188584D02*
X11959039Y-18188584D01*
X11959039Y-18188584D02*
X11939991Y-18179060D01*
X11939991Y-18179060D02*
X11930467Y-18169536D01*
X11930467Y-18169536D02*
X11920943Y-18150489D01*
X11920943Y-18150489D02*
X11911420Y-18112393D01*
X11911420Y-18112393D02*
X11911420Y-18064774D01*
X11911420Y-18064774D02*
X11920943Y-18026679D01*
X11920943Y-18026679D02*
X11930467Y-18007631D01*
X11930467Y-18007631D02*
X11939991Y-17998108D01*
X11939991Y-17998108D02*
X11959039Y-17988584D01*
X12111420Y-18188584D02*
X12111420Y-18055250D01*
X12111420Y-18074298D02*
X12120943Y-18064774D01*
X12120943Y-18064774D02*
X12139991Y-18055250D01*
X12139991Y-18055250D02*
X12168563Y-18055250D01*
X12168563Y-18055250D02*
X12187610Y-18064774D01*
X12187610Y-18064774D02*
X12197134Y-18083822D01*
X12197134Y-18083822D02*
X12197134Y-18188584D01*
X12197134Y-18083822D02*
X12206658Y-18064774D01*
X12206658Y-18064774D02*
X12225705Y-18055250D01*
X12225705Y-18055250D02*
X12254277Y-18055250D01*
X12254277Y-18055250D02*
X12273324Y-18064774D01*
X12273324Y-18064774D02*
X12282848Y-18083822D01*
X12282848Y-18083822D02*
X12282848Y-18188584D01*
X12378086Y-18188584D02*
X12378086Y-18055250D01*
X12378086Y-18074298D02*
X12387610Y-18064774D01*
X12387610Y-18064774D02*
X12406658Y-18055250D01*
X12406658Y-18055250D02*
X12435229Y-18055250D01*
X12435229Y-18055250D02*
X12454277Y-18064774D01*
X12454277Y-18064774D02*
X12463801Y-18083822D01*
X12463801Y-18083822D02*
X12463801Y-18188584D01*
X12463801Y-18083822D02*
X12473324Y-18064774D01*
X12473324Y-18064774D02*
X12492372Y-18055250D01*
X12492372Y-18055250D02*
X12520943Y-18055250D01*
X12520943Y-18055250D02*
X12539991Y-18064774D01*
X12539991Y-18064774D02*
X12549515Y-18083822D01*
X12549515Y-18083822D02*
X12549515Y-18188584D01*
X12939991Y-17979060D02*
X12768563Y-18236203D01*
X13197134Y-17988584D02*
X13216182Y-17988584D01*
X13216182Y-17988584D02*
X13235229Y-17998108D01*
X13235229Y-17998108D02*
X13244753Y-18007631D01*
X13244753Y-18007631D02*
X13254277Y-18026679D01*
X13254277Y-18026679D02*
X13263801Y-18064774D01*
X13263801Y-18064774D02*
X13263801Y-18112393D01*
X13263801Y-18112393D02*
X13254277Y-18150489D01*
X13254277Y-18150489D02*
X13244753Y-18169536D01*
X13244753Y-18169536D02*
X13235229Y-18179060D01*
X13235229Y-18179060D02*
X13216182Y-18188584D01*
X13216182Y-18188584D02*
X13197134Y-18188584D01*
X13197134Y-18188584D02*
X13178086Y-18179060D01*
X13178086Y-18179060D02*
X13168563Y-18169536D01*
X13168563Y-18169536D02*
X13159039Y-18150489D01*
X13159039Y-18150489D02*
X13149515Y-18112393D01*
X13149515Y-18112393D02*
X13149515Y-18064774D01*
X13149515Y-18064774D02*
X13159039Y-18026679D01*
X13159039Y-18026679D02*
X13168563Y-18007631D01*
X13168563Y-18007631D02*
X13178086Y-17998108D01*
X13178086Y-17998108D02*
X13197134Y-17988584D01*
X13349515Y-18169536D02*
X13359039Y-18179060D01*
X13359039Y-18179060D02*
X13349515Y-18188584D01*
X13349515Y-18188584D02*
X13339991Y-18179060D01*
X13339991Y-18179060D02*
X13349515Y-18169536D01*
X13349515Y-18169536D02*
X13349515Y-18188584D01*
X13482848Y-17988584D02*
X13501896Y-17988584D01*
X13501896Y-17988584D02*
X13520944Y-17998108D01*
X13520944Y-17998108D02*
X13530467Y-18007631D01*
X13530467Y-18007631D02*
X13539991Y-18026679D01*
X13539991Y-18026679D02*
X13549515Y-18064774D01*
X13549515Y-18064774D02*
X13549515Y-18112393D01*
X13549515Y-18112393D02*
X13539991Y-18150489D01*
X13539991Y-18150489D02*
X13530467Y-18169536D01*
X13530467Y-18169536D02*
X13520944Y-18179060D01*
X13520944Y-18179060D02*
X13501896Y-18188584D01*
X13501896Y-18188584D02*
X13482848Y-18188584D01*
X13482848Y-18188584D02*
X13463801Y-18179060D01*
X13463801Y-18179060D02*
X13454277Y-18169536D01*
X13454277Y-18169536D02*
X13444753Y-18150489D01*
X13444753Y-18150489D02*
X13435229Y-18112393D01*
X13435229Y-18112393D02*
X13435229Y-18064774D01*
X13435229Y-18064774D02*
X13444753Y-18026679D01*
X13444753Y-18026679D02*
X13454277Y-18007631D01*
X13454277Y-18007631D02*
X13463801Y-17998108D01*
X13463801Y-17998108D02*
X13482848Y-17988584D01*
X13720944Y-18055250D02*
X13720944Y-18188584D01*
X13673325Y-17979060D02*
X13625706Y-18121917D01*
X13625706Y-18121917D02*
X13749515Y-18121917D01*
X13854277Y-18074298D02*
X13835229Y-18064774D01*
X13835229Y-18064774D02*
X13825706Y-18055250D01*
X13825706Y-18055250D02*
X13816182Y-18036203D01*
X13816182Y-18036203D02*
X13816182Y-18026679D01*
X13816182Y-18026679D02*
X13825706Y-18007631D01*
X13825706Y-18007631D02*
X13835229Y-17998108D01*
X13835229Y-17998108D02*
X13854277Y-17988584D01*
X13854277Y-17988584D02*
X13892372Y-17988584D01*
X13892372Y-17988584D02*
X13911420Y-17998108D01*
X13911420Y-17998108D02*
X13920944Y-18007631D01*
X13920944Y-18007631D02*
X13930467Y-18026679D01*
X13930467Y-18026679D02*
X13930467Y-18036203D01*
X13930467Y-18036203D02*
X13920944Y-18055250D01*
X13920944Y-18055250D02*
X13911420Y-18064774D01*
X13911420Y-18064774D02*
X13892372Y-18074298D01*
X13892372Y-18074298D02*
X13854277Y-18074298D01*
X13854277Y-18074298D02*
X13835229Y-18083822D01*
X13835229Y-18083822D02*
X13825706Y-18093346D01*
X13825706Y-18093346D02*
X13816182Y-18112393D01*
X13816182Y-18112393D02*
X13816182Y-18150489D01*
X13816182Y-18150489D02*
X13825706Y-18169536D01*
X13825706Y-18169536D02*
X13835229Y-18179060D01*
X13835229Y-18179060D02*
X13854277Y-18188584D01*
X13854277Y-18188584D02*
X13892372Y-18188584D01*
X13892372Y-18188584D02*
X13911420Y-18179060D01*
X13911420Y-18179060D02*
X13920944Y-18169536D01*
X13920944Y-18169536D02*
X13930467Y-18150489D01*
X13930467Y-18150489D02*
X13930467Y-18112393D01*
X13930467Y-18112393D02*
X13920944Y-18093346D01*
X13920944Y-18093346D02*
X13911420Y-18083822D01*
X13911420Y-18083822D02*
X13892372Y-18074298D01*
X14101896Y-18055250D02*
X14101896Y-18188584D01*
X14054277Y-17979060D02*
X14006658Y-18121917D01*
X14006658Y-18121917D02*
X14130467Y-18121917D01*
X14197134Y-17988584D02*
X14197134Y-18026679D01*
X14273325Y-17988584D02*
X14273325Y-18026679D01*
X14568563Y-18264774D02*
X14559039Y-18255250D01*
X14559039Y-18255250D02*
X14539991Y-18226679D01*
X14539991Y-18226679D02*
X14530468Y-18207631D01*
X14530468Y-18207631D02*
X14520944Y-18179060D01*
X14520944Y-18179060D02*
X14511420Y-18131441D01*
X14511420Y-18131441D02*
X14511420Y-18093346D01*
X14511420Y-18093346D02*
X14520944Y-18045727D01*
X14520944Y-18045727D02*
X14530468Y-18017155D01*
X14530468Y-18017155D02*
X14539991Y-17998108D01*
X14539991Y-17998108D02*
X14559039Y-17969536D01*
X14559039Y-17969536D02*
X14568563Y-17960012D01*
X14625706Y-17988584D02*
X14749515Y-17988584D01*
X14749515Y-17988584D02*
X14682848Y-18064774D01*
X14682848Y-18064774D02*
X14711420Y-18064774D01*
X14711420Y-18064774D02*
X14730468Y-18074298D01*
X14730468Y-18074298D02*
X14739991Y-18083822D01*
X14739991Y-18083822D02*
X14749515Y-18102870D01*
X14749515Y-18102870D02*
X14749515Y-18150489D01*
X14749515Y-18150489D02*
X14739991Y-18169536D01*
X14739991Y-18169536D02*
X14730468Y-18179060D01*
X14730468Y-18179060D02*
X14711420Y-18188584D01*
X14711420Y-18188584D02*
X14654277Y-18188584D01*
X14654277Y-18188584D02*
X14635229Y-18179060D01*
X14635229Y-18179060D02*
X14625706Y-18169536D01*
X14987610Y-18188584D02*
X14987610Y-17988584D01*
X15073325Y-18188584D02*
X15073325Y-18083822D01*
X15073325Y-18083822D02*
X15063801Y-18064774D01*
X15063801Y-18064774D02*
X15044753Y-18055250D01*
X15044753Y-18055250D02*
X15016182Y-18055250D01*
X15016182Y-18055250D02*
X14997134Y-18064774D01*
X14997134Y-18064774D02*
X14987610Y-18074298D01*
X15197134Y-18188584D02*
X15178087Y-18179060D01*
X15178087Y-18179060D02*
X15168563Y-18169536D01*
X15168563Y-18169536D02*
X15159039Y-18150489D01*
X15159039Y-18150489D02*
X15159039Y-18093346D01*
X15159039Y-18093346D02*
X15168563Y-18074298D01*
X15168563Y-18074298D02*
X15178087Y-18064774D01*
X15178087Y-18064774D02*
X15197134Y-18055250D01*
X15197134Y-18055250D02*
X15225706Y-18055250D01*
X15225706Y-18055250D02*
X15244753Y-18064774D01*
X15244753Y-18064774D02*
X15254277Y-18074298D01*
X15254277Y-18074298D02*
X15263801Y-18093346D01*
X15263801Y-18093346D02*
X15263801Y-18150489D01*
X15263801Y-18150489D02*
X15254277Y-18169536D01*
X15254277Y-18169536D02*
X15244753Y-18179060D01*
X15244753Y-18179060D02*
X15225706Y-18188584D01*
X15225706Y-18188584D02*
X15197134Y-18188584D01*
X15378087Y-18188584D02*
X15359039Y-18179060D01*
X15359039Y-18179060D02*
X15349515Y-18160012D01*
X15349515Y-18160012D02*
X15349515Y-17988584D01*
X15530468Y-18179060D02*
X15511420Y-18188584D01*
X15511420Y-18188584D02*
X15473325Y-18188584D01*
X15473325Y-18188584D02*
X15454277Y-18179060D01*
X15454277Y-18179060D02*
X15444753Y-18160012D01*
X15444753Y-18160012D02*
X15444753Y-18083822D01*
X15444753Y-18083822D02*
X15454277Y-18064774D01*
X15454277Y-18064774D02*
X15473325Y-18055250D01*
X15473325Y-18055250D02*
X15511420Y-18055250D01*
X15511420Y-18055250D02*
X15530468Y-18064774D01*
X15530468Y-18064774D02*
X15539991Y-18083822D01*
X15539991Y-18083822D02*
X15539991Y-18102870D01*
X15539991Y-18102870D02*
X15444753Y-18121917D01*
X15616182Y-18179060D02*
X15635230Y-18188584D01*
X15635230Y-18188584D02*
X15673325Y-18188584D01*
X15673325Y-18188584D02*
X15692372Y-18179060D01*
X15692372Y-18179060D02*
X15701896Y-18160012D01*
X15701896Y-18160012D02*
X15701896Y-18150489D01*
X15701896Y-18150489D02*
X15692372Y-18131441D01*
X15692372Y-18131441D02*
X15673325Y-18121917D01*
X15673325Y-18121917D02*
X15644753Y-18121917D01*
X15644753Y-18121917D02*
X15625706Y-18112393D01*
X15625706Y-18112393D02*
X15616182Y-18093346D01*
X15616182Y-18093346D02*
X15616182Y-18083822D01*
X15616182Y-18083822D02*
X15625706Y-18064774D01*
X15625706Y-18064774D02*
X15644753Y-18055250D01*
X15644753Y-18055250D02*
X15673325Y-18055250D01*
X15673325Y-18055250D02*
X15692372Y-18064774D01*
X15768563Y-18264774D02*
X15778087Y-18255250D01*
X15778087Y-18255250D02*
X15797134Y-18226679D01*
X15797134Y-18226679D02*
X15806658Y-18207631D01*
X15806658Y-18207631D02*
X15816182Y-18179060D01*
X15816182Y-18179060D02*
X15825706Y-18131441D01*
X15825706Y-18131441D02*
X15825706Y-18093346D01*
X15825706Y-18093346D02*
X15816182Y-18045727D01*
X15816182Y-18045727D02*
X15806658Y-18017155D01*
X15806658Y-18017155D02*
X15797134Y-17998108D01*
X15797134Y-17998108D02*
X15778087Y-17969536D01*
X15778087Y-17969536D02*
X15768563Y-17960012D01*
M02*
