<?xml version="1.0" standalone="no"?>
<!DOCTYPE svg PUBLIC "-//W3C//DTD SVG 20010904//EN"
 "http://www.w3.org/TR/2001/REC-SVG-20010904/DTD/svg10.dtd">
<svg version="1.0" xmlns="http://www.w3.org/2000/svg"
 width="433.000000pt" height="433.000000pt" viewBox="0 0 433.000000 433.000000"
 preserveAspectRatio="xMidYMid meet">
<metadata>
Created by potrace 1.14, written by Peter Selinger 2001-2017
</metadata>
<g transform="translate(0.000000,433.000000) scale(0.100000,-0.100000)"
fill="#000000" stroke="none">
<path d="M570 4223 l0 -103 -101 0 -100 0 1 -92 c1 -51 1 -97 1 -103 -1 -6
-40 -9 -100 -8 l-99 2 4 -202 c3 -111 7 -265 9 -342 2 -77 3 -169 4 -205 l1
-66 100 -33 c85 -27 100 -36 101 -54 0 -12 2 -41 2 -64 1 -23 4 -43 7 -46 3
-2 43 -14 90 -26 47 -13 90 -24 95 -26 6 -1 10 -35 10 -76 l0 -74 -97 0 c-91
0 -103 -3 -99 -27 5 -33 3 -159 -2 -164 -4 -4 -48 -7 -99 -8 l-93 -1 1 -85 c1
-47 5 -213 8 -370 4 -157 9 -379 11 -495 3 -115 7 -295 10 -400 2 -104 7 -320
11 -480 3 -159 7 -292 9 -296 3 -3 41 -5 87 -4 46 1 88 0 94 -2 7 -3 12 -36
13 -91 1 -47 6 -89 12 -92 5 -4 49 -6 97 -4 l87 2 2 -77 c1 -42 2 -84 2 -93 1
-17 33 -17 534 -13 1543 14 1792 16 2475 24 l42 1 0 93 0 93 86 -1 c47 0 90 2
95 5 5 4 9 45 10 93 l1 87 37 1 c58 2 135 6 146 8 6 0 11 57 11 144 1 78 5
291 8 472 4 182 9 425 11 540 2 116 7 350 11 520 8 370 8 404 -1 413 -4 4 -41
8 -83 8 -43 1 -83 2 -90 3 -9 1 -12 24 -10 91 1 49 -1 92 -4 95 -2 3 -46 5
-96 6 l-92 1 0 73 0 72 58 16 c31 9 72 19 91 22 19 3 37 8 41 10 4 3 7 32 8
66 0 69 2 71 77 95 28 8 59 19 70 24 11 4 27 10 35 13 17 5 20 91 23 557 l2
245 -90 1 c-49 1 -93 2 -96 3 -3 0 -4 46 -3 100 l2 100 -46 -1 c-26 0 -70 1
-98 1 l-51 1 1 101 1 101 -395 3 -395 3 -22 -46 c-12 -26 -33 -72 -47 -102
l-24 -56 -53 1 -54 1 -40 -101 -40 -100 -60 0 -59 -1 -29 -89 -29 -90 -2 -310
-1 -310 -342 -2 c-189 -1 -343 1 -344 5 0 4 -1 147 -3 317 -2 171 -6 317 -9
325 -4 8 -9 26 -11 40 -3 14 -11 46 -17 73 l-11 47 -67 0 -67 0 -33 103 -34
103 -59 -1 -60 0 -38 93 c-21 52 -42 98 -47 103 -6 6 -170 11 -406 12 l-397 3
0 -103z m1205 -1215 c9 -5 12 -61 6 -100 -1 -4 -28 -7 -61 -7 -54 1 -60 3 -61
22 -4 62 -5 83 -2 89 4 8 104 5 118 -4z m906 3 c3 0 6 -25 5 -53 l-1 -53 -57
-2 -58 -2 0 53 c0 29 2 55 4 57 4 4 90 4 107 0z"/>
</g>
</svg>
