%TF.GenerationSoftware,KiCad,Pcbnew,8.0.1*%
%TF.CreationDate,2024-04-29T12:30:17+02:00*%
%TF.ProjectId,teamagotchi,7465616d-6167-46f7-9463-68692e6b6963,rev?*%
%TF.SameCoordinates,Original*%
%TF.FileFunction,Legend,Top*%
%TF.FilePolarity,Positive*%
%FSLAX46Y46*%
G04 Gerber Fmt 4.6, Leading zero omitted, Abs format (unit mm)*
G04 Created by KiCad (PCBNEW 8.0.1) date 2024-04-29 12:30:17*
%MOMM*%
%LPD*%
G01*
G04 APERTURE LIST*
%ADD10C,0.150000*%
%ADD11C,0.100000*%
%ADD12C,0.120000*%
G04 APERTURE END LIST*
D10*
X135276667Y-135913200D02*
X135419524Y-135960819D01*
X135419524Y-135960819D02*
X135657619Y-135960819D01*
X135657619Y-135960819D02*
X135752857Y-135913200D01*
X135752857Y-135913200D02*
X135800476Y-135865580D01*
X135800476Y-135865580D02*
X135848095Y-135770342D01*
X135848095Y-135770342D02*
X135848095Y-135675104D01*
X135848095Y-135675104D02*
X135800476Y-135579866D01*
X135800476Y-135579866D02*
X135752857Y-135532247D01*
X135752857Y-135532247D02*
X135657619Y-135484628D01*
X135657619Y-135484628D02*
X135467143Y-135437009D01*
X135467143Y-135437009D02*
X135371905Y-135389390D01*
X135371905Y-135389390D02*
X135324286Y-135341771D01*
X135324286Y-135341771D02*
X135276667Y-135246533D01*
X135276667Y-135246533D02*
X135276667Y-135151295D01*
X135276667Y-135151295D02*
X135324286Y-135056057D01*
X135324286Y-135056057D02*
X135371905Y-135008438D01*
X135371905Y-135008438D02*
X135467143Y-134960819D01*
X135467143Y-134960819D02*
X135705238Y-134960819D01*
X135705238Y-134960819D02*
X135848095Y-135008438D01*
X136181429Y-134960819D02*
X136419524Y-135960819D01*
X136419524Y-135960819D02*
X136610000Y-135246533D01*
X136610000Y-135246533D02*
X136800476Y-135960819D01*
X136800476Y-135960819D02*
X137038572Y-134960819D01*
X137895714Y-134960819D02*
X137419524Y-134960819D01*
X137419524Y-134960819D02*
X137371905Y-135437009D01*
X137371905Y-135437009D02*
X137419524Y-135389390D01*
X137419524Y-135389390D02*
X137514762Y-135341771D01*
X137514762Y-135341771D02*
X137752857Y-135341771D01*
X137752857Y-135341771D02*
X137848095Y-135389390D01*
X137848095Y-135389390D02*
X137895714Y-135437009D01*
X137895714Y-135437009D02*
X137943333Y-135532247D01*
X137943333Y-135532247D02*
X137943333Y-135770342D01*
X137943333Y-135770342D02*
X137895714Y-135865580D01*
X137895714Y-135865580D02*
X137848095Y-135913200D01*
X137848095Y-135913200D02*
X137752857Y-135960819D01*
X137752857Y-135960819D02*
X137514762Y-135960819D01*
X137514762Y-135960819D02*
X137419524Y-135913200D01*
X137419524Y-135913200D02*
X137371905Y-135865580D01*
X150776667Y-121413200D02*
X150919524Y-121460819D01*
X150919524Y-121460819D02*
X151157619Y-121460819D01*
X151157619Y-121460819D02*
X151252857Y-121413200D01*
X151252857Y-121413200D02*
X151300476Y-121365580D01*
X151300476Y-121365580D02*
X151348095Y-121270342D01*
X151348095Y-121270342D02*
X151348095Y-121175104D01*
X151348095Y-121175104D02*
X151300476Y-121079866D01*
X151300476Y-121079866D02*
X151252857Y-121032247D01*
X151252857Y-121032247D02*
X151157619Y-120984628D01*
X151157619Y-120984628D02*
X150967143Y-120937009D01*
X150967143Y-120937009D02*
X150871905Y-120889390D01*
X150871905Y-120889390D02*
X150824286Y-120841771D01*
X150824286Y-120841771D02*
X150776667Y-120746533D01*
X150776667Y-120746533D02*
X150776667Y-120651295D01*
X150776667Y-120651295D02*
X150824286Y-120556057D01*
X150824286Y-120556057D02*
X150871905Y-120508438D01*
X150871905Y-120508438D02*
X150967143Y-120460819D01*
X150967143Y-120460819D02*
X151205238Y-120460819D01*
X151205238Y-120460819D02*
X151348095Y-120508438D01*
X151681429Y-120460819D02*
X151919524Y-121460819D01*
X151919524Y-121460819D02*
X152110000Y-120746533D01*
X152110000Y-120746533D02*
X152300476Y-121460819D01*
X152300476Y-121460819D02*
X152538572Y-120460819D01*
X152824286Y-120460819D02*
X153443333Y-120460819D01*
X153443333Y-120460819D02*
X153110000Y-120841771D01*
X153110000Y-120841771D02*
X153252857Y-120841771D01*
X153252857Y-120841771D02*
X153348095Y-120889390D01*
X153348095Y-120889390D02*
X153395714Y-120937009D01*
X153395714Y-120937009D02*
X153443333Y-121032247D01*
X153443333Y-121032247D02*
X153443333Y-121270342D01*
X153443333Y-121270342D02*
X153395714Y-121365580D01*
X153395714Y-121365580D02*
X153348095Y-121413200D01*
X153348095Y-121413200D02*
X153252857Y-121460819D01*
X153252857Y-121460819D02*
X152967143Y-121460819D01*
X152967143Y-121460819D02*
X152871905Y-121413200D01*
X152871905Y-121413200D02*
X152824286Y-121365580D01*
X135276667Y-106913200D02*
X135419524Y-106960819D01*
X135419524Y-106960819D02*
X135657619Y-106960819D01*
X135657619Y-106960819D02*
X135752857Y-106913200D01*
X135752857Y-106913200D02*
X135800476Y-106865580D01*
X135800476Y-106865580D02*
X135848095Y-106770342D01*
X135848095Y-106770342D02*
X135848095Y-106675104D01*
X135848095Y-106675104D02*
X135800476Y-106579866D01*
X135800476Y-106579866D02*
X135752857Y-106532247D01*
X135752857Y-106532247D02*
X135657619Y-106484628D01*
X135657619Y-106484628D02*
X135467143Y-106437009D01*
X135467143Y-106437009D02*
X135371905Y-106389390D01*
X135371905Y-106389390D02*
X135324286Y-106341771D01*
X135324286Y-106341771D02*
X135276667Y-106246533D01*
X135276667Y-106246533D02*
X135276667Y-106151295D01*
X135276667Y-106151295D02*
X135324286Y-106056057D01*
X135324286Y-106056057D02*
X135371905Y-106008438D01*
X135371905Y-106008438D02*
X135467143Y-105960819D01*
X135467143Y-105960819D02*
X135705238Y-105960819D01*
X135705238Y-105960819D02*
X135848095Y-106008438D01*
X136181429Y-105960819D02*
X136419524Y-106960819D01*
X136419524Y-106960819D02*
X136610000Y-106246533D01*
X136610000Y-106246533D02*
X136800476Y-106960819D01*
X136800476Y-106960819D02*
X137038572Y-105960819D01*
X137371905Y-106056057D02*
X137419524Y-106008438D01*
X137419524Y-106008438D02*
X137514762Y-105960819D01*
X137514762Y-105960819D02*
X137752857Y-105960819D01*
X137752857Y-105960819D02*
X137848095Y-106008438D01*
X137848095Y-106008438D02*
X137895714Y-106056057D01*
X137895714Y-106056057D02*
X137943333Y-106151295D01*
X137943333Y-106151295D02*
X137943333Y-106246533D01*
X137943333Y-106246533D02*
X137895714Y-106389390D01*
X137895714Y-106389390D02*
X137324286Y-106960819D01*
X137324286Y-106960819D02*
X137943333Y-106960819D01*
X171026667Y-123913200D02*
X171169524Y-123960819D01*
X171169524Y-123960819D02*
X171407619Y-123960819D01*
X171407619Y-123960819D02*
X171502857Y-123913200D01*
X171502857Y-123913200D02*
X171550476Y-123865580D01*
X171550476Y-123865580D02*
X171598095Y-123770342D01*
X171598095Y-123770342D02*
X171598095Y-123675104D01*
X171598095Y-123675104D02*
X171550476Y-123579866D01*
X171550476Y-123579866D02*
X171502857Y-123532247D01*
X171502857Y-123532247D02*
X171407619Y-123484628D01*
X171407619Y-123484628D02*
X171217143Y-123437009D01*
X171217143Y-123437009D02*
X171121905Y-123389390D01*
X171121905Y-123389390D02*
X171074286Y-123341771D01*
X171074286Y-123341771D02*
X171026667Y-123246533D01*
X171026667Y-123246533D02*
X171026667Y-123151295D01*
X171026667Y-123151295D02*
X171074286Y-123056057D01*
X171074286Y-123056057D02*
X171121905Y-123008438D01*
X171121905Y-123008438D02*
X171217143Y-122960819D01*
X171217143Y-122960819D02*
X171455238Y-122960819D01*
X171455238Y-122960819D02*
X171598095Y-123008438D01*
X171931429Y-122960819D02*
X172169524Y-123960819D01*
X172169524Y-123960819D02*
X172360000Y-123246533D01*
X172360000Y-123246533D02*
X172550476Y-123960819D01*
X172550476Y-123960819D02*
X172788572Y-122960819D01*
X173693333Y-123960819D02*
X173121905Y-123960819D01*
X173407619Y-123960819D02*
X173407619Y-122960819D01*
X173407619Y-122960819D02*
X173312381Y-123103676D01*
X173312381Y-123103676D02*
X173217143Y-123198914D01*
X173217143Y-123198914D02*
X173121905Y-123246533D01*
X119776667Y-121413200D02*
X119919524Y-121460819D01*
X119919524Y-121460819D02*
X120157619Y-121460819D01*
X120157619Y-121460819D02*
X120252857Y-121413200D01*
X120252857Y-121413200D02*
X120300476Y-121365580D01*
X120300476Y-121365580D02*
X120348095Y-121270342D01*
X120348095Y-121270342D02*
X120348095Y-121175104D01*
X120348095Y-121175104D02*
X120300476Y-121079866D01*
X120300476Y-121079866D02*
X120252857Y-121032247D01*
X120252857Y-121032247D02*
X120157619Y-120984628D01*
X120157619Y-120984628D02*
X119967143Y-120937009D01*
X119967143Y-120937009D02*
X119871905Y-120889390D01*
X119871905Y-120889390D02*
X119824286Y-120841771D01*
X119824286Y-120841771D02*
X119776667Y-120746533D01*
X119776667Y-120746533D02*
X119776667Y-120651295D01*
X119776667Y-120651295D02*
X119824286Y-120556057D01*
X119824286Y-120556057D02*
X119871905Y-120508438D01*
X119871905Y-120508438D02*
X119967143Y-120460819D01*
X119967143Y-120460819D02*
X120205238Y-120460819D01*
X120205238Y-120460819D02*
X120348095Y-120508438D01*
X120681429Y-120460819D02*
X120919524Y-121460819D01*
X120919524Y-121460819D02*
X121110000Y-120746533D01*
X121110000Y-120746533D02*
X121300476Y-121460819D01*
X121300476Y-121460819D02*
X121538572Y-120460819D01*
X122348095Y-120794152D02*
X122348095Y-121460819D01*
X122110000Y-120413200D02*
X121871905Y-121127485D01*
X121871905Y-121127485D02*
X122490952Y-121127485D01*
D11*
X122117419Y-99437428D02*
X122117419Y-98866000D01*
X123117419Y-99151714D02*
X122117419Y-99151714D01*
X122593609Y-98199333D02*
X122593609Y-98532666D01*
X123117419Y-98532666D02*
X122117419Y-98532666D01*
X122117419Y-98532666D02*
X122117419Y-98056476D01*
X122117419Y-97818380D02*
X122117419Y-97246952D01*
X123117419Y-97532666D02*
X122117419Y-97532666D01*
X123117419Y-96389809D02*
X123117419Y-96961237D01*
X123117419Y-96675523D02*
X122117419Y-96675523D01*
X122117419Y-96675523D02*
X122260276Y-96770761D01*
X122260276Y-96770761D02*
X122355514Y-96865999D01*
X122355514Y-96865999D02*
X122403133Y-96961237D01*
D12*
%TO.C,R4*%
X163090000Y-110206000D02*
X163090000Y-114046000D01*
X163090000Y-114046000D02*
X164930000Y-114046000D01*
X164010000Y-109256000D02*
X164010000Y-110206000D01*
X164010000Y-114996000D02*
X164010000Y-114046000D01*
X164930000Y-110206000D02*
X163090000Y-110206000D01*
X164930000Y-114046000D02*
X164930000Y-110206000D01*
%TO.C,R3*%
X166240000Y-110206000D02*
X166240000Y-114046000D01*
X166240000Y-114046000D02*
X168080000Y-114046000D01*
X167160000Y-109256000D02*
X167160000Y-110206000D01*
X167160000Y-114996000D02*
X167160000Y-114046000D01*
X168080000Y-110206000D02*
X166240000Y-110206000D01*
X168080000Y-114046000D02*
X168080000Y-110206000D01*
%TO.C,SW5*%
X130500000Y-137696000D02*
X130500000Y-140206000D01*
X130500000Y-137696000D02*
X142720000Y-137696000D01*
X130500000Y-142506000D02*
X130500000Y-145106000D01*
X130500000Y-147406000D02*
X130500000Y-149916000D01*
X142720000Y-137696000D02*
X142720000Y-140206000D01*
X142720000Y-142506000D02*
X142720000Y-145106000D01*
X142720000Y-147406000D02*
X142720000Y-149916000D01*
X142720000Y-149916000D02*
X130500000Y-149916000D01*
%TO.C,SW3*%
X146000000Y-123196000D02*
X146000000Y-125706000D01*
X146000000Y-123196000D02*
X158220000Y-123196000D01*
X146000000Y-128006000D02*
X146000000Y-130606000D01*
X146000000Y-132906000D02*
X146000000Y-135416000D01*
X158220000Y-123196000D02*
X158220000Y-125706000D01*
X158220000Y-128006000D02*
X158220000Y-130606000D01*
X158220000Y-132906000D02*
X158220000Y-135416000D01*
X158220000Y-135416000D02*
X146000000Y-135416000D01*
%TO.C,SW2*%
X130500000Y-108696000D02*
X130500000Y-111206000D01*
X130500000Y-108696000D02*
X142720000Y-108696000D01*
X130500000Y-113506000D02*
X130500000Y-116106000D01*
X130500000Y-118406000D02*
X130500000Y-120916000D01*
X142720000Y-108696000D02*
X142720000Y-111206000D01*
X142720000Y-113506000D02*
X142720000Y-116106000D01*
X142720000Y-118406000D02*
X142720000Y-120916000D01*
X142720000Y-120916000D02*
X130500000Y-120916000D01*
%TO.C,SW1*%
X167500000Y-125696000D02*
X167500000Y-128206000D01*
X167500000Y-125696000D02*
X179720000Y-125696000D01*
X167500000Y-130506000D02*
X167500000Y-133106000D01*
X167500000Y-135406000D02*
X167500000Y-137916000D01*
X179720000Y-125696000D02*
X179720000Y-128206000D01*
X179720000Y-130506000D02*
X179720000Y-133106000D01*
X179720000Y-135406000D02*
X179720000Y-137916000D01*
X179720000Y-137916000D02*
X167500000Y-137916000D01*
%TO.C,SW4*%
X115000000Y-123196000D02*
X115000000Y-125706000D01*
X115000000Y-123196000D02*
X127220000Y-123196000D01*
X115000000Y-128006000D02*
X115000000Y-130606000D01*
X115000000Y-132906000D02*
X115000000Y-135416000D01*
X127220000Y-123196000D02*
X127220000Y-125706000D01*
X127220000Y-128006000D02*
X127220000Y-130606000D01*
X127220000Y-132906000D02*
X127220000Y-135416000D01*
X127220000Y-135416000D02*
X115000000Y-135416000D01*
%TO.C,R2*%
X169390000Y-110206000D02*
X169390000Y-114046000D01*
X169390000Y-114046000D02*
X171230000Y-114046000D01*
X170310000Y-109256000D02*
X170310000Y-110206000D01*
X170310000Y-114996000D02*
X170310000Y-114046000D01*
X171230000Y-110206000D02*
X169390000Y-110206000D01*
X171230000Y-114046000D02*
X171230000Y-110206000D01*
%TO.C,R1*%
X172540000Y-110206000D02*
X172540000Y-114046000D01*
X172540000Y-114046000D02*
X174380000Y-114046000D01*
X173460000Y-109256000D02*
X173460000Y-110206000D01*
X173460000Y-114996000D02*
X173460000Y-114046000D01*
X174380000Y-110206000D02*
X172540000Y-110206000D01*
X174380000Y-114046000D02*
X174380000Y-110206000D01*
%TO.C,R5*%
X159940000Y-110206000D02*
X159940000Y-114046000D01*
X159940000Y-114046000D02*
X161780000Y-114046000D01*
X160860000Y-109256000D02*
X160860000Y-110206000D01*
X160860000Y-114996000D02*
X160860000Y-114046000D01*
X161780000Y-110206000D02*
X159940000Y-110206000D01*
X161780000Y-114046000D02*
X161780000Y-110206000D01*
%TD*%
M02*
