M48
; DRILL file {KiCad 8.0.1} date 2024-04-30T10:05:01+0200
; FORMAT={-:-/ absolute / inch / decimal}
; #@! TF.CreationDate,2024-04-30T10:05:01+02:00
; #@! TF.GenerationSoftware,Kicad,Pcbnew,8.0.1
; #@! TF.FileFunction,Plated,1,2,PTH
FMAT,2
INCH
; #@! TA.AperFunction,Plated,PTH,ViaDrill
T1C0.0118
; #@! TA.AperFunction,Plated,PTH,ComponentDrill
T2C0.0276
; #@! TA.AperFunction,Plated,PTH,ComponentDrill
T3C0.0295
; #@! TA.AperFunction,Plated,PTH,ComponentDrill
T4C0.0315
; #@! TA.AperFunction,Plated,PTH,ComponentDrill
T5C0.0394
; #@! TA.AperFunction,Plated,PTH,ComponentDrill
T6C0.0433
; #@! TA.AperFunction,Plated,PTH,ComponentDrill
T7C0.0472
%
G90
G05
T1
X5.8213Y-2.8349
X6.3961Y-4.5042
X6.4709Y-5.2876
X6.5142Y-4.5042
X6.5811Y-4.1065
X7.0772Y-4.5908
T2
X5.0535Y-2.3857
X5.0535Y-2.6857
X6.3331Y-4.2644
X6.3331Y-4.5644
X6.4571Y-4.2644
X6.4571Y-4.5644
X6.5811Y-4.2644
X6.5811Y-4.5644
X6.7051Y-4.2644
X6.7051Y-4.5644
X6.8291Y-4.2644
X6.8291Y-4.5644
T3
X4.8067Y-2.9743
X4.8567Y-2.9743
X4.9067Y-2.9743
T4
X4.4827Y-3.0455
X4.4827Y-3.1439
X4.778Y-3.2719
X4.778Y-3.3506
T5
X5.2031Y-2.0317
X5.3031Y-2.0317
X5.4016Y-2.5199
X5.4016Y-3.3199
X5.4031Y-2.0317
X5.5016Y-2.5199
X5.5016Y-3.3199
X5.5031Y-2.0317
X5.6016Y-2.5199
X5.6016Y-3.3199
X5.6031Y-2.0317
X5.6031Y-3.9317
X5.7016Y-2.5199
X5.7016Y-3.3199
X5.7031Y-2.0317
X5.7031Y-3.9317
X5.8016Y-2.5199
X5.8016Y-3.3199
X5.8031Y-2.0317
X5.8031Y-3.9317
X5.9016Y-2.5199
X5.9016Y-3.3199
X5.9031Y-2.0317
X5.9031Y-3.9317
X6.0016Y-2.5199
X6.0016Y-3.3199
X6.0031Y-2.0317
X6.0031Y-3.9317
X6.1016Y-2.5199
X6.1016Y-3.3199
X6.1031Y-2.0317
X6.1031Y-3.9317
X6.2016Y-2.5199
X6.2016Y-3.3199
X6.2031Y-3.9317
X6.3016Y-2.5199
X6.3016Y-3.3199
X6.3031Y-2.0317
X6.3031Y-3.9317
X6.4016Y-2.5199
X6.4016Y-3.3199
X6.4031Y-2.0317
X6.5016Y-2.5199
X6.5016Y-3.3199
X6.5031Y-2.0317
X6.5031Y-3.9317
X6.6016Y-3.3199
X6.6031Y-2.0317
X6.6031Y-3.9317
X6.7016Y-3.3199
X6.7031Y-2.0317
X6.7031Y-3.9317
X6.8016Y-3.3199
X6.8031Y-2.0317
X6.8031Y-3.9317
X6.9016Y-3.3199
X6.9031Y-2.0317
X6.9031Y-3.9317
X7.0031Y-2.0317
X7.0031Y-3.9317
T6
X4.4323Y-2.6617
X4.8323Y-2.6617
T7
X4.522Y-4.9924
X4.522Y-5.1892
X5.0142Y-4.9924
X5.0142Y-5.1892
X5.1323Y-4.4215
X5.1323Y-4.6183
X5.1323Y-5.5632
X5.1323Y-5.7601
X5.6244Y-4.4215
X5.6244Y-4.6183
X5.6244Y-5.5632
X5.6244Y-5.7601
X5.7425Y-4.9924
X5.7425Y-5.1892
X6.2346Y-4.9924
X6.2346Y-5.1892
X6.589Y-5.0908
X6.589Y-5.2876
X7.0811Y-5.0908
X7.0811Y-5.2876
M30
