M48
; DRILL file {KiCad 8.0.1} date 2024-05-06T19:00:17+0200
; FORMAT={-:-/ absolute / inch / decimal}
; #@! TF.CreationDate,2024-05-06T19:00:17+02:00
; #@! TF.GenerationSoftware,Kicad,Pcbnew,8.0.1
; #@! TF.FileFunction,Plated,1,2,PTH
FMAT,2
INCH
; #@! TA.AperFunction,Plated,PTH,ViaDrill
T1C0.0118
; #@! TA.AperFunction,Plated,PTH,ComponentDrill
T2C0.0276
; #@! TA.AperFunction,Plated,PTH,ComponentDrill
T3C0.0315
; #@! TA.AperFunction,Plated,PTH,ComponentDrill
T4C0.0394
; #@! TA.AperFunction,Plated,PTH,ComponentDrill
T5C0.0433
; #@! TA.AperFunction,Plated,PTH,ComponentDrill
T6C0.0472
; #@! TA.AperFunction,Plated,PTH,ComponentDrill
T7C0.0484
%
G90
G05
T1
X5.8213Y-2.8349
T2
X4.522Y-5.4959
X4.522Y-5.7959
X4.6047Y-5.4963
X4.6047Y-5.7963
X5.026Y-2.3813
X5.026Y-2.6813
X5.8606Y-5.4648
X5.8606Y-5.7648
X5.9433Y-5.4648
X5.9433Y-5.7648
X6.085Y-4.3813
X6.085Y-4.6813
X6.1677Y-4.3813
X6.1677Y-4.6813
X6.2071Y-5.4644
X6.2071Y-5.7644
X6.2898Y-5.4644
X6.2898Y-5.7644
X6.8016Y-4.3735
X6.8016Y-4.6735
X6.8843Y-4.3735
X6.8843Y-4.6735
T3
X4.4827Y-3.0455
X4.4827Y-3.1439
X4.5181Y-5.9274
X4.5181Y-6.0258
X4.778Y-3.2719
X4.778Y-3.3506
X5.8606Y-5.8802
X5.8606Y-5.9786
X6.1677Y-4.1479
X6.1677Y-4.2463
X6.2071Y-5.8841
X6.2071Y-5.9825
X6.8843Y-4.1396
X6.8843Y-4.238
T4
X5.2031Y-2.0317
X5.3031Y-2.0317
X5.4016Y-2.5199
X5.4016Y-3.3199
X5.4031Y-2.0317
X5.5016Y-2.5199
X5.5016Y-3.3199
X5.5031Y-2.0317
X5.6016Y-2.5199
X5.6016Y-3.3199
X5.6031Y-2.0317
X5.6031Y-3.9317
X5.7016Y-2.5199
X5.7016Y-3.3199
X5.7031Y-2.0317
X5.7031Y-3.9317
X5.8016Y-2.5199
X5.8016Y-3.3199
X5.8031Y-2.0317
X5.8031Y-3.9317
X5.9016Y-2.5199
X5.9016Y-3.3199
X5.9031Y-2.0317
X5.9031Y-3.9317
X6.0016Y-2.5199
X6.0016Y-3.3199
X6.0031Y-2.0317
X6.0031Y-3.9317
X6.1016Y-2.5199
X6.1016Y-3.3199
X6.1031Y-2.0317
X6.1031Y-3.9317
X6.2016Y-2.5199
X6.2016Y-3.3199
X6.2031Y-3.9317
X6.3016Y-2.5199
X6.3016Y-3.3199
X6.3031Y-2.0317
X6.3031Y-3.9317
X6.4016Y-2.5199
X6.4016Y-3.3199
X6.4031Y-2.0317
X6.5016Y-2.5199
X6.5016Y-3.3199
X6.5031Y-2.0317
X6.5031Y-3.9317
X6.6016Y-3.3199
X6.6031Y-2.0317
X6.6031Y-3.9317
X6.7016Y-3.3199
X6.7031Y-2.0317
X6.7031Y-3.9317
X6.8016Y-3.3199
X6.8031Y-2.0317
X6.8031Y-3.9317
X6.9016Y-3.3199
X6.9031Y-2.0317
X6.9031Y-3.9317
X7.0031Y-2.0317
X7.0031Y-3.9317
T5
X4.4921Y-2.0239
X4.8921Y-2.0239
T6
X4.522Y-4.9924
X4.522Y-5.1892
X5.0142Y-4.9924
X5.0142Y-5.1892
X5.1323Y-4.4215
X5.1323Y-4.6183
X5.1323Y-5.5632
X5.1323Y-5.7601
X5.6244Y-4.4215
X5.6244Y-4.6183
X5.6244Y-5.5632
X5.6244Y-5.7601
X5.7425Y-4.9924
X5.7425Y-5.1892
X6.2346Y-4.9924
X6.2346Y-5.1892
X6.5594Y-4.9924
X6.5594Y-5.1892
X7.0516Y-4.9924
X7.0516Y-5.1892
T7
X4.6764Y-2.9176
X4.7764Y-2.9176
X4.8764Y-2.9176
M30
