%TF.GenerationSoftware,KiCad,Pcbnew,8.0.1*%
%TF.CreationDate,2024-05-06T19:00:19+02:00*%
%TF.ProjectId,teamagotchi,7465616d-6167-46f7-9463-68692e6b6963,rev?*%
%TF.SameCoordinates,Original*%
%TF.FileFunction,Copper,L1,Top*%
%TF.FilePolarity,Positive*%
%FSLAX46Y46*%
G04 Gerber Fmt 4.6, Leading zero omitted, Abs format (unit mm)*
G04 Created by KiCad (PCBNEW 8.0.1) date 2024-05-06 19:00:19*
%MOMM*%
%LPD*%
G01*
G04 APERTURE LIST*
G04 Aperture macros list*
%AMRoundRect*
0 Rectangle with rounded corners*
0 $1 Rounding radius*
0 $2 $3 $4 $5 $6 $7 $8 $9 X,Y pos of 4 corners*
0 Add a 4 corners polygon primitive as box body*
4,1,4,$2,$3,$4,$5,$6,$7,$8,$9,$2,$3,0*
0 Add four circle primitives for the rounded corners*
1,1,$1+$1,$2,$3*
1,1,$1+$1,$4,$5*
1,1,$1+$1,$6,$7*
1,1,$1+$1,$8,$9*
0 Add four rect primitives between the rounded corners*
20,1,$1+$1,$2,$3,$4,$5,0*
20,1,$1+$1,$4,$5,$6,$7,0*
20,1,$1+$1,$6,$7,$8,$9,0*
20,1,$1+$1,$8,$9,$2,$3,0*%
G04 Aperture macros list end*
%TA.AperFunction,ComponentPad*%
%ADD10C,1.778000*%
%TD*%
%TA.AperFunction,ComponentPad*%
%ADD11O,2.900000X1.700000*%
%TD*%
%TA.AperFunction,ComponentPad*%
%ADD12C,1.400000*%
%TD*%
%TA.AperFunction,ComponentPad*%
%ADD13O,1.400000X1.400000*%
%TD*%
%TA.AperFunction,ComponentPad*%
%ADD14C,1.600000*%
%TD*%
%TA.AperFunction,ComponentPad*%
%ADD15R,1.850000X1.850000*%
%TD*%
%TA.AperFunction,ComponentPad*%
%ADD16C,1.850000*%
%TD*%
%TA.AperFunction,ComponentPad*%
%ADD17R,2.200000X2.200000*%
%TD*%
%TA.AperFunction,ComponentPad*%
%ADD18O,2.200000X2.200000*%
%TD*%
%TA.AperFunction,ComponentPad*%
%ADD19R,1.778000X1.778000*%
%TD*%
%TA.AperFunction,ComponentPad*%
%ADD20RoundRect,0.250000X0.650000X-0.350000X0.650000X0.350000X-0.650000X0.350000X-0.650000X-0.350000X0*%
%TD*%
%TA.AperFunction,ComponentPad*%
%ADD21O,1.800000X1.200000*%
%TD*%
%TA.AperFunction,ViaPad*%
%ADD22C,0.600000*%
%TD*%
%TA.AperFunction,Conductor*%
%ADD23C,0.200000*%
%TD*%
G04 APERTURE END LIST*
D10*
%TO.P,TFT1,67*%
%TO.N,N/C*%
X152480000Y-99866000D03*
%TO.P,TFT1,51*%
X144860000Y-99866000D03*
%TO.P,TFT1,50,3/5V*%
%TO.N,/3.3V*%
X147400000Y-99866000D03*
%TO.P,TFT1,41*%
%TO.N,N/C*%
X155020000Y-99866000D03*
%TO.P,TFT1,40,GND*%
%TO.N,/GND*%
X157560000Y-99866000D03*
%TO.P,TFT1,28*%
%TO.N,N/C*%
X177880000Y-99866000D03*
%TO.P,TFT1,27*%
X175340000Y-99866000D03*
%TO.P,TFT1,26*%
X172800000Y-99866000D03*
%TO.P,TFT1,25*%
X170260000Y-99866000D03*
%TO.P,TFT1,24*%
X167720000Y-99866000D03*
%TO.P,TFT1,23*%
X165180000Y-99866000D03*
%TO.P,TFT1,22*%
X160100000Y-99866000D03*
%TO.P,TFT1,17*%
X132160000Y-51606000D03*
%TO.P,TFT1,16*%
X134700000Y-51606000D03*
%TO.P,TFT1,15*%
X137240000Y-51606000D03*
%TO.P,TFT1,14*%
X139780000Y-51606000D03*
%TO.P,TFT1,13,D13/SCLK*%
%TO.N,/SCK*%
X142320000Y-51606000D03*
%TO.P,TFT1,12,D12/MISO*%
%TO.N,/MISO*%
X144860000Y-51606000D03*
%TO.P,TFT1,11,D11/MOSI*%
%TO.N,/MOSI*%
X147400000Y-51606000D03*
%TO.P,TFT1,10,D10/TFT_CS*%
%TO.N,/TFT_CS*%
X149940000Y-51606000D03*
%TO.P,TFT1,9,D9/TFT_DC*%
%TO.N,/TFT_DC*%
X152480000Y-51606000D03*
%TO.P,TFT1,8,D8/Touch_CS*%
%TO.N,/TOUCH_CS*%
X155020000Y-51606000D03*
%TO.P,TFT1,7*%
%TO.N,N/C*%
X160100000Y-51606000D03*
%TO.P,TFT1,6*%
X162640000Y-51606000D03*
%TO.P,TFT1,5*%
X165180000Y-51606000D03*
%TO.P,TFT1,4,D4/SD_CS*%
%TO.N,/SD_CS*%
X167720000Y-51606000D03*
%TO.P,TFT1,3,D3*%
%TO.N,/BACK_LITE*%
X170260000Y-51606000D03*
%TO.P,TFT1,2*%
%TO.N,N/C*%
X172800000Y-51606000D03*
%TO.P,TFT1,1*%
X175340000Y-51606000D03*
%TO.P,TFT1,0*%
X177880000Y-51606000D03*
%TO.P,TFT1,*%
%TO.N,*%
X149940000Y-99866000D03*
X142320000Y-99866000D03*
%TD*%
D11*
%TO.P,SW4,1,1*%
%TO.N,/GND*%
X114860000Y-126806000D03*
X127360000Y-126806000D03*
%TO.P,SW4,2,2*%
%TO.N,Net-(R7-Pad2)*%
X114860000Y-131806000D03*
X127360000Y-131806000D03*
%TD*%
D12*
%TO.P,R6,1*%
%TO.N,/3.3V*%
X159760000Y-146416000D03*
D13*
%TO.P,R6,2*%
%TO.N,Net-(R5-Pad2)*%
X159760000Y-138796000D03*
%TD*%
%TO.P,R4,2*%
%TO.N,Net-(R3-Pad2)*%
X154560000Y-118906000D03*
D12*
%TO.P,R4,1*%
%TO.N,/3.3V*%
X154560000Y-111286000D03*
%TD*%
%TO.P,R12,1*%
%TO.N,/VIB_MOTOR*%
X127660000Y-60486000D03*
D13*
%TO.P,R12,2*%
%TO.N,Net-(Q2-Pad1)*%
X127660000Y-68106000D03*
%TD*%
D12*
%TO.P,R10,1*%
%TO.N,/3.3V*%
X150960000Y-146426000D03*
D13*
%TO.P,R10,2*%
%TO.N,Net-(R10-Pad2)*%
X150960000Y-138806000D03*
%TD*%
D12*
%TO.P,R9,1*%
%TO.N,/SW5*%
X148860000Y-146426000D03*
D13*
%TO.P,R9,2*%
%TO.N,Net-(R10-Pad2)*%
X148860000Y-138806000D03*
%TD*%
D12*
%TO.P,R8,1*%
%TO.N,/3.3V*%
X116960000Y-147226000D03*
D13*
%TO.P,R8,2*%
%TO.N,Net-(R7-Pad2)*%
X116960000Y-139606000D03*
%TD*%
D12*
%TO.P,R7,1*%
%TO.N,/SW4*%
X114860000Y-147216000D03*
D13*
%TO.P,R7,2*%
%TO.N,Net-(R7-Pad2)*%
X114860000Y-139596000D03*
%TD*%
D11*
%TO.P,SW2,1,1*%
%TO.N,/GND*%
X130360000Y-112306000D03*
X142860000Y-112306000D03*
%TO.P,SW2,2,2*%
%TO.N,Net-(R3-Pad2)*%
X130360000Y-117306000D03*
X142860000Y-117306000D03*
%TD*%
D14*
%TO.P,C6,2*%
%TO.N,/GND*%
X148860000Y-151856000D03*
%TO.P,C6,1*%
%TO.N,/SW5*%
X148860000Y-149356000D03*
%TD*%
%TO.P,C5,2*%
%TO.N,/GND*%
X114760000Y-153056000D03*
%TO.P,C5,1*%
%TO.N,/SW4*%
X114760000Y-150556000D03*
%TD*%
%TO.P,C4,2*%
%TO.N,/GND*%
X157660000Y-151956000D03*
%TO.P,C4,1*%
%TO.N,/SW3*%
X157660000Y-149456000D03*
%TD*%
%TO.P,C3,1*%
%TO.N,/SW2*%
X156660000Y-107856000D03*
%TO.P,C3,2*%
%TO.N,/GND*%
X156660000Y-105356000D03*
%TD*%
%TO.P,C2,2*%
%TO.N,/GND*%
X174860000Y-105146000D03*
%TO.P,C2,1*%
%TO.N,/SW1*%
X174860000Y-107646000D03*
%TD*%
D11*
%TO.P,SW5,1,1*%
%TO.N,/GND*%
X130360000Y-141306000D03*
X142860000Y-141306000D03*
%TO.P,SW5,2,2*%
%TO.N,Net-(R10-Pad2)*%
X130360000Y-146306000D03*
X142860000Y-146306000D03*
%TD*%
D15*
%TO.P,Q2,1*%
%TO.N,Net-(Q2-Pad1)*%
X123860000Y-74106000D03*
D16*
%TO.P,Q2,2*%
%TO.N,Net-(D1-A)*%
X121320000Y-74106000D03*
%TO.P,Q2,3*%
%TO.N,/GND*%
X118780000Y-74106000D03*
%TD*%
D13*
%TO.P,R3,2*%
%TO.N,Net-(R3-Pad2)*%
X156660000Y-118906000D03*
D12*
%TO.P,R3,1*%
%TO.N,/SW2*%
X156660000Y-111286000D03*
%TD*%
D11*
%TO.P,SW3,1,1*%
%TO.N,/GND*%
X145860000Y-126806000D03*
X158360000Y-126806000D03*
%TO.P,SW3,2,2*%
%TO.N,Net-(R5-Pad2)*%
X145860000Y-131806000D03*
X158360000Y-131806000D03*
%TD*%
%TO.P,SW1,2,2*%
%TO.N,Net-(R1-Pad2)*%
X179110000Y-131806000D03*
X166610000Y-131806000D03*
%TO.P,SW1,1,1*%
%TO.N,/GND*%
X179110000Y-126806000D03*
X166610000Y-126806000D03*
%TD*%
D12*
%TO.P,R2,1*%
%TO.N,/3.3V*%
X172760000Y-111086000D03*
D13*
%TO.P,R2,2*%
%TO.N,Net-(R1-Pad2)*%
X172760000Y-118706000D03*
%TD*%
D12*
%TO.P,R1,1*%
%TO.N,/SW1*%
X174860000Y-111086000D03*
D13*
%TO.P,R1,2*%
%TO.N,Net-(R1-Pad2)*%
X174860000Y-118706000D03*
%TD*%
D12*
%TO.P,R5,1*%
%TO.N,/SW3*%
X157660000Y-146416000D03*
D13*
%TO.P,R5,2*%
%TO.N,Net-(R5-Pad2)*%
X157660000Y-138796000D03*
%TD*%
D17*
%TO.P,D1,1,K*%
%TO.N,/3.3V*%
X124260000Y-51406000D03*
D18*
%TO.P,D1,2,A*%
%TO.N,Net-(D1-A)*%
X114100000Y-51406000D03*
%TD*%
D19*
%TO.P,U1,1,~{RESET}*%
%TO.N,unconnected-(U1-~{RESET}-Pad1)*%
X175300000Y-84326000D03*
D10*
%TO.P,U1,2,3V3*%
%TO.N,/3.3V*%
X172760000Y-84326000D03*
%TO.P,U1,3,3V3*%
X170220000Y-84326000D03*
%TO.P,U1,4,GND*%
%TO.N,/GND*%
X167680000Y-84326000D03*
%TO.P,U1,5,A0/0.02*%
%TO.N,unconnected-(U1-A0{slash}0.02-Pad5)*%
X165140000Y-84326000D03*
%TO.P,U1,6,A1/0.03*%
%TO.N,/SW1*%
X162600000Y-84326000D03*
%TO.P,U1,7,A2/0.04*%
%TO.N,/SW3*%
X160060000Y-84326000D03*
%TO.P,U1,8,A3/0.05*%
%TO.N,/SW2*%
X157520000Y-84326000D03*
%TO.P,U1,9,A4/0.28*%
%TO.N,/SW5*%
X154980000Y-84326000D03*
%TO.P,U1,10,A5/0.29*%
%TO.N,/SW4*%
X152440000Y-84326000D03*
%TO.P,U1,11,SCK*%
%TO.N,/SCK*%
X149900000Y-84326000D03*
%TO.P,U1,12,MOSI*%
%TO.N,/MOSI*%
X147360000Y-84326000D03*
%TO.P,U1,13,MISO*%
%TO.N,/MISO*%
X144820000Y-84326000D03*
%TO.P,U1,14,RXD*%
%TO.N,unconnected-(U1-RXD-Pad14)*%
X142280000Y-84326000D03*
%TO.P,U1,15,TXD*%
%TO.N,unconnected-(U1-TXD-Pad15)*%
X139740000Y-84326000D03*
%TO.P,U1,16,DFU*%
%TO.N,unconnected-(U1-DFU-Pad16)*%
X137200000Y-84326000D03*
%TO.P,U1,17,SDA*%
%TO.N,unconnected-(U1-SDA-Pad17)*%
X137200000Y-64006000D03*
%TO.P,U1,18,SCL*%
%TO.N,unconnected-(U1-SCL-Pad18)*%
X139740000Y-64006000D03*
%TO.P,U1,19,P0.27*%
%TO.N,/SD_CS*%
X142280000Y-64006000D03*
%TO.P,U1,20,A6/P0.30*%
%TO.N,/BACK_LITE*%
X144820000Y-64006000D03*
%TO.P,U1,21,A7/P0.31*%
%TO.N,unconnected-(U1-A7{slash}P0.31-Pad21)*%
X147360000Y-64006000D03*
%TO.P,U1,22,P0.11*%
%TO.N,/TFT_CS*%
X149900000Y-64006000D03*
%TO.P,U1,23,P0.07*%
%TO.N,/TFT_DC*%
X152440000Y-64006000D03*
%TO.P,U1,24,P0.15*%
%TO.N,/TOUCH_CS*%
X154980000Y-64006000D03*
%TO.P,U1,25,P0.16*%
%TO.N,/VIB_MOTOR*%
X157520000Y-64006000D03*
%TO.P,U1,26,VBUS*%
%TO.N,unconnected-(U1-VBUS-Pad26)*%
X160060000Y-64006000D03*
%TO.P,U1,27,EN*%
%TO.N,unconnected-(U1-EN-Pad27)*%
X162600000Y-64006000D03*
%TO.P,U1,28,VBAT*%
%TO.N,unconnected-(U1-VBAT-Pad28)*%
X165140000Y-64006000D03*
%TD*%
D20*
%TO.P,M1,1,+*%
%TO.N,/3.3V*%
X121360000Y-85106000D03*
D21*
%TO.P,M1,2,-*%
%TO.N,Net-(D1-A)*%
X121360000Y-83106000D03*
%TD*%
D14*
%TO.P,C1,1*%
%TO.N,/3.3V*%
X113860000Y-79856000D03*
%TO.P,C1,2*%
%TO.N,Net-(D1-A)*%
X113860000Y-77356000D03*
%TD*%
D22*
%TO.N,/SCK*%
X147860000Y-72006000D03*
%TD*%
D23*
%TO.N,Net-(D1-A)*%
X121320000Y-58626000D02*
X114100000Y-51406000D01*
X121320000Y-74106000D02*
X121320000Y-58626000D01*
X118070000Y-77356000D02*
X121320000Y-74106000D01*
X113860000Y-77356000D02*
X118070000Y-77356000D01*
%TO.N,Net-(R3-Pad2)*%
X154560000Y-118906000D02*
X144460000Y-118906000D01*
%TO.N,/SW1*%
X174060000Y-95786000D02*
X162600000Y-84326000D01*
X174060000Y-101806000D02*
X174060000Y-95786000D01*
X173460000Y-102406000D02*
X174060000Y-101806000D01*
X173460000Y-106246000D02*
X173460000Y-102406000D01*
X174860000Y-107646000D02*
X173460000Y-106246000D01*
%TO.N,/SW5*%
X139160000Y-100146000D02*
X154980000Y-84326000D01*
X139160000Y-144832346D02*
X139160000Y-100146000D01*
X147830000Y-147456000D02*
X141783654Y-147456000D01*
X141783654Y-147456000D02*
X139160000Y-144832346D01*
X148860000Y-146426000D02*
X147830000Y-147456000D01*
%TO.N,/SW4*%
X138160000Y-98606000D02*
X152440000Y-84326000D01*
X138160000Y-123856000D02*
X138160000Y-98606000D01*
X114760000Y-150556000D02*
X114760000Y-147256000D01*
X114760000Y-147256000D02*
X138160000Y-123856000D01*
%TO.N,/SW3*%
X161411000Y-85677000D02*
X160060000Y-84326000D01*
X161411000Y-146836370D02*
X161411000Y-85677000D01*
X158791370Y-149456000D02*
X161411000Y-146836370D01*
X157660000Y-149456000D02*
X158791370Y-149456000D01*
%TO.N,/SW2*%
X158749000Y-105767000D02*
X158749000Y-85555000D01*
X158749000Y-85555000D02*
X157520000Y-84326000D01*
X156660000Y-107856000D02*
X158749000Y-105767000D01*
%TO.N,Net-(R3-Pad2)*%
X156660000Y-118906000D02*
X154560000Y-118906000D01*
%TO.N,Net-(R1-Pad2)*%
X174860000Y-118706000D02*
X172760000Y-118706000D01*
%TO.N,/SW1*%
X174860000Y-111086000D02*
X174860000Y-107646000D01*
%TO.N,/SW2*%
X156660000Y-111286000D02*
X156660000Y-107856000D01*
%TO.N,Net-(R7-Pad2)*%
X114860000Y-139596000D02*
X114860000Y-131806000D01*
X114870000Y-139606000D02*
X114860000Y-139596000D01*
X116960000Y-139606000D02*
X114870000Y-139606000D01*
%TO.N,/SW4*%
X114760000Y-147316000D02*
X114860000Y-147216000D01*
X114760000Y-150556000D02*
X114760000Y-147316000D01*
%TO.N,Net-(R10-Pad2)*%
X150960000Y-138806000D02*
X148860000Y-138806000D01*
X148860000Y-138806000D02*
X142860000Y-144806000D01*
X142860000Y-144806000D02*
X142860000Y-146306000D01*
%TO.N,/SW5*%
X148860000Y-149356000D02*
X148860000Y-146426000D01*
%TO.N,Net-(R5-Pad2)*%
X157660000Y-132506000D02*
X158360000Y-131806000D01*
X157660000Y-138796000D02*
X157660000Y-132506000D01*
X159760000Y-138796000D02*
X157660000Y-138796000D01*
%TO.N,/SW3*%
X157660000Y-149456000D02*
X157660000Y-146416000D01*
%TO.N,Net-(R1-Pad2)*%
X174860000Y-118706000D02*
X174860000Y-127556000D01*
X174860000Y-127556000D02*
X179110000Y-131806000D01*
%TO.N,Net-(R3-Pad2)*%
X144460000Y-118906000D02*
X142860000Y-117306000D01*
%TO.N,/VIB_MOTOR*%
X153760000Y-64706000D02*
X154249000Y-65195000D01*
X156331000Y-65195000D02*
X157520000Y-64006000D01*
X153760000Y-51006000D02*
X153760000Y-64706000D01*
X129460000Y-50206000D02*
X152960000Y-50206000D01*
X152960000Y-50206000D02*
X153760000Y-51006000D01*
X154249000Y-65195000D02*
X156331000Y-65195000D01*
X127660000Y-52006000D02*
X129460000Y-50206000D01*
X127660000Y-60486000D02*
X127660000Y-52006000D01*
%TO.N,Net-(D1-A)*%
X115610000Y-77356000D02*
X121360000Y-83106000D01*
X113860000Y-77356000D02*
X115610000Y-77356000D01*
%TO.N,/3.3V*%
X116110000Y-79856000D02*
X121360000Y-85106000D01*
X113860000Y-79856000D02*
X116110000Y-79856000D01*
%TO.N,/TFT_CS*%
X149900000Y-51646000D02*
X149940000Y-51606000D01*
X149900000Y-64006000D02*
X149900000Y-51646000D01*
%TO.N,/TOUCH_CS*%
X154980000Y-64006000D02*
X154980000Y-51646000D01*
X154980000Y-51646000D02*
X155020000Y-51606000D01*
%TO.N,/MISO*%
X144820000Y-84326000D02*
X143560000Y-83066000D01*
X143560000Y-83066000D02*
X143560000Y-52906000D01*
X144880000Y-84386000D02*
X144820000Y-84326000D01*
X143560000Y-52906000D02*
X144860000Y-51606000D01*
%TO.N,/SCK*%
X149900000Y-74046000D02*
X147860000Y-72006000D01*
X149900000Y-84326000D02*
X149900000Y-74046000D01*
%TO.N,/TFT_DC*%
X152440000Y-51646000D02*
X152480000Y-51606000D01*
X152440000Y-64006000D02*
X152440000Y-51646000D01*
%TO.N,/MOSI*%
X146060000Y-83026000D02*
X146060000Y-52946000D01*
X146060000Y-52946000D02*
X147400000Y-51606000D01*
X147360000Y-84326000D02*
X146060000Y-83026000D01*
%TO.N,/SW1*%
X162600000Y-84326000D02*
X162880000Y-84326000D01*
%TO.N,Net-(R5-Pad2)*%
X145060000Y-131806000D02*
X145860000Y-131806000D01*
%TO.N,/3.3V*%
X147300000Y-99866000D02*
X147400000Y-99866000D01*
%TO.N,Net-(R10-Pad2)*%
X142860000Y-146306000D02*
X143110000Y-146056000D01*
%TO.N,/3.3V*%
X147360000Y-99246000D02*
X147420000Y-99306000D01*
%TD*%
%TA.AperFunction,Conductor*%
%TO.N,/3.3V*%
G36*
X156331905Y-85056193D02*
G01*
X156353809Y-85081472D01*
X156419728Y-85182370D01*
X156419731Y-85182373D01*
X156575692Y-85351792D01*
X156671138Y-85426080D01*
X156756868Y-85492807D01*
X156757411Y-85493229D01*
X156959931Y-85602828D01*
X157073025Y-85641653D01*
X157177725Y-85677597D01*
X157177727Y-85677597D01*
X157177729Y-85677598D01*
X157404863Y-85715500D01*
X157404864Y-85715500D01*
X157635136Y-85715500D01*
X157635137Y-85715500D01*
X157862271Y-85677598D01*
X157908239Y-85661816D01*
X157978034Y-85658666D01*
X158036182Y-85691417D01*
X158112181Y-85767416D01*
X158145666Y-85828739D01*
X158148500Y-85855097D01*
X158148500Y-98425259D01*
X158128815Y-98492298D01*
X158076011Y-98538053D01*
X158006853Y-98547997D01*
X157984238Y-98542540D01*
X157902276Y-98514402D01*
X157712992Y-98482817D01*
X157675137Y-98476500D01*
X157444863Y-98476500D01*
X157399436Y-98484080D01*
X157217725Y-98514402D01*
X156999938Y-98589169D01*
X156999930Y-98589172D01*
X156797408Y-98698772D01*
X156615694Y-98840206D01*
X156615689Y-98840211D01*
X156459727Y-99009630D01*
X156393808Y-99110528D01*
X156340662Y-99155884D01*
X156271431Y-99165308D01*
X156208095Y-99135806D01*
X156186192Y-99110528D01*
X156120272Y-99009630D01*
X156024963Y-98906097D01*
X155964308Y-98840208D01*
X155811775Y-98721487D01*
X155782591Y-98698772D01*
X155580069Y-98589172D01*
X155580061Y-98589169D01*
X155362274Y-98514402D01*
X155180849Y-98484128D01*
X155135137Y-98476500D01*
X154904863Y-98476500D01*
X154859436Y-98484080D01*
X154677725Y-98514402D01*
X154459938Y-98589169D01*
X154459930Y-98589172D01*
X154257408Y-98698772D01*
X154075694Y-98840206D01*
X154075689Y-98840211D01*
X153919727Y-99009630D01*
X153853808Y-99110528D01*
X153800662Y-99155884D01*
X153731431Y-99165308D01*
X153668095Y-99135806D01*
X153646192Y-99110528D01*
X153580272Y-99009630D01*
X153484963Y-98906097D01*
X153424308Y-98840208D01*
X153271775Y-98721487D01*
X153242591Y-98698772D01*
X153040069Y-98589172D01*
X153040061Y-98589169D01*
X152822274Y-98514402D01*
X152640849Y-98484128D01*
X152595137Y-98476500D01*
X152364863Y-98476500D01*
X152319436Y-98484080D01*
X152137725Y-98514402D01*
X151919938Y-98589169D01*
X151919930Y-98589172D01*
X151717408Y-98698772D01*
X151535694Y-98840206D01*
X151535689Y-98840211D01*
X151379727Y-99009630D01*
X151313808Y-99110528D01*
X151260662Y-99155884D01*
X151191431Y-99165308D01*
X151128095Y-99135806D01*
X151106192Y-99110528D01*
X151040272Y-99009630D01*
X150944963Y-98906097D01*
X150884308Y-98840208D01*
X150731775Y-98721487D01*
X150702591Y-98698772D01*
X150500069Y-98589172D01*
X150500061Y-98589169D01*
X150282274Y-98514402D01*
X150100849Y-98484128D01*
X150055137Y-98476500D01*
X149824863Y-98476500D01*
X149779436Y-98484080D01*
X149597725Y-98514402D01*
X149379938Y-98589169D01*
X149379930Y-98589172D01*
X149177408Y-98698772D01*
X148995694Y-98840206D01*
X148995689Y-98840211D01*
X148839727Y-99009631D01*
X148773508Y-99110987D01*
X148720362Y-99156343D01*
X148651131Y-99165767D01*
X148587795Y-99136265D01*
X148565892Y-99110987D01*
X148543238Y-99076313D01*
X147882962Y-99736589D01*
X147865925Y-99673007D01*
X147800099Y-99558993D01*
X147707007Y-99465901D01*
X147592993Y-99400075D01*
X147529409Y-99383037D01*
X148190958Y-98721486D01*
X148190958Y-98721484D01*
X148162322Y-98699196D01*
X148162316Y-98699192D01*
X147959868Y-98589632D01*
X147959859Y-98589629D01*
X147742150Y-98514889D01*
X147515095Y-98477000D01*
X147284905Y-98477000D01*
X147057849Y-98514889D01*
X146840140Y-98589629D01*
X146840132Y-98589632D01*
X146637681Y-98699194D01*
X146609040Y-98721485D01*
X146609040Y-98721487D01*
X147270591Y-99383037D01*
X147207007Y-99400075D01*
X147092993Y-99465901D01*
X146999901Y-99558993D01*
X146934075Y-99673007D01*
X146917037Y-99736591D01*
X146256760Y-99076314D01*
X146234108Y-99110986D01*
X146180961Y-99156342D01*
X146111730Y-99165766D01*
X146048394Y-99136264D01*
X146026490Y-99110986D01*
X146026191Y-99110528D01*
X145960269Y-99009627D01*
X145804308Y-98840208D01*
X145651775Y-98721487D01*
X145622591Y-98698772D01*
X145420069Y-98589172D01*
X145420061Y-98589169D01*
X145202274Y-98514402D01*
X145020849Y-98484128D01*
X144975137Y-98476500D01*
X144744863Y-98476500D01*
X144699436Y-98484080D01*
X144517725Y-98514402D01*
X144299938Y-98589169D01*
X144299930Y-98589172D01*
X144097408Y-98698772D01*
X143915694Y-98840206D01*
X143915689Y-98840211D01*
X143759727Y-99009630D01*
X143693808Y-99110528D01*
X143640662Y-99155884D01*
X143571431Y-99165308D01*
X143508095Y-99135806D01*
X143486192Y-99110528D01*
X143420272Y-99009630D01*
X143324963Y-98906097D01*
X143264308Y-98840208D01*
X143111775Y-98721487D01*
X143082591Y-98698772D01*
X142880069Y-98589172D01*
X142880061Y-98589169D01*
X142662274Y-98514402D01*
X142480849Y-98484128D01*
X142435137Y-98476500D01*
X142204863Y-98476500D01*
X142172415Y-98481914D01*
X141977723Y-98514402D01*
X141977721Y-98514403D01*
X141971645Y-98516489D01*
X141901846Y-98519634D01*
X141841428Y-98484543D01*
X141809572Y-98422358D01*
X141816393Y-98352822D01*
X141843708Y-98311526D01*
X154463819Y-85691415D01*
X154525140Y-85657932D01*
X154591760Y-85661816D01*
X154617951Y-85670808D01*
X154637728Y-85677598D01*
X154751296Y-85696549D01*
X154864863Y-85715500D01*
X154864864Y-85715500D01*
X155095136Y-85715500D01*
X155095137Y-85715500D01*
X155322271Y-85677598D01*
X155323693Y-85677110D01*
X155330662Y-85674717D01*
X155540069Y-85602828D01*
X155742589Y-85493229D01*
X155924308Y-85351792D01*
X156080269Y-85182373D01*
X156102759Y-85147950D01*
X156146191Y-85081472D01*
X156199337Y-85036115D01*
X156268569Y-85026691D01*
X156331905Y-85056193D01*
G37*
%TD.AperFunction*%
%TA.AperFunction,Conductor*%
G36*
X184402539Y-47226185D02*
G01*
X184448294Y-47278989D01*
X184459500Y-47330500D01*
X184459500Y-158081500D01*
X184439815Y-158148539D01*
X184387011Y-158194294D01*
X184335500Y-158205500D01*
X110584500Y-158205500D01*
X110517461Y-158185815D01*
X110471706Y-158133011D01*
X110460500Y-158081500D01*
X110460500Y-153056001D01*
X113454532Y-153056001D01*
X113474364Y-153282686D01*
X113474366Y-153282697D01*
X113533258Y-153502488D01*
X113533261Y-153502497D01*
X113629431Y-153708732D01*
X113629432Y-153708734D01*
X113759954Y-153895141D01*
X113920858Y-154056045D01*
X113920861Y-154056047D01*
X114107266Y-154186568D01*
X114313504Y-154282739D01*
X114533308Y-154341635D01*
X114695230Y-154355801D01*
X114759998Y-154361468D01*
X114760000Y-154361468D01*
X114760002Y-154361468D01*
X114816673Y-154356509D01*
X114986692Y-154341635D01*
X115206496Y-154282739D01*
X115412734Y-154186568D01*
X115599139Y-154056047D01*
X115760047Y-153895139D01*
X115890568Y-153708734D01*
X115986739Y-153502496D01*
X116045635Y-153282692D01*
X116065468Y-153056000D01*
X116045635Y-152829308D01*
X115986739Y-152609504D01*
X115890568Y-152403266D01*
X115760047Y-152216861D01*
X115760045Y-152216858D01*
X115599141Y-152055954D01*
X115412734Y-151925432D01*
X115397614Y-151918381D01*
X115345176Y-151872211D01*
X115326023Y-151805018D01*
X115346238Y-151738136D01*
X115397614Y-151693618D01*
X115412734Y-151686568D01*
X115599139Y-151556047D01*
X115760047Y-151395139D01*
X115890568Y-151208734D01*
X115986739Y-151002496D01*
X116045635Y-150782692D01*
X116065468Y-150556000D01*
X116045635Y-150329308D01*
X115986739Y-150109504D01*
X115890568Y-149903266D01*
X115760047Y-149716861D01*
X115760045Y-149716858D01*
X115599140Y-149555953D01*
X115413377Y-149425881D01*
X115369752Y-149371304D01*
X115360500Y-149324306D01*
X115360500Y-148387162D01*
X115380185Y-148320123D01*
X115419221Y-148281736D01*
X115498127Y-148232880D01*
X116306672Y-148232880D01*
X116422821Y-148304797D01*
X116422822Y-148304798D01*
X116630195Y-148385134D01*
X116848807Y-148426000D01*
X117071193Y-148426000D01*
X117228729Y-148396551D01*
X135459500Y-148396551D01*
X135487829Y-148575410D01*
X135543787Y-148747636D01*
X135543788Y-148747639D01*
X135626006Y-148908997D01*
X135732441Y-149055494D01*
X135732445Y-149055499D01*
X135860500Y-149183554D01*
X135860505Y-149183558D01*
X135988287Y-149276396D01*
X136007006Y-149289996D01*
X136074343Y-149324306D01*
X136168360Y-149372211D01*
X136168363Y-149372212D01*
X136227250Y-149391345D01*
X136340591Y-149428171D01*
X136423429Y-149441291D01*
X136519449Y-149456500D01*
X136519454Y-149456500D01*
X136700551Y-149456500D01*
X136787259Y-149442765D01*
X136879409Y-149428171D01*
X137051639Y-149372211D01*
X137212994Y-149289996D01*
X137359501Y-149183553D01*
X137487553Y-149055501D01*
X137593996Y-148908994D01*
X137676211Y-148747639D01*
X137732171Y-148575409D01*
X137755835Y-148426000D01*
X137760500Y-148396551D01*
X137760500Y-148215448D01*
X137744019Y-148111397D01*
X137732171Y-148036591D01*
X137704191Y-147950476D01*
X137676212Y-147864363D01*
X137676211Y-147864360D01*
X137645120Y-147803342D01*
X137593996Y-147703006D01*
X137538048Y-147626000D01*
X137487558Y-147556505D01*
X137487554Y-147556500D01*
X137359499Y-147428445D01*
X137359494Y-147428441D01*
X137212997Y-147322006D01*
X137212996Y-147322005D01*
X137212994Y-147322004D01*
X137161300Y-147295664D01*
X137051639Y-147239788D01*
X137051636Y-147239787D01*
X136879410Y-147183829D01*
X136700551Y-147155500D01*
X136700546Y-147155500D01*
X136519454Y-147155500D01*
X136519449Y-147155500D01*
X136340589Y-147183829D01*
X136168363Y-147239787D01*
X136168360Y-147239788D01*
X136007002Y-147322006D01*
X135860505Y-147428441D01*
X135860500Y-147428445D01*
X135732445Y-147556500D01*
X135732441Y-147556505D01*
X135626006Y-147703002D01*
X135543788Y-147864360D01*
X135543787Y-147864363D01*
X135487829Y-148036589D01*
X135459500Y-148215448D01*
X135459500Y-148396551D01*
X117228729Y-148396551D01*
X117289809Y-148385133D01*
X117497168Y-148304801D01*
X117497181Y-148304795D01*
X117613326Y-148232879D01*
X116960001Y-147579553D01*
X116960000Y-147579553D01*
X116306672Y-148232879D01*
X116306672Y-148232880D01*
X115498127Y-148232880D01*
X115586562Y-148178124D01*
X115750981Y-148028236D01*
X115825881Y-147929051D01*
X115881987Y-147887418D01*
X115933421Y-147880078D01*
X115951138Y-147881308D01*
X116610000Y-147222446D01*
X116610000Y-147272078D01*
X116633852Y-147361095D01*
X116679930Y-147440905D01*
X116745095Y-147506070D01*
X116824905Y-147552148D01*
X116913922Y-147576000D01*
X117006078Y-147576000D01*
X117095095Y-147552148D01*
X117174905Y-147506070D01*
X117240070Y-147440905D01*
X117286148Y-147361095D01*
X117310000Y-147272078D01*
X117310000Y-147226000D01*
X117313553Y-147226000D01*
X117968861Y-147881308D01*
X117984631Y-147860425D01*
X117984633Y-147860422D01*
X118083759Y-147661350D01*
X118144621Y-147447439D01*
X118165141Y-147226000D01*
X118165141Y-147225999D01*
X118144621Y-147004560D01*
X118083759Y-146790649D01*
X117984635Y-146591580D01*
X117984630Y-146591572D01*
X117968860Y-146570690D01*
X117313553Y-147225999D01*
X117313553Y-147226000D01*
X117310000Y-147226000D01*
X117310000Y-147179922D01*
X117286148Y-147090905D01*
X117240070Y-147011095D01*
X117174905Y-146945930D01*
X117095095Y-146899852D01*
X117006078Y-146876000D01*
X116956446Y-146876000D01*
X117420160Y-146412286D01*
X128409500Y-146412286D01*
X128437272Y-146587635D01*
X128442754Y-146622243D01*
X128494167Y-146780476D01*
X128508444Y-146824414D01*
X128604951Y-147013820D01*
X128729890Y-147185786D01*
X128880213Y-147336109D01*
X129052179Y-147461048D01*
X129052181Y-147461049D01*
X129052184Y-147461051D01*
X129241588Y-147557557D01*
X129443757Y-147623246D01*
X129653713Y-147656500D01*
X129653714Y-147656500D01*
X131066286Y-147656500D01*
X131066287Y-147656500D01*
X131276243Y-147623246D01*
X131478412Y-147557557D01*
X131667816Y-147461051D01*
X131695545Y-147440905D01*
X131839786Y-147336109D01*
X131839788Y-147336106D01*
X131839792Y-147336104D01*
X131990104Y-147185792D01*
X131990106Y-147185788D01*
X131990109Y-147185786D01*
X132115048Y-147013820D01*
X132115047Y-147013820D01*
X132115051Y-147013816D01*
X132211557Y-146824412D01*
X132277246Y-146622243D01*
X132310500Y-146412287D01*
X132310500Y-146199713D01*
X132277246Y-145989757D01*
X132211557Y-145787588D01*
X132115051Y-145598184D01*
X132115049Y-145598181D01*
X132115048Y-145598179D01*
X131990109Y-145426213D01*
X131839786Y-145275890D01*
X131667820Y-145150951D01*
X131478414Y-145054444D01*
X131478413Y-145054443D01*
X131478412Y-145054443D01*
X131276243Y-144988754D01*
X131276241Y-144988753D01*
X131276240Y-144988753D01*
X131114957Y-144963208D01*
X131066287Y-144955500D01*
X129653713Y-144955500D01*
X129605042Y-144963208D01*
X129443760Y-144988753D01*
X129241585Y-145054444D01*
X129052179Y-145150951D01*
X128880213Y-145275890D01*
X128729890Y-145426213D01*
X128604951Y-145598179D01*
X128508444Y-145787585D01*
X128442753Y-145989760D01*
X128409500Y-146199713D01*
X128409500Y-146412286D01*
X117420160Y-146412286D01*
X117613327Y-146219119D01*
X117497178Y-146147202D01*
X117497177Y-146147201D01*
X117289804Y-146066865D01*
X117107004Y-146032694D01*
X117044723Y-146001026D01*
X117009450Y-145940714D01*
X117012384Y-145870906D01*
X117042104Y-145823129D01*
X121452946Y-141412287D01*
X128409500Y-141412287D01*
X128442754Y-141622243D01*
X128499309Y-141796302D01*
X128508444Y-141824414D01*
X128604951Y-142013820D01*
X128729890Y-142185786D01*
X128880213Y-142336109D01*
X129052179Y-142461048D01*
X129052181Y-142461049D01*
X129052184Y-142461051D01*
X129241588Y-142557557D01*
X129443757Y-142623246D01*
X129653713Y-142656500D01*
X129653714Y-142656500D01*
X131066286Y-142656500D01*
X131066287Y-142656500D01*
X131276243Y-142623246D01*
X131478412Y-142557557D01*
X131667816Y-142461051D01*
X131689789Y-142445086D01*
X131839786Y-142336109D01*
X131839788Y-142336106D01*
X131839792Y-142336104D01*
X131990104Y-142185792D01*
X131990106Y-142185788D01*
X131990109Y-142185786D01*
X132115048Y-142013820D01*
X132115047Y-142013820D01*
X132115051Y-142013816D01*
X132211557Y-141824412D01*
X132277246Y-141622243D01*
X132310500Y-141412287D01*
X132310500Y-141199713D01*
X132277246Y-140989757D01*
X132211557Y-140787588D01*
X132115051Y-140598184D01*
X132115049Y-140598181D01*
X132115048Y-140598179D01*
X131990109Y-140426213D01*
X131839786Y-140275890D01*
X131667820Y-140150951D01*
X131478414Y-140054444D01*
X131478413Y-140054443D01*
X131478412Y-140054443D01*
X131276243Y-139988754D01*
X131276241Y-139988753D01*
X131276240Y-139988753D01*
X131114957Y-139963208D01*
X131066287Y-139955500D01*
X129653713Y-139955500D01*
X129605042Y-139963208D01*
X129443760Y-139988753D01*
X129443757Y-139988754D01*
X129281352Y-140041523D01*
X129241585Y-140054444D01*
X129052179Y-140150951D01*
X128880213Y-140275890D01*
X128729890Y-140426213D01*
X128604951Y-140598179D01*
X128508444Y-140787585D01*
X128442753Y-140989760D01*
X128409500Y-141199713D01*
X128409500Y-141412287D01*
X121452946Y-141412287D01*
X123468682Y-139396551D01*
X135459500Y-139396551D01*
X135487829Y-139575410D01*
X135543787Y-139747636D01*
X135543788Y-139747639D01*
X135626006Y-139908997D01*
X135732441Y-140055494D01*
X135732445Y-140055499D01*
X135860500Y-140183554D01*
X135860505Y-140183558D01*
X135925368Y-140230683D01*
X136007006Y-140289996D01*
X136112484Y-140343740D01*
X136168360Y-140372211D01*
X136168363Y-140372212D01*
X136254476Y-140400191D01*
X136340591Y-140428171D01*
X136423429Y-140441291D01*
X136519449Y-140456500D01*
X136519454Y-140456500D01*
X136700551Y-140456500D01*
X136787259Y-140442765D01*
X136879409Y-140428171D01*
X137051639Y-140372211D01*
X137212994Y-140289996D01*
X137359501Y-140183553D01*
X137487553Y-140055501D01*
X137593996Y-139908994D01*
X137676211Y-139747639D01*
X137732171Y-139575409D01*
X137746907Y-139482368D01*
X137760500Y-139396551D01*
X137760500Y-139215448D01*
X137744019Y-139111397D01*
X137732171Y-139036591D01*
X137677492Y-138868303D01*
X137676212Y-138864363D01*
X137676211Y-138864360D01*
X137641379Y-138796000D01*
X137593996Y-138703006D01*
X137551036Y-138643876D01*
X137487558Y-138556505D01*
X137487554Y-138556500D01*
X137359499Y-138428445D01*
X137359494Y-138428441D01*
X137212997Y-138322006D01*
X137212996Y-138322005D01*
X137212994Y-138322004D01*
X137161300Y-138295664D01*
X137051639Y-138239788D01*
X137051636Y-138239787D01*
X136879410Y-138183829D01*
X136700551Y-138155500D01*
X136700546Y-138155500D01*
X136519454Y-138155500D01*
X136519449Y-138155500D01*
X136340589Y-138183829D01*
X136168363Y-138239787D01*
X136168360Y-138239788D01*
X136007002Y-138322006D01*
X135860505Y-138428441D01*
X135860500Y-138428445D01*
X135732445Y-138556500D01*
X135732441Y-138556505D01*
X135626006Y-138703002D01*
X135543788Y-138864360D01*
X135543787Y-138864363D01*
X135487829Y-139036589D01*
X135459500Y-139215448D01*
X135459500Y-139396551D01*
X123468682Y-139396551D01*
X138347821Y-124517412D01*
X138409142Y-124483929D01*
X138478834Y-124488913D01*
X138534767Y-124530785D01*
X138559184Y-124596249D01*
X138559500Y-124605095D01*
X138559500Y-144745676D01*
X138559499Y-144745694D01*
X138559499Y-144911400D01*
X138559498Y-144911400D01*
X138600423Y-145064131D01*
X138629358Y-145114246D01*
X138629359Y-145114250D01*
X138629360Y-145114250D01*
X138679479Y-145201060D01*
X138679481Y-145201063D01*
X138798349Y-145319931D01*
X138798355Y-145319936D01*
X141298793Y-147820374D01*
X141298803Y-147820385D01*
X141303133Y-147824715D01*
X141303134Y-147824716D01*
X141414938Y-147936520D01*
X141501749Y-147986639D01*
X141501751Y-147986641D01*
X141539805Y-148008611D01*
X141551869Y-148015577D01*
X141704597Y-148056500D01*
X141862711Y-148056500D01*
X147743331Y-148056500D01*
X147743347Y-148056501D01*
X147750943Y-148056501D01*
X147909054Y-148056501D01*
X147909057Y-148056501D01*
X148061785Y-148015577D01*
X148061787Y-148015576D01*
X148073495Y-148008816D01*
X148141395Y-147992340D01*
X148207423Y-148015189D01*
X148250616Y-148070109D01*
X148259500Y-148116200D01*
X148259500Y-148124306D01*
X148239815Y-148191345D01*
X148206623Y-148225881D01*
X148020859Y-148355953D01*
X147859954Y-148516858D01*
X147729432Y-148703265D01*
X147729431Y-148703267D01*
X147633261Y-148909502D01*
X147633258Y-148909511D01*
X147574366Y-149129302D01*
X147574364Y-149129313D01*
X147554532Y-149355998D01*
X147554532Y-149356001D01*
X147574364Y-149582686D01*
X147574366Y-149582697D01*
X147633258Y-149802488D01*
X147633261Y-149802497D01*
X147729431Y-150008732D01*
X147729432Y-150008734D01*
X147859954Y-150195141D01*
X148020858Y-150356045D01*
X148020861Y-150356047D01*
X148207266Y-150486568D01*
X148222387Y-150493619D01*
X148274825Y-150539791D01*
X148293976Y-150606985D01*
X148273760Y-150673866D01*
X148222387Y-150718380D01*
X148207266Y-150725432D01*
X148207264Y-150725433D01*
X148020858Y-150855954D01*
X147859954Y-151016858D01*
X147729432Y-151203265D01*
X147729431Y-151203267D01*
X147633261Y-151409502D01*
X147633258Y-151409511D01*
X147574366Y-151629302D01*
X147574364Y-151629313D01*
X147554532Y-151855998D01*
X147554532Y-151856001D01*
X147574364Y-152082686D01*
X147574366Y-152082697D01*
X147633258Y-152302488D01*
X147633261Y-152302497D01*
X147729431Y-152508732D01*
X147729432Y-152508734D01*
X147859954Y-152695141D01*
X148020858Y-152856045D01*
X148020861Y-152856047D01*
X148207266Y-152986568D01*
X148413504Y-153082739D01*
X148633308Y-153141635D01*
X148795230Y-153155801D01*
X148859998Y-153161468D01*
X148860000Y-153161468D01*
X148860002Y-153161468D01*
X148916673Y-153156509D01*
X149086692Y-153141635D01*
X149306496Y-153082739D01*
X149512734Y-152986568D01*
X149699139Y-152856047D01*
X149860047Y-152695139D01*
X149990568Y-152508734D01*
X150086739Y-152302496D01*
X150145635Y-152082692D01*
X150165468Y-151856000D01*
X150145635Y-151629308D01*
X150086739Y-151409504D01*
X149990568Y-151203266D01*
X149860047Y-151016861D01*
X149860045Y-151016858D01*
X149699141Y-150855954D01*
X149512734Y-150725432D01*
X149497614Y-150718381D01*
X149445176Y-150672211D01*
X149426023Y-150605018D01*
X149446238Y-150538136D01*
X149497614Y-150493618D01*
X149512734Y-150486568D01*
X149699139Y-150356047D01*
X149860047Y-150195139D01*
X149990568Y-150008734D01*
X150086739Y-149802496D01*
X150145635Y-149582692D01*
X150165468Y-149356000D01*
X150145635Y-149129308D01*
X150086739Y-148909504D01*
X149990568Y-148703266D01*
X149860047Y-148516861D01*
X149860045Y-148516858D01*
X149699140Y-148355953D01*
X149513377Y-148225881D01*
X149469752Y-148171304D01*
X149460500Y-148124306D01*
X149460500Y-147535244D01*
X149480185Y-147468205D01*
X149516107Y-147432880D01*
X150306672Y-147432880D01*
X150422821Y-147504797D01*
X150422822Y-147504798D01*
X150630195Y-147585134D01*
X150848807Y-147626000D01*
X151071193Y-147626000D01*
X151289809Y-147585133D01*
X151497168Y-147504801D01*
X151497181Y-147504795D01*
X151613326Y-147432879D01*
X150960001Y-146779553D01*
X150960000Y-146779553D01*
X150306672Y-147432879D01*
X150306672Y-147432880D01*
X149516107Y-147432880D01*
X149519220Y-147429819D01*
X149586562Y-147388124D01*
X149713858Y-147272078D01*
X149750978Y-147238239D01*
X149750978Y-147238238D01*
X149750981Y-147238236D01*
X149833057Y-147129548D01*
X149889161Y-147087916D01*
X149940596Y-147080576D01*
X149951139Y-147081307D01*
X150560369Y-146472078D01*
X150610000Y-146472078D01*
X150633852Y-146561095D01*
X150679930Y-146640905D01*
X150745095Y-146706070D01*
X150824905Y-146752148D01*
X150913922Y-146776000D01*
X151006078Y-146776000D01*
X151095095Y-146752148D01*
X151174905Y-146706070D01*
X151240070Y-146640905D01*
X151286148Y-146561095D01*
X151310000Y-146472078D01*
X151310000Y-146426000D01*
X151313553Y-146426000D01*
X151968861Y-147081308D01*
X151984631Y-147060425D01*
X151984633Y-147060422D01*
X152083759Y-146861350D01*
X152144621Y-146647439D01*
X152165141Y-146426000D01*
X152165141Y-146425999D01*
X152144621Y-146204560D01*
X152083759Y-145990649D01*
X151984635Y-145791580D01*
X151984630Y-145791572D01*
X151968860Y-145770690D01*
X151313553Y-146425999D01*
X151313553Y-146426000D01*
X151310000Y-146426000D01*
X151310000Y-146379922D01*
X151286148Y-146290905D01*
X151240070Y-146211095D01*
X151174905Y-146145930D01*
X151095095Y-146099852D01*
X151006078Y-146076000D01*
X150913922Y-146076000D01*
X150824905Y-146099852D01*
X150745095Y-146145930D01*
X150679930Y-146211095D01*
X150633852Y-146290905D01*
X150610000Y-146379922D01*
X150610000Y-146472078D01*
X150560369Y-146472078D01*
X150606447Y-146426000D01*
X149951137Y-145770690D01*
X149940595Y-145771422D01*
X149872354Y-145756427D01*
X149833055Y-145722447D01*
X149750979Y-145613761D01*
X149586562Y-145463876D01*
X149586560Y-145463874D01*
X149514278Y-145419119D01*
X150306671Y-145419119D01*
X150960000Y-146072447D01*
X150960001Y-146072447D01*
X151613327Y-145419119D01*
X151497178Y-145347202D01*
X151497177Y-145347201D01*
X151289804Y-145266865D01*
X151071193Y-145226000D01*
X150848807Y-145226000D01*
X150630195Y-145266865D01*
X150422824Y-145347200D01*
X150422823Y-145347201D01*
X150306671Y-145419119D01*
X149514278Y-145419119D01*
X149397404Y-145346754D01*
X149397398Y-145346752D01*
X149189940Y-145266382D01*
X148971243Y-145225500D01*
X148748757Y-145225500D01*
X148530060Y-145266382D01*
X148505502Y-145275896D01*
X148322601Y-145346752D01*
X148322595Y-145346754D01*
X148133439Y-145463874D01*
X148133437Y-145463876D01*
X147969020Y-145613761D01*
X147834943Y-145791308D01*
X147834938Y-145791316D01*
X147735775Y-145990461D01*
X147735769Y-145990476D01*
X147674885Y-146204462D01*
X147674884Y-146204464D01*
X147654357Y-146425999D01*
X147654357Y-146426000D01*
X147674885Y-146647537D01*
X147680270Y-146666463D01*
X147679683Y-146736330D01*
X147648687Y-146788077D01*
X147617585Y-146819180D01*
X147556262Y-146852666D01*
X147529902Y-146855500D01*
X144872127Y-146855500D01*
X144805088Y-146835815D01*
X144759333Y-146783011D01*
X144749389Y-146713853D01*
X144754196Y-146693182D01*
X144777246Y-146622243D01*
X144810500Y-146412287D01*
X144810500Y-146199713D01*
X144777246Y-145989757D01*
X144711557Y-145787588D01*
X144615051Y-145598184D01*
X144615049Y-145598181D01*
X144615048Y-145598179D01*
X144490109Y-145426213D01*
X144339786Y-145275890D01*
X144167820Y-145150951D01*
X143978416Y-145054444D01*
X143780176Y-144990032D01*
X143722501Y-144950594D01*
X143695303Y-144886235D01*
X143707218Y-144817389D01*
X143730811Y-144784423D01*
X148500319Y-140014914D01*
X148561640Y-139981431D01*
X148610783Y-139980708D01*
X148748757Y-140006500D01*
X148748759Y-140006500D01*
X148971241Y-140006500D01*
X148971243Y-140006500D01*
X149189940Y-139965618D01*
X149397401Y-139885247D01*
X149586562Y-139768124D01*
X149750981Y-139618236D01*
X149811047Y-139538695D01*
X149867154Y-139497060D01*
X149936866Y-139492368D01*
X149998048Y-139526110D01*
X150008947Y-139538688D01*
X150069019Y-139618236D01*
X150222467Y-139758123D01*
X150233437Y-139768123D01*
X150233439Y-139768125D01*
X150422595Y-139885245D01*
X150422596Y-139885245D01*
X150422599Y-139885247D01*
X150630060Y-139965618D01*
X150848757Y-140006500D01*
X150848759Y-140006500D01*
X151071241Y-140006500D01*
X151071243Y-140006500D01*
X151289940Y-139965618D01*
X151497401Y-139885247D01*
X151686562Y-139768124D01*
X151850981Y-139618236D01*
X151985058Y-139440689D01*
X152084229Y-139241528D01*
X152145115Y-139027536D01*
X152165643Y-138806000D01*
X152145115Y-138584464D01*
X152084229Y-138370472D01*
X152079250Y-138360472D01*
X151985061Y-138171316D01*
X151985056Y-138171308D01*
X151850979Y-137993761D01*
X151686562Y-137843876D01*
X151686560Y-137843874D01*
X151497404Y-137726754D01*
X151497398Y-137726752D01*
X151289940Y-137646382D01*
X151071243Y-137605500D01*
X150848757Y-137605500D01*
X150630060Y-137646382D01*
X150525848Y-137686754D01*
X150422601Y-137726752D01*
X150422595Y-137726754D01*
X150233439Y-137843874D01*
X150233437Y-137843876D01*
X150069020Y-137993761D01*
X150008954Y-138073303D01*
X149952845Y-138114939D01*
X149883133Y-138119630D01*
X149821951Y-138085888D01*
X149811046Y-138073303D01*
X149750979Y-137993761D01*
X149586562Y-137843876D01*
X149586560Y-137843874D01*
X149397404Y-137726754D01*
X149397398Y-137726752D01*
X149189940Y-137646382D01*
X148971243Y-137605500D01*
X148748757Y-137605500D01*
X148530060Y-137646382D01*
X148425848Y-137686754D01*
X148322601Y-137726752D01*
X148322595Y-137726754D01*
X148133439Y-137843874D01*
X148133437Y-137843876D01*
X147969020Y-137993761D01*
X147834943Y-138171308D01*
X147834938Y-138171316D01*
X147735775Y-138370461D01*
X147735769Y-138370476D01*
X147674885Y-138584462D01*
X147674884Y-138584464D01*
X147654357Y-138805999D01*
X147654357Y-138806000D01*
X147674885Y-139027537D01*
X147680270Y-139046463D01*
X147679683Y-139116330D01*
X147648685Y-139168078D01*
X144941626Y-141875137D01*
X144880303Y-141908622D01*
X144810611Y-141903638D01*
X144754678Y-141861766D01*
X144730261Y-141796302D01*
X144736013Y-141749144D01*
X144777246Y-141622243D01*
X144810500Y-141412287D01*
X144810500Y-141199713D01*
X144777246Y-140989757D01*
X144711557Y-140787588D01*
X144615051Y-140598184D01*
X144615049Y-140598181D01*
X144615048Y-140598179D01*
X144490109Y-140426213D01*
X144339786Y-140275890D01*
X144167820Y-140150951D01*
X143978414Y-140054444D01*
X143978413Y-140054443D01*
X143978412Y-140054443D01*
X143776243Y-139988754D01*
X143776241Y-139988753D01*
X143776240Y-139988753D01*
X143614957Y-139963208D01*
X143566287Y-139955500D01*
X142153713Y-139955500D01*
X142105042Y-139963208D01*
X141943760Y-139988753D01*
X141943757Y-139988754D01*
X141781352Y-140041523D01*
X141741585Y-140054444D01*
X141552179Y-140150951D01*
X141380213Y-140275890D01*
X141229890Y-140426213D01*
X141104951Y-140598179D01*
X141008444Y-140787585D01*
X140942753Y-140989760D01*
X140909500Y-141199713D01*
X140909500Y-141412287D01*
X140942754Y-141622243D01*
X140999309Y-141796302D01*
X141008444Y-141824414D01*
X141104951Y-142013820D01*
X141229890Y-142185786D01*
X141380213Y-142336109D01*
X141552179Y-142461048D01*
X141552181Y-142461049D01*
X141552184Y-142461051D01*
X141741588Y-142557557D01*
X141943757Y-142623246D01*
X142153713Y-142656500D01*
X142153714Y-142656500D01*
X143566286Y-142656500D01*
X143566287Y-142656500D01*
X143776243Y-142623246D01*
X143903141Y-142582013D01*
X143972978Y-142580019D01*
X144032811Y-142616099D01*
X144063640Y-142678799D01*
X144055676Y-142748214D01*
X144029137Y-142787626D01*
X142491286Y-144325478D01*
X142379481Y-144437282D01*
X142379479Y-144437285D01*
X142329361Y-144524094D01*
X142329359Y-144524096D01*
X142300425Y-144574209D01*
X142300424Y-144574210D01*
X142284544Y-144633472D01*
X142259499Y-144726943D01*
X142259499Y-144726945D01*
X142259499Y-144832839D01*
X142239814Y-144899878D01*
X142187010Y-144945633D01*
X142154897Y-144955312D01*
X141943760Y-144988753D01*
X141741585Y-145054444D01*
X141552179Y-145150951D01*
X141380213Y-145275890D01*
X141229890Y-145426213D01*
X141104949Y-145598182D01*
X141071084Y-145664645D01*
X141023109Y-145715441D01*
X140955288Y-145732235D01*
X140889153Y-145709697D01*
X140872919Y-145696030D01*
X139796819Y-144619930D01*
X139763334Y-144558607D01*
X139760500Y-144532249D01*
X139760500Y-133896551D01*
X150959500Y-133896551D01*
X150987829Y-134075410D01*
X151043787Y-134247636D01*
X151043788Y-134247639D01*
X151126006Y-134408997D01*
X151232441Y-134555494D01*
X151232445Y-134555499D01*
X151360500Y-134683554D01*
X151360505Y-134683558D01*
X151488287Y-134776396D01*
X151507006Y-134789996D01*
X151612484Y-134843740D01*
X151668360Y-134872211D01*
X151668363Y-134872212D01*
X151754476Y-134900191D01*
X151840591Y-134928171D01*
X151923429Y-134941291D01*
X152019449Y-134956500D01*
X152019454Y-134956500D01*
X152200551Y-134956500D01*
X152287259Y-134942765D01*
X152379409Y-134928171D01*
X152551639Y-134872211D01*
X152712994Y-134789996D01*
X152859501Y-134683553D01*
X152987553Y-134555501D01*
X153093996Y-134408994D01*
X153176211Y-134247639D01*
X153232171Y-134075409D01*
X153246765Y-133983259D01*
X153260500Y-133896551D01*
X153260500Y-133715448D01*
X153244019Y-133611397D01*
X153232171Y-133536591D01*
X153204191Y-133450476D01*
X153176212Y-133364363D01*
X153176211Y-133364360D01*
X153133481Y-133280500D01*
X153093996Y-133203006D01*
X153067376Y-133166366D01*
X152987558Y-133056505D01*
X152987554Y-133056500D01*
X152859499Y-132928445D01*
X152859494Y-132928441D01*
X152712997Y-132822006D01*
X152712996Y-132822005D01*
X152712994Y-132822004D01*
X152661300Y-132795664D01*
X152551639Y-132739788D01*
X152551636Y-132739787D01*
X152379410Y-132683829D01*
X152200551Y-132655500D01*
X152200546Y-132655500D01*
X152019454Y-132655500D01*
X152019449Y-132655500D01*
X151840589Y-132683829D01*
X151668363Y-132739787D01*
X151668360Y-132739788D01*
X151507002Y-132822006D01*
X151360505Y-132928441D01*
X151360500Y-132928445D01*
X151232445Y-133056500D01*
X151232441Y-133056505D01*
X151126006Y-133203002D01*
X151043788Y-133364360D01*
X151043787Y-133364363D01*
X150987829Y-133536589D01*
X150959500Y-133715448D01*
X150959500Y-133896551D01*
X139760500Y-133896551D01*
X139760500Y-131912286D01*
X143909500Y-131912286D01*
X143942753Y-132122239D01*
X144008444Y-132324414D01*
X144104951Y-132513820D01*
X144229890Y-132685786D01*
X144380213Y-132836109D01*
X144552179Y-132961048D01*
X144552181Y-132961049D01*
X144552184Y-132961051D01*
X144741588Y-133057557D01*
X144943757Y-133123246D01*
X145153713Y-133156500D01*
X145153714Y-133156500D01*
X146566286Y-133156500D01*
X146566287Y-133156500D01*
X146776243Y-133123246D01*
X146978412Y-133057557D01*
X147167816Y-132961051D01*
X147212700Y-132928441D01*
X147339786Y-132836109D01*
X147339788Y-132836106D01*
X147339792Y-132836104D01*
X147490104Y-132685792D01*
X147490106Y-132685788D01*
X147490109Y-132685786D01*
X147615048Y-132513820D01*
X147615047Y-132513820D01*
X147615051Y-132513816D01*
X147711557Y-132324412D01*
X147777246Y-132122243D01*
X147810500Y-131912287D01*
X147810500Y-131699713D01*
X147777246Y-131489757D01*
X147711557Y-131287588D01*
X147615051Y-131098184D01*
X147615049Y-131098181D01*
X147615048Y-131098179D01*
X147490109Y-130926213D01*
X147339786Y-130775890D01*
X147167820Y-130650951D01*
X146978414Y-130554444D01*
X146978413Y-130554443D01*
X146978412Y-130554443D01*
X146776243Y-130488754D01*
X146776241Y-130488753D01*
X146776240Y-130488753D01*
X146614957Y-130463208D01*
X146566287Y-130455500D01*
X145153713Y-130455500D01*
X145105042Y-130463208D01*
X144943760Y-130488753D01*
X144741585Y-130554444D01*
X144552179Y-130650951D01*
X144380213Y-130775890D01*
X144229890Y-130926213D01*
X144104951Y-131098179D01*
X144008444Y-131287585D01*
X143942753Y-131489760D01*
X143909500Y-131699713D01*
X143909500Y-131912286D01*
X139760500Y-131912286D01*
X139760500Y-126912287D01*
X143909500Y-126912287D01*
X143942754Y-127122243D01*
X144002871Y-127307264D01*
X144008444Y-127324414D01*
X144104951Y-127513820D01*
X144229890Y-127685786D01*
X144380213Y-127836109D01*
X144552179Y-127961048D01*
X144552181Y-127961049D01*
X144552184Y-127961051D01*
X144741588Y-128057557D01*
X144943757Y-128123246D01*
X145153713Y-128156500D01*
X145153714Y-128156500D01*
X146566286Y-128156500D01*
X146566287Y-128156500D01*
X146776243Y-128123246D01*
X146978412Y-128057557D01*
X147167816Y-127961051D01*
X147189789Y-127945086D01*
X147339786Y-127836109D01*
X147339788Y-127836106D01*
X147339792Y-127836104D01*
X147490104Y-127685792D01*
X147490106Y-127685788D01*
X147490109Y-127685786D01*
X147615048Y-127513820D01*
X147615047Y-127513820D01*
X147615051Y-127513816D01*
X147711557Y-127324412D01*
X147777246Y-127122243D01*
X147810500Y-126912287D01*
X156409500Y-126912287D01*
X156442754Y-127122243D01*
X156502871Y-127307264D01*
X156508444Y-127324414D01*
X156604951Y-127513820D01*
X156729890Y-127685786D01*
X156880213Y-127836109D01*
X157052179Y-127961048D01*
X157052181Y-127961049D01*
X157052184Y-127961051D01*
X157241588Y-128057557D01*
X157443757Y-128123246D01*
X157653713Y-128156500D01*
X157653714Y-128156500D01*
X159066286Y-128156500D01*
X159066287Y-128156500D01*
X159276243Y-128123246D01*
X159478412Y-128057557D01*
X159667816Y-127961051D01*
X159689789Y-127945086D01*
X159839786Y-127836109D01*
X159839788Y-127836106D01*
X159839792Y-127836104D01*
X159990104Y-127685792D01*
X159990106Y-127685788D01*
X159990109Y-127685786D01*
X160115048Y-127513820D01*
X160115047Y-127513820D01*
X160115051Y-127513816D01*
X160211557Y-127324412D01*
X160277246Y-127122243D01*
X160310500Y-126912287D01*
X160310500Y-126699713D01*
X160277246Y-126489757D01*
X160211557Y-126287588D01*
X160115051Y-126098184D01*
X160115049Y-126098181D01*
X160115048Y-126098179D01*
X159990109Y-125926213D01*
X159839786Y-125775890D01*
X159667820Y-125650951D01*
X159478414Y-125554444D01*
X159478413Y-125554443D01*
X159478412Y-125554443D01*
X159276243Y-125488754D01*
X159276241Y-125488753D01*
X159276240Y-125488753D01*
X159114957Y-125463208D01*
X159066287Y-125455500D01*
X157653713Y-125455500D01*
X157605042Y-125463208D01*
X157443760Y-125488753D01*
X157241585Y-125554444D01*
X157052179Y-125650951D01*
X156880213Y-125775890D01*
X156729890Y-125926213D01*
X156604951Y-126098179D01*
X156508444Y-126287585D01*
X156442753Y-126489760D01*
X156409500Y-126699713D01*
X156409500Y-126912287D01*
X147810500Y-126912287D01*
X147810500Y-126699713D01*
X147777246Y-126489757D01*
X147711557Y-126287588D01*
X147615051Y-126098184D01*
X147615049Y-126098181D01*
X147615048Y-126098179D01*
X147490109Y-125926213D01*
X147339786Y-125775890D01*
X147167820Y-125650951D01*
X146978414Y-125554444D01*
X146978413Y-125554443D01*
X146978412Y-125554443D01*
X146776243Y-125488754D01*
X146776241Y-125488753D01*
X146776240Y-125488753D01*
X146614957Y-125463208D01*
X146566287Y-125455500D01*
X145153713Y-125455500D01*
X145105042Y-125463208D01*
X144943760Y-125488753D01*
X144741585Y-125554444D01*
X144552179Y-125650951D01*
X144380213Y-125775890D01*
X144229890Y-125926213D01*
X144104951Y-126098179D01*
X144008444Y-126287585D01*
X143942753Y-126489760D01*
X143909500Y-126699713D01*
X143909500Y-126912287D01*
X139760500Y-126912287D01*
X139760500Y-124896551D01*
X150959500Y-124896551D01*
X150987829Y-125075410D01*
X151043787Y-125247636D01*
X151043788Y-125247639D01*
X151126006Y-125408997D01*
X151232441Y-125555494D01*
X151232445Y-125555499D01*
X151360500Y-125683554D01*
X151360505Y-125683558D01*
X151487591Y-125775890D01*
X151507006Y-125789996D01*
X151612484Y-125843740D01*
X151668360Y-125872211D01*
X151668363Y-125872212D01*
X151754476Y-125900191D01*
X151840591Y-125928171D01*
X151923429Y-125941291D01*
X152019449Y-125956500D01*
X152019454Y-125956500D01*
X152200551Y-125956500D01*
X152287259Y-125942765D01*
X152379409Y-125928171D01*
X152551639Y-125872211D01*
X152712994Y-125789996D01*
X152859501Y-125683553D01*
X152987553Y-125555501D01*
X153093996Y-125408994D01*
X153176211Y-125247639D01*
X153232171Y-125075409D01*
X153246765Y-124983259D01*
X153260500Y-124896551D01*
X153260500Y-124715448D01*
X153241620Y-124596249D01*
X153232171Y-124536591D01*
X153176211Y-124364361D01*
X153176211Y-124364360D01*
X153146340Y-124305736D01*
X153093996Y-124203006D01*
X153080396Y-124184287D01*
X152987558Y-124056505D01*
X152987554Y-124056500D01*
X152859499Y-123928445D01*
X152859494Y-123928441D01*
X152712997Y-123822006D01*
X152712996Y-123822005D01*
X152712994Y-123822004D01*
X152661300Y-123795664D01*
X152551639Y-123739788D01*
X152551636Y-123739787D01*
X152379410Y-123683829D01*
X152200551Y-123655500D01*
X152200546Y-123655500D01*
X152019454Y-123655500D01*
X152019449Y-123655500D01*
X151840589Y-123683829D01*
X151668363Y-123739787D01*
X151668360Y-123739788D01*
X151507002Y-123822006D01*
X151360505Y-123928441D01*
X151360500Y-123928445D01*
X151232445Y-124056500D01*
X151232441Y-124056505D01*
X151126006Y-124203002D01*
X151043788Y-124364360D01*
X151043787Y-124364363D01*
X150987829Y-124536589D01*
X150959500Y-124715448D01*
X150959500Y-124896551D01*
X139760500Y-124896551D01*
X139760500Y-117412287D01*
X140909500Y-117412287D01*
X140942754Y-117622243D01*
X140983089Y-117746382D01*
X141008444Y-117824414D01*
X141104951Y-118013820D01*
X141229890Y-118185786D01*
X141380213Y-118336109D01*
X141552179Y-118461048D01*
X141552181Y-118461049D01*
X141552184Y-118461051D01*
X141741588Y-118557557D01*
X141943757Y-118623246D01*
X142153713Y-118656500D01*
X143309902Y-118656500D01*
X143376941Y-118676185D01*
X143397583Y-118692819D01*
X144091284Y-119386520D01*
X144091286Y-119386521D01*
X144091290Y-119386524D01*
X144181658Y-119438697D01*
X144228216Y-119465577D01*
X144380943Y-119506501D01*
X144380945Y-119506501D01*
X144546654Y-119506501D01*
X144546670Y-119506500D01*
X153447379Y-119506500D01*
X153514418Y-119526185D01*
X153546333Y-119555773D01*
X153669020Y-119718238D01*
X153833437Y-119868123D01*
X153833439Y-119868125D01*
X154022595Y-119985245D01*
X154022596Y-119985245D01*
X154022599Y-119985247D01*
X154230060Y-120065618D01*
X154448757Y-120106500D01*
X154448759Y-120106500D01*
X154671241Y-120106500D01*
X154671243Y-120106500D01*
X154889940Y-120065618D01*
X155097401Y-119985247D01*
X155286562Y-119868124D01*
X155450981Y-119718236D01*
X155511047Y-119638695D01*
X155567154Y-119597060D01*
X155636866Y-119592368D01*
X155698048Y-119626110D01*
X155708947Y-119638688D01*
X155762661Y-119709816D01*
X155769021Y-119718238D01*
X155933437Y-119868123D01*
X155933439Y-119868125D01*
X156122595Y-119985245D01*
X156122596Y-119985245D01*
X156122599Y-119985247D01*
X156330060Y-120065618D01*
X156548757Y-120106500D01*
X156548759Y-120106500D01*
X156771241Y-120106500D01*
X156771243Y-120106500D01*
X156989940Y-120065618D01*
X157197401Y-119985247D01*
X157386562Y-119868124D01*
X157550981Y-119718236D01*
X157685058Y-119540689D01*
X157784229Y-119341528D01*
X157845115Y-119127536D01*
X157865643Y-118906000D01*
X157845115Y-118684464D01*
X157784229Y-118470472D01*
X157779538Y-118461051D01*
X157685061Y-118271316D01*
X157685056Y-118271308D01*
X157550979Y-118093761D01*
X157386562Y-117943876D01*
X157386560Y-117943874D01*
X157197404Y-117826754D01*
X157197398Y-117826752D01*
X157191358Y-117824412D01*
X156989940Y-117746382D01*
X156771243Y-117705500D01*
X156548757Y-117705500D01*
X156330060Y-117746382D01*
X156198864Y-117797207D01*
X156122601Y-117826752D01*
X156122595Y-117826754D01*
X155933439Y-117943874D01*
X155933437Y-117943876D01*
X155769020Y-118093761D01*
X155708954Y-118173303D01*
X155652845Y-118214939D01*
X155583133Y-118219630D01*
X155521951Y-118185888D01*
X155511046Y-118173303D01*
X155450979Y-118093761D01*
X155286562Y-117943876D01*
X155286560Y-117943874D01*
X155097404Y-117826754D01*
X155097398Y-117826752D01*
X155091358Y-117824412D01*
X154889940Y-117746382D01*
X154671243Y-117705500D01*
X154448757Y-117705500D01*
X154230060Y-117746382D01*
X154098864Y-117797207D01*
X154022601Y-117826752D01*
X154022595Y-117826754D01*
X153833439Y-117943874D01*
X153833437Y-117943876D01*
X153669020Y-118093761D01*
X153546333Y-118256227D01*
X153490224Y-118297863D01*
X153447379Y-118305500D01*
X144760098Y-118305500D01*
X144693059Y-118285815D01*
X144672417Y-118269181D01*
X144606618Y-118203382D01*
X144573133Y-118142059D01*
X144578117Y-118072367D01*
X144593980Y-118042816D01*
X144615051Y-118013816D01*
X144711557Y-117824412D01*
X144777246Y-117622243D01*
X144810500Y-117412287D01*
X144810500Y-117199713D01*
X144777246Y-116989757D01*
X144711557Y-116787588D01*
X144615051Y-116598184D01*
X144615049Y-116598181D01*
X144615048Y-116598179D01*
X144490109Y-116426213D01*
X144339786Y-116275890D01*
X144167820Y-116150951D01*
X143978414Y-116054444D01*
X143978413Y-116054443D01*
X143978412Y-116054443D01*
X143776243Y-115988754D01*
X143776241Y-115988753D01*
X143776240Y-115988753D01*
X143614957Y-115963208D01*
X143566287Y-115955500D01*
X142153713Y-115955500D01*
X142105042Y-115963208D01*
X141943760Y-115988753D01*
X141741585Y-116054444D01*
X141552179Y-116150951D01*
X141380213Y-116275890D01*
X141229890Y-116426213D01*
X141104951Y-116598179D01*
X141008444Y-116787585D01*
X140942753Y-116989760D01*
X140909500Y-117199713D01*
X140909500Y-117412287D01*
X139760500Y-117412287D01*
X139760500Y-112412287D01*
X140909500Y-112412287D01*
X140914779Y-112445617D01*
X140942753Y-112622239D01*
X141008444Y-112824414D01*
X141104951Y-113013820D01*
X141229890Y-113185786D01*
X141380213Y-113336109D01*
X141552179Y-113461048D01*
X141552181Y-113461049D01*
X141552184Y-113461051D01*
X141741588Y-113557557D01*
X141943757Y-113623246D01*
X142153713Y-113656500D01*
X142153714Y-113656500D01*
X143566286Y-113656500D01*
X143566287Y-113656500D01*
X143776243Y-113623246D01*
X143978412Y-113557557D01*
X144167816Y-113461051D01*
X144189789Y-113445086D01*
X144339786Y-113336109D01*
X144339788Y-113336106D01*
X144339792Y-113336104D01*
X144490104Y-113185792D01*
X144490106Y-113185788D01*
X144490109Y-113185786D01*
X144615048Y-113013820D01*
X144615047Y-113013820D01*
X144615051Y-113013816D01*
X144711557Y-112824412D01*
X144777246Y-112622243D01*
X144810500Y-112412287D01*
X144810500Y-112292880D01*
X153906672Y-112292880D01*
X154022821Y-112364797D01*
X154022822Y-112364798D01*
X154230195Y-112445134D01*
X154448807Y-112486000D01*
X154671193Y-112486000D01*
X154889809Y-112445133D01*
X155097168Y-112364801D01*
X155097181Y-112364795D01*
X155213326Y-112292879D01*
X154560001Y-111639553D01*
X154560000Y-111639553D01*
X153906672Y-112292879D01*
X153906672Y-112292880D01*
X144810500Y-112292880D01*
X144810500Y-112199713D01*
X144777246Y-111989757D01*
X144711557Y-111787588D01*
X144615051Y-111598184D01*
X144615049Y-111598181D01*
X144615048Y-111598179D01*
X144490109Y-111426213D01*
X144349896Y-111286000D01*
X153354859Y-111286000D01*
X153375378Y-111507439D01*
X153436240Y-111721350D01*
X153535369Y-111920428D01*
X153551137Y-111941308D01*
X153551138Y-111941308D01*
X154160369Y-111332078D01*
X154210000Y-111332078D01*
X154233852Y-111421095D01*
X154279930Y-111500905D01*
X154345095Y-111566070D01*
X154424905Y-111612148D01*
X154513922Y-111636000D01*
X154606078Y-111636000D01*
X154695095Y-111612148D01*
X154774905Y-111566070D01*
X154840070Y-111500905D01*
X154886148Y-111421095D01*
X154910000Y-111332078D01*
X154910000Y-111239922D01*
X154886148Y-111150905D01*
X154840070Y-111071095D01*
X154774905Y-111005930D01*
X154695095Y-110959852D01*
X154606078Y-110936000D01*
X154513922Y-110936000D01*
X154424905Y-110959852D01*
X154345095Y-111005930D01*
X154279930Y-111071095D01*
X154233852Y-111150905D01*
X154210000Y-111239922D01*
X154210000Y-111332078D01*
X154160369Y-111332078D01*
X154206447Y-111286000D01*
X153551138Y-110630691D01*
X153551137Y-110630691D01*
X153535368Y-110651574D01*
X153436240Y-110850649D01*
X153375378Y-111064560D01*
X153354859Y-111285999D01*
X153354859Y-111286000D01*
X144349896Y-111286000D01*
X144339786Y-111275890D01*
X144167820Y-111150951D01*
X143978414Y-111054444D01*
X143978413Y-111054443D01*
X143978412Y-111054443D01*
X143776243Y-110988754D01*
X143776241Y-110988753D01*
X143776240Y-110988753D01*
X143593764Y-110959852D01*
X143566287Y-110955500D01*
X142153713Y-110955500D01*
X142126236Y-110959852D01*
X141943760Y-110988753D01*
X141741585Y-111054444D01*
X141552179Y-111150951D01*
X141380213Y-111275890D01*
X141229890Y-111426213D01*
X141104951Y-111598179D01*
X141008444Y-111787585D01*
X140942753Y-111989760D01*
X140914959Y-112165245D01*
X140909500Y-112199713D01*
X140909500Y-112412287D01*
X139760500Y-112412287D01*
X139760500Y-110279119D01*
X153906671Y-110279119D01*
X154560000Y-110932447D01*
X154560001Y-110932447D01*
X155213327Y-110279119D01*
X155097178Y-110207202D01*
X155097177Y-110207201D01*
X154889804Y-110126865D01*
X154671193Y-110086000D01*
X154448807Y-110086000D01*
X154230195Y-110126865D01*
X154022824Y-110207200D01*
X154022823Y-110207201D01*
X153906671Y-110279119D01*
X139760500Y-110279119D01*
X139760500Y-100446097D01*
X139780185Y-100379058D01*
X139796819Y-100358416D01*
X140223409Y-99931826D01*
X140770787Y-99384447D01*
X140832108Y-99350964D01*
X140901799Y-99355948D01*
X140957733Y-99397820D01*
X140982150Y-99463284D01*
X140978672Y-99502570D01*
X140944753Y-99636515D01*
X140925738Y-99865994D01*
X140925738Y-99866005D01*
X140944753Y-100095484D01*
X141001282Y-100318714D01*
X141093782Y-100529594D01*
X141219728Y-100722370D01*
X141219731Y-100722373D01*
X141375692Y-100891792D01*
X141489139Y-100980091D01*
X141556868Y-101032807D01*
X141557411Y-101033229D01*
X141759931Y-101142828D01*
X141804764Y-101158219D01*
X141977725Y-101217597D01*
X141977727Y-101217597D01*
X141977729Y-101217598D01*
X142204863Y-101255500D01*
X142204864Y-101255500D01*
X142435136Y-101255500D01*
X142435137Y-101255500D01*
X142662271Y-101217598D01*
X142663693Y-101217110D01*
X142688886Y-101208461D01*
X142880069Y-101142828D01*
X143082589Y-101033229D01*
X143264308Y-100891792D01*
X143420269Y-100722373D01*
X143420271Y-100722370D01*
X143486191Y-100621472D01*
X143539337Y-100576115D01*
X143608569Y-100566691D01*
X143671905Y-100596193D01*
X143693809Y-100621472D01*
X143759728Y-100722370D01*
X143759731Y-100722373D01*
X143915692Y-100891792D01*
X144029139Y-100980091D01*
X144096868Y-101032807D01*
X144097411Y-101033229D01*
X144299931Y-101142828D01*
X144344764Y-101158219D01*
X144517725Y-101217597D01*
X144517727Y-101217597D01*
X144517729Y-101217598D01*
X144744863Y-101255500D01*
X144744864Y-101255500D01*
X144975136Y-101255500D01*
X144975137Y-101255500D01*
X145202271Y-101217598D01*
X145203693Y-101217110D01*
X145228886Y-101208461D01*
X145420069Y-101142828D01*
X145622589Y-101033229D01*
X145804308Y-100891792D01*
X145960269Y-100722373D01*
X146026490Y-100621013D01*
X146079636Y-100575657D01*
X146148868Y-100566233D01*
X146212203Y-100595735D01*
X146234108Y-100621013D01*
X146256760Y-100655685D01*
X146917037Y-99995408D01*
X146934075Y-100058993D01*
X146999901Y-100173007D01*
X147092993Y-100266099D01*
X147207007Y-100331925D01*
X147270590Y-100348962D01*
X146609040Y-101010512D01*
X146609040Y-101010514D01*
X146637677Y-101032803D01*
X146637683Y-101032807D01*
X146840131Y-101142367D01*
X146840140Y-101142370D01*
X147057849Y-101217110D01*
X147284905Y-101255000D01*
X147515095Y-101255000D01*
X147742150Y-101217110D01*
X147959859Y-101142370D01*
X147959868Y-101142367D01*
X148162315Y-101032807D01*
X148162316Y-101032806D01*
X148190958Y-101010513D01*
X148190959Y-101010511D01*
X147529410Y-100348962D01*
X147592993Y-100331925D01*
X147707007Y-100266099D01*
X147800099Y-100173007D01*
X147865925Y-100058993D01*
X147882962Y-99995409D01*
X148543238Y-100655685D01*
X148565892Y-100621012D01*
X148619038Y-100575656D01*
X148688269Y-100566232D01*
X148751605Y-100595734D01*
X148773509Y-100621013D01*
X148839728Y-100722370D01*
X148839731Y-100722373D01*
X148995692Y-100891792D01*
X149109139Y-100980091D01*
X149176868Y-101032807D01*
X149177411Y-101033229D01*
X149379931Y-101142828D01*
X149424764Y-101158219D01*
X149597725Y-101217597D01*
X149597727Y-101217597D01*
X149597729Y-101217598D01*
X149824863Y-101255500D01*
X149824864Y-101255500D01*
X150055136Y-101255500D01*
X150055137Y-101255500D01*
X150282271Y-101217598D01*
X150283693Y-101217110D01*
X150308886Y-101208461D01*
X150500069Y-101142828D01*
X150702589Y-101033229D01*
X150884308Y-100891792D01*
X151040269Y-100722373D01*
X151040271Y-100722370D01*
X151106191Y-100621472D01*
X151159337Y-100576115D01*
X151228569Y-100566691D01*
X151291905Y-100596193D01*
X151313809Y-100621472D01*
X151379728Y-100722370D01*
X151379731Y-100722373D01*
X151535692Y-100891792D01*
X151649139Y-100980091D01*
X151716868Y-101032807D01*
X151717411Y-101033229D01*
X151919931Y-101142828D01*
X151964764Y-101158219D01*
X152137725Y-101217597D01*
X152137727Y-101217597D01*
X152137729Y-101217598D01*
X152364863Y-101255500D01*
X152364864Y-101255500D01*
X152595136Y-101255500D01*
X152595137Y-101255500D01*
X152822271Y-101217598D01*
X152823693Y-101217110D01*
X152848886Y-101208461D01*
X153040069Y-101142828D01*
X153242589Y-101033229D01*
X153424308Y-100891792D01*
X153580269Y-100722373D01*
X153580271Y-100722370D01*
X153646191Y-100621472D01*
X153699337Y-100576115D01*
X153768569Y-100566691D01*
X153831905Y-100596193D01*
X153853809Y-100621472D01*
X153919728Y-100722370D01*
X153919731Y-100722373D01*
X154075692Y-100891792D01*
X154189139Y-100980091D01*
X154256868Y-101032807D01*
X154257411Y-101033229D01*
X154459931Y-101142828D01*
X154504764Y-101158219D01*
X154677725Y-101217597D01*
X154677727Y-101217597D01*
X154677729Y-101217598D01*
X154904863Y-101255500D01*
X154904864Y-101255500D01*
X155135136Y-101255500D01*
X155135137Y-101255500D01*
X155362271Y-101217598D01*
X155363693Y-101217110D01*
X155388886Y-101208461D01*
X155580069Y-101142828D01*
X155782589Y-101033229D01*
X155964308Y-100891792D01*
X156120269Y-100722373D01*
X156120271Y-100722370D01*
X156186191Y-100621472D01*
X156239337Y-100576115D01*
X156308569Y-100566691D01*
X156371905Y-100596193D01*
X156393809Y-100621472D01*
X156459728Y-100722370D01*
X156459731Y-100722373D01*
X156615692Y-100891792D01*
X156729139Y-100980091D01*
X156796868Y-101032807D01*
X156797411Y-101033229D01*
X156999931Y-101142828D01*
X157044764Y-101158219D01*
X157217725Y-101217597D01*
X157217727Y-101217597D01*
X157217729Y-101217598D01*
X157444863Y-101255500D01*
X157444864Y-101255500D01*
X157675136Y-101255500D01*
X157675137Y-101255500D01*
X157902271Y-101217598D01*
X157984237Y-101189458D01*
X158054035Y-101186309D01*
X158114457Y-101221395D01*
X158146317Y-101283577D01*
X158148500Y-101306740D01*
X158148500Y-104944535D01*
X158128815Y-105011574D01*
X158076011Y-105057329D01*
X158006853Y-105067273D01*
X157943297Y-105038248D01*
X157905523Y-104979470D01*
X157904725Y-104976628D01*
X157886741Y-104909511D01*
X157886738Y-104909502D01*
X157790568Y-104703267D01*
X157790567Y-104703265D01*
X157787938Y-104699511D01*
X157660047Y-104516861D01*
X157660045Y-104516858D01*
X157499141Y-104355954D01*
X157312734Y-104225432D01*
X157312732Y-104225431D01*
X157106497Y-104129261D01*
X157106488Y-104129258D01*
X156886697Y-104070366D01*
X156886693Y-104070365D01*
X156886692Y-104070365D01*
X156886691Y-104070364D01*
X156886686Y-104070364D01*
X156660002Y-104050532D01*
X156659998Y-104050532D01*
X156433313Y-104070364D01*
X156433302Y-104070366D01*
X156213511Y-104129258D01*
X156213502Y-104129261D01*
X156007267Y-104225431D01*
X156007265Y-104225432D01*
X155820858Y-104355954D01*
X155659954Y-104516858D01*
X155529432Y-104703265D01*
X155529431Y-104703267D01*
X155433261Y-104909502D01*
X155433258Y-104909511D01*
X155374366Y-105129302D01*
X155374364Y-105129313D01*
X155354532Y-105355998D01*
X155354532Y-105356001D01*
X155374364Y-105582686D01*
X155374366Y-105582697D01*
X155433258Y-105802488D01*
X155433261Y-105802497D01*
X155529431Y-106008732D01*
X155529432Y-106008734D01*
X155659954Y-106195141D01*
X155820858Y-106356045D01*
X155820861Y-106356047D01*
X156007266Y-106486568D01*
X156022387Y-106493619D01*
X156074825Y-106539791D01*
X156093976Y-106606985D01*
X156073760Y-106673866D01*
X156022387Y-106718380D01*
X156007266Y-106725432D01*
X156007264Y-106725433D01*
X155820858Y-106855954D01*
X155659954Y-107016858D01*
X155529432Y-107203265D01*
X155529431Y-107203267D01*
X155433261Y-107409502D01*
X155433258Y-107409511D01*
X155374366Y-107629302D01*
X155374364Y-107629313D01*
X155354532Y-107855998D01*
X155354532Y-107856001D01*
X155374364Y-108082686D01*
X155374366Y-108082697D01*
X155433258Y-108302488D01*
X155433261Y-108302497D01*
X155529431Y-108508732D01*
X155529432Y-108508734D01*
X155659954Y-108695141D01*
X155820858Y-108856045D01*
X155820861Y-108856047D01*
X156006624Y-108986118D01*
X156050248Y-109040693D01*
X156059500Y-109087692D01*
X156059500Y-110176754D01*
X156039815Y-110243793D01*
X156000778Y-110282181D01*
X155933436Y-110323877D01*
X155769020Y-110473761D01*
X155686945Y-110582447D01*
X155630836Y-110624083D01*
X155579405Y-110631422D01*
X155568860Y-110630690D01*
X154913553Y-111285999D01*
X154913553Y-111286000D01*
X155568860Y-111941307D01*
X155579404Y-111940576D01*
X155647646Y-111955571D01*
X155686944Y-111989551D01*
X155769020Y-112098238D01*
X155933437Y-112248123D01*
X155933439Y-112248125D01*
X156122595Y-112365245D01*
X156122596Y-112365245D01*
X156122599Y-112365247D01*
X156330060Y-112445618D01*
X156548757Y-112486500D01*
X156548759Y-112486500D01*
X156771241Y-112486500D01*
X156771243Y-112486500D01*
X156989940Y-112445618D01*
X157197401Y-112365247D01*
X157386562Y-112248124D01*
X157550981Y-112098236D01*
X157685058Y-111920689D01*
X157784229Y-111721528D01*
X157845115Y-111507536D01*
X157865643Y-111286000D01*
X157845115Y-111064464D01*
X157784229Y-110850472D01*
X157762050Y-110805930D01*
X157685061Y-110651316D01*
X157685056Y-110651308D01*
X157550979Y-110473761D01*
X157386563Y-110323877D01*
X157386562Y-110323876D01*
X157319221Y-110282180D01*
X157272587Y-110230153D01*
X157260500Y-110176754D01*
X157260500Y-109087692D01*
X157280185Y-109020653D01*
X157313374Y-108986119D01*
X157499139Y-108856047D01*
X157660047Y-108695139D01*
X157790568Y-108508734D01*
X157886739Y-108302496D01*
X157945635Y-108082692D01*
X157965468Y-107856000D01*
X157945635Y-107629308D01*
X157919847Y-107533066D01*
X157921510Y-107463217D01*
X157951939Y-107413294D01*
X159107506Y-106257728D01*
X159107511Y-106257724D01*
X159117714Y-106247520D01*
X159117716Y-106247520D01*
X159229520Y-106135716D01*
X159301008Y-106011894D01*
X159308577Y-105998785D01*
X159349500Y-105846057D01*
X159349500Y-105687943D01*
X159349500Y-101247871D01*
X159369185Y-101180832D01*
X159421989Y-101135077D01*
X159491147Y-101125133D01*
X159532516Y-101138815D01*
X159539931Y-101142828D01*
X159584764Y-101158219D01*
X159757725Y-101217597D01*
X159757727Y-101217597D01*
X159757729Y-101217598D01*
X159984863Y-101255500D01*
X159984864Y-101255500D01*
X160215136Y-101255500D01*
X160215137Y-101255500D01*
X160442271Y-101217598D01*
X160443693Y-101217110D01*
X160468886Y-101208461D01*
X160646238Y-101147575D01*
X160716035Y-101144426D01*
X160776457Y-101179512D01*
X160808317Y-101241694D01*
X160810500Y-101264857D01*
X160810500Y-137848351D01*
X160790815Y-137915390D01*
X160738011Y-137961145D01*
X160668853Y-137971089D01*
X160605297Y-137942064D01*
X160602962Y-137939988D01*
X160486562Y-137833876D01*
X160486560Y-137833874D01*
X160297404Y-137716754D01*
X160297398Y-137716752D01*
X160089940Y-137636382D01*
X159871243Y-137595500D01*
X159648757Y-137595500D01*
X159430060Y-137636382D01*
X159300035Y-137686754D01*
X159222601Y-137716752D01*
X159222595Y-137716754D01*
X159033439Y-137833874D01*
X159033437Y-137833876D01*
X158869020Y-137983761D01*
X158808954Y-138063303D01*
X158752845Y-138104939D01*
X158683133Y-138109630D01*
X158621951Y-138075888D01*
X158611046Y-138063303D01*
X158550979Y-137983761D01*
X158386563Y-137833877D01*
X158386562Y-137833876D01*
X158319221Y-137792180D01*
X158272587Y-137740153D01*
X158260500Y-137686754D01*
X158260500Y-133280500D01*
X158280185Y-133213461D01*
X158332989Y-133167706D01*
X158384500Y-133156500D01*
X159066286Y-133156500D01*
X159066287Y-133156500D01*
X159276243Y-133123246D01*
X159478412Y-133057557D01*
X159667816Y-132961051D01*
X159712700Y-132928441D01*
X159839786Y-132836109D01*
X159839788Y-132836106D01*
X159839792Y-132836104D01*
X159990104Y-132685792D01*
X159990106Y-132685788D01*
X159990109Y-132685786D01*
X160115048Y-132513820D01*
X160115047Y-132513820D01*
X160115051Y-132513816D01*
X160211557Y-132324412D01*
X160277246Y-132122243D01*
X160310500Y-131912287D01*
X160310500Y-131699713D01*
X160277246Y-131489757D01*
X160211557Y-131287588D01*
X160115051Y-131098184D01*
X160115049Y-131098181D01*
X160115048Y-131098179D01*
X159990109Y-130926213D01*
X159839786Y-130775890D01*
X159667820Y-130650951D01*
X159478414Y-130554444D01*
X159478413Y-130554443D01*
X159478412Y-130554443D01*
X159276243Y-130488754D01*
X159276241Y-130488753D01*
X159276240Y-130488753D01*
X159114957Y-130463208D01*
X159066287Y-130455500D01*
X157653713Y-130455500D01*
X157605042Y-130463208D01*
X157443760Y-130488753D01*
X157241585Y-130554444D01*
X157052179Y-130650951D01*
X156880213Y-130775890D01*
X156729890Y-130926213D01*
X156604951Y-131098179D01*
X156508444Y-131287585D01*
X156442753Y-131489760D01*
X156409500Y-131699713D01*
X156409500Y-131912286D01*
X156442753Y-132122239D01*
X156508444Y-132324414D01*
X156604951Y-132513820D01*
X156729890Y-132685786D01*
X156880211Y-132836107D01*
X156951200Y-132887682D01*
X157008385Y-132929229D01*
X157051051Y-132984558D01*
X157059500Y-133029547D01*
X157059500Y-137686754D01*
X157039815Y-137753793D01*
X157000778Y-137792181D01*
X156933436Y-137833877D01*
X156769020Y-137983761D01*
X156634943Y-138161308D01*
X156634938Y-138161316D01*
X156535775Y-138360461D01*
X156535769Y-138360476D01*
X156474885Y-138574462D01*
X156474884Y-138574464D01*
X156454357Y-138795999D01*
X156454357Y-138796000D01*
X156474884Y-139017535D01*
X156474885Y-139017537D01*
X156535769Y-139231523D01*
X156535775Y-139231538D01*
X156634938Y-139430683D01*
X156634943Y-139430691D01*
X156769020Y-139608238D01*
X156933437Y-139758123D01*
X156933439Y-139758125D01*
X157122595Y-139875245D01*
X157122596Y-139875245D01*
X157122599Y-139875247D01*
X157330060Y-139955618D01*
X157548757Y-139996500D01*
X157548759Y-139996500D01*
X157771241Y-139996500D01*
X157771243Y-139996500D01*
X157989940Y-139955618D01*
X158197401Y-139875247D01*
X158386562Y-139758124D01*
X158550981Y-139608236D01*
X158611047Y-139528695D01*
X158667154Y-139487060D01*
X158736866Y-139482368D01*
X158798048Y-139516110D01*
X158808947Y-139528688D01*
X158869019Y-139608236D01*
X158869021Y-139608238D01*
X159033437Y-139758123D01*
X159033439Y-139758125D01*
X159222595Y-139875245D01*
X159222596Y-139875245D01*
X159222599Y-139875247D01*
X159430060Y-139955618D01*
X159648757Y-139996500D01*
X159648759Y-139996500D01*
X159871241Y-139996500D01*
X159871243Y-139996500D01*
X160089940Y-139955618D01*
X160297401Y-139875247D01*
X160486562Y-139758124D01*
X160602963Y-139652009D01*
X160665765Y-139621394D01*
X160735153Y-139629591D01*
X160789093Y-139674001D01*
X160810461Y-139740523D01*
X160810500Y-139743648D01*
X160810500Y-145667689D01*
X160790815Y-145734728D01*
X160774181Y-145755370D01*
X160110000Y-146419552D01*
X160110000Y-146369922D01*
X160086148Y-146280905D01*
X160040070Y-146201095D01*
X159974905Y-146135930D01*
X159895095Y-146089852D01*
X159806078Y-146066000D01*
X159713922Y-146066000D01*
X159624905Y-146089852D01*
X159545095Y-146135930D01*
X159479930Y-146201095D01*
X159433852Y-146280905D01*
X159410000Y-146369922D01*
X159410000Y-146462078D01*
X159433852Y-146551095D01*
X159479930Y-146630905D01*
X159545095Y-146696070D01*
X159624905Y-146742148D01*
X159713922Y-146766000D01*
X159763553Y-146766000D01*
X159760000Y-146769553D01*
X159106672Y-147422879D01*
X159106672Y-147422880D01*
X159222821Y-147494797D01*
X159222822Y-147494798D01*
X159430195Y-147575134D01*
X159529896Y-147593772D01*
X159592177Y-147625440D01*
X159627450Y-147685752D01*
X159624516Y-147755560D01*
X159594792Y-147803342D01*
X158808341Y-148589792D01*
X158747018Y-148623277D01*
X158677326Y-148618293D01*
X158632979Y-148589792D01*
X158499140Y-148455953D01*
X158313377Y-148325881D01*
X158269752Y-148271304D01*
X158260500Y-148224306D01*
X158260500Y-147525244D01*
X158280185Y-147458205D01*
X158319220Y-147419819D01*
X158386562Y-147378124D01*
X158550981Y-147228236D01*
X158633057Y-147119548D01*
X158689161Y-147077916D01*
X158740596Y-147070576D01*
X158751139Y-147071307D01*
X159406447Y-146416000D01*
X159406447Y-146415999D01*
X158751137Y-145760690D01*
X158740595Y-145761422D01*
X158672354Y-145746427D01*
X158633055Y-145712447D01*
X158550979Y-145603761D01*
X158386562Y-145453876D01*
X158386560Y-145453874D01*
X158314278Y-145409119D01*
X159106671Y-145409119D01*
X159760000Y-146062447D01*
X159760001Y-146062447D01*
X160413327Y-145409119D01*
X160297178Y-145337202D01*
X160297177Y-145337201D01*
X160089804Y-145256865D01*
X159871193Y-145216000D01*
X159648807Y-145216000D01*
X159430195Y-145256865D01*
X159222824Y-145337200D01*
X159222823Y-145337201D01*
X159106671Y-145409119D01*
X158314278Y-145409119D01*
X158197404Y-145336754D01*
X158197398Y-145336752D01*
X157989940Y-145256382D01*
X157771243Y-145215500D01*
X157548757Y-145215500D01*
X157330060Y-145256382D01*
X157279689Y-145275896D01*
X157122601Y-145336752D01*
X157122595Y-145336754D01*
X156933439Y-145453874D01*
X156933437Y-145453876D01*
X156769020Y-145603761D01*
X156634943Y-145781308D01*
X156634938Y-145781316D01*
X156535775Y-145980461D01*
X156535769Y-145980476D01*
X156474885Y-146194462D01*
X156474884Y-146194464D01*
X156454357Y-146415999D01*
X156454357Y-146416000D01*
X156474884Y-146637535D01*
X156474885Y-146637537D01*
X156535769Y-146851523D01*
X156535775Y-146851538D01*
X156634938Y-147050683D01*
X156634943Y-147050691D01*
X156769020Y-147228238D01*
X156933433Y-147378120D01*
X156933435Y-147378121D01*
X156933438Y-147378124D01*
X157000778Y-147419818D01*
X157047412Y-147471843D01*
X157059500Y-147525244D01*
X157059500Y-148224306D01*
X157039815Y-148291345D01*
X157006623Y-148325881D01*
X156820859Y-148455953D01*
X156659954Y-148616858D01*
X156529432Y-148803265D01*
X156529431Y-148803267D01*
X156433261Y-149009502D01*
X156433258Y-149009511D01*
X156374366Y-149229302D01*
X156374364Y-149229313D01*
X156354532Y-149455998D01*
X156354532Y-149456001D01*
X156374364Y-149682686D01*
X156374366Y-149682697D01*
X156433258Y-149902488D01*
X156433261Y-149902497D01*
X156529431Y-150108732D01*
X156529432Y-150108734D01*
X156659954Y-150295141D01*
X156820858Y-150456045D01*
X156820861Y-150456047D01*
X157007266Y-150586568D01*
X157022387Y-150593619D01*
X157074825Y-150639791D01*
X157093976Y-150706985D01*
X157073760Y-150773866D01*
X157022387Y-150818380D01*
X157007266Y-150825432D01*
X157007264Y-150825433D01*
X156820858Y-150955954D01*
X156659954Y-151116858D01*
X156529432Y-151303265D01*
X156529431Y-151303267D01*
X156433261Y-151509502D01*
X156433258Y-151509511D01*
X156374366Y-151729302D01*
X156374364Y-151729313D01*
X156354532Y-151955998D01*
X156354532Y-151956001D01*
X156374364Y-152182686D01*
X156374366Y-152182697D01*
X156433258Y-152402488D01*
X156433261Y-152402497D01*
X156529431Y-152608732D01*
X156529432Y-152608734D01*
X156659954Y-152795141D01*
X156820858Y-152956045D01*
X156820861Y-152956047D01*
X157007266Y-153086568D01*
X157213504Y-153182739D01*
X157433308Y-153241635D01*
X157595230Y-153255801D01*
X157659998Y-153261468D01*
X157660000Y-153261468D01*
X157660002Y-153261468D01*
X157716673Y-153256509D01*
X157886692Y-153241635D01*
X158106496Y-153182739D01*
X158312734Y-153086568D01*
X158499139Y-152956047D01*
X158660047Y-152795139D01*
X158790568Y-152608734D01*
X158886739Y-152402496D01*
X158945635Y-152182692D01*
X158965468Y-151956000D01*
X158945635Y-151729308D01*
X158886739Y-151509504D01*
X158790568Y-151303266D01*
X158660047Y-151116861D01*
X158660045Y-151116858D01*
X158499141Y-150955954D01*
X158312734Y-150825432D01*
X158297614Y-150818381D01*
X158245176Y-150772211D01*
X158226023Y-150705018D01*
X158246238Y-150638136D01*
X158297614Y-150593618D01*
X158312734Y-150586568D01*
X158499139Y-150456047D01*
X158660047Y-150295139D01*
X158790568Y-150108734D01*
X158790571Y-150108725D01*
X158791449Y-150107473D01*
X158846026Y-150063847D01*
X158862787Y-150059394D01*
X158862576Y-150058604D01*
X158870424Y-150056501D01*
X158870427Y-150056501D01*
X159023155Y-150015577D01*
X159081372Y-149981965D01*
X159160086Y-149936520D01*
X159271890Y-149824716D01*
X159271890Y-149824714D01*
X159282094Y-149814511D01*
X159282098Y-149814506D01*
X161779713Y-147316891D01*
X161779716Y-147316890D01*
X161891520Y-147205086D01*
X161941639Y-147118274D01*
X161970577Y-147068155D01*
X162011500Y-146915428D01*
X162011500Y-146757313D01*
X162011500Y-133896551D01*
X171709500Y-133896551D01*
X171737829Y-134075410D01*
X171793787Y-134247636D01*
X171793788Y-134247639D01*
X171876006Y-134408997D01*
X171982441Y-134555494D01*
X171982445Y-134555499D01*
X172110500Y-134683554D01*
X172110505Y-134683558D01*
X172238287Y-134776396D01*
X172257006Y-134789996D01*
X172362484Y-134843740D01*
X172418360Y-134872211D01*
X172418363Y-134872212D01*
X172504476Y-134900191D01*
X172590591Y-134928171D01*
X172673429Y-134941291D01*
X172769449Y-134956500D01*
X172769454Y-134956500D01*
X172950551Y-134956500D01*
X173037259Y-134942765D01*
X173129409Y-134928171D01*
X173301639Y-134872211D01*
X173462994Y-134789996D01*
X173609501Y-134683553D01*
X173737553Y-134555501D01*
X173843996Y-134408994D01*
X173926211Y-134247639D01*
X173982171Y-134075409D01*
X173996765Y-133983259D01*
X174010500Y-133896551D01*
X174010500Y-133715448D01*
X173994019Y-133611397D01*
X173982171Y-133536591D01*
X173954191Y-133450476D01*
X173926212Y-133364363D01*
X173926211Y-133364360D01*
X173883481Y-133280500D01*
X173843996Y-133203006D01*
X173817376Y-133166366D01*
X173737558Y-133056505D01*
X173737554Y-133056500D01*
X173609499Y-132928445D01*
X173609494Y-132928441D01*
X173462997Y-132822006D01*
X173462996Y-132822005D01*
X173462994Y-132822004D01*
X173411300Y-132795664D01*
X173301639Y-132739788D01*
X173301636Y-132739787D01*
X173129410Y-132683829D01*
X172950551Y-132655500D01*
X172950546Y-132655500D01*
X172769454Y-132655500D01*
X172769449Y-132655500D01*
X172590589Y-132683829D01*
X172418363Y-132739787D01*
X172418360Y-132739788D01*
X172257002Y-132822006D01*
X172110505Y-132928441D01*
X172110500Y-132928445D01*
X171982445Y-133056500D01*
X171982441Y-133056505D01*
X171876006Y-133203002D01*
X171793788Y-133364360D01*
X171793787Y-133364363D01*
X171737829Y-133536589D01*
X171709500Y-133715448D01*
X171709500Y-133896551D01*
X162011500Y-133896551D01*
X162011500Y-131912286D01*
X164659500Y-131912286D01*
X164692753Y-132122239D01*
X164758444Y-132324414D01*
X164854951Y-132513820D01*
X164979890Y-132685786D01*
X165130213Y-132836109D01*
X165302179Y-132961048D01*
X165302181Y-132961049D01*
X165302184Y-132961051D01*
X165491588Y-133057557D01*
X165693757Y-133123246D01*
X165903713Y-133156500D01*
X165903714Y-133156500D01*
X167316286Y-133156500D01*
X167316287Y-133156500D01*
X167526243Y-133123246D01*
X167728412Y-133057557D01*
X167917816Y-132961051D01*
X167962700Y-132928441D01*
X168089786Y-132836109D01*
X168089788Y-132836106D01*
X168089792Y-132836104D01*
X168240104Y-132685792D01*
X168240106Y-132685788D01*
X168240109Y-132685786D01*
X168365048Y-132513820D01*
X168365047Y-132513820D01*
X168365051Y-132513816D01*
X168461557Y-132324412D01*
X168527246Y-132122243D01*
X168560500Y-131912287D01*
X168560500Y-131699713D01*
X168527246Y-131489757D01*
X168461557Y-131287588D01*
X168365051Y-131098184D01*
X168365049Y-131098181D01*
X168365048Y-131098179D01*
X168240109Y-130926213D01*
X168089786Y-130775890D01*
X167917820Y-130650951D01*
X167728414Y-130554444D01*
X167728413Y-130554443D01*
X167728412Y-130554443D01*
X167526243Y-130488754D01*
X167526241Y-130488753D01*
X167526240Y-130488753D01*
X167364957Y-130463208D01*
X167316287Y-130455500D01*
X165903713Y-130455500D01*
X165855042Y-130463208D01*
X165693760Y-130488753D01*
X165491585Y-130554444D01*
X165302179Y-130650951D01*
X165130213Y-130775890D01*
X164979890Y-130926213D01*
X164854951Y-131098179D01*
X164758444Y-131287585D01*
X164692753Y-131489760D01*
X164659500Y-131699713D01*
X164659500Y-131912286D01*
X162011500Y-131912286D01*
X162011500Y-126912287D01*
X164659500Y-126912287D01*
X164692754Y-127122243D01*
X164752871Y-127307264D01*
X164758444Y-127324414D01*
X164854951Y-127513820D01*
X164979890Y-127685786D01*
X165130213Y-127836109D01*
X165302179Y-127961048D01*
X165302181Y-127961049D01*
X165302184Y-127961051D01*
X165491588Y-128057557D01*
X165693757Y-128123246D01*
X165903713Y-128156500D01*
X165903714Y-128156500D01*
X167316286Y-128156500D01*
X167316287Y-128156500D01*
X167526243Y-128123246D01*
X167728412Y-128057557D01*
X167917816Y-127961051D01*
X167939789Y-127945086D01*
X168089786Y-127836109D01*
X168089788Y-127836106D01*
X168089792Y-127836104D01*
X168240104Y-127685792D01*
X168240106Y-127685788D01*
X168240109Y-127685786D01*
X168365048Y-127513820D01*
X168365047Y-127513820D01*
X168365051Y-127513816D01*
X168461557Y-127324412D01*
X168527246Y-127122243D01*
X168560500Y-126912287D01*
X168560500Y-126699713D01*
X168527246Y-126489757D01*
X168461557Y-126287588D01*
X168365051Y-126098184D01*
X168365049Y-126098181D01*
X168365048Y-126098179D01*
X168240109Y-125926213D01*
X168089786Y-125775890D01*
X167917820Y-125650951D01*
X167728414Y-125554444D01*
X167728413Y-125554443D01*
X167728412Y-125554443D01*
X167526243Y-125488754D01*
X167526241Y-125488753D01*
X167526240Y-125488753D01*
X167364957Y-125463208D01*
X167316287Y-125455500D01*
X165903713Y-125455500D01*
X165855042Y-125463208D01*
X165693760Y-125488753D01*
X165491585Y-125554444D01*
X165302179Y-125650951D01*
X165130213Y-125775890D01*
X164979890Y-125926213D01*
X164854951Y-126098179D01*
X164758444Y-126287585D01*
X164692753Y-126489760D01*
X164659500Y-126699713D01*
X164659500Y-126912287D01*
X162011500Y-126912287D01*
X162011500Y-124896551D01*
X171709500Y-124896551D01*
X171737829Y-125075410D01*
X171793787Y-125247636D01*
X171793788Y-125247639D01*
X171876006Y-125408997D01*
X171982441Y-125555494D01*
X171982445Y-125555499D01*
X172110500Y-125683554D01*
X172110505Y-125683558D01*
X172237591Y-125775890D01*
X172257006Y-125789996D01*
X172362484Y-125843740D01*
X172418360Y-125872211D01*
X172418363Y-125872212D01*
X172504476Y-125900191D01*
X172590591Y-125928171D01*
X172673429Y-125941291D01*
X172769449Y-125956500D01*
X172769454Y-125956500D01*
X172950551Y-125956500D01*
X173037259Y-125942765D01*
X173129409Y-125928171D01*
X173301639Y-125872211D01*
X173462994Y-125789996D01*
X173609501Y-125683553D01*
X173737553Y-125555501D01*
X173843996Y-125408994D01*
X173926211Y-125247639D01*
X173982171Y-125075409D01*
X173996765Y-124983259D01*
X174010500Y-124896551D01*
X174010500Y-124715448D01*
X173991620Y-124596249D01*
X173982171Y-124536591D01*
X173926211Y-124364361D01*
X173926211Y-124364360D01*
X173896340Y-124305736D01*
X173843996Y-124203006D01*
X173830396Y-124184287D01*
X173737558Y-124056505D01*
X173737554Y-124056500D01*
X173609499Y-123928445D01*
X173609494Y-123928441D01*
X173462997Y-123822006D01*
X173462996Y-123822005D01*
X173462994Y-123822004D01*
X173411300Y-123795664D01*
X173301639Y-123739788D01*
X173301636Y-123739787D01*
X173129410Y-123683829D01*
X172950551Y-123655500D01*
X172950546Y-123655500D01*
X172769454Y-123655500D01*
X172769449Y-123655500D01*
X172590589Y-123683829D01*
X172418363Y-123739787D01*
X172418360Y-123739788D01*
X172257002Y-123822006D01*
X172110505Y-123928441D01*
X172110500Y-123928445D01*
X171982445Y-124056500D01*
X171982441Y-124056505D01*
X171876006Y-124203002D01*
X171793788Y-124364360D01*
X171793787Y-124364363D01*
X171737829Y-124536589D01*
X171709500Y-124715448D01*
X171709500Y-124896551D01*
X162011500Y-124896551D01*
X162011500Y-118706000D01*
X171554357Y-118706000D01*
X171574884Y-118927535D01*
X171574885Y-118927537D01*
X171635769Y-119141523D01*
X171635775Y-119141538D01*
X171734938Y-119340683D01*
X171734943Y-119340691D01*
X171869020Y-119518238D01*
X172033437Y-119668123D01*
X172033439Y-119668125D01*
X172222595Y-119785245D01*
X172222596Y-119785245D01*
X172222599Y-119785247D01*
X172430060Y-119865618D01*
X172648757Y-119906500D01*
X172648759Y-119906500D01*
X172871241Y-119906500D01*
X172871243Y-119906500D01*
X173089940Y-119865618D01*
X173297401Y-119785247D01*
X173486562Y-119668124D01*
X173650981Y-119518236D01*
X173711047Y-119438695D01*
X173767154Y-119397060D01*
X173836866Y-119392368D01*
X173898048Y-119426110D01*
X173908947Y-119438688D01*
X173969019Y-119518236D01*
X173969021Y-119518238D01*
X174133433Y-119668120D01*
X174133435Y-119668121D01*
X174133438Y-119668124D01*
X174200778Y-119709818D01*
X174247412Y-119761843D01*
X174259500Y-119815244D01*
X174259500Y-127469330D01*
X174259499Y-127469348D01*
X174259499Y-127635054D01*
X174259498Y-127635054D01*
X174300423Y-127787786D01*
X174300424Y-127787787D01*
X174322413Y-127825873D01*
X174379480Y-127924716D01*
X174379482Y-127924718D01*
X174498349Y-128043585D01*
X174498355Y-128043590D01*
X177363381Y-130908617D01*
X177396866Y-130969940D01*
X177391882Y-131039632D01*
X177376020Y-131069180D01*
X177354952Y-131098178D01*
X177354948Y-131098185D01*
X177258444Y-131287585D01*
X177192753Y-131489760D01*
X177159500Y-131699713D01*
X177159500Y-131912286D01*
X177192753Y-132122239D01*
X177258444Y-132324414D01*
X177354951Y-132513820D01*
X177479890Y-132685786D01*
X177630213Y-132836109D01*
X177802179Y-132961048D01*
X177802181Y-132961049D01*
X177802184Y-132961051D01*
X177991588Y-133057557D01*
X178193757Y-133123246D01*
X178403713Y-133156500D01*
X178403714Y-133156500D01*
X179816286Y-133156500D01*
X179816287Y-133156500D01*
X180026243Y-133123246D01*
X180228412Y-133057557D01*
X180417816Y-132961051D01*
X180462700Y-132928441D01*
X180589786Y-132836109D01*
X180589788Y-132836106D01*
X180589792Y-132836104D01*
X180740104Y-132685792D01*
X180740106Y-132685788D01*
X180740109Y-132685786D01*
X180865048Y-132513820D01*
X180865047Y-132513820D01*
X180865051Y-132513816D01*
X180961557Y-132324412D01*
X181027246Y-132122243D01*
X181060500Y-131912287D01*
X181060500Y-131699713D01*
X181027246Y-131489757D01*
X180961557Y-131287588D01*
X180865051Y-131098184D01*
X180865049Y-131098181D01*
X180865048Y-131098179D01*
X180740109Y-130926213D01*
X180589786Y-130775890D01*
X180417820Y-130650951D01*
X180228414Y-130554444D01*
X180228413Y-130554443D01*
X180228412Y-130554443D01*
X180026243Y-130488754D01*
X180026241Y-130488753D01*
X180026240Y-130488753D01*
X179864957Y-130463208D01*
X179816287Y-130455500D01*
X179816286Y-130455500D01*
X178660098Y-130455500D01*
X178593059Y-130435815D01*
X178572417Y-130419181D01*
X175496819Y-127343583D01*
X175463334Y-127282260D01*
X175460500Y-127255902D01*
X175460500Y-126912287D01*
X177159500Y-126912287D01*
X177192754Y-127122243D01*
X177252871Y-127307264D01*
X177258444Y-127324414D01*
X177354951Y-127513820D01*
X177479890Y-127685786D01*
X177630213Y-127836109D01*
X177802179Y-127961048D01*
X177802181Y-127961049D01*
X177802184Y-127961051D01*
X177991588Y-128057557D01*
X178193757Y-128123246D01*
X178403713Y-128156500D01*
X178403714Y-128156500D01*
X179816286Y-128156500D01*
X179816287Y-128156500D01*
X180026243Y-128123246D01*
X180228412Y-128057557D01*
X180417816Y-127961051D01*
X180439789Y-127945086D01*
X180589786Y-127836109D01*
X180589788Y-127836106D01*
X180589792Y-127836104D01*
X180740104Y-127685792D01*
X180740106Y-127685788D01*
X180740109Y-127685786D01*
X180865048Y-127513820D01*
X180865047Y-127513820D01*
X180865051Y-127513816D01*
X180961557Y-127324412D01*
X181027246Y-127122243D01*
X181060500Y-126912287D01*
X181060500Y-126699713D01*
X181027246Y-126489757D01*
X180961557Y-126287588D01*
X180865051Y-126098184D01*
X180865049Y-126098181D01*
X180865048Y-126098179D01*
X180740109Y-125926213D01*
X180589786Y-125775890D01*
X180417820Y-125650951D01*
X180228414Y-125554444D01*
X180228413Y-125554443D01*
X180228412Y-125554443D01*
X180026243Y-125488754D01*
X180026241Y-125488753D01*
X180026240Y-125488753D01*
X179864957Y-125463208D01*
X179816287Y-125455500D01*
X178403713Y-125455500D01*
X178355042Y-125463208D01*
X178193760Y-125488753D01*
X177991585Y-125554444D01*
X177802179Y-125650951D01*
X177630213Y-125775890D01*
X177479890Y-125926213D01*
X177354951Y-126098179D01*
X177258444Y-126287585D01*
X177192753Y-126489760D01*
X177159500Y-126699713D01*
X177159500Y-126912287D01*
X175460500Y-126912287D01*
X175460500Y-119815244D01*
X175480185Y-119748205D01*
X175519220Y-119709819D01*
X175586562Y-119668124D01*
X175726358Y-119540683D01*
X175750979Y-119518238D01*
X175759843Y-119506501D01*
X175885058Y-119340689D01*
X175984229Y-119141528D01*
X176045115Y-118927536D01*
X176065643Y-118706000D01*
X176063647Y-118684464D01*
X176045115Y-118484464D01*
X176045114Y-118484462D01*
X176041130Y-118470461D01*
X175984229Y-118270472D01*
X175984224Y-118270461D01*
X175885061Y-118071316D01*
X175885056Y-118071308D01*
X175750979Y-117893761D01*
X175586562Y-117743876D01*
X175586560Y-117743874D01*
X175397404Y-117626754D01*
X175397398Y-117626752D01*
X175385759Y-117622243D01*
X175189940Y-117546382D01*
X174971243Y-117505500D01*
X174748757Y-117505500D01*
X174530060Y-117546382D01*
X174398864Y-117597207D01*
X174322601Y-117626752D01*
X174322595Y-117626754D01*
X174133439Y-117743874D01*
X174133437Y-117743876D01*
X173969020Y-117893761D01*
X173908954Y-117973303D01*
X173852845Y-118014939D01*
X173783133Y-118019630D01*
X173721951Y-117985888D01*
X173711046Y-117973303D01*
X173650979Y-117893761D01*
X173486562Y-117743876D01*
X173486560Y-117743874D01*
X173297404Y-117626754D01*
X173297398Y-117626752D01*
X173285759Y-117622243D01*
X173089940Y-117546382D01*
X172871243Y-117505500D01*
X172648757Y-117505500D01*
X172430060Y-117546382D01*
X172298864Y-117597207D01*
X172222601Y-117626752D01*
X172222595Y-117626754D01*
X172033439Y-117743874D01*
X172033437Y-117743876D01*
X171869020Y-117893761D01*
X171734943Y-118071308D01*
X171734938Y-118071316D01*
X171635775Y-118270461D01*
X171635769Y-118270476D01*
X171574885Y-118484462D01*
X171574884Y-118484464D01*
X171554357Y-118705999D01*
X171554357Y-118706000D01*
X162011500Y-118706000D01*
X162011500Y-112092880D01*
X172106672Y-112092880D01*
X172222821Y-112164797D01*
X172222822Y-112164798D01*
X172430195Y-112245134D01*
X172648807Y-112286000D01*
X172871193Y-112286000D01*
X173089809Y-112245133D01*
X173297168Y-112164801D01*
X173297181Y-112164795D01*
X173413326Y-112092879D01*
X172760001Y-111439553D01*
X172760000Y-111439553D01*
X172106672Y-112092879D01*
X172106672Y-112092880D01*
X162011500Y-112092880D01*
X162011500Y-111086000D01*
X171554859Y-111086000D01*
X171575378Y-111307439D01*
X171636240Y-111521350D01*
X171735369Y-111720428D01*
X171751137Y-111741308D01*
X171751138Y-111741308D01*
X172360369Y-111132078D01*
X172410000Y-111132078D01*
X172433852Y-111221095D01*
X172479930Y-111300905D01*
X172545095Y-111366070D01*
X172624905Y-111412148D01*
X172713922Y-111436000D01*
X172806078Y-111436000D01*
X172895095Y-111412148D01*
X172974905Y-111366070D01*
X173040070Y-111300905D01*
X173086148Y-111221095D01*
X173110000Y-111132078D01*
X173110000Y-111039922D01*
X173086148Y-110950905D01*
X173040070Y-110871095D01*
X172974905Y-110805930D01*
X172895095Y-110759852D01*
X172806078Y-110736000D01*
X172713922Y-110736000D01*
X172624905Y-110759852D01*
X172545095Y-110805930D01*
X172479930Y-110871095D01*
X172433852Y-110950905D01*
X172410000Y-111039922D01*
X172410000Y-111132078D01*
X172360369Y-111132078D01*
X172406447Y-111086000D01*
X171751138Y-110430691D01*
X171751137Y-110430691D01*
X171735368Y-110451574D01*
X171636240Y-110650649D01*
X171575378Y-110864560D01*
X171554859Y-111085999D01*
X171554859Y-111086000D01*
X162011500Y-111086000D01*
X162011500Y-110079119D01*
X172106671Y-110079119D01*
X172760000Y-110732447D01*
X172760001Y-110732447D01*
X173413327Y-110079119D01*
X173297178Y-110007202D01*
X173297177Y-110007201D01*
X173089804Y-109926865D01*
X172871193Y-109886000D01*
X172648807Y-109886000D01*
X172430195Y-109926865D01*
X172222824Y-110007200D01*
X172222823Y-110007201D01*
X172106671Y-110079119D01*
X162011500Y-110079119D01*
X162011500Y-85766740D01*
X162031185Y-85699701D01*
X162083989Y-85653946D01*
X162153147Y-85644002D01*
X162175759Y-85649457D01*
X162257729Y-85677598D01*
X162484863Y-85715500D01*
X162484864Y-85715500D01*
X162715136Y-85715500D01*
X162715137Y-85715500D01*
X162942271Y-85677598D01*
X162988239Y-85661816D01*
X163058034Y-85658666D01*
X163116182Y-85691417D01*
X173423181Y-95998416D01*
X173456666Y-96059739D01*
X173459500Y-96086097D01*
X173459500Y-98449633D01*
X173439815Y-98516672D01*
X173387011Y-98562427D01*
X173317853Y-98572371D01*
X173295238Y-98566914D01*
X173142276Y-98514402D01*
X172952992Y-98482817D01*
X172915137Y-98476500D01*
X172684863Y-98476500D01*
X172639436Y-98484080D01*
X172457725Y-98514402D01*
X172239938Y-98589169D01*
X172239930Y-98589172D01*
X172037408Y-98698772D01*
X171855694Y-98840206D01*
X171855689Y-98840211D01*
X171699727Y-99009630D01*
X171633808Y-99110528D01*
X171580662Y-99155884D01*
X171511431Y-99165308D01*
X171448095Y-99135806D01*
X171426192Y-99110528D01*
X171360272Y-99009630D01*
X171264963Y-98906097D01*
X171204308Y-98840208D01*
X171051775Y-98721487D01*
X171022591Y-98698772D01*
X170820069Y-98589172D01*
X170820061Y-98589169D01*
X170602274Y-98514402D01*
X170420849Y-98484128D01*
X170375137Y-98476500D01*
X170144863Y-98476500D01*
X170099436Y-98484080D01*
X169917725Y-98514402D01*
X169699938Y-98589169D01*
X169699930Y-98589172D01*
X169497408Y-98698772D01*
X169315694Y-98840206D01*
X169315689Y-98840211D01*
X169159727Y-99009630D01*
X169093808Y-99110528D01*
X169040662Y-99155884D01*
X168971431Y-99165308D01*
X168908095Y-99135806D01*
X168886192Y-99110528D01*
X168820272Y-99009630D01*
X168724963Y-98906097D01*
X168664308Y-98840208D01*
X168511775Y-98721487D01*
X168482591Y-98698772D01*
X168280069Y-98589172D01*
X168280061Y-98589169D01*
X168062274Y-98514402D01*
X167880849Y-98484128D01*
X167835137Y-98476500D01*
X167604863Y-98476500D01*
X167559436Y-98484080D01*
X167377725Y-98514402D01*
X167159938Y-98589169D01*
X167159930Y-98589172D01*
X166957408Y-98698772D01*
X166775694Y-98840206D01*
X166775689Y-98840211D01*
X166619727Y-99009630D01*
X166553808Y-99110528D01*
X166500662Y-99155884D01*
X166431431Y-99165308D01*
X166368095Y-99135806D01*
X166346192Y-99110528D01*
X166280272Y-99009630D01*
X166184963Y-98906097D01*
X166124308Y-98840208D01*
X165971775Y-98721487D01*
X165942591Y-98698772D01*
X165740069Y-98589172D01*
X165740061Y-98589169D01*
X165522274Y-98514402D01*
X165340849Y-98484128D01*
X165295137Y-98476500D01*
X165064863Y-98476500D01*
X165019436Y-98484080D01*
X164837725Y-98514402D01*
X164619938Y-98589169D01*
X164619930Y-98589172D01*
X164417408Y-98698772D01*
X164235694Y-98840206D01*
X164235689Y-98840211D01*
X164079728Y-99009629D01*
X163953782Y-99202405D01*
X163861282Y-99413285D01*
X163804753Y-99636515D01*
X163785738Y-99865994D01*
X163785738Y-99866005D01*
X163804753Y-100095484D01*
X163861282Y-100318714D01*
X163953782Y-100529594D01*
X164079728Y-100722370D01*
X164079731Y-100722373D01*
X164235692Y-100891792D01*
X164349139Y-100980091D01*
X164416868Y-101032807D01*
X164417411Y-101033229D01*
X164619931Y-101142828D01*
X164664764Y-101158219D01*
X164837725Y-101217597D01*
X164837727Y-101217597D01*
X164837729Y-101217598D01*
X165064863Y-101255500D01*
X165064864Y-101255500D01*
X165295136Y-101255500D01*
X165295137Y-101255500D01*
X165522271Y-101217598D01*
X165523693Y-101217110D01*
X165548886Y-101208461D01*
X165740069Y-101142828D01*
X165942589Y-101033229D01*
X166124308Y-100891792D01*
X166280269Y-100722373D01*
X166280271Y-100722370D01*
X166346191Y-100621472D01*
X166399337Y-100576115D01*
X166468569Y-100566691D01*
X166531905Y-100596193D01*
X166553809Y-100621472D01*
X166619728Y-100722370D01*
X166619731Y-100722373D01*
X166775692Y-100891792D01*
X166889139Y-100980091D01*
X166956868Y-101032807D01*
X166957411Y-101033229D01*
X167159931Y-101142828D01*
X167204764Y-101158219D01*
X167377725Y-101217597D01*
X167377727Y-101217597D01*
X167377729Y-101217598D01*
X167604863Y-101255500D01*
X167604864Y-101255500D01*
X167835136Y-101255500D01*
X167835137Y-101255500D01*
X168062271Y-101217598D01*
X168063693Y-101217110D01*
X168088886Y-101208461D01*
X168280069Y-101142828D01*
X168482589Y-101033229D01*
X168664308Y-100891792D01*
X168820269Y-100722373D01*
X168820271Y-100722370D01*
X168886191Y-100621472D01*
X168939337Y-100576115D01*
X169008569Y-100566691D01*
X169071905Y-100596193D01*
X169093809Y-100621472D01*
X169159728Y-100722370D01*
X169159731Y-100722373D01*
X169315692Y-100891792D01*
X169429139Y-100980091D01*
X169496868Y-101032807D01*
X169497411Y-101033229D01*
X169699931Y-101142828D01*
X169744764Y-101158219D01*
X169917725Y-101217597D01*
X169917727Y-101217597D01*
X169917729Y-101217598D01*
X170144863Y-101255500D01*
X170144864Y-101255500D01*
X170375136Y-101255500D01*
X170375137Y-101255500D01*
X170602271Y-101217598D01*
X170603693Y-101217110D01*
X170628886Y-101208461D01*
X170820069Y-101142828D01*
X171022589Y-101033229D01*
X171204308Y-100891792D01*
X171360269Y-100722373D01*
X171360271Y-100722370D01*
X171426191Y-100621472D01*
X171479337Y-100576115D01*
X171548569Y-100566691D01*
X171611905Y-100596193D01*
X171633809Y-100621472D01*
X171699728Y-100722370D01*
X171699731Y-100722373D01*
X171855692Y-100891792D01*
X171969139Y-100980091D01*
X172036868Y-101032807D01*
X172037411Y-101033229D01*
X172239931Y-101142828D01*
X172284764Y-101158219D01*
X172457725Y-101217597D01*
X172457727Y-101217597D01*
X172457729Y-101217598D01*
X172684863Y-101255500D01*
X172684864Y-101255500D01*
X172915136Y-101255500D01*
X172915137Y-101255500D01*
X173142271Y-101217598D01*
X173142274Y-101217597D01*
X173295237Y-101165085D01*
X173365036Y-101161935D01*
X173425457Y-101197021D01*
X173457318Y-101259204D01*
X173459500Y-101282366D01*
X173459500Y-101505902D01*
X173439815Y-101572941D01*
X173423181Y-101593583D01*
X172979481Y-102037282D01*
X172979479Y-102037285D01*
X172929361Y-102124094D01*
X172929359Y-102124096D01*
X172900425Y-102174209D01*
X172900424Y-102174210D01*
X172884544Y-102233472D01*
X172859499Y-102326943D01*
X172859499Y-102326945D01*
X172859499Y-102495046D01*
X172859500Y-102495059D01*
X172859500Y-106159330D01*
X172859499Y-106159348D01*
X172859499Y-106325054D01*
X172859498Y-106325054D01*
X172880835Y-106404681D01*
X172900423Y-106477785D01*
X172905493Y-106486566D01*
X172905494Y-106486568D01*
X172979477Y-106614712D01*
X172979481Y-106614717D01*
X173098349Y-106733585D01*
X173098355Y-106733590D01*
X173568058Y-107203293D01*
X173601543Y-107264616D01*
X173600152Y-107323067D01*
X173574366Y-107419302D01*
X173574364Y-107419313D01*
X173554532Y-107645998D01*
X173554532Y-107646001D01*
X173574364Y-107872686D01*
X173574366Y-107872697D01*
X173633258Y-108092488D01*
X173633261Y-108092497D01*
X173729431Y-108298732D01*
X173729432Y-108298734D01*
X173859954Y-108485141D01*
X174020858Y-108646045D01*
X174020861Y-108646047D01*
X174206624Y-108776118D01*
X174250248Y-108830693D01*
X174259500Y-108877692D01*
X174259500Y-109976754D01*
X174239815Y-110043793D01*
X174200778Y-110082181D01*
X174133436Y-110123877D01*
X173969020Y-110273761D01*
X173886945Y-110382447D01*
X173830836Y-110424083D01*
X173779405Y-110431422D01*
X173768860Y-110430690D01*
X173113553Y-111085999D01*
X173113553Y-111086000D01*
X173768860Y-111741307D01*
X173779404Y-111740576D01*
X173847646Y-111755571D01*
X173886944Y-111789551D01*
X173969020Y-111898238D01*
X174133437Y-112048123D01*
X174133439Y-112048125D01*
X174322595Y-112165245D01*
X174322596Y-112165245D01*
X174322599Y-112165247D01*
X174530060Y-112245618D01*
X174748757Y-112286500D01*
X174748759Y-112286500D01*
X174971241Y-112286500D01*
X174971243Y-112286500D01*
X175189940Y-112245618D01*
X175397401Y-112165247D01*
X175586562Y-112048124D01*
X175750981Y-111898236D01*
X175885058Y-111720689D01*
X175984229Y-111521528D01*
X176045115Y-111307536D01*
X176065643Y-111086000D01*
X176063647Y-111064464D01*
X176045115Y-110864464D01*
X176045114Y-110864462D01*
X176041130Y-110850461D01*
X175984229Y-110650472D01*
X175984224Y-110650461D01*
X175885061Y-110451316D01*
X175885056Y-110451308D01*
X175750979Y-110273761D01*
X175586563Y-110123877D01*
X175586562Y-110123876D01*
X175519221Y-110082180D01*
X175472587Y-110030153D01*
X175460500Y-109976754D01*
X175460500Y-108877692D01*
X175480185Y-108810653D01*
X175513374Y-108776119D01*
X175699139Y-108646047D01*
X175860047Y-108485139D01*
X175990568Y-108298734D01*
X176086739Y-108092496D01*
X176145635Y-107872692D01*
X176165468Y-107646000D01*
X176145635Y-107419308D01*
X176086739Y-107199504D01*
X175990568Y-106993266D01*
X175860047Y-106806861D01*
X175860045Y-106806858D01*
X175699141Y-106645954D01*
X175512734Y-106515432D01*
X175497614Y-106508381D01*
X175445176Y-106462211D01*
X175426023Y-106395018D01*
X175446238Y-106328136D01*
X175497614Y-106283618D01*
X175512734Y-106276568D01*
X175699139Y-106146047D01*
X175860047Y-105985139D01*
X175990568Y-105798734D01*
X176086739Y-105592496D01*
X176145635Y-105372692D01*
X176165468Y-105146000D01*
X176145635Y-104919308D01*
X176086739Y-104699504D01*
X175990568Y-104493266D01*
X175860047Y-104306861D01*
X175860045Y-104306858D01*
X175699141Y-104145954D01*
X175512734Y-104015432D01*
X175512732Y-104015431D01*
X175306497Y-103919261D01*
X175306488Y-103919258D01*
X175086697Y-103860366D01*
X175086693Y-103860365D01*
X175086692Y-103860365D01*
X175086691Y-103860364D01*
X175086686Y-103860364D01*
X174860002Y-103840532D01*
X174859998Y-103840532D01*
X174633313Y-103860364D01*
X174633302Y-103860366D01*
X174413511Y-103919258D01*
X174413502Y-103919262D01*
X174236905Y-104001611D01*
X174167827Y-104012103D01*
X174104043Y-103983583D01*
X174065804Y-103925107D01*
X174060500Y-103889229D01*
X174060500Y-102706096D01*
X174080185Y-102639057D01*
X174096815Y-102618419D01*
X174428713Y-102286521D01*
X174428716Y-102286520D01*
X174540520Y-102174716D01*
X174590639Y-102087904D01*
X174619577Y-102037785D01*
X174660500Y-101885057D01*
X174660500Y-101726943D01*
X174660500Y-101275500D01*
X174680185Y-101208461D01*
X174732989Y-101162706D01*
X174802147Y-101152762D01*
X174824763Y-101158219D01*
X174997725Y-101217597D01*
X174997727Y-101217597D01*
X174997729Y-101217598D01*
X175224863Y-101255500D01*
X175224864Y-101255500D01*
X175455136Y-101255500D01*
X175455137Y-101255500D01*
X175682271Y-101217598D01*
X175683693Y-101217110D01*
X175708886Y-101208461D01*
X175900069Y-101142828D01*
X176102589Y-101033229D01*
X176284308Y-100891792D01*
X176440269Y-100722373D01*
X176440271Y-100722370D01*
X176506191Y-100621472D01*
X176559337Y-100576115D01*
X176628569Y-100566691D01*
X176691905Y-100596193D01*
X176713809Y-100621472D01*
X176779728Y-100722370D01*
X176779731Y-100722373D01*
X176935692Y-100891792D01*
X177049139Y-100980091D01*
X177116868Y-101032807D01*
X177117411Y-101033229D01*
X177319931Y-101142828D01*
X177364764Y-101158219D01*
X177537725Y-101217597D01*
X177537727Y-101217597D01*
X177537729Y-101217598D01*
X177764863Y-101255500D01*
X177764864Y-101255500D01*
X177995136Y-101255500D01*
X177995137Y-101255500D01*
X178222271Y-101217598D01*
X178223693Y-101217110D01*
X178248886Y-101208461D01*
X178440069Y-101142828D01*
X178642589Y-101033229D01*
X178824308Y-100891792D01*
X178980269Y-100722373D01*
X179106217Y-100529595D01*
X179198717Y-100318716D01*
X179255246Y-100095488D01*
X179263697Y-99993493D01*
X179274262Y-99866005D01*
X179274262Y-99865994D01*
X179255246Y-99636515D01*
X179255246Y-99636512D01*
X179198717Y-99413284D01*
X179106217Y-99202405D01*
X179076123Y-99156342D01*
X178980271Y-99009629D01*
X178884963Y-98906097D01*
X178824308Y-98840208D01*
X178671775Y-98721487D01*
X178642591Y-98698772D01*
X178440069Y-98589172D01*
X178440061Y-98589169D01*
X178222274Y-98514402D01*
X178040849Y-98484128D01*
X177995137Y-98476500D01*
X177764863Y-98476500D01*
X177719436Y-98484080D01*
X177537725Y-98514402D01*
X177319938Y-98589169D01*
X177319930Y-98589172D01*
X177117408Y-98698772D01*
X176935694Y-98840206D01*
X176935689Y-98840211D01*
X176779727Y-99009630D01*
X176713808Y-99110528D01*
X176660662Y-99155884D01*
X176591431Y-99165308D01*
X176528095Y-99135806D01*
X176506192Y-99110528D01*
X176440272Y-99009630D01*
X176344963Y-98906097D01*
X176284308Y-98840208D01*
X176131775Y-98721487D01*
X176102591Y-98698772D01*
X175900069Y-98589172D01*
X175900061Y-98589169D01*
X175682274Y-98514402D01*
X175500849Y-98484128D01*
X175455137Y-98476500D01*
X175224863Y-98476500D01*
X175192415Y-98481914D01*
X174997723Y-98514402D01*
X174824762Y-98573780D01*
X174754964Y-98576930D01*
X174694543Y-98541843D01*
X174662682Y-98479661D01*
X174660500Y-98456499D01*
X174660500Y-95706945D01*
X174660500Y-95706943D01*
X174619577Y-95554216D01*
X174619573Y-95554209D01*
X174540524Y-95417290D01*
X174540521Y-95417286D01*
X174540520Y-95417284D01*
X174428716Y-95305480D01*
X174428715Y-95305479D01*
X174424385Y-95301149D01*
X174424374Y-95301139D01*
X165050416Y-85927181D01*
X165016931Y-85865858D01*
X165021915Y-85796166D01*
X165063787Y-85740233D01*
X165129251Y-85715816D01*
X165138097Y-85715500D01*
X165255136Y-85715500D01*
X165255137Y-85715500D01*
X165482271Y-85677598D01*
X165483693Y-85677110D01*
X165490662Y-85674717D01*
X165700069Y-85602828D01*
X165902589Y-85493229D01*
X166084308Y-85351792D01*
X166240269Y-85182373D01*
X166262759Y-85147950D01*
X166306191Y-85081472D01*
X166359337Y-85036115D01*
X166428569Y-85026691D01*
X166491905Y-85056193D01*
X166513809Y-85081472D01*
X166579728Y-85182370D01*
X166579731Y-85182373D01*
X166735692Y-85351792D01*
X166831138Y-85426080D01*
X166916868Y-85492807D01*
X166917411Y-85493229D01*
X167119931Y-85602828D01*
X167233025Y-85641653D01*
X167337725Y-85677597D01*
X167337727Y-85677597D01*
X167337729Y-85677598D01*
X167564863Y-85715500D01*
X167564864Y-85715500D01*
X167795136Y-85715500D01*
X167795137Y-85715500D01*
X168022271Y-85677598D01*
X168023693Y-85677110D01*
X168030662Y-85674717D01*
X168240069Y-85602828D01*
X168442589Y-85493229D01*
X168624308Y-85351792D01*
X168780269Y-85182373D01*
X168846490Y-85081013D01*
X168899636Y-85035657D01*
X168968868Y-85026233D01*
X169032203Y-85055735D01*
X169054108Y-85081013D01*
X169076760Y-85115685D01*
X169737037Y-84455408D01*
X169754075Y-84518993D01*
X169819901Y-84633007D01*
X169912993Y-84726099D01*
X170027007Y-84791925D01*
X170090590Y-84808962D01*
X169429040Y-85470512D01*
X169429040Y-85470514D01*
X169457677Y-85492803D01*
X169457683Y-85492807D01*
X169660131Y-85602367D01*
X169660140Y-85602370D01*
X169877849Y-85677110D01*
X170104905Y-85715000D01*
X170335095Y-85715000D01*
X170562150Y-85677110D01*
X170779859Y-85602370D01*
X170779868Y-85602367D01*
X170982315Y-85492807D01*
X170982316Y-85492806D01*
X171010958Y-85470513D01*
X171010959Y-85470511D01*
X170349410Y-84808962D01*
X170412993Y-84791925D01*
X170527007Y-84726099D01*
X170620099Y-84633007D01*
X170685925Y-84518993D01*
X170702962Y-84455409D01*
X171363237Y-85115684D01*
X171386190Y-85080554D01*
X171439337Y-85035198D01*
X171508568Y-85025774D01*
X171571904Y-85055276D01*
X171593808Y-85080554D01*
X171616760Y-85115685D01*
X172277037Y-84455408D01*
X172294075Y-84518993D01*
X172359901Y-84633007D01*
X172452993Y-84726099D01*
X172567007Y-84791925D01*
X172630590Y-84808962D01*
X171969040Y-85470512D01*
X171969040Y-85470514D01*
X171997677Y-85492803D01*
X171997683Y-85492807D01*
X172200131Y-85602367D01*
X172200140Y-85602370D01*
X172417849Y-85677110D01*
X172644905Y-85715000D01*
X172875095Y-85715000D01*
X173102150Y-85677110D01*
X173319859Y-85602370D01*
X173319868Y-85602367D01*
X173522315Y-85492807D01*
X173522316Y-85492806D01*
X173550958Y-85470513D01*
X173550959Y-85470511D01*
X172889410Y-84808962D01*
X172952993Y-84791925D01*
X173067007Y-84726099D01*
X173160099Y-84633007D01*
X173225925Y-84518993D01*
X173242962Y-84455409D01*
X173874181Y-85086627D01*
X173907666Y-85147950D01*
X173910500Y-85174307D01*
X173910500Y-85262869D01*
X173910501Y-85262876D01*
X173916908Y-85322483D01*
X173967202Y-85457328D01*
X173967206Y-85457335D01*
X174053452Y-85572544D01*
X174053455Y-85572547D01*
X174168664Y-85658793D01*
X174168671Y-85658797D01*
X174303517Y-85709091D01*
X174303516Y-85709091D01*
X174310444Y-85709835D01*
X174363127Y-85715500D01*
X176236872Y-85715499D01*
X176296483Y-85709091D01*
X176431331Y-85658796D01*
X176546546Y-85572546D01*
X176632796Y-85457331D01*
X176683091Y-85322483D01*
X176689500Y-85262873D01*
X176689499Y-83389128D01*
X176683091Y-83329517D01*
X176672159Y-83300208D01*
X176632797Y-83194671D01*
X176632793Y-83194664D01*
X176546547Y-83079455D01*
X176546544Y-83079452D01*
X176431335Y-82993206D01*
X176431328Y-82993202D01*
X176296482Y-82942908D01*
X176296483Y-82942908D01*
X176236883Y-82936501D01*
X176236881Y-82936500D01*
X176236873Y-82936500D01*
X176236864Y-82936500D01*
X174363129Y-82936500D01*
X174363123Y-82936501D01*
X174303516Y-82942908D01*
X174168671Y-82993202D01*
X174168664Y-82993206D01*
X174053455Y-83079452D01*
X174053452Y-83079455D01*
X173967206Y-83194664D01*
X173967202Y-83194671D01*
X173916908Y-83329517D01*
X173910501Y-83389116D01*
X173910501Y-83389123D01*
X173910500Y-83389135D01*
X173910500Y-83477691D01*
X173890815Y-83544730D01*
X173874181Y-83565372D01*
X173242962Y-84196590D01*
X173225925Y-84133007D01*
X173160099Y-84018993D01*
X173067007Y-83925901D01*
X172952993Y-83860075D01*
X172889409Y-83843037D01*
X173550958Y-83181486D01*
X173550958Y-83181484D01*
X173522322Y-83159196D01*
X173522316Y-83159192D01*
X173319868Y-83049632D01*
X173319859Y-83049629D01*
X173102150Y-82974889D01*
X172875095Y-82937000D01*
X172644905Y-82937000D01*
X172417849Y-82974889D01*
X172200140Y-83049629D01*
X172200132Y-83049632D01*
X171997681Y-83159194D01*
X171969040Y-83181485D01*
X171969040Y-83181487D01*
X172630591Y-83843037D01*
X172567007Y-83860075D01*
X172452993Y-83925901D01*
X172359901Y-84018993D01*
X172294075Y-84133007D01*
X172277037Y-84196591D01*
X171616759Y-83536313D01*
X171593807Y-83571444D01*
X171540661Y-83616801D01*
X171471429Y-83626224D01*
X171408094Y-83596721D01*
X171386191Y-83571444D01*
X171363238Y-83536313D01*
X170702962Y-84196589D01*
X170685925Y-84133007D01*
X170620099Y-84018993D01*
X170527007Y-83925901D01*
X170412993Y-83860075D01*
X170349409Y-83843037D01*
X171010958Y-83181486D01*
X171010958Y-83181484D01*
X170982322Y-83159196D01*
X170982316Y-83159192D01*
X170779868Y-83049632D01*
X170779859Y-83049629D01*
X170562150Y-82974889D01*
X170335095Y-82937000D01*
X170104905Y-82937000D01*
X169877849Y-82974889D01*
X169660140Y-83049629D01*
X169660132Y-83049632D01*
X169457681Y-83159194D01*
X169429040Y-83181485D01*
X169429040Y-83181487D01*
X170090591Y-83843037D01*
X170027007Y-83860075D01*
X169912993Y-83925901D01*
X169819901Y-84018993D01*
X169754075Y-84133007D01*
X169737037Y-84196591D01*
X169076760Y-83536314D01*
X169054108Y-83570986D01*
X169000961Y-83616342D01*
X168931730Y-83625766D01*
X168868394Y-83596264D01*
X168846490Y-83570986D01*
X168829336Y-83544730D01*
X168780269Y-83469627D01*
X168624308Y-83300208D01*
X168471775Y-83181487D01*
X168442591Y-83158772D01*
X168240069Y-83049172D01*
X168240061Y-83049169D01*
X168022274Y-82974402D01*
X167833538Y-82942908D01*
X167795137Y-82936500D01*
X167564863Y-82936500D01*
X167526462Y-82942908D01*
X167337725Y-82974402D01*
X167119938Y-83049169D01*
X167119930Y-83049172D01*
X166917408Y-83158772D01*
X166735694Y-83300206D01*
X166735689Y-83300211D01*
X166579727Y-83469630D01*
X166513808Y-83570528D01*
X166460662Y-83615884D01*
X166391431Y-83625308D01*
X166328095Y-83595806D01*
X166306192Y-83570528D01*
X166240272Y-83469630D01*
X166166165Y-83389129D01*
X166084308Y-83300208D01*
X165931775Y-83181487D01*
X165902591Y-83158772D01*
X165700069Y-83049172D01*
X165700061Y-83049169D01*
X165482274Y-82974402D01*
X165293538Y-82942908D01*
X165255137Y-82936500D01*
X165024863Y-82936500D01*
X164986462Y-82942908D01*
X164797725Y-82974402D01*
X164579938Y-83049169D01*
X164579930Y-83049172D01*
X164377408Y-83158772D01*
X164195694Y-83300206D01*
X164195689Y-83300211D01*
X164039727Y-83469630D01*
X163973808Y-83570528D01*
X163920662Y-83615884D01*
X163851431Y-83625308D01*
X163788095Y-83595806D01*
X163766192Y-83570528D01*
X163700272Y-83469630D01*
X163626165Y-83389129D01*
X163544308Y-83300208D01*
X163391775Y-83181487D01*
X163362591Y-83158772D01*
X163160069Y-83049172D01*
X163160061Y-83049169D01*
X162942274Y-82974402D01*
X162753538Y-82942908D01*
X162715137Y-82936500D01*
X162484863Y-82936500D01*
X162446462Y-82942908D01*
X162257725Y-82974402D01*
X162039938Y-83049169D01*
X162039930Y-83049172D01*
X161837408Y-83158772D01*
X161655694Y-83300206D01*
X161655689Y-83300211D01*
X161499727Y-83469630D01*
X161433808Y-83570528D01*
X161380662Y-83615884D01*
X161311431Y-83625308D01*
X161248095Y-83595806D01*
X161226192Y-83570528D01*
X161160272Y-83469630D01*
X161086165Y-83389129D01*
X161004308Y-83300208D01*
X160851775Y-83181487D01*
X160822591Y-83158772D01*
X160620069Y-83049172D01*
X160620061Y-83049169D01*
X160402274Y-82974402D01*
X160213538Y-82942908D01*
X160175137Y-82936500D01*
X159944863Y-82936500D01*
X159906462Y-82942908D01*
X159717725Y-82974402D01*
X159499938Y-83049169D01*
X159499930Y-83049172D01*
X159297408Y-83158772D01*
X159115694Y-83300206D01*
X159115689Y-83300211D01*
X158959727Y-83469630D01*
X158893808Y-83570528D01*
X158840662Y-83615884D01*
X158771431Y-83625308D01*
X158708095Y-83595806D01*
X158686192Y-83570528D01*
X158620272Y-83469630D01*
X158546165Y-83389129D01*
X158464308Y-83300208D01*
X158311775Y-83181487D01*
X158282591Y-83158772D01*
X158080069Y-83049172D01*
X158080061Y-83049169D01*
X157862274Y-82974402D01*
X157673538Y-82942908D01*
X157635137Y-82936500D01*
X157404863Y-82936500D01*
X157366462Y-82942908D01*
X157177725Y-82974402D01*
X156959938Y-83049169D01*
X156959930Y-83049172D01*
X156757408Y-83158772D01*
X156575694Y-83300206D01*
X156575689Y-83300211D01*
X156419727Y-83469630D01*
X156353808Y-83570528D01*
X156300662Y-83615884D01*
X156231431Y-83625308D01*
X156168095Y-83595806D01*
X156146192Y-83570528D01*
X156080272Y-83469630D01*
X156006165Y-83389129D01*
X155924308Y-83300208D01*
X155771775Y-83181487D01*
X155742591Y-83158772D01*
X155540069Y-83049172D01*
X155540061Y-83049169D01*
X155322274Y-82974402D01*
X155133538Y-82942908D01*
X155095137Y-82936500D01*
X154864863Y-82936500D01*
X154826462Y-82942908D01*
X154637725Y-82974402D01*
X154419938Y-83049169D01*
X154419930Y-83049172D01*
X154217408Y-83158772D01*
X154035694Y-83300206D01*
X154035689Y-83300211D01*
X153879727Y-83469630D01*
X153813808Y-83570528D01*
X153760662Y-83615884D01*
X153691431Y-83625308D01*
X153628095Y-83595806D01*
X153606192Y-83570528D01*
X153540272Y-83469630D01*
X153466165Y-83389129D01*
X153384308Y-83300208D01*
X153231775Y-83181487D01*
X153202591Y-83158772D01*
X153000069Y-83049172D01*
X153000061Y-83049169D01*
X152782274Y-82974402D01*
X152593538Y-82942908D01*
X152555137Y-82936500D01*
X152324863Y-82936500D01*
X152286462Y-82942908D01*
X152097725Y-82974402D01*
X151879938Y-83049169D01*
X151879930Y-83049172D01*
X151677408Y-83158772D01*
X151495694Y-83300206D01*
X151495689Y-83300211D01*
X151339727Y-83469630D01*
X151273808Y-83570528D01*
X151220662Y-83615884D01*
X151151431Y-83625308D01*
X151088095Y-83595806D01*
X151066192Y-83570528D01*
X151000272Y-83469630D01*
X150926165Y-83389129D01*
X150844308Y-83300208D01*
X150691775Y-83181487D01*
X150662591Y-83158772D01*
X150662586Y-83158769D01*
X150565481Y-83106217D01*
X150515891Y-83056997D01*
X150500500Y-82997163D01*
X150500500Y-74135060D01*
X150500501Y-74135047D01*
X150500501Y-73966944D01*
X150459576Y-73814214D01*
X150459573Y-73814209D01*
X150380524Y-73677290D01*
X150380518Y-73677282D01*
X149539936Y-72836700D01*
X148690699Y-71987464D01*
X148657215Y-71926142D01*
X148655163Y-71913686D01*
X148645368Y-71826745D01*
X148585789Y-71656478D01*
X148489816Y-71503738D01*
X148362262Y-71376184D01*
X148209523Y-71280211D01*
X148039254Y-71220631D01*
X148039249Y-71220630D01*
X147860004Y-71200435D01*
X147859996Y-71200435D01*
X147680750Y-71220630D01*
X147680745Y-71220631D01*
X147510476Y-71280211D01*
X147357737Y-71376184D01*
X147230184Y-71503737D01*
X147134211Y-71656476D01*
X147074631Y-71826745D01*
X147074630Y-71826750D01*
X147054435Y-72005996D01*
X147054435Y-72006003D01*
X147074630Y-72185249D01*
X147074631Y-72185254D01*
X147134211Y-72355523D01*
X147230184Y-72508262D01*
X147357738Y-72635816D01*
X147510478Y-72731789D01*
X147680745Y-72791368D01*
X147767669Y-72801161D01*
X147832080Y-72828226D01*
X147841465Y-72836700D01*
X149263181Y-74258416D01*
X149296666Y-74319739D01*
X149299500Y-74346097D01*
X149299500Y-82997163D01*
X149279815Y-83064202D01*
X149234519Y-83106217D01*
X149137413Y-83158769D01*
X149137408Y-83158772D01*
X148955694Y-83300206D01*
X148955689Y-83300211D01*
X148799727Y-83469630D01*
X148733808Y-83570528D01*
X148680662Y-83615884D01*
X148611431Y-83625308D01*
X148548095Y-83595806D01*
X148526192Y-83570528D01*
X148460272Y-83469630D01*
X148386165Y-83389129D01*
X148304308Y-83300208D01*
X148151775Y-83181487D01*
X148122591Y-83158772D01*
X147920069Y-83049172D01*
X147920061Y-83049169D01*
X147702274Y-82974402D01*
X147513538Y-82942908D01*
X147475137Y-82936500D01*
X147244863Y-82936500D01*
X147206462Y-82942908D01*
X147017726Y-82974402D01*
X146971758Y-82990182D01*
X146901959Y-82993330D01*
X146843817Y-82960581D01*
X146696819Y-82813583D01*
X146663334Y-82752260D01*
X146660500Y-82725902D01*
X146660500Y-65408634D01*
X146680185Y-65341595D01*
X146732989Y-65295840D01*
X146802147Y-65285896D01*
X146824763Y-65291353D01*
X147017725Y-65357597D01*
X147017727Y-65357597D01*
X147017729Y-65357598D01*
X147244863Y-65395500D01*
X147244864Y-65395500D01*
X147475136Y-65395500D01*
X147475137Y-65395500D01*
X147702271Y-65357598D01*
X147920069Y-65282828D01*
X148122589Y-65173229D01*
X148304308Y-65031792D01*
X148460269Y-64862373D01*
X148526191Y-64761472D01*
X148579337Y-64716115D01*
X148648569Y-64706691D01*
X148711905Y-64736193D01*
X148733809Y-64761472D01*
X148799728Y-64862370D01*
X148799731Y-64862373D01*
X148955692Y-65031792D01*
X149137411Y-65173229D01*
X149339931Y-65282828D01*
X149453025Y-65321653D01*
X149557725Y-65357597D01*
X149557727Y-65357597D01*
X149557729Y-65357598D01*
X149784863Y-65395500D01*
X149784864Y-65395500D01*
X150015136Y-65395500D01*
X150015137Y-65395500D01*
X150242271Y-65357598D01*
X150460069Y-65282828D01*
X150662589Y-65173229D01*
X150844308Y-65031792D01*
X151000269Y-64862373D01*
X151066191Y-64761472D01*
X151119337Y-64716115D01*
X151188569Y-64706691D01*
X151251905Y-64736193D01*
X151273809Y-64761472D01*
X151339728Y-64862370D01*
X151339731Y-64862373D01*
X151495692Y-65031792D01*
X151677411Y-65173229D01*
X151879931Y-65282828D01*
X151993025Y-65321653D01*
X152097725Y-65357597D01*
X152097727Y-65357597D01*
X152097729Y-65357598D01*
X152324863Y-65395500D01*
X152324864Y-65395500D01*
X152555136Y-65395500D01*
X152555137Y-65395500D01*
X152782271Y-65357598D01*
X153000069Y-65282828D01*
X153202589Y-65173229D01*
X153214811Y-65163716D01*
X153279803Y-65138074D01*
X153348343Y-65151640D01*
X153378653Y-65173889D01*
X153398349Y-65193585D01*
X153398355Y-65193590D01*
X153764139Y-65559374D01*
X153764149Y-65559385D01*
X153768479Y-65563715D01*
X153768480Y-65563716D01*
X153880284Y-65675520D01*
X153880286Y-65675521D01*
X153880290Y-65675524D01*
X154017209Y-65754573D01*
X154017216Y-65754577D01*
X154129019Y-65784534D01*
X154169942Y-65795500D01*
X154169943Y-65795500D01*
X156244331Y-65795500D01*
X156244347Y-65795501D01*
X156251943Y-65795501D01*
X156410054Y-65795501D01*
X156410057Y-65795501D01*
X156562785Y-65754577D01*
X156612904Y-65725639D01*
X156699716Y-65675520D01*
X156811520Y-65563716D01*
X156811520Y-65563714D01*
X156821728Y-65553507D01*
X156821730Y-65553504D01*
X157003818Y-65371415D01*
X157065139Y-65337932D01*
X157131760Y-65341816D01*
X157177729Y-65357598D01*
X157404863Y-65395500D01*
X157404864Y-65395500D01*
X157635136Y-65395500D01*
X157635137Y-65395500D01*
X157862271Y-65357598D01*
X158080069Y-65282828D01*
X158282589Y-65173229D01*
X158464308Y-65031792D01*
X158620269Y-64862373D01*
X158686191Y-64761472D01*
X158739337Y-64716115D01*
X158808569Y-64706691D01*
X158871905Y-64736193D01*
X158893809Y-64761472D01*
X158959728Y-64862370D01*
X158959731Y-64862373D01*
X159115692Y-65031792D01*
X159297411Y-65173229D01*
X159499931Y-65282828D01*
X159613025Y-65321653D01*
X159717725Y-65357597D01*
X159717727Y-65357597D01*
X159717729Y-65357598D01*
X159944863Y-65395500D01*
X159944864Y-65395500D01*
X160175136Y-65395500D01*
X160175137Y-65395500D01*
X160402271Y-65357598D01*
X160620069Y-65282828D01*
X160822589Y-65173229D01*
X161004308Y-65031792D01*
X161160269Y-64862373D01*
X161226191Y-64761472D01*
X161279337Y-64716115D01*
X161348569Y-64706691D01*
X161411905Y-64736193D01*
X161433809Y-64761472D01*
X161499728Y-64862370D01*
X161499731Y-64862373D01*
X161655692Y-65031792D01*
X161837411Y-65173229D01*
X162039931Y-65282828D01*
X162153025Y-65321653D01*
X162257725Y-65357597D01*
X162257727Y-65357597D01*
X162257729Y-65357598D01*
X162484863Y-65395500D01*
X162484864Y-65395500D01*
X162715136Y-65395500D01*
X162715137Y-65395500D01*
X162942271Y-65357598D01*
X163160069Y-65282828D01*
X163362589Y-65173229D01*
X163544308Y-65031792D01*
X163700269Y-64862373D01*
X163766191Y-64761472D01*
X163819337Y-64716115D01*
X163888569Y-64706691D01*
X163951905Y-64736193D01*
X163973809Y-64761472D01*
X164039728Y-64862370D01*
X164039731Y-64862373D01*
X164195692Y-65031792D01*
X164377411Y-65173229D01*
X164579931Y-65282828D01*
X164693025Y-65321653D01*
X164797725Y-65357597D01*
X164797727Y-65357597D01*
X164797729Y-65357598D01*
X165024863Y-65395500D01*
X165024864Y-65395500D01*
X165255136Y-65395500D01*
X165255137Y-65395500D01*
X165482271Y-65357598D01*
X165700069Y-65282828D01*
X165902589Y-65173229D01*
X166084308Y-65031792D01*
X166240269Y-64862373D01*
X166366217Y-64669595D01*
X166458717Y-64458716D01*
X166515246Y-64235488D01*
X166534262Y-64006000D01*
X166515246Y-63776512D01*
X166458717Y-63553284D01*
X166366217Y-63342405D01*
X166341980Y-63305308D01*
X166240271Y-63149629D01*
X166213355Y-63120390D01*
X166084308Y-62980208D01*
X166016036Y-62927070D01*
X165902591Y-62838772D01*
X165700069Y-62729172D01*
X165700061Y-62729169D01*
X165482274Y-62654402D01*
X165311920Y-62625975D01*
X165255137Y-62616500D01*
X165024863Y-62616500D01*
X164979436Y-62624080D01*
X164797725Y-62654402D01*
X164579938Y-62729169D01*
X164579930Y-62729172D01*
X164377408Y-62838772D01*
X164195694Y-62980206D01*
X164195689Y-62980211D01*
X164039727Y-63149630D01*
X163973808Y-63250528D01*
X163920662Y-63295884D01*
X163851431Y-63305308D01*
X163788095Y-63275806D01*
X163766192Y-63250528D01*
X163700272Y-63149630D01*
X163663104Y-63109256D01*
X163544308Y-62980208D01*
X163476036Y-62927070D01*
X163362591Y-62838772D01*
X163160069Y-62729172D01*
X163160061Y-62729169D01*
X162942274Y-62654402D01*
X162771920Y-62625975D01*
X162715137Y-62616500D01*
X162484863Y-62616500D01*
X162439436Y-62624080D01*
X162257725Y-62654402D01*
X162039938Y-62729169D01*
X162039930Y-62729172D01*
X161837408Y-62838772D01*
X161655694Y-62980206D01*
X161655689Y-62980211D01*
X161499727Y-63149630D01*
X161433808Y-63250528D01*
X161380662Y-63295884D01*
X161311431Y-63305308D01*
X161248095Y-63275806D01*
X161226192Y-63250528D01*
X161160272Y-63149630D01*
X161123104Y-63109256D01*
X161004308Y-62980208D01*
X160936036Y-62927070D01*
X160822591Y-62838772D01*
X160620069Y-62729172D01*
X160620061Y-62729169D01*
X160402274Y-62654402D01*
X160231920Y-62625975D01*
X160175137Y-62616500D01*
X159944863Y-62616500D01*
X159899436Y-62624080D01*
X159717725Y-62654402D01*
X159499938Y-62729169D01*
X159499930Y-62729172D01*
X159297408Y-62838772D01*
X159115694Y-62980206D01*
X159115689Y-62980211D01*
X158959727Y-63149630D01*
X158893808Y-63250528D01*
X158840662Y-63295884D01*
X158771431Y-63305308D01*
X158708095Y-63275806D01*
X158686192Y-63250528D01*
X158620272Y-63149630D01*
X158583104Y-63109256D01*
X158464308Y-62980208D01*
X158396036Y-62927070D01*
X158282591Y-62838772D01*
X158080069Y-62729172D01*
X158080061Y-62729169D01*
X157862274Y-62654402D01*
X157691920Y-62625975D01*
X157635137Y-62616500D01*
X157404863Y-62616500D01*
X157359436Y-62624080D01*
X157177725Y-62654402D01*
X156959938Y-62729169D01*
X156959930Y-62729172D01*
X156757408Y-62838772D01*
X156575694Y-62980206D01*
X156575689Y-62980211D01*
X156419727Y-63149630D01*
X156353808Y-63250528D01*
X156300662Y-63295884D01*
X156231431Y-63305308D01*
X156168095Y-63275806D01*
X156146192Y-63250528D01*
X156080272Y-63149630D01*
X156043104Y-63109256D01*
X155924308Y-62980208D01*
X155856036Y-62927070D01*
X155742591Y-62838772D01*
X155742586Y-62838769D01*
X155645481Y-62786217D01*
X155595891Y-62736997D01*
X155580500Y-62677163D01*
X155580500Y-52956482D01*
X155600185Y-52889443D01*
X155645483Y-52847427D01*
X155679500Y-52829018D01*
X155782589Y-52773229D01*
X155964308Y-52631792D01*
X156120269Y-52462373D01*
X156246217Y-52269595D01*
X156338717Y-52058716D01*
X156395246Y-51835488D01*
X156406097Y-51704539D01*
X156414262Y-51606005D01*
X158705738Y-51606005D01*
X158724753Y-51835484D01*
X158781282Y-52058714D01*
X158873782Y-52269594D01*
X158999728Y-52462370D01*
X158999731Y-52462373D01*
X159155692Y-52631792D01*
X159337411Y-52773229D01*
X159539931Y-52882828D01*
X159653025Y-52921653D01*
X159757725Y-52957597D01*
X159757727Y-52957597D01*
X159757729Y-52957598D01*
X159984863Y-52995500D01*
X159984864Y-52995500D01*
X160215136Y-52995500D01*
X160215137Y-52995500D01*
X160442271Y-52957598D01*
X160660069Y-52882828D01*
X160862589Y-52773229D01*
X161044308Y-52631792D01*
X161200269Y-52462373D01*
X161266191Y-52361472D01*
X161319337Y-52316115D01*
X161388569Y-52306691D01*
X161451905Y-52336193D01*
X161473809Y-52361472D01*
X161539728Y-52462370D01*
X161539731Y-52462373D01*
X161695692Y-52631792D01*
X161877411Y-52773229D01*
X162079931Y-52882828D01*
X162193025Y-52921653D01*
X162297725Y-52957597D01*
X162297727Y-52957597D01*
X162297729Y-52957598D01*
X162524863Y-52995500D01*
X162524864Y-52995500D01*
X162755136Y-52995500D01*
X162755137Y-52995500D01*
X162982271Y-52957598D01*
X163200069Y-52882828D01*
X163402589Y-52773229D01*
X163584308Y-52631792D01*
X163740269Y-52462373D01*
X163806191Y-52361472D01*
X163859337Y-52316115D01*
X163928569Y-52306691D01*
X163991905Y-52336193D01*
X164013809Y-52361472D01*
X164079728Y-52462370D01*
X164079731Y-52462373D01*
X164235692Y-52631792D01*
X164417411Y-52773229D01*
X164619931Y-52882828D01*
X164733025Y-52921653D01*
X164837725Y-52957597D01*
X164837727Y-52957597D01*
X164837729Y-52957598D01*
X165064863Y-52995500D01*
X165064864Y-52995500D01*
X165295136Y-52995500D01*
X165295137Y-52995500D01*
X165522271Y-52957598D01*
X165740069Y-52882828D01*
X165942589Y-52773229D01*
X166124308Y-52631792D01*
X166280269Y-52462373D01*
X166346191Y-52361472D01*
X166399337Y-52316115D01*
X166468569Y-52306691D01*
X166531905Y-52336193D01*
X166553809Y-52361472D01*
X166619728Y-52462370D01*
X166619731Y-52462373D01*
X166775692Y-52631792D01*
X166957411Y-52773229D01*
X167159931Y-52882828D01*
X167273025Y-52921653D01*
X167377725Y-52957597D01*
X167377727Y-52957597D01*
X167377729Y-52957598D01*
X167604863Y-52995500D01*
X167604864Y-52995500D01*
X167835136Y-52995500D01*
X167835137Y-52995500D01*
X168062271Y-52957598D01*
X168280069Y-52882828D01*
X168482589Y-52773229D01*
X168664308Y-52631792D01*
X168820269Y-52462373D01*
X168886191Y-52361472D01*
X168939337Y-52316115D01*
X169008569Y-52306691D01*
X169071905Y-52336193D01*
X169093809Y-52361472D01*
X169159728Y-52462370D01*
X169159731Y-52462373D01*
X169315692Y-52631792D01*
X169497411Y-52773229D01*
X169699931Y-52882828D01*
X169813025Y-52921653D01*
X169917725Y-52957597D01*
X169917727Y-52957597D01*
X169917729Y-52957598D01*
X170144863Y-52995500D01*
X170144864Y-52995500D01*
X170375136Y-52995500D01*
X170375137Y-52995500D01*
X170602271Y-52957598D01*
X170820069Y-52882828D01*
X171022589Y-52773229D01*
X171204308Y-52631792D01*
X171360269Y-52462373D01*
X171426191Y-52361472D01*
X171479337Y-52316115D01*
X171548569Y-52306691D01*
X171611905Y-52336193D01*
X171633809Y-52361472D01*
X171699728Y-52462370D01*
X171699731Y-52462373D01*
X171855692Y-52631792D01*
X172037411Y-52773229D01*
X172239931Y-52882828D01*
X172353025Y-52921653D01*
X172457725Y-52957597D01*
X172457727Y-52957597D01*
X172457729Y-52957598D01*
X172684863Y-52995500D01*
X172684864Y-52995500D01*
X172915136Y-52995500D01*
X172915137Y-52995500D01*
X173142271Y-52957598D01*
X173360069Y-52882828D01*
X173562589Y-52773229D01*
X173744308Y-52631792D01*
X173900269Y-52462373D01*
X173966191Y-52361472D01*
X174019337Y-52316115D01*
X174088569Y-52306691D01*
X174151905Y-52336193D01*
X174173809Y-52361472D01*
X174239728Y-52462370D01*
X174239731Y-52462373D01*
X174395692Y-52631792D01*
X174577411Y-52773229D01*
X174779931Y-52882828D01*
X174893025Y-52921653D01*
X174997725Y-52957597D01*
X174997727Y-52957597D01*
X174997729Y-52957598D01*
X175224863Y-52995500D01*
X175224864Y-52995500D01*
X175455136Y-52995500D01*
X175455137Y-52995500D01*
X175682271Y-52957598D01*
X175900069Y-52882828D01*
X176102589Y-52773229D01*
X176284308Y-52631792D01*
X176440269Y-52462373D01*
X176506191Y-52361472D01*
X176559337Y-52316115D01*
X176628569Y-52306691D01*
X176691905Y-52336193D01*
X176713809Y-52361472D01*
X176779728Y-52462370D01*
X176779731Y-52462373D01*
X176935692Y-52631792D01*
X177117411Y-52773229D01*
X177319931Y-52882828D01*
X177433025Y-52921653D01*
X177537725Y-52957597D01*
X177537727Y-52957597D01*
X177537729Y-52957598D01*
X177764863Y-52995500D01*
X177764864Y-52995500D01*
X177995136Y-52995500D01*
X177995137Y-52995500D01*
X178222271Y-52957598D01*
X178440069Y-52882828D01*
X178642589Y-52773229D01*
X178824308Y-52631792D01*
X178980269Y-52462373D01*
X179106217Y-52269595D01*
X179198717Y-52058716D01*
X179255246Y-51835488D01*
X179266097Y-51704539D01*
X179274262Y-51606005D01*
X179274262Y-51605994D01*
X179255246Y-51376515D01*
X179255246Y-51376512D01*
X179198717Y-51153284D01*
X179106217Y-50942405D01*
X179081980Y-50905308D01*
X178980271Y-50749629D01*
X178913540Y-50677140D01*
X178824308Y-50580208D01*
X178692816Y-50477864D01*
X178642591Y-50438772D01*
X178440069Y-50329172D01*
X178440061Y-50329169D01*
X178222274Y-50254402D01*
X178051920Y-50225975D01*
X177995137Y-50216500D01*
X177764863Y-50216500D01*
X177719436Y-50224080D01*
X177537725Y-50254402D01*
X177319938Y-50329169D01*
X177319930Y-50329172D01*
X177117408Y-50438772D01*
X176935694Y-50580206D01*
X176935689Y-50580211D01*
X176779727Y-50749630D01*
X176713808Y-50850528D01*
X176660662Y-50895884D01*
X176591431Y-50905308D01*
X176528095Y-50875806D01*
X176506192Y-50850528D01*
X176440272Y-50749630D01*
X176373540Y-50677140D01*
X176284308Y-50580208D01*
X176152816Y-50477864D01*
X176102591Y-50438772D01*
X175900069Y-50329172D01*
X175900061Y-50329169D01*
X175682274Y-50254402D01*
X175511920Y-50225975D01*
X175455137Y-50216500D01*
X175224863Y-50216500D01*
X175179436Y-50224080D01*
X174997725Y-50254402D01*
X174779938Y-50329169D01*
X174779930Y-50329172D01*
X174577408Y-50438772D01*
X174395694Y-50580206D01*
X174395689Y-50580211D01*
X174239727Y-50749630D01*
X174173808Y-50850528D01*
X174120662Y-50895884D01*
X174051431Y-50905308D01*
X173988095Y-50875806D01*
X173966192Y-50850528D01*
X173900272Y-50749630D01*
X173833540Y-50677140D01*
X173744308Y-50580208D01*
X173612816Y-50477864D01*
X173562591Y-50438772D01*
X173360069Y-50329172D01*
X173360061Y-50329169D01*
X173142274Y-50254402D01*
X172971920Y-50225975D01*
X172915137Y-50216500D01*
X172684863Y-50216500D01*
X172639436Y-50224080D01*
X172457725Y-50254402D01*
X172239938Y-50329169D01*
X172239930Y-50329172D01*
X172037408Y-50438772D01*
X171855694Y-50580206D01*
X171855689Y-50580211D01*
X171699727Y-50749630D01*
X171633808Y-50850528D01*
X171580662Y-50895884D01*
X171511431Y-50905308D01*
X171448095Y-50875806D01*
X171426192Y-50850528D01*
X171360272Y-50749630D01*
X171293540Y-50677140D01*
X171204308Y-50580208D01*
X171072816Y-50477864D01*
X171022591Y-50438772D01*
X170820069Y-50329172D01*
X170820061Y-50329169D01*
X170602274Y-50254402D01*
X170431920Y-50225975D01*
X170375137Y-50216500D01*
X170144863Y-50216500D01*
X170099436Y-50224080D01*
X169917725Y-50254402D01*
X169699938Y-50329169D01*
X169699930Y-50329172D01*
X169497408Y-50438772D01*
X169315694Y-50580206D01*
X169315689Y-50580211D01*
X169159727Y-50749630D01*
X169093808Y-50850528D01*
X169040662Y-50895884D01*
X168971431Y-50905308D01*
X168908095Y-50875806D01*
X168886192Y-50850528D01*
X168820272Y-50749630D01*
X168753540Y-50677140D01*
X168664308Y-50580208D01*
X168532816Y-50477864D01*
X168482591Y-50438772D01*
X168280069Y-50329172D01*
X168280061Y-50329169D01*
X168062274Y-50254402D01*
X167891920Y-50225975D01*
X167835137Y-50216500D01*
X167604863Y-50216500D01*
X167559436Y-50224080D01*
X167377725Y-50254402D01*
X167159938Y-50329169D01*
X167159930Y-50329172D01*
X166957408Y-50438772D01*
X166775694Y-50580206D01*
X166775689Y-50580211D01*
X166619727Y-50749630D01*
X166553808Y-50850528D01*
X166500662Y-50895884D01*
X166431431Y-50905308D01*
X166368095Y-50875806D01*
X166346192Y-50850528D01*
X166280272Y-50749630D01*
X166213540Y-50677140D01*
X166124308Y-50580208D01*
X165992816Y-50477864D01*
X165942591Y-50438772D01*
X165740069Y-50329172D01*
X165740061Y-50329169D01*
X165522274Y-50254402D01*
X165351920Y-50225975D01*
X165295137Y-50216500D01*
X165064863Y-50216500D01*
X165019436Y-50224080D01*
X164837725Y-50254402D01*
X164619938Y-50329169D01*
X164619930Y-50329172D01*
X164417408Y-50438772D01*
X164235694Y-50580206D01*
X164235689Y-50580211D01*
X164079727Y-50749630D01*
X164013808Y-50850528D01*
X163960662Y-50895884D01*
X163891431Y-50905308D01*
X163828095Y-50875806D01*
X163806192Y-50850528D01*
X163740272Y-50749630D01*
X163673540Y-50677140D01*
X163584308Y-50580208D01*
X163452816Y-50477864D01*
X163402591Y-50438772D01*
X163200069Y-50329172D01*
X163200061Y-50329169D01*
X162982274Y-50254402D01*
X162811920Y-50225975D01*
X162755137Y-50216500D01*
X162524863Y-50216500D01*
X162479436Y-50224080D01*
X162297725Y-50254402D01*
X162079938Y-50329169D01*
X162079930Y-50329172D01*
X161877408Y-50438772D01*
X161695694Y-50580206D01*
X161695689Y-50580211D01*
X161539727Y-50749630D01*
X161473808Y-50850528D01*
X161420662Y-50895884D01*
X161351431Y-50905308D01*
X161288095Y-50875806D01*
X161266192Y-50850528D01*
X161200272Y-50749630D01*
X161133540Y-50677140D01*
X161044308Y-50580208D01*
X160912816Y-50477864D01*
X160862591Y-50438772D01*
X160660069Y-50329172D01*
X160660061Y-50329169D01*
X160442274Y-50254402D01*
X160271920Y-50225975D01*
X160215137Y-50216500D01*
X159984863Y-50216500D01*
X159939436Y-50224080D01*
X159757725Y-50254402D01*
X159539938Y-50329169D01*
X159539930Y-50329172D01*
X159337408Y-50438772D01*
X159155694Y-50580206D01*
X159155689Y-50580211D01*
X158999728Y-50749629D01*
X158873782Y-50942405D01*
X158781282Y-51153285D01*
X158724753Y-51376515D01*
X158705738Y-51605994D01*
X158705738Y-51606005D01*
X156414262Y-51606005D01*
X156414262Y-51605994D01*
X156395246Y-51376515D01*
X156395246Y-51376512D01*
X156338717Y-51153284D01*
X156246217Y-50942405D01*
X156221980Y-50905308D01*
X156120271Y-50749629D01*
X156053540Y-50677140D01*
X155964308Y-50580208D01*
X155832816Y-50477864D01*
X155782591Y-50438772D01*
X155580069Y-50329172D01*
X155580061Y-50329169D01*
X155362274Y-50254402D01*
X155191920Y-50225975D01*
X155135137Y-50216500D01*
X154904863Y-50216500D01*
X154859436Y-50224080D01*
X154677725Y-50254402D01*
X154459938Y-50329169D01*
X154459930Y-50329172D01*
X154257408Y-50438772D01*
X154257404Y-50438775D01*
X154222693Y-50465791D01*
X154157698Y-50491432D01*
X154089159Y-50477864D01*
X154058852Y-50455617D01*
X153447590Y-49844355D01*
X153447588Y-49844352D01*
X153328717Y-49725481D01*
X153328716Y-49725480D01*
X153241904Y-49675360D01*
X153241904Y-49675359D01*
X153241900Y-49675358D01*
X153191785Y-49646423D01*
X153039057Y-49605499D01*
X152880943Y-49605499D01*
X152873347Y-49605499D01*
X152873331Y-49605500D01*
X129380940Y-49605500D01*
X129340019Y-49616464D01*
X129340019Y-49616465D01*
X129302751Y-49626451D01*
X129228214Y-49646423D01*
X129228209Y-49646426D01*
X129091290Y-49725475D01*
X129091282Y-49725481D01*
X127179481Y-51637282D01*
X127179479Y-51637285D01*
X127140651Y-51704539D01*
X127140650Y-51704540D01*
X127100423Y-51774215D01*
X127059499Y-51926943D01*
X127059499Y-51926945D01*
X127059499Y-52095046D01*
X127059500Y-52095059D01*
X127059500Y-59376754D01*
X127039815Y-59443793D01*
X127000778Y-59482181D01*
X126933436Y-59523877D01*
X126769020Y-59673761D01*
X126634943Y-59851308D01*
X126634938Y-59851316D01*
X126535775Y-60050461D01*
X126535769Y-60050476D01*
X126474885Y-60264462D01*
X126474884Y-60264464D01*
X126454357Y-60485999D01*
X126454357Y-60486000D01*
X126474884Y-60707535D01*
X126474885Y-60707537D01*
X126535769Y-60921523D01*
X126535775Y-60921538D01*
X126634938Y-61120683D01*
X126634943Y-61120691D01*
X126769020Y-61298238D01*
X126933437Y-61448123D01*
X126933439Y-61448125D01*
X127122595Y-61565245D01*
X127122596Y-61565245D01*
X127122599Y-61565247D01*
X127330060Y-61645618D01*
X127548757Y-61686500D01*
X127548759Y-61686500D01*
X127771241Y-61686500D01*
X127771243Y-61686500D01*
X127989940Y-61645618D01*
X128197401Y-61565247D01*
X128386562Y-61448124D01*
X128550981Y-61298236D01*
X128685058Y-61120689D01*
X128784229Y-60921528D01*
X128845115Y-60707536D01*
X128865643Y-60486000D01*
X128845115Y-60264464D01*
X128784229Y-60050472D01*
X128784224Y-60050461D01*
X128685061Y-59851316D01*
X128685056Y-59851308D01*
X128550979Y-59673761D01*
X128386563Y-59523877D01*
X128386562Y-59523876D01*
X128319221Y-59482180D01*
X128272587Y-59430153D01*
X128260500Y-59376754D01*
X128260500Y-52306097D01*
X128280185Y-52239058D01*
X128296819Y-52218416D01*
X129672416Y-50842819D01*
X129733739Y-50809334D01*
X129760097Y-50806500D01*
X130803600Y-50806500D01*
X130870639Y-50826185D01*
X130916394Y-50878989D01*
X130926338Y-50948147D01*
X130917156Y-50980310D01*
X130841282Y-51153285D01*
X130784753Y-51376515D01*
X130765738Y-51605994D01*
X130765738Y-51606005D01*
X130784753Y-51835484D01*
X130841282Y-52058714D01*
X130933782Y-52269594D01*
X131059728Y-52462370D01*
X131059731Y-52462373D01*
X131215692Y-52631792D01*
X131397411Y-52773229D01*
X131599931Y-52882828D01*
X131713025Y-52921653D01*
X131817725Y-52957597D01*
X131817727Y-52957597D01*
X131817729Y-52957598D01*
X132044863Y-52995500D01*
X132044864Y-52995500D01*
X132275136Y-52995500D01*
X132275137Y-52995500D01*
X132502271Y-52957598D01*
X132720069Y-52882828D01*
X132922589Y-52773229D01*
X133104308Y-52631792D01*
X133260269Y-52462373D01*
X133326191Y-52361472D01*
X133379337Y-52316115D01*
X133448569Y-52306691D01*
X133511905Y-52336193D01*
X133533809Y-52361472D01*
X133599728Y-52462370D01*
X133599731Y-52462373D01*
X133755692Y-52631792D01*
X133937411Y-52773229D01*
X134139931Y-52882828D01*
X134253025Y-52921653D01*
X134357725Y-52957597D01*
X134357727Y-52957597D01*
X134357729Y-52957598D01*
X134584863Y-52995500D01*
X134584864Y-52995500D01*
X134815136Y-52995500D01*
X134815137Y-52995500D01*
X135042271Y-52957598D01*
X135260069Y-52882828D01*
X135462589Y-52773229D01*
X135644308Y-52631792D01*
X135800269Y-52462373D01*
X135866191Y-52361472D01*
X135919337Y-52316115D01*
X135988569Y-52306691D01*
X136051905Y-52336193D01*
X136073809Y-52361472D01*
X136139728Y-52462370D01*
X136139731Y-52462373D01*
X136295692Y-52631792D01*
X136477411Y-52773229D01*
X136679931Y-52882828D01*
X136793025Y-52921653D01*
X136897725Y-52957597D01*
X136897727Y-52957597D01*
X136897729Y-52957598D01*
X137124863Y-52995500D01*
X137124864Y-52995500D01*
X137355136Y-52995500D01*
X137355137Y-52995500D01*
X137582271Y-52957598D01*
X137800069Y-52882828D01*
X138002589Y-52773229D01*
X138184308Y-52631792D01*
X138340269Y-52462373D01*
X138406191Y-52361472D01*
X138459337Y-52316115D01*
X138528569Y-52306691D01*
X138591905Y-52336193D01*
X138613809Y-52361472D01*
X138679728Y-52462370D01*
X138679731Y-52462373D01*
X138835692Y-52631792D01*
X139017411Y-52773229D01*
X139219931Y-52882828D01*
X139333025Y-52921653D01*
X139437725Y-52957597D01*
X139437727Y-52957597D01*
X139437729Y-52957598D01*
X139664863Y-52995500D01*
X139664864Y-52995500D01*
X139895136Y-52995500D01*
X139895137Y-52995500D01*
X140122271Y-52957598D01*
X140340069Y-52882828D01*
X140542589Y-52773229D01*
X140724308Y-52631792D01*
X140880269Y-52462373D01*
X140946191Y-52361472D01*
X140999337Y-52316115D01*
X141068569Y-52306691D01*
X141131905Y-52336193D01*
X141153809Y-52361472D01*
X141219728Y-52462370D01*
X141219731Y-52462373D01*
X141375692Y-52631792D01*
X141557411Y-52773229D01*
X141759931Y-52882828D01*
X141873025Y-52921653D01*
X141977725Y-52957597D01*
X141977727Y-52957597D01*
X141977729Y-52957598D01*
X142204863Y-52995500D01*
X142204864Y-52995500D01*
X142435136Y-52995500D01*
X142435137Y-52995500D01*
X142662271Y-52957598D01*
X142718508Y-52938292D01*
X142795237Y-52911951D01*
X142865036Y-52908801D01*
X142925457Y-52943887D01*
X142957318Y-53006070D01*
X142959500Y-53029232D01*
X142959500Y-62596499D01*
X142939815Y-62663538D01*
X142887011Y-62709293D01*
X142817853Y-62719237D01*
X142795238Y-62713780D01*
X142622276Y-62654402D01*
X142432992Y-62622817D01*
X142395137Y-62616500D01*
X142164863Y-62616500D01*
X142119436Y-62624080D01*
X141937725Y-62654402D01*
X141719938Y-62729169D01*
X141719930Y-62729172D01*
X141517408Y-62838772D01*
X141335694Y-62980206D01*
X141335689Y-62980211D01*
X141179727Y-63149630D01*
X141113808Y-63250528D01*
X141060662Y-63295884D01*
X140991431Y-63305308D01*
X140928095Y-63275806D01*
X140906192Y-63250528D01*
X140840272Y-63149630D01*
X140803104Y-63109256D01*
X140684308Y-62980208D01*
X140616036Y-62927070D01*
X140502591Y-62838772D01*
X140300069Y-62729172D01*
X140300061Y-62729169D01*
X140082274Y-62654402D01*
X139911920Y-62625975D01*
X139855137Y-62616500D01*
X139624863Y-62616500D01*
X139579436Y-62624080D01*
X139397725Y-62654402D01*
X139179938Y-62729169D01*
X139179930Y-62729172D01*
X138977408Y-62838772D01*
X138795694Y-62980206D01*
X138795689Y-62980211D01*
X138639727Y-63149630D01*
X138573808Y-63250528D01*
X138520662Y-63295884D01*
X138451431Y-63305308D01*
X138388095Y-63275806D01*
X138366192Y-63250528D01*
X138300272Y-63149630D01*
X138263104Y-63109256D01*
X138144308Y-62980208D01*
X138076036Y-62927070D01*
X137962591Y-62838772D01*
X137760069Y-62729172D01*
X137760061Y-62729169D01*
X137542274Y-62654402D01*
X137371920Y-62625975D01*
X137315137Y-62616500D01*
X137084863Y-62616500D01*
X137039436Y-62624080D01*
X136857725Y-62654402D01*
X136639938Y-62729169D01*
X136639930Y-62729172D01*
X136437408Y-62838772D01*
X136255694Y-62980206D01*
X136255689Y-62980211D01*
X136099728Y-63149629D01*
X135973782Y-63342405D01*
X135881282Y-63553285D01*
X135824753Y-63776515D01*
X135805738Y-64005994D01*
X135805738Y-64006005D01*
X135824753Y-64235484D01*
X135881282Y-64458714D01*
X135973782Y-64669594D01*
X136099728Y-64862370D01*
X136099731Y-64862373D01*
X136255692Y-65031792D01*
X136437411Y-65173229D01*
X136639931Y-65282828D01*
X136753025Y-65321653D01*
X136857725Y-65357597D01*
X136857727Y-65357597D01*
X136857729Y-65357598D01*
X137084863Y-65395500D01*
X137084864Y-65395500D01*
X137315136Y-65395500D01*
X137315137Y-65395500D01*
X137542271Y-65357598D01*
X137760069Y-65282828D01*
X137962589Y-65173229D01*
X138144308Y-65031792D01*
X138300269Y-64862373D01*
X138366191Y-64761472D01*
X138419337Y-64716115D01*
X138488569Y-64706691D01*
X138551905Y-64736193D01*
X138573809Y-64761472D01*
X138639728Y-64862370D01*
X138639731Y-64862373D01*
X138795692Y-65031792D01*
X138977411Y-65173229D01*
X139179931Y-65282828D01*
X139293025Y-65321653D01*
X139397725Y-65357597D01*
X139397727Y-65357597D01*
X139397729Y-65357598D01*
X139624863Y-65395500D01*
X139624864Y-65395500D01*
X139855136Y-65395500D01*
X139855137Y-65395500D01*
X140082271Y-65357598D01*
X140300069Y-65282828D01*
X140502589Y-65173229D01*
X140684308Y-65031792D01*
X140840269Y-64862373D01*
X140906191Y-64761472D01*
X140959337Y-64716115D01*
X141028569Y-64706691D01*
X141091905Y-64736193D01*
X141113809Y-64761472D01*
X141179728Y-64862370D01*
X141179731Y-64862373D01*
X141335692Y-65031792D01*
X141517411Y-65173229D01*
X141719931Y-65282828D01*
X141833025Y-65321653D01*
X141937725Y-65357597D01*
X141937727Y-65357597D01*
X141937729Y-65357598D01*
X142164863Y-65395500D01*
X142164864Y-65395500D01*
X142395136Y-65395500D01*
X142395137Y-65395500D01*
X142622271Y-65357598D01*
X142741450Y-65316684D01*
X142795237Y-65298219D01*
X142865036Y-65295069D01*
X142925457Y-65330155D01*
X142957318Y-65392338D01*
X142959500Y-65415500D01*
X142959500Y-82916500D01*
X142939815Y-82983539D01*
X142887011Y-83029294D01*
X142817853Y-83039238D01*
X142795237Y-83033781D01*
X142622274Y-82974402D01*
X142433538Y-82942908D01*
X142395137Y-82936500D01*
X142164863Y-82936500D01*
X142126462Y-82942908D01*
X141937725Y-82974402D01*
X141719938Y-83049169D01*
X141719930Y-83049172D01*
X141517408Y-83158772D01*
X141335694Y-83300206D01*
X141335689Y-83300211D01*
X141179727Y-83469630D01*
X141113808Y-83570528D01*
X141060662Y-83615884D01*
X140991431Y-83625308D01*
X140928095Y-83595806D01*
X140906192Y-83570528D01*
X140840272Y-83469630D01*
X140766165Y-83389129D01*
X140684308Y-83300208D01*
X140531775Y-83181487D01*
X140502591Y-83158772D01*
X140300069Y-83049172D01*
X140300061Y-83049169D01*
X140082274Y-82974402D01*
X139893538Y-82942908D01*
X139855137Y-82936500D01*
X139624863Y-82936500D01*
X139586462Y-82942908D01*
X139397725Y-82974402D01*
X139179938Y-83049169D01*
X139179930Y-83049172D01*
X138977408Y-83158772D01*
X138795694Y-83300206D01*
X138795689Y-83300211D01*
X138639727Y-83469630D01*
X138573808Y-83570528D01*
X138520662Y-83615884D01*
X138451431Y-83625308D01*
X138388095Y-83595806D01*
X138366192Y-83570528D01*
X138300272Y-83469630D01*
X138226165Y-83389129D01*
X138144308Y-83300208D01*
X137991775Y-83181487D01*
X137962591Y-83158772D01*
X137760069Y-83049172D01*
X137760061Y-83049169D01*
X137542274Y-82974402D01*
X137353538Y-82942908D01*
X137315137Y-82936500D01*
X137084863Y-82936500D01*
X137046462Y-82942908D01*
X136857725Y-82974402D01*
X136639938Y-83049169D01*
X136639930Y-83049172D01*
X136437408Y-83158772D01*
X136255694Y-83300206D01*
X136255689Y-83300211D01*
X136099728Y-83469629D01*
X135973782Y-83662405D01*
X135881282Y-83873285D01*
X135824753Y-84096515D01*
X135805738Y-84325994D01*
X135805738Y-84326005D01*
X135824753Y-84555484D01*
X135881282Y-84778714D01*
X135973782Y-84989594D01*
X136099728Y-85182370D01*
X136099731Y-85182373D01*
X136255692Y-85351792D01*
X136351138Y-85426080D01*
X136436868Y-85492807D01*
X136437411Y-85493229D01*
X136639931Y-85602828D01*
X136753025Y-85641653D01*
X136857725Y-85677597D01*
X136857727Y-85677597D01*
X136857729Y-85677598D01*
X137084863Y-85715500D01*
X137084864Y-85715500D01*
X137315136Y-85715500D01*
X137315137Y-85715500D01*
X137542271Y-85677598D01*
X137543693Y-85677110D01*
X137550662Y-85674717D01*
X137760069Y-85602828D01*
X137962589Y-85493229D01*
X138144308Y-85351792D01*
X138300269Y-85182373D01*
X138322759Y-85147950D01*
X138366191Y-85081472D01*
X138419337Y-85036115D01*
X138488569Y-85026691D01*
X138551905Y-85056193D01*
X138573809Y-85081472D01*
X138639728Y-85182370D01*
X138639731Y-85182373D01*
X138795692Y-85351792D01*
X138891138Y-85426080D01*
X138976868Y-85492807D01*
X138977411Y-85493229D01*
X139179931Y-85602828D01*
X139293025Y-85641653D01*
X139397725Y-85677597D01*
X139397727Y-85677597D01*
X139397729Y-85677598D01*
X139624863Y-85715500D01*
X139624864Y-85715500D01*
X139855136Y-85715500D01*
X139855137Y-85715500D01*
X140082271Y-85677598D01*
X140083693Y-85677110D01*
X140090662Y-85674717D01*
X140300069Y-85602828D01*
X140502589Y-85493229D01*
X140684308Y-85351792D01*
X140840269Y-85182373D01*
X140862759Y-85147950D01*
X140906191Y-85081472D01*
X140959337Y-85036115D01*
X141028569Y-85026691D01*
X141091905Y-85056193D01*
X141113809Y-85081472D01*
X141179728Y-85182370D01*
X141179731Y-85182373D01*
X141335692Y-85351792D01*
X141431138Y-85426080D01*
X141516868Y-85492807D01*
X141517411Y-85493229D01*
X141719931Y-85602828D01*
X141833025Y-85641653D01*
X141937725Y-85677597D01*
X141937727Y-85677597D01*
X141937729Y-85677598D01*
X142164863Y-85715500D01*
X142164864Y-85715500D01*
X142395136Y-85715500D01*
X142395137Y-85715500D01*
X142622271Y-85677598D01*
X142623693Y-85677110D01*
X142630662Y-85674717D01*
X142840069Y-85602828D01*
X143042589Y-85493229D01*
X143224308Y-85351792D01*
X143380269Y-85182373D01*
X143402759Y-85147950D01*
X143446191Y-85081472D01*
X143499337Y-85036115D01*
X143568569Y-85026691D01*
X143631905Y-85056193D01*
X143653809Y-85081472D01*
X143719728Y-85182370D01*
X143719731Y-85182373D01*
X143875692Y-85351792D01*
X143971138Y-85426080D01*
X144056868Y-85492807D01*
X144057411Y-85493229D01*
X144259931Y-85602828D01*
X144373025Y-85641653D01*
X144477725Y-85677597D01*
X144477727Y-85677597D01*
X144477729Y-85677598D01*
X144704863Y-85715500D01*
X144704864Y-85715500D01*
X144935136Y-85715500D01*
X144935137Y-85715500D01*
X145162271Y-85677598D01*
X145163693Y-85677110D01*
X145170662Y-85674717D01*
X145380069Y-85602828D01*
X145582589Y-85493229D01*
X145764308Y-85351792D01*
X145920269Y-85182373D01*
X145942759Y-85147950D01*
X145986191Y-85081472D01*
X146039337Y-85036115D01*
X146108569Y-85026691D01*
X146171905Y-85056193D01*
X146193809Y-85081472D01*
X146259728Y-85182370D01*
X146259731Y-85182373D01*
X146415692Y-85351792D01*
X146511138Y-85426080D01*
X146596868Y-85492807D01*
X146597411Y-85493229D01*
X146799931Y-85602828D01*
X146913025Y-85641653D01*
X147017725Y-85677597D01*
X147017727Y-85677597D01*
X147017729Y-85677598D01*
X147244863Y-85715500D01*
X147244864Y-85715500D01*
X147475136Y-85715500D01*
X147475137Y-85715500D01*
X147702271Y-85677598D01*
X147703693Y-85677110D01*
X147710662Y-85674717D01*
X147920069Y-85602828D01*
X148122589Y-85493229D01*
X148304308Y-85351792D01*
X148460269Y-85182373D01*
X148482759Y-85147950D01*
X148526191Y-85081472D01*
X148579337Y-85036115D01*
X148648569Y-85026691D01*
X148711905Y-85056193D01*
X148733809Y-85081472D01*
X148799728Y-85182370D01*
X148799731Y-85182373D01*
X148955692Y-85351792D01*
X149051138Y-85426080D01*
X149136868Y-85492807D01*
X149137411Y-85493229D01*
X149339931Y-85602828D01*
X149453025Y-85641653D01*
X149557725Y-85677597D01*
X149557727Y-85677597D01*
X149557729Y-85677598D01*
X149784863Y-85715500D01*
X149784864Y-85715500D01*
X149901901Y-85715500D01*
X149968940Y-85735185D01*
X150014695Y-85787989D01*
X150024639Y-85857147D01*
X149995614Y-85920703D01*
X149989582Y-85927181D01*
X137791286Y-98125478D01*
X137679481Y-98237282D01*
X137679479Y-98237285D01*
X137629361Y-98324094D01*
X137629359Y-98324096D01*
X137600425Y-98374209D01*
X137600424Y-98374210D01*
X137600423Y-98374215D01*
X137559499Y-98526943D01*
X137559499Y-98526945D01*
X137559499Y-98695046D01*
X137559500Y-98695059D01*
X137559500Y-109330390D01*
X137539815Y-109397429D01*
X137487011Y-109443184D01*
X137417853Y-109453128D01*
X137362615Y-109430709D01*
X137212993Y-109322003D01*
X137051639Y-109239788D01*
X137051636Y-109239787D01*
X136879410Y-109183829D01*
X136700551Y-109155500D01*
X136700546Y-109155500D01*
X136519454Y-109155500D01*
X136519449Y-109155500D01*
X136340589Y-109183829D01*
X136168363Y-109239787D01*
X136168360Y-109239788D01*
X136007002Y-109322006D01*
X135860505Y-109428441D01*
X135860500Y-109428445D01*
X135732445Y-109556500D01*
X135732441Y-109556505D01*
X135626006Y-109703002D01*
X135543788Y-109864360D01*
X135543787Y-109864363D01*
X135487829Y-110036589D01*
X135459500Y-110215448D01*
X135459500Y-110396551D01*
X135487829Y-110575410D01*
X135543787Y-110747636D01*
X135543788Y-110747639D01*
X135626006Y-110908997D01*
X135732441Y-111055494D01*
X135732445Y-111055499D01*
X135860500Y-111183554D01*
X135860505Y-111183558D01*
X135987591Y-111275890D01*
X136007006Y-111289996D01*
X136089596Y-111332078D01*
X136168360Y-111372211D01*
X136168363Y-111372212D01*
X136254476Y-111400191D01*
X136340591Y-111428171D01*
X136423429Y-111441291D01*
X136519449Y-111456500D01*
X136519454Y-111456500D01*
X136700551Y-111456500D01*
X136787259Y-111442765D01*
X136879409Y-111428171D01*
X137051639Y-111372211D01*
X137212994Y-111289996D01*
X137310275Y-111219317D01*
X137362615Y-111181291D01*
X137428421Y-111157811D01*
X137496475Y-111173637D01*
X137545170Y-111223742D01*
X137559500Y-111281609D01*
X137559500Y-118330390D01*
X137539815Y-118397429D01*
X137487011Y-118443184D01*
X137417853Y-118453128D01*
X137362615Y-118430709D01*
X137212993Y-118322003D01*
X137051639Y-118239788D01*
X137051636Y-118239787D01*
X136879410Y-118183829D01*
X136700551Y-118155500D01*
X136700546Y-118155500D01*
X136519454Y-118155500D01*
X136519449Y-118155500D01*
X136340589Y-118183829D01*
X136168363Y-118239787D01*
X136168360Y-118239788D01*
X136007002Y-118322006D01*
X135860505Y-118428441D01*
X135860500Y-118428445D01*
X135732445Y-118556500D01*
X135732441Y-118556505D01*
X135626006Y-118703002D01*
X135543788Y-118864360D01*
X135543787Y-118864363D01*
X135487829Y-119036589D01*
X135459500Y-119215448D01*
X135459500Y-119396551D01*
X135487829Y-119575410D01*
X135543787Y-119747636D01*
X135543788Y-119747639D01*
X135599664Y-119857300D01*
X135624733Y-119906500D01*
X135626006Y-119908997D01*
X135732441Y-120055494D01*
X135732445Y-120055499D01*
X135860500Y-120183554D01*
X135860505Y-120183558D01*
X135988287Y-120276396D01*
X136007006Y-120289996D01*
X136112484Y-120343740D01*
X136168360Y-120372211D01*
X136168363Y-120372212D01*
X136254476Y-120400191D01*
X136340591Y-120428171D01*
X136423429Y-120441291D01*
X136519449Y-120456500D01*
X136519454Y-120456500D01*
X136700551Y-120456500D01*
X136787259Y-120442765D01*
X136879409Y-120428171D01*
X137051639Y-120372211D01*
X137212994Y-120289996D01*
X137310275Y-120219317D01*
X137362615Y-120181291D01*
X137428421Y-120157811D01*
X137496475Y-120173637D01*
X137545170Y-120223742D01*
X137559500Y-120281609D01*
X137559500Y-123555903D01*
X137539815Y-123622942D01*
X137523181Y-123643584D01*
X129503988Y-131662776D01*
X129442665Y-131696261D01*
X129372973Y-131691277D01*
X129317040Y-131649405D01*
X129293834Y-131594493D01*
X129277246Y-131489757D01*
X129211557Y-131287588D01*
X129115051Y-131098184D01*
X129115049Y-131098181D01*
X129115048Y-131098179D01*
X128990109Y-130926213D01*
X128839786Y-130775890D01*
X128667820Y-130650951D01*
X128478414Y-130554444D01*
X128478413Y-130554443D01*
X128478412Y-130554443D01*
X128276243Y-130488754D01*
X128276241Y-130488753D01*
X128276240Y-130488753D01*
X128114957Y-130463208D01*
X128066287Y-130455500D01*
X126653713Y-130455500D01*
X126605042Y-130463208D01*
X126443760Y-130488753D01*
X126241585Y-130554444D01*
X126052179Y-130650951D01*
X125880213Y-130775890D01*
X125729890Y-130926213D01*
X125604951Y-131098179D01*
X125508444Y-131287585D01*
X125442753Y-131489760D01*
X125409500Y-131699713D01*
X125409500Y-131912286D01*
X125442753Y-132122239D01*
X125508444Y-132324414D01*
X125604951Y-132513820D01*
X125729890Y-132685786D01*
X125880213Y-132836109D01*
X126052179Y-132961048D01*
X126052181Y-132961049D01*
X126052184Y-132961051D01*
X126241588Y-133057557D01*
X126443757Y-133123246D01*
X126653713Y-133156500D01*
X127710903Y-133156500D01*
X127777942Y-133176185D01*
X127823697Y-133228989D01*
X127833641Y-133298147D01*
X127804616Y-133361703D01*
X127798584Y-133368181D01*
X115169129Y-145997634D01*
X115107806Y-146031119D01*
X115058664Y-146031841D01*
X114971243Y-146015500D01*
X114748757Y-146015500D01*
X114530060Y-146056382D01*
X114417851Y-146099852D01*
X114322601Y-146136752D01*
X114322595Y-146136754D01*
X114133439Y-146253874D01*
X114133437Y-146253876D01*
X113969020Y-146403761D01*
X113834943Y-146581308D01*
X113834938Y-146581316D01*
X113735775Y-146780461D01*
X113735769Y-146780476D01*
X113674885Y-146994462D01*
X113674884Y-146994464D01*
X113654357Y-147215999D01*
X113654357Y-147216000D01*
X113674884Y-147437535D01*
X113674885Y-147437537D01*
X113735769Y-147651523D01*
X113735775Y-147651538D01*
X113834938Y-147850683D01*
X113834943Y-147850691D01*
X113969020Y-148028238D01*
X114119038Y-148164997D01*
X114155320Y-148224708D01*
X114159500Y-148256634D01*
X114159500Y-149324306D01*
X114139815Y-149391345D01*
X114106623Y-149425881D01*
X113920859Y-149555953D01*
X113759954Y-149716858D01*
X113629432Y-149903265D01*
X113629431Y-149903267D01*
X113533261Y-150109502D01*
X113533258Y-150109511D01*
X113474366Y-150329302D01*
X113474364Y-150329313D01*
X113454532Y-150555998D01*
X113454532Y-150556001D01*
X113474364Y-150782686D01*
X113474366Y-150782697D01*
X113533258Y-151002488D01*
X113533261Y-151002497D01*
X113629431Y-151208732D01*
X113629432Y-151208734D01*
X113759954Y-151395141D01*
X113920858Y-151556045D01*
X113920861Y-151556047D01*
X114107266Y-151686568D01*
X114122387Y-151693619D01*
X114174825Y-151739791D01*
X114193976Y-151806985D01*
X114173760Y-151873866D01*
X114122387Y-151918380D01*
X114107266Y-151925432D01*
X114107264Y-151925433D01*
X113920858Y-152055954D01*
X113759954Y-152216858D01*
X113629432Y-152403265D01*
X113629431Y-152403267D01*
X113533261Y-152609502D01*
X113533258Y-152609511D01*
X113474366Y-152829302D01*
X113474364Y-152829313D01*
X113454532Y-153055998D01*
X113454532Y-153056001D01*
X110460500Y-153056001D01*
X110460500Y-131912286D01*
X112909500Y-131912286D01*
X112942753Y-132122239D01*
X113008444Y-132324414D01*
X113104951Y-132513820D01*
X113229890Y-132685786D01*
X113380213Y-132836109D01*
X113552179Y-132961048D01*
X113552181Y-132961049D01*
X113552184Y-132961051D01*
X113741588Y-133057557D01*
X113943757Y-133123246D01*
X114153713Y-133156500D01*
X114153717Y-133156500D01*
X114154898Y-133156687D01*
X114218032Y-133186616D01*
X114254964Y-133245927D01*
X114259500Y-133279160D01*
X114259500Y-138486754D01*
X114239815Y-138553793D01*
X114200778Y-138592181D01*
X114133436Y-138633877D01*
X113969020Y-138783761D01*
X113834943Y-138961308D01*
X113834938Y-138961316D01*
X113735775Y-139160461D01*
X113735769Y-139160476D01*
X113674885Y-139374462D01*
X113674884Y-139374464D01*
X113654357Y-139595999D01*
X113654357Y-139596000D01*
X113674884Y-139817535D01*
X113674885Y-139817537D01*
X113735769Y-140031523D01*
X113735775Y-140031538D01*
X113834938Y-140230683D01*
X113834943Y-140230691D01*
X113969020Y-140408238D01*
X114133437Y-140558123D01*
X114133439Y-140558125D01*
X114322595Y-140675245D01*
X114322596Y-140675245D01*
X114322599Y-140675247D01*
X114530060Y-140755618D01*
X114748757Y-140796500D01*
X114748759Y-140796500D01*
X114971241Y-140796500D01*
X114971243Y-140796500D01*
X115189940Y-140755618D01*
X115397401Y-140675247D01*
X115586562Y-140558124D01*
X115750981Y-140408236D01*
X115807271Y-140333695D01*
X115863378Y-140292061D01*
X115933090Y-140287368D01*
X115994272Y-140321110D01*
X116005178Y-140333697D01*
X116069017Y-140418234D01*
X116069019Y-140418237D01*
X116233437Y-140568123D01*
X116233439Y-140568125D01*
X116422595Y-140685245D01*
X116422596Y-140685245D01*
X116422599Y-140685247D01*
X116630060Y-140765618D01*
X116848757Y-140806500D01*
X116848759Y-140806500D01*
X117071241Y-140806500D01*
X117071243Y-140806500D01*
X117289940Y-140765618D01*
X117497401Y-140685247D01*
X117686562Y-140568124D01*
X117850981Y-140418236D01*
X117985058Y-140240689D01*
X118084229Y-140041528D01*
X118145115Y-139827536D01*
X118165643Y-139606000D01*
X118162808Y-139575410D01*
X118145115Y-139384464D01*
X118145114Y-139384462D01*
X118142269Y-139374464D01*
X118084229Y-139170472D01*
X118079250Y-139160472D01*
X117985061Y-138971316D01*
X117985056Y-138971308D01*
X117850979Y-138793761D01*
X117686562Y-138643876D01*
X117686560Y-138643874D01*
X117497404Y-138526754D01*
X117497398Y-138526752D01*
X117289940Y-138446382D01*
X117071243Y-138405500D01*
X116848757Y-138405500D01*
X116630060Y-138446382D01*
X116525848Y-138486754D01*
X116422601Y-138526752D01*
X116422595Y-138526754D01*
X116233439Y-138643874D01*
X116233437Y-138643876D01*
X116069020Y-138793762D01*
X116012729Y-138868303D01*
X115956619Y-138909939D01*
X115886907Y-138914630D01*
X115825726Y-138880888D01*
X115814827Y-138868311D01*
X115750981Y-138783764D01*
X115662389Y-138703002D01*
X115586563Y-138633877D01*
X115586562Y-138633876D01*
X115519221Y-138592180D01*
X115472587Y-138540153D01*
X115460500Y-138486754D01*
X115460500Y-133896551D01*
X119959500Y-133896551D01*
X119987829Y-134075410D01*
X120043787Y-134247636D01*
X120043788Y-134247639D01*
X120126006Y-134408997D01*
X120232441Y-134555494D01*
X120232445Y-134555499D01*
X120360500Y-134683554D01*
X120360505Y-134683558D01*
X120488287Y-134776396D01*
X120507006Y-134789996D01*
X120612484Y-134843740D01*
X120668360Y-134872211D01*
X120668363Y-134872212D01*
X120754476Y-134900191D01*
X120840591Y-134928171D01*
X120923429Y-134941291D01*
X121019449Y-134956500D01*
X121019454Y-134956500D01*
X121200551Y-134956500D01*
X121287259Y-134942765D01*
X121379409Y-134928171D01*
X121551639Y-134872211D01*
X121712994Y-134789996D01*
X121859501Y-134683553D01*
X121987553Y-134555501D01*
X122093996Y-134408994D01*
X122176211Y-134247639D01*
X122232171Y-134075409D01*
X122246765Y-133983259D01*
X122260500Y-133896551D01*
X122260500Y-133715448D01*
X122244019Y-133611397D01*
X122232171Y-133536591D01*
X122204191Y-133450476D01*
X122176212Y-133364363D01*
X122176211Y-133364360D01*
X122133481Y-133280500D01*
X122093996Y-133203006D01*
X122067376Y-133166366D01*
X121987558Y-133056505D01*
X121987554Y-133056500D01*
X121859499Y-132928445D01*
X121859494Y-132928441D01*
X121712997Y-132822006D01*
X121712996Y-132822005D01*
X121712994Y-132822004D01*
X121661300Y-132795664D01*
X121551639Y-132739788D01*
X121551636Y-132739787D01*
X121379410Y-132683829D01*
X121200551Y-132655500D01*
X121200546Y-132655500D01*
X121019454Y-132655500D01*
X121019449Y-132655500D01*
X120840589Y-132683829D01*
X120668363Y-132739787D01*
X120668360Y-132739788D01*
X120507002Y-132822006D01*
X120360505Y-132928441D01*
X120360500Y-132928445D01*
X120232445Y-133056500D01*
X120232441Y-133056505D01*
X120126006Y-133203002D01*
X120043788Y-133364360D01*
X120043787Y-133364363D01*
X119987829Y-133536589D01*
X119959500Y-133715448D01*
X119959500Y-133896551D01*
X115460500Y-133896551D01*
X115460500Y-133279160D01*
X115480185Y-133212121D01*
X115532989Y-133166366D01*
X115565102Y-133156687D01*
X115566283Y-133156500D01*
X115566287Y-133156500D01*
X115776243Y-133123246D01*
X115978412Y-133057557D01*
X116167816Y-132961051D01*
X116212700Y-132928441D01*
X116339786Y-132836109D01*
X116339788Y-132836106D01*
X116339792Y-132836104D01*
X116490104Y-132685792D01*
X116490106Y-132685788D01*
X116490109Y-132685786D01*
X116615048Y-132513820D01*
X116615047Y-132513820D01*
X116615051Y-132513816D01*
X116711557Y-132324412D01*
X116777246Y-132122243D01*
X116810500Y-131912287D01*
X116810500Y-131699713D01*
X116777246Y-131489757D01*
X116711557Y-131287588D01*
X116615051Y-131098184D01*
X116615049Y-131098181D01*
X116615048Y-131098179D01*
X116490109Y-130926213D01*
X116339786Y-130775890D01*
X116167820Y-130650951D01*
X115978414Y-130554444D01*
X115978413Y-130554443D01*
X115978412Y-130554443D01*
X115776243Y-130488754D01*
X115776241Y-130488753D01*
X115776240Y-130488753D01*
X115614957Y-130463208D01*
X115566287Y-130455500D01*
X114153713Y-130455500D01*
X114105042Y-130463208D01*
X113943760Y-130488753D01*
X113741585Y-130554444D01*
X113552179Y-130650951D01*
X113380213Y-130775890D01*
X113229890Y-130926213D01*
X113104951Y-131098179D01*
X113008444Y-131287585D01*
X112942753Y-131489760D01*
X112909500Y-131699713D01*
X112909500Y-131912286D01*
X110460500Y-131912286D01*
X110460500Y-126912287D01*
X112909500Y-126912287D01*
X112942754Y-127122243D01*
X113002871Y-127307264D01*
X113008444Y-127324414D01*
X113104951Y-127513820D01*
X113229890Y-127685786D01*
X113380213Y-127836109D01*
X113552179Y-127961048D01*
X113552181Y-127961049D01*
X113552184Y-127961051D01*
X113741588Y-128057557D01*
X113943757Y-128123246D01*
X114153713Y-128156500D01*
X114153714Y-128156500D01*
X115566286Y-128156500D01*
X115566287Y-128156500D01*
X115776243Y-128123246D01*
X115978412Y-128057557D01*
X116167816Y-127961051D01*
X116189789Y-127945086D01*
X116339786Y-127836109D01*
X116339788Y-127836106D01*
X116339792Y-127836104D01*
X116490104Y-127685792D01*
X116490106Y-127685788D01*
X116490109Y-127685786D01*
X116615048Y-127513820D01*
X116615047Y-127513820D01*
X116615051Y-127513816D01*
X116711557Y-127324412D01*
X116777246Y-127122243D01*
X116810500Y-126912287D01*
X125409500Y-126912287D01*
X125442754Y-127122243D01*
X125502871Y-127307264D01*
X125508444Y-127324414D01*
X125604951Y-127513820D01*
X125729890Y-127685786D01*
X125880213Y-127836109D01*
X126052179Y-127961048D01*
X126052181Y-127961049D01*
X126052184Y-127961051D01*
X126241588Y-128057557D01*
X126443757Y-128123246D01*
X126653713Y-128156500D01*
X126653714Y-128156500D01*
X128066286Y-128156500D01*
X128066287Y-128156500D01*
X128276243Y-128123246D01*
X128478412Y-128057557D01*
X128667816Y-127961051D01*
X128689789Y-127945086D01*
X128839786Y-127836109D01*
X128839788Y-127836106D01*
X128839792Y-127836104D01*
X128990104Y-127685792D01*
X128990106Y-127685788D01*
X128990109Y-127685786D01*
X129115048Y-127513820D01*
X129115047Y-127513820D01*
X129115051Y-127513816D01*
X129211557Y-127324412D01*
X129277246Y-127122243D01*
X129310500Y-126912287D01*
X129310500Y-126699713D01*
X129277246Y-126489757D01*
X129211557Y-126287588D01*
X129115051Y-126098184D01*
X129115049Y-126098181D01*
X129115048Y-126098179D01*
X128990109Y-125926213D01*
X128839786Y-125775890D01*
X128667820Y-125650951D01*
X128478414Y-125554444D01*
X128478413Y-125554443D01*
X128478412Y-125554443D01*
X128276243Y-125488754D01*
X128276241Y-125488753D01*
X128276240Y-125488753D01*
X128114957Y-125463208D01*
X128066287Y-125455500D01*
X126653713Y-125455500D01*
X126605042Y-125463208D01*
X126443760Y-125488753D01*
X126241585Y-125554444D01*
X126052179Y-125650951D01*
X125880213Y-125775890D01*
X125729890Y-125926213D01*
X125604951Y-126098179D01*
X125508444Y-126287585D01*
X125442753Y-126489760D01*
X125409500Y-126699713D01*
X125409500Y-126912287D01*
X116810500Y-126912287D01*
X116810500Y-126699713D01*
X116777246Y-126489757D01*
X116711557Y-126287588D01*
X116615051Y-126098184D01*
X116615049Y-126098181D01*
X116615048Y-126098179D01*
X116490109Y-125926213D01*
X116339786Y-125775890D01*
X116167820Y-125650951D01*
X115978414Y-125554444D01*
X115978413Y-125554443D01*
X115978412Y-125554443D01*
X115776243Y-125488754D01*
X115776241Y-125488753D01*
X115776240Y-125488753D01*
X115614957Y-125463208D01*
X115566287Y-125455500D01*
X114153713Y-125455500D01*
X114105042Y-125463208D01*
X113943760Y-125488753D01*
X113741585Y-125554444D01*
X113552179Y-125650951D01*
X113380213Y-125775890D01*
X113229890Y-125926213D01*
X113104951Y-126098179D01*
X113008444Y-126287585D01*
X112942753Y-126489760D01*
X112909500Y-126699713D01*
X112909500Y-126912287D01*
X110460500Y-126912287D01*
X110460500Y-124896551D01*
X119959500Y-124896551D01*
X119987829Y-125075410D01*
X120043787Y-125247636D01*
X120043788Y-125247639D01*
X120126006Y-125408997D01*
X120232441Y-125555494D01*
X120232445Y-125555499D01*
X120360500Y-125683554D01*
X120360505Y-125683558D01*
X120487591Y-125775890D01*
X120507006Y-125789996D01*
X120612484Y-125843740D01*
X120668360Y-125872211D01*
X120668363Y-125872212D01*
X120754476Y-125900191D01*
X120840591Y-125928171D01*
X120923429Y-125941291D01*
X121019449Y-125956500D01*
X121019454Y-125956500D01*
X121200551Y-125956500D01*
X121287259Y-125942765D01*
X121379409Y-125928171D01*
X121551639Y-125872211D01*
X121712994Y-125789996D01*
X121859501Y-125683553D01*
X121987553Y-125555501D01*
X122093996Y-125408994D01*
X122176211Y-125247639D01*
X122232171Y-125075409D01*
X122246765Y-124983259D01*
X122260500Y-124896551D01*
X122260500Y-124715448D01*
X122241620Y-124596249D01*
X122232171Y-124536591D01*
X122176211Y-124364361D01*
X122176211Y-124364360D01*
X122146340Y-124305736D01*
X122093996Y-124203006D01*
X122080396Y-124184287D01*
X121987558Y-124056505D01*
X121987554Y-124056500D01*
X121859499Y-123928445D01*
X121859494Y-123928441D01*
X121712997Y-123822006D01*
X121712996Y-123822005D01*
X121712994Y-123822004D01*
X121661300Y-123795664D01*
X121551639Y-123739788D01*
X121551636Y-123739787D01*
X121379410Y-123683829D01*
X121200551Y-123655500D01*
X121200546Y-123655500D01*
X121019454Y-123655500D01*
X121019449Y-123655500D01*
X120840589Y-123683829D01*
X120668363Y-123739787D01*
X120668360Y-123739788D01*
X120507002Y-123822006D01*
X120360505Y-123928441D01*
X120360500Y-123928445D01*
X120232445Y-124056500D01*
X120232441Y-124056505D01*
X120126006Y-124203002D01*
X120043788Y-124364360D01*
X120043787Y-124364363D01*
X119987829Y-124536589D01*
X119959500Y-124715448D01*
X119959500Y-124896551D01*
X110460500Y-124896551D01*
X110460500Y-117412287D01*
X128409500Y-117412287D01*
X128442754Y-117622243D01*
X128483089Y-117746382D01*
X128508444Y-117824414D01*
X128604951Y-118013820D01*
X128729890Y-118185786D01*
X128880213Y-118336109D01*
X129052179Y-118461048D01*
X129052181Y-118461049D01*
X129052184Y-118461051D01*
X129241588Y-118557557D01*
X129443757Y-118623246D01*
X129653713Y-118656500D01*
X129653714Y-118656500D01*
X131066286Y-118656500D01*
X131066287Y-118656500D01*
X131276243Y-118623246D01*
X131478412Y-118557557D01*
X131667816Y-118461051D01*
X131692408Y-118443184D01*
X131839786Y-118336109D01*
X131839788Y-118336106D01*
X131839792Y-118336104D01*
X131990104Y-118185792D01*
X131990106Y-118185788D01*
X131990109Y-118185786D01*
X132115048Y-118013820D01*
X132115050Y-118013817D01*
X132115051Y-118013816D01*
X132211557Y-117824412D01*
X132277246Y-117622243D01*
X132310500Y-117412287D01*
X132310500Y-117199713D01*
X132277246Y-116989757D01*
X132211557Y-116787588D01*
X132115051Y-116598184D01*
X132115049Y-116598181D01*
X132115048Y-116598179D01*
X131990109Y-116426213D01*
X131839786Y-116275890D01*
X131667820Y-116150951D01*
X131478414Y-116054444D01*
X131478413Y-116054443D01*
X131478412Y-116054443D01*
X131276243Y-115988754D01*
X131276241Y-115988753D01*
X131276240Y-115988753D01*
X131114957Y-115963208D01*
X131066287Y-115955500D01*
X129653713Y-115955500D01*
X129605042Y-115963208D01*
X129443760Y-115988753D01*
X129241585Y-116054444D01*
X129052179Y-116150951D01*
X128880213Y-116275890D01*
X128729890Y-116426213D01*
X128604951Y-116598179D01*
X128508444Y-116787585D01*
X128442753Y-116989760D01*
X128409500Y-117199713D01*
X128409500Y-117412287D01*
X110460500Y-117412287D01*
X110460500Y-112412287D01*
X128409500Y-112412287D01*
X128414779Y-112445617D01*
X128442753Y-112622239D01*
X128508444Y-112824414D01*
X128604951Y-113013820D01*
X128729890Y-113185786D01*
X128880213Y-113336109D01*
X129052179Y-113461048D01*
X129052181Y-113461049D01*
X129052184Y-113461051D01*
X129241588Y-113557557D01*
X129443757Y-113623246D01*
X129653713Y-113656500D01*
X129653714Y-113656500D01*
X131066286Y-113656500D01*
X131066287Y-113656500D01*
X131276243Y-113623246D01*
X131478412Y-113557557D01*
X131667816Y-113461051D01*
X131689789Y-113445086D01*
X131839786Y-113336109D01*
X131839788Y-113336106D01*
X131839792Y-113336104D01*
X131990104Y-113185792D01*
X131990106Y-113185788D01*
X131990109Y-113185786D01*
X132115048Y-113013820D01*
X132115047Y-113013820D01*
X132115051Y-113013816D01*
X132211557Y-112824412D01*
X132277246Y-112622243D01*
X132310500Y-112412287D01*
X132310500Y-112199713D01*
X132277246Y-111989757D01*
X132211557Y-111787588D01*
X132115051Y-111598184D01*
X132115049Y-111598181D01*
X132115048Y-111598179D01*
X131990109Y-111426213D01*
X131839786Y-111275890D01*
X131667820Y-111150951D01*
X131478414Y-111054444D01*
X131478413Y-111054443D01*
X131478412Y-111054443D01*
X131276243Y-110988754D01*
X131276241Y-110988753D01*
X131276240Y-110988753D01*
X131093764Y-110959852D01*
X131066287Y-110955500D01*
X129653713Y-110955500D01*
X129626236Y-110959852D01*
X129443760Y-110988753D01*
X129241585Y-111054444D01*
X129052179Y-111150951D01*
X128880213Y-111275890D01*
X128729890Y-111426213D01*
X128604951Y-111598179D01*
X128508444Y-111787585D01*
X128442753Y-111989760D01*
X128414959Y-112165245D01*
X128409500Y-112199713D01*
X128409500Y-112412287D01*
X110460500Y-112412287D01*
X110460500Y-51406000D01*
X112494551Y-51406000D01*
X112514317Y-51657151D01*
X112573126Y-51902110D01*
X112669533Y-52134859D01*
X112801160Y-52349653D01*
X112801161Y-52349656D01*
X112801164Y-52349659D01*
X112964776Y-52541224D01*
X113070819Y-52631793D01*
X113156343Y-52704838D01*
X113156346Y-52704839D01*
X113371140Y-52836466D01*
X113556365Y-52913188D01*
X113603889Y-52932873D01*
X113848852Y-52991683D01*
X114100000Y-53011449D01*
X114351148Y-52991683D01*
X114596111Y-52932873D01*
X114643635Y-52913188D01*
X114647923Y-52911412D01*
X114717392Y-52903943D01*
X114779871Y-52935218D01*
X114783057Y-52938292D01*
X120683181Y-58838416D01*
X120716666Y-58899739D01*
X120719500Y-58926097D01*
X120719500Y-72736230D01*
X120699815Y-72803269D01*
X120654519Y-72845284D01*
X120537659Y-72908526D01*
X120537657Y-72908527D01*
X120351226Y-73053632D01*
X120351223Y-73053635D01*
X120191225Y-73227437D01*
X120153809Y-73284708D01*
X120100662Y-73330065D01*
X120031431Y-73339489D01*
X119968095Y-73309987D01*
X119946191Y-73284708D01*
X119908774Y-73227437D01*
X119748776Y-73053635D01*
X119748775Y-73053634D01*
X119748773Y-73053632D01*
X119655559Y-72981081D01*
X119562348Y-72908531D01*
X119354580Y-72796092D01*
X119354571Y-72796089D01*
X119131141Y-72719384D01*
X118936521Y-72686908D01*
X118898120Y-72680500D01*
X118661880Y-72680500D01*
X118623479Y-72686908D01*
X118428858Y-72719384D01*
X118205428Y-72796089D01*
X118205419Y-72796092D01*
X117997651Y-72908531D01*
X117811228Y-73053631D01*
X117811223Y-73053635D01*
X117651225Y-73227437D01*
X117522013Y-73425212D01*
X117427117Y-73641554D01*
X117369123Y-73870569D01*
X117349615Y-74105994D01*
X117349615Y-74106005D01*
X117369123Y-74341430D01*
X117427117Y-74570445D01*
X117522013Y-74786787D01*
X117651225Y-74984562D01*
X117738055Y-75078883D01*
X117811227Y-75158368D01*
X117890927Y-75220401D01*
X117958936Y-75273335D01*
X117997654Y-75303470D01*
X118205421Y-75415908D01*
X118428861Y-75492616D01*
X118661880Y-75531500D01*
X118661881Y-75531500D01*
X118745902Y-75531500D01*
X118812941Y-75551185D01*
X118858696Y-75603989D01*
X118868640Y-75673147D01*
X118839615Y-75736703D01*
X118833583Y-75743181D01*
X117857584Y-76719181D01*
X117796261Y-76752666D01*
X117769903Y-76755500D01*
X115696669Y-76755500D01*
X115696653Y-76755499D01*
X115689057Y-76755499D01*
X115530943Y-76755499D01*
X115523347Y-76755499D01*
X115523331Y-76755500D01*
X115091692Y-76755500D01*
X115024653Y-76735815D01*
X114990119Y-76702625D01*
X114860047Y-76516861D01*
X114860045Y-76516858D01*
X114699141Y-76355954D01*
X114512734Y-76225432D01*
X114512732Y-76225431D01*
X114306497Y-76129261D01*
X114306488Y-76129258D01*
X114086697Y-76070366D01*
X114086693Y-76070365D01*
X114086692Y-76070365D01*
X114086691Y-76070364D01*
X114086686Y-76070364D01*
X113860002Y-76050532D01*
X113859998Y-76050532D01*
X113633313Y-76070364D01*
X113633302Y-76070366D01*
X113413511Y-76129258D01*
X113413502Y-76129261D01*
X113207267Y-76225431D01*
X113207265Y-76225432D01*
X113020858Y-76355954D01*
X112859954Y-76516858D01*
X112729432Y-76703265D01*
X112729431Y-76703267D01*
X112633261Y-76909502D01*
X112633258Y-76909511D01*
X112574366Y-77129302D01*
X112574364Y-77129313D01*
X112554532Y-77355998D01*
X112554532Y-77356001D01*
X112574364Y-77582686D01*
X112574366Y-77582697D01*
X112633258Y-77802488D01*
X112633261Y-77802497D01*
X112729431Y-78008732D01*
X112729432Y-78008734D01*
X112859954Y-78195141D01*
X113020858Y-78356045D01*
X113020861Y-78356047D01*
X113207266Y-78486568D01*
X113222975Y-78493893D01*
X113275414Y-78540064D01*
X113294567Y-78607257D01*
X113274352Y-78674138D01*
X113222979Y-78718656D01*
X113207514Y-78725867D01*
X113207512Y-78725868D01*
X113134526Y-78776973D01*
X113134526Y-78776974D01*
X113813553Y-79456000D01*
X113807339Y-79456000D01*
X113705606Y-79483259D01*
X113614394Y-79535920D01*
X113539920Y-79610394D01*
X113487259Y-79701606D01*
X113460000Y-79803339D01*
X113460000Y-79809552D01*
X112780974Y-79130526D01*
X112780973Y-79130526D01*
X112729868Y-79203512D01*
X112729866Y-79203516D01*
X112633734Y-79409673D01*
X112633730Y-79409682D01*
X112574860Y-79629389D01*
X112574858Y-79629400D01*
X112555034Y-79855997D01*
X112555034Y-79856002D01*
X112574858Y-80082599D01*
X112574860Y-80082610D01*
X112633730Y-80302317D01*
X112633735Y-80302331D01*
X112729863Y-80508478D01*
X112780974Y-80581472D01*
X113460000Y-79902446D01*
X113460000Y-79908661D01*
X113487259Y-80010394D01*
X113539920Y-80101606D01*
X113614394Y-80176080D01*
X113705606Y-80228741D01*
X113807339Y-80256000D01*
X113813553Y-80256000D01*
X113134526Y-80935025D01*
X113207513Y-80986132D01*
X113207521Y-80986136D01*
X113413668Y-81082264D01*
X113413682Y-81082269D01*
X113633389Y-81141139D01*
X113633400Y-81141141D01*
X113859998Y-81160966D01*
X113860002Y-81160966D01*
X114086599Y-81141141D01*
X114086610Y-81141139D01*
X114306317Y-81082269D01*
X114306331Y-81082264D01*
X114512478Y-80986136D01*
X114585471Y-80935024D01*
X113906447Y-80256000D01*
X113912661Y-80256000D01*
X114014394Y-80228741D01*
X114105606Y-80176080D01*
X114180080Y-80101606D01*
X114232741Y-80010394D01*
X114260000Y-79908661D01*
X114260000Y-79902447D01*
X114939024Y-80581471D01*
X114990136Y-80508478D01*
X115086264Y-80302331D01*
X115086269Y-80302317D01*
X115145139Y-80082610D01*
X115145141Y-80082599D01*
X115164966Y-79856002D01*
X115164966Y-79855997D01*
X115145141Y-79629400D01*
X115145139Y-79629389D01*
X115086269Y-79409682D01*
X115086264Y-79409668D01*
X114990136Y-79203521D01*
X114990132Y-79203513D01*
X114939025Y-79130526D01*
X114260000Y-79809551D01*
X114260000Y-79803339D01*
X114232741Y-79701606D01*
X114180080Y-79610394D01*
X114105606Y-79535920D01*
X114014394Y-79483259D01*
X113912661Y-79456000D01*
X113906448Y-79456000D01*
X114585472Y-78776974D01*
X114512480Y-78725864D01*
X114497024Y-78718657D01*
X114444585Y-78672484D01*
X114425433Y-78605290D01*
X114445649Y-78538409D01*
X114497023Y-78493893D01*
X114512734Y-78486568D01*
X114699139Y-78356047D01*
X114860047Y-78195139D01*
X114990118Y-78009375D01*
X115044693Y-77965752D01*
X115091692Y-77956500D01*
X115309903Y-77956500D01*
X115376942Y-77976185D01*
X115397584Y-77992819D01*
X119998214Y-82593449D01*
X120031699Y-82654772D01*
X120028464Y-82719448D01*
X119986597Y-82848301D01*
X119959500Y-83019389D01*
X119959500Y-83192610D01*
X119981183Y-83329516D01*
X119986598Y-83363701D01*
X120040127Y-83528445D01*
X120118768Y-83682788D01*
X120220586Y-83822928D01*
X120220588Y-83822930D01*
X120328491Y-83930833D01*
X120361976Y-83992156D01*
X120356992Y-84061848D01*
X120315120Y-84117781D01*
X120305907Y-84124053D01*
X120241654Y-84163684D01*
X120117684Y-84287654D01*
X120025643Y-84436875D01*
X120025641Y-84436880D01*
X119970494Y-84603302D01*
X119970493Y-84603309D01*
X119960000Y-84706013D01*
X119960000Y-84856000D01*
X121044314Y-84856000D01*
X121039920Y-84860394D01*
X120987259Y-84951606D01*
X120960000Y-85053339D01*
X120960000Y-85158661D01*
X120987259Y-85260394D01*
X121039920Y-85351606D01*
X121044314Y-85356000D01*
X119960001Y-85356000D01*
X119960001Y-85505986D01*
X119970494Y-85608697D01*
X120025641Y-85775119D01*
X120025643Y-85775124D01*
X120117684Y-85924345D01*
X120241654Y-86048315D01*
X120390875Y-86140356D01*
X120390880Y-86140358D01*
X120557302Y-86195505D01*
X120557309Y-86195506D01*
X120660019Y-86205999D01*
X121109999Y-86205999D01*
X121110000Y-86205998D01*
X121110000Y-85421686D01*
X121114394Y-85426080D01*
X121205606Y-85478741D01*
X121307339Y-85506000D01*
X121412661Y-85506000D01*
X121514394Y-85478741D01*
X121605606Y-85426080D01*
X121610000Y-85421686D01*
X121610000Y-86205999D01*
X122059972Y-86205999D01*
X122059986Y-86205998D01*
X122162697Y-86195505D01*
X122329119Y-86140358D01*
X122329124Y-86140356D01*
X122478345Y-86048315D01*
X122602315Y-85924345D01*
X122694356Y-85775124D01*
X122694358Y-85775119D01*
X122749505Y-85608697D01*
X122749506Y-85608690D01*
X122759999Y-85505986D01*
X122760000Y-85505973D01*
X122760000Y-85356000D01*
X121675686Y-85356000D01*
X121680080Y-85351606D01*
X121732741Y-85260394D01*
X121760000Y-85158661D01*
X121760000Y-85053339D01*
X121732741Y-84951606D01*
X121680080Y-84860394D01*
X121675686Y-84856000D01*
X122759999Y-84856000D01*
X122759999Y-84706028D01*
X122759998Y-84706013D01*
X122749505Y-84603302D01*
X122694358Y-84436880D01*
X122694356Y-84436875D01*
X122602315Y-84287654D01*
X122478343Y-84163682D01*
X122414093Y-84124053D01*
X122367368Y-84072105D01*
X122356145Y-84003143D01*
X122383988Y-83939061D01*
X122391486Y-83930855D01*
X122499414Y-83822928D01*
X122601232Y-83682788D01*
X122679873Y-83528445D01*
X122733402Y-83363701D01*
X122760500Y-83192611D01*
X122760500Y-83019389D01*
X122733402Y-82848299D01*
X122679873Y-82683555D01*
X122601232Y-82529212D01*
X122499414Y-82389072D01*
X122376928Y-82266586D01*
X122236788Y-82164768D01*
X122082445Y-82086127D01*
X121917701Y-82032598D01*
X121917699Y-82032597D01*
X121917698Y-82032597D01*
X121786271Y-82011781D01*
X121746611Y-82005500D01*
X121746610Y-82005500D01*
X121160097Y-82005500D01*
X121093058Y-81985815D01*
X121072416Y-81969181D01*
X120297930Y-81194695D01*
X122359500Y-81194695D01*
X122394103Y-81368658D01*
X122394106Y-81368667D01*
X122461983Y-81532540D01*
X122461990Y-81532553D01*
X122560535Y-81680034D01*
X122560538Y-81680038D01*
X122685961Y-81805461D01*
X122685965Y-81805464D01*
X122833446Y-81904009D01*
X122833459Y-81904016D01*
X122956363Y-81954923D01*
X122997334Y-81971894D01*
X122997336Y-81971894D01*
X122997341Y-81971896D01*
X123171304Y-82006499D01*
X123171307Y-82006500D01*
X123171309Y-82006500D01*
X123348693Y-82006500D01*
X123348694Y-82006499D01*
X123406682Y-81994964D01*
X123522658Y-81971896D01*
X123522661Y-81971894D01*
X123522666Y-81971894D01*
X123686547Y-81904013D01*
X123834035Y-81805464D01*
X123959464Y-81680035D01*
X124058013Y-81532547D01*
X124125894Y-81368666D01*
X124160500Y-81194691D01*
X124160500Y-81017309D01*
X124160500Y-81017306D01*
X124160499Y-81017304D01*
X124125896Y-80843341D01*
X124125893Y-80843332D01*
X124058016Y-80679459D01*
X124058009Y-80679446D01*
X123959464Y-80531965D01*
X123959461Y-80531961D01*
X123834038Y-80406538D01*
X123834034Y-80406535D01*
X123686553Y-80307990D01*
X123686540Y-80307983D01*
X123522667Y-80240106D01*
X123522658Y-80240103D01*
X123348694Y-80205500D01*
X123348691Y-80205500D01*
X123171309Y-80205500D01*
X123171306Y-80205500D01*
X122997341Y-80240103D01*
X122997332Y-80240106D01*
X122833459Y-80307983D01*
X122833446Y-80307990D01*
X122685965Y-80406535D01*
X122685961Y-80406538D01*
X122560538Y-80531961D01*
X122560535Y-80531965D01*
X122461990Y-80679446D01*
X122461983Y-80679459D01*
X122394106Y-80843332D01*
X122394103Y-80843341D01*
X122359500Y-81017304D01*
X122359500Y-81194695D01*
X120297930Y-81194695D01*
X117271416Y-78168181D01*
X117237931Y-78106858D01*
X117242915Y-78037166D01*
X117284787Y-77981233D01*
X117350251Y-77956816D01*
X117359097Y-77956500D01*
X117983331Y-77956500D01*
X117983347Y-77956501D01*
X117990943Y-77956501D01*
X118149054Y-77956501D01*
X118149057Y-77956501D01*
X118301785Y-77915577D01*
X118351904Y-77886639D01*
X118438716Y-77836520D01*
X118550520Y-77724716D01*
X118550520Y-77724714D01*
X118560728Y-77714507D01*
X118560730Y-77714504D01*
X120775484Y-75499749D01*
X120836805Y-75466266D01*
X120903423Y-75470150D01*
X120968861Y-75492616D01*
X121201880Y-75531500D01*
X121201881Y-75531500D01*
X121438119Y-75531500D01*
X121438120Y-75531500D01*
X121671139Y-75492616D01*
X121894579Y-75415908D01*
X122102346Y-75303470D01*
X122279121Y-75165880D01*
X122344111Y-75140239D01*
X122412651Y-75153805D01*
X122462976Y-75202273D01*
X122471462Y-75220401D01*
X122491203Y-75273330D01*
X122491206Y-75273335D01*
X122577452Y-75388544D01*
X122577455Y-75388547D01*
X122692664Y-75474793D01*
X122692671Y-75474797D01*
X122827517Y-75525091D01*
X122827516Y-75525091D01*
X122834444Y-75525835D01*
X122887127Y-75531500D01*
X124832872Y-75531499D01*
X124892483Y-75525091D01*
X125027331Y-75474796D01*
X125142546Y-75388546D01*
X125228796Y-75273331D01*
X125279091Y-75138483D01*
X125285500Y-75078873D01*
X125285499Y-73133128D01*
X125279091Y-73073517D01*
X125272966Y-73057096D01*
X125228797Y-72938671D01*
X125228793Y-72938664D01*
X125142547Y-72823455D01*
X125142544Y-72823452D01*
X125027335Y-72737206D01*
X125027328Y-72737202D01*
X124892482Y-72686908D01*
X124892483Y-72686908D01*
X124832883Y-72680501D01*
X124832881Y-72680500D01*
X124832873Y-72680500D01*
X124832864Y-72680500D01*
X122887129Y-72680500D01*
X122887123Y-72680501D01*
X122827516Y-72686908D01*
X122692671Y-72737202D01*
X122692664Y-72737206D01*
X122577455Y-72823452D01*
X122577452Y-72823455D01*
X122491206Y-72938664D01*
X122491203Y-72938670D01*
X122471462Y-72991598D01*
X122429590Y-73047532D01*
X122364125Y-73071948D01*
X122295852Y-73057096D01*
X122279118Y-73046117D01*
X122102349Y-72908532D01*
X122102340Y-72908526D01*
X121985481Y-72845284D01*
X121935891Y-72796064D01*
X121920500Y-72736230D01*
X121920500Y-68106000D01*
X126454357Y-68106000D01*
X126474884Y-68327535D01*
X126474885Y-68327537D01*
X126535769Y-68541523D01*
X126535775Y-68541538D01*
X126634938Y-68740683D01*
X126634943Y-68740691D01*
X126769020Y-68918238D01*
X126933437Y-69068123D01*
X126933439Y-69068125D01*
X127122595Y-69185245D01*
X127122596Y-69185245D01*
X127122599Y-69185247D01*
X127330060Y-69265618D01*
X127548757Y-69306500D01*
X127548759Y-69306500D01*
X127771241Y-69306500D01*
X127771243Y-69306500D01*
X127989940Y-69265618D01*
X128197401Y-69185247D01*
X128386562Y-69068124D01*
X128550981Y-68918236D01*
X128685058Y-68740689D01*
X128784229Y-68541528D01*
X128845115Y-68327536D01*
X128865643Y-68106000D01*
X128845115Y-67884464D01*
X128784229Y-67670472D01*
X128784224Y-67670461D01*
X128685061Y-67471316D01*
X128685056Y-67471308D01*
X128550979Y-67293761D01*
X128386562Y-67143876D01*
X128386560Y-67143874D01*
X128197404Y-67026754D01*
X128197398Y-67026752D01*
X127989940Y-66946382D01*
X127771243Y-66905500D01*
X127548757Y-66905500D01*
X127330060Y-66946382D01*
X127198864Y-66997207D01*
X127122601Y-67026752D01*
X127122595Y-67026754D01*
X126933439Y-67143874D01*
X126933437Y-67143876D01*
X126769020Y-67293761D01*
X126634943Y-67471308D01*
X126634938Y-67471316D01*
X126535775Y-67670461D01*
X126535769Y-67670476D01*
X126474885Y-67884462D01*
X126474884Y-67884464D01*
X126454357Y-68105999D01*
X126454357Y-68106000D01*
X121920500Y-68106000D01*
X121920500Y-58715059D01*
X121920501Y-58715046D01*
X121920501Y-58546945D01*
X121920501Y-58546943D01*
X121879577Y-58394215D01*
X121850639Y-58344095D01*
X121800520Y-58257284D01*
X121688716Y-58145480D01*
X121688715Y-58145479D01*
X121684385Y-58141149D01*
X121684374Y-58141139D01*
X116097079Y-52553844D01*
X122660000Y-52553844D01*
X122666401Y-52613372D01*
X122666403Y-52613379D01*
X122716645Y-52748086D01*
X122716649Y-52748093D01*
X122802809Y-52863187D01*
X122802812Y-52863190D01*
X122917906Y-52949350D01*
X122917913Y-52949354D01*
X123052620Y-52999596D01*
X123052627Y-52999598D01*
X123112155Y-53005999D01*
X123112172Y-53006000D01*
X124010000Y-53006000D01*
X124010000Y-51896747D01*
X124047708Y-51918518D01*
X124187591Y-51956000D01*
X124332409Y-51956000D01*
X124472292Y-51918518D01*
X124510000Y-51896747D01*
X124510000Y-53006000D01*
X125407828Y-53006000D01*
X125407844Y-53005999D01*
X125467372Y-52999598D01*
X125467379Y-52999596D01*
X125602086Y-52949354D01*
X125602093Y-52949350D01*
X125717187Y-52863190D01*
X125717190Y-52863187D01*
X125803350Y-52748093D01*
X125803354Y-52748086D01*
X125853596Y-52613379D01*
X125853598Y-52613372D01*
X125859999Y-52553844D01*
X125860000Y-52553827D01*
X125860000Y-51656000D01*
X124750748Y-51656000D01*
X124772518Y-51618292D01*
X124810000Y-51478409D01*
X124810000Y-51333591D01*
X124772518Y-51193708D01*
X124750748Y-51156000D01*
X125860000Y-51156000D01*
X125860000Y-50258172D01*
X125859999Y-50258155D01*
X125853598Y-50198627D01*
X125853596Y-50198620D01*
X125803354Y-50063913D01*
X125803350Y-50063906D01*
X125717190Y-49948812D01*
X125717187Y-49948809D01*
X125602093Y-49862649D01*
X125602086Y-49862645D01*
X125467379Y-49812403D01*
X125467372Y-49812401D01*
X125407844Y-49806000D01*
X124510000Y-49806000D01*
X124510000Y-50915252D01*
X124472292Y-50893482D01*
X124332409Y-50856000D01*
X124187591Y-50856000D01*
X124047708Y-50893482D01*
X124010000Y-50915252D01*
X124010000Y-49806000D01*
X123112155Y-49806000D01*
X123052627Y-49812401D01*
X123052620Y-49812403D01*
X122917913Y-49862645D01*
X122917906Y-49862649D01*
X122802812Y-49948809D01*
X122802809Y-49948812D01*
X122716649Y-50063906D01*
X122716645Y-50063913D01*
X122666403Y-50198620D01*
X122666401Y-50198627D01*
X122660000Y-50258155D01*
X122660000Y-51156000D01*
X123769252Y-51156000D01*
X123747482Y-51193708D01*
X123710000Y-51333591D01*
X123710000Y-51478409D01*
X123747482Y-51618292D01*
X123769252Y-51656000D01*
X122660000Y-51656000D01*
X122660000Y-52553844D01*
X116097079Y-52553844D01*
X115632292Y-52089057D01*
X115598807Y-52027734D01*
X115603791Y-51958042D01*
X115605412Y-51953923D01*
X115626872Y-51902113D01*
X115626871Y-51902113D01*
X115626873Y-51902111D01*
X115685683Y-51657148D01*
X115705449Y-51406000D01*
X115685683Y-51154852D01*
X115626873Y-50909889D01*
X115530466Y-50677140D01*
X115398839Y-50462346D01*
X115398838Y-50462343D01*
X115361875Y-50419066D01*
X115235224Y-50270776D01*
X115108571Y-50162604D01*
X115043656Y-50107161D01*
X115043653Y-50107160D01*
X114828859Y-49975533D01*
X114596110Y-49879126D01*
X114351151Y-49820317D01*
X114100000Y-49800551D01*
X113848848Y-49820317D01*
X113603889Y-49879126D01*
X113371140Y-49975533D01*
X113156346Y-50107160D01*
X113156343Y-50107161D01*
X112964776Y-50270776D01*
X112801161Y-50462343D01*
X112801160Y-50462346D01*
X112669533Y-50677140D01*
X112573126Y-50909889D01*
X112514317Y-51154848D01*
X112494551Y-51406000D01*
X110460500Y-51406000D01*
X110460500Y-47330500D01*
X110480185Y-47263461D01*
X110532989Y-47217706D01*
X110584500Y-47206500D01*
X184335500Y-47206500D01*
X184402539Y-47226185D01*
G37*
%TD.AperFunction*%
%TD*%
M02*
