%TF.GenerationSoftware,KiCad,Pcbnew,8.0.1*%
%TF.CreationDate,2024-05-06T19:00:19+02:00*%
%TF.ProjectId,teamagotchi,7465616d-6167-46f7-9463-68692e6b6963,rev?*%
%TF.SameCoordinates,Original*%
%TF.FileFunction,Legend,Top*%
%TF.FilePolarity,Positive*%
%FSLAX46Y46*%
G04 Gerber Fmt 4.6, Leading zero omitted, Abs format (unit mm)*
G04 Created by KiCad (PCBNEW 8.0.1) date 2024-05-06 19:00:19*
%MOMM*%
%LPD*%
G01*
G04 APERTURE LIST*
%ADD10C,0.100000*%
%ADD11C,0.150000*%
%ADD12C,0.120000*%
%ADD13C,0.000000*%
G04 APERTURE END LIST*
D10*
X132317419Y-93877428D02*
X132317419Y-93306000D01*
X133317419Y-93591714D02*
X132317419Y-93591714D01*
X132793609Y-92639333D02*
X132793609Y-92972666D01*
X133317419Y-92972666D02*
X132317419Y-92972666D01*
X132317419Y-92972666D02*
X132317419Y-92496476D01*
X132317419Y-92258380D02*
X132317419Y-91686952D01*
X133317419Y-91972666D02*
X132317419Y-91972666D01*
X133317419Y-90829809D02*
X133317419Y-91401237D01*
X133317419Y-91115523D02*
X132317419Y-91115523D01*
X132317419Y-91115523D02*
X132460276Y-91210761D01*
X132460276Y-91210761D02*
X132555514Y-91305999D01*
X132555514Y-91305999D02*
X132603133Y-91401237D01*
D11*
X119776667Y-121413200D02*
X119919524Y-121460819D01*
X119919524Y-121460819D02*
X120157619Y-121460819D01*
X120157619Y-121460819D02*
X120252857Y-121413200D01*
X120252857Y-121413200D02*
X120300476Y-121365580D01*
X120300476Y-121365580D02*
X120348095Y-121270342D01*
X120348095Y-121270342D02*
X120348095Y-121175104D01*
X120348095Y-121175104D02*
X120300476Y-121079866D01*
X120300476Y-121079866D02*
X120252857Y-121032247D01*
X120252857Y-121032247D02*
X120157619Y-120984628D01*
X120157619Y-120984628D02*
X119967143Y-120937009D01*
X119967143Y-120937009D02*
X119871905Y-120889390D01*
X119871905Y-120889390D02*
X119824286Y-120841771D01*
X119824286Y-120841771D02*
X119776667Y-120746533D01*
X119776667Y-120746533D02*
X119776667Y-120651295D01*
X119776667Y-120651295D02*
X119824286Y-120556057D01*
X119824286Y-120556057D02*
X119871905Y-120508438D01*
X119871905Y-120508438D02*
X119967143Y-120460819D01*
X119967143Y-120460819D02*
X120205238Y-120460819D01*
X120205238Y-120460819D02*
X120348095Y-120508438D01*
X120681429Y-120460819D02*
X120919524Y-121460819D01*
X120919524Y-121460819D02*
X121110000Y-120746533D01*
X121110000Y-120746533D02*
X121300476Y-121460819D01*
X121300476Y-121460819D02*
X121538572Y-120460819D01*
X122348095Y-120794152D02*
X122348095Y-121460819D01*
X122110000Y-120413200D02*
X121871905Y-121127485D01*
X121871905Y-121127485D02*
X122490952Y-121127485D01*
X130034819Y-64938857D02*
X129558628Y-65272190D01*
X130034819Y-65510285D02*
X129034819Y-65510285D01*
X129034819Y-65510285D02*
X129034819Y-65129333D01*
X129034819Y-65129333D02*
X129082438Y-65034095D01*
X129082438Y-65034095D02*
X129130057Y-64986476D01*
X129130057Y-64986476D02*
X129225295Y-64938857D01*
X129225295Y-64938857D02*
X129368152Y-64938857D01*
X129368152Y-64938857D02*
X129463390Y-64986476D01*
X129463390Y-64986476D02*
X129511009Y-65034095D01*
X129511009Y-65034095D02*
X129558628Y-65129333D01*
X129558628Y-65129333D02*
X129558628Y-65510285D01*
X130034819Y-63986476D02*
X130034819Y-64557904D01*
X130034819Y-64272190D02*
X129034819Y-64272190D01*
X129034819Y-64272190D02*
X129177676Y-64367428D01*
X129177676Y-64367428D02*
X129272914Y-64462666D01*
X129272914Y-64462666D02*
X129320533Y-64557904D01*
X129130057Y-63605523D02*
X129082438Y-63557904D01*
X129082438Y-63557904D02*
X129034819Y-63462666D01*
X129034819Y-63462666D02*
X129034819Y-63224571D01*
X129034819Y-63224571D02*
X129082438Y-63129333D01*
X129082438Y-63129333D02*
X129130057Y-63081714D01*
X129130057Y-63081714D02*
X129225295Y-63034095D01*
X129225295Y-63034095D02*
X129320533Y-63034095D01*
X129320533Y-63034095D02*
X129463390Y-63081714D01*
X129463390Y-63081714D02*
X130034819Y-63653142D01*
X130034819Y-63653142D02*
X130034819Y-63034095D01*
X135276667Y-106913200D02*
X135419524Y-106960819D01*
X135419524Y-106960819D02*
X135657619Y-106960819D01*
X135657619Y-106960819D02*
X135752857Y-106913200D01*
X135752857Y-106913200D02*
X135800476Y-106865580D01*
X135800476Y-106865580D02*
X135848095Y-106770342D01*
X135848095Y-106770342D02*
X135848095Y-106675104D01*
X135848095Y-106675104D02*
X135800476Y-106579866D01*
X135800476Y-106579866D02*
X135752857Y-106532247D01*
X135752857Y-106532247D02*
X135657619Y-106484628D01*
X135657619Y-106484628D02*
X135467143Y-106437009D01*
X135467143Y-106437009D02*
X135371905Y-106389390D01*
X135371905Y-106389390D02*
X135324286Y-106341771D01*
X135324286Y-106341771D02*
X135276667Y-106246533D01*
X135276667Y-106246533D02*
X135276667Y-106151295D01*
X135276667Y-106151295D02*
X135324286Y-106056057D01*
X135324286Y-106056057D02*
X135371905Y-106008438D01*
X135371905Y-106008438D02*
X135467143Y-105960819D01*
X135467143Y-105960819D02*
X135705238Y-105960819D01*
X135705238Y-105960819D02*
X135848095Y-106008438D01*
X136181429Y-105960819D02*
X136419524Y-106960819D01*
X136419524Y-106960819D02*
X136610000Y-106246533D01*
X136610000Y-106246533D02*
X136800476Y-106960819D01*
X136800476Y-106960819D02*
X137038572Y-105960819D01*
X137371905Y-106056057D02*
X137419524Y-106008438D01*
X137419524Y-106008438D02*
X137514762Y-105960819D01*
X137514762Y-105960819D02*
X137752857Y-105960819D01*
X137752857Y-105960819D02*
X137848095Y-106008438D01*
X137848095Y-106008438D02*
X137895714Y-106056057D01*
X137895714Y-106056057D02*
X137943333Y-106151295D01*
X137943333Y-106151295D02*
X137943333Y-106246533D01*
X137943333Y-106246533D02*
X137895714Y-106389390D01*
X137895714Y-106389390D02*
X137324286Y-106960819D01*
X137324286Y-106960819D02*
X137943333Y-106960819D01*
X135276667Y-135913200D02*
X135419524Y-135960819D01*
X135419524Y-135960819D02*
X135657619Y-135960819D01*
X135657619Y-135960819D02*
X135752857Y-135913200D01*
X135752857Y-135913200D02*
X135800476Y-135865580D01*
X135800476Y-135865580D02*
X135848095Y-135770342D01*
X135848095Y-135770342D02*
X135848095Y-135675104D01*
X135848095Y-135675104D02*
X135800476Y-135579866D01*
X135800476Y-135579866D02*
X135752857Y-135532247D01*
X135752857Y-135532247D02*
X135657619Y-135484628D01*
X135657619Y-135484628D02*
X135467143Y-135437009D01*
X135467143Y-135437009D02*
X135371905Y-135389390D01*
X135371905Y-135389390D02*
X135324286Y-135341771D01*
X135324286Y-135341771D02*
X135276667Y-135246533D01*
X135276667Y-135246533D02*
X135276667Y-135151295D01*
X135276667Y-135151295D02*
X135324286Y-135056057D01*
X135324286Y-135056057D02*
X135371905Y-135008438D01*
X135371905Y-135008438D02*
X135467143Y-134960819D01*
X135467143Y-134960819D02*
X135705238Y-134960819D01*
X135705238Y-134960819D02*
X135848095Y-135008438D01*
X136181429Y-134960819D02*
X136419524Y-135960819D01*
X136419524Y-135960819D02*
X136610000Y-135246533D01*
X136610000Y-135246533D02*
X136800476Y-135960819D01*
X136800476Y-135960819D02*
X137038572Y-134960819D01*
X137895714Y-134960819D02*
X137419524Y-134960819D01*
X137419524Y-134960819D02*
X137371905Y-135437009D01*
X137371905Y-135437009D02*
X137419524Y-135389390D01*
X137419524Y-135389390D02*
X137514762Y-135341771D01*
X137514762Y-135341771D02*
X137752857Y-135341771D01*
X137752857Y-135341771D02*
X137848095Y-135389390D01*
X137848095Y-135389390D02*
X137895714Y-135437009D01*
X137895714Y-135437009D02*
X137943333Y-135532247D01*
X137943333Y-135532247D02*
X137943333Y-135770342D01*
X137943333Y-135770342D02*
X137895714Y-135865580D01*
X137895714Y-135865580D02*
X137848095Y-135913200D01*
X137848095Y-135913200D02*
X137752857Y-135960819D01*
X137752857Y-135960819D02*
X137514762Y-135960819D01*
X137514762Y-135960819D02*
X137419524Y-135913200D01*
X137419524Y-135913200D02*
X137371905Y-135865580D01*
X150776667Y-121413200D02*
X150919524Y-121460819D01*
X150919524Y-121460819D02*
X151157619Y-121460819D01*
X151157619Y-121460819D02*
X151252857Y-121413200D01*
X151252857Y-121413200D02*
X151300476Y-121365580D01*
X151300476Y-121365580D02*
X151348095Y-121270342D01*
X151348095Y-121270342D02*
X151348095Y-121175104D01*
X151348095Y-121175104D02*
X151300476Y-121079866D01*
X151300476Y-121079866D02*
X151252857Y-121032247D01*
X151252857Y-121032247D02*
X151157619Y-120984628D01*
X151157619Y-120984628D02*
X150967143Y-120937009D01*
X150967143Y-120937009D02*
X150871905Y-120889390D01*
X150871905Y-120889390D02*
X150824286Y-120841771D01*
X150824286Y-120841771D02*
X150776667Y-120746533D01*
X150776667Y-120746533D02*
X150776667Y-120651295D01*
X150776667Y-120651295D02*
X150824286Y-120556057D01*
X150824286Y-120556057D02*
X150871905Y-120508438D01*
X150871905Y-120508438D02*
X150967143Y-120460819D01*
X150967143Y-120460819D02*
X151205238Y-120460819D01*
X151205238Y-120460819D02*
X151348095Y-120508438D01*
X151681429Y-120460819D02*
X151919524Y-121460819D01*
X151919524Y-121460819D02*
X152110000Y-120746533D01*
X152110000Y-120746533D02*
X152300476Y-121460819D01*
X152300476Y-121460819D02*
X152538572Y-120460819D01*
X152824286Y-120460819D02*
X153443333Y-120460819D01*
X153443333Y-120460819D02*
X153110000Y-120841771D01*
X153110000Y-120841771D02*
X153252857Y-120841771D01*
X153252857Y-120841771D02*
X153348095Y-120889390D01*
X153348095Y-120889390D02*
X153395714Y-120937009D01*
X153395714Y-120937009D02*
X153443333Y-121032247D01*
X153443333Y-121032247D02*
X153443333Y-121270342D01*
X153443333Y-121270342D02*
X153395714Y-121365580D01*
X153395714Y-121365580D02*
X153348095Y-121413200D01*
X153348095Y-121413200D02*
X153252857Y-121460819D01*
X153252857Y-121460819D02*
X152967143Y-121460819D01*
X152967143Y-121460819D02*
X152871905Y-121413200D01*
X152871905Y-121413200D02*
X152824286Y-121365580D01*
X170276667Y-121413200D02*
X170419524Y-121460819D01*
X170419524Y-121460819D02*
X170657619Y-121460819D01*
X170657619Y-121460819D02*
X170752857Y-121413200D01*
X170752857Y-121413200D02*
X170800476Y-121365580D01*
X170800476Y-121365580D02*
X170848095Y-121270342D01*
X170848095Y-121270342D02*
X170848095Y-121175104D01*
X170848095Y-121175104D02*
X170800476Y-121079866D01*
X170800476Y-121079866D02*
X170752857Y-121032247D01*
X170752857Y-121032247D02*
X170657619Y-120984628D01*
X170657619Y-120984628D02*
X170467143Y-120937009D01*
X170467143Y-120937009D02*
X170371905Y-120889390D01*
X170371905Y-120889390D02*
X170324286Y-120841771D01*
X170324286Y-120841771D02*
X170276667Y-120746533D01*
X170276667Y-120746533D02*
X170276667Y-120651295D01*
X170276667Y-120651295D02*
X170324286Y-120556057D01*
X170324286Y-120556057D02*
X170371905Y-120508438D01*
X170371905Y-120508438D02*
X170467143Y-120460819D01*
X170467143Y-120460819D02*
X170705238Y-120460819D01*
X170705238Y-120460819D02*
X170848095Y-120508438D01*
X171181429Y-120460819D02*
X171419524Y-121460819D01*
X171419524Y-121460819D02*
X171610000Y-120746533D01*
X171610000Y-120746533D02*
X171800476Y-121460819D01*
X171800476Y-121460819D02*
X172038572Y-120460819D01*
X172943333Y-121460819D02*
X172371905Y-121460819D01*
X172657619Y-121460819D02*
X172657619Y-120460819D01*
X172657619Y-120460819D02*
X172562381Y-120603676D01*
X172562381Y-120603676D02*
X172467143Y-120698914D01*
X172467143Y-120698914D02*
X172371905Y-120746533D01*
D12*
%TO.C,SW4*%
X115000000Y-123196000D02*
X115000000Y-125706000D01*
X115000000Y-123196000D02*
X127220000Y-123196000D01*
X115000000Y-128006000D02*
X115000000Y-130606000D01*
X115000000Y-132906000D02*
X115000000Y-135416000D01*
X127220000Y-123196000D02*
X127220000Y-125706000D01*
X127220000Y-128006000D02*
X127220000Y-130606000D01*
X127220000Y-132906000D02*
X127220000Y-135416000D01*
X127220000Y-135416000D02*
X115000000Y-135416000D01*
%TO.C,R12*%
X127660000Y-61426000D02*
X127660000Y-62376000D01*
X128580000Y-62376000D02*
X126740000Y-62376000D01*
X126740000Y-62376000D02*
X126740000Y-66216000D01*
X128580000Y-66216000D02*
X128580000Y-62376000D01*
X126740000Y-66216000D02*
X128580000Y-66216000D01*
X127660000Y-67166000D02*
X127660000Y-66216000D01*
%TO.C,SW2*%
X130500000Y-108696000D02*
X130500000Y-111206000D01*
X130500000Y-108696000D02*
X142720000Y-108696000D01*
X130500000Y-113506000D02*
X130500000Y-116106000D01*
X130500000Y-118406000D02*
X130500000Y-120916000D01*
X142720000Y-108696000D02*
X142720000Y-111206000D01*
X142720000Y-113506000D02*
X142720000Y-116106000D01*
X142720000Y-118406000D02*
X142720000Y-120916000D01*
X142720000Y-120916000D02*
X130500000Y-120916000D01*
%TO.C,SW5*%
X130500000Y-137696000D02*
X130500000Y-140206000D01*
X130500000Y-137696000D02*
X142720000Y-137696000D01*
X130500000Y-142506000D02*
X130500000Y-145106000D01*
X130500000Y-147406000D02*
X130500000Y-149916000D01*
X142720000Y-137696000D02*
X142720000Y-140206000D01*
X142720000Y-142506000D02*
X142720000Y-145106000D01*
X142720000Y-147406000D02*
X142720000Y-149916000D01*
X142720000Y-149916000D02*
X130500000Y-149916000D01*
%TO.C,SW3*%
X146000000Y-123196000D02*
X146000000Y-125706000D01*
X146000000Y-123196000D02*
X158220000Y-123196000D01*
X146000000Y-128006000D02*
X146000000Y-130606000D01*
X146000000Y-132906000D02*
X146000000Y-135416000D01*
X158220000Y-123196000D02*
X158220000Y-125706000D01*
X158220000Y-128006000D02*
X158220000Y-130606000D01*
X158220000Y-132906000D02*
X158220000Y-135416000D01*
X158220000Y-135416000D02*
X146000000Y-135416000D01*
%TO.C,SW1*%
X178970000Y-135416000D02*
X166750000Y-135416000D01*
X178970000Y-132906000D02*
X178970000Y-135416000D01*
X178970000Y-128006000D02*
X178970000Y-130606000D01*
X178970000Y-123196000D02*
X178970000Y-125706000D01*
X166750000Y-132906000D02*
X166750000Y-135416000D01*
X166750000Y-128006000D02*
X166750000Y-130606000D01*
X166750000Y-123196000D02*
X178970000Y-123196000D01*
X166750000Y-123196000D02*
X166750000Y-125706000D01*
D13*
%TO.C,G\u002A\u002A\u002A*%
G36*
X117746443Y-100839178D02*
G01*
X117749952Y-100985549D01*
X116123512Y-100985549D01*
X114497071Y-100985549D01*
X114500581Y-100839178D01*
X114504090Y-100692807D01*
X116123512Y-100692807D01*
X117742933Y-100692807D01*
X117746443Y-100839178D01*
G37*
G36*
X117746443Y-103193568D02*
G01*
X117749952Y-103339938D01*
X116123512Y-103339938D01*
X114497071Y-103339938D01*
X114500581Y-103193568D01*
X114504090Y-103047197D01*
X116123512Y-103047197D01*
X117742933Y-103047197D01*
X117746443Y-103193568D01*
G37*
G36*
X117746443Y-102016373D02*
G01*
X117742933Y-102162744D01*
X116128749Y-102165904D01*
X115930213Y-102166230D01*
X115738566Y-102166420D01*
X115555283Y-102166480D01*
X115381840Y-102166414D01*
X115219711Y-102166227D01*
X115070372Y-102165923D01*
X114935299Y-102165508D01*
X114815965Y-102164987D01*
X114713847Y-102164363D01*
X114630420Y-102163641D01*
X114567158Y-102162827D01*
X114525538Y-102161925D01*
X114507034Y-102160940D01*
X114506213Y-102160714D01*
X114502883Y-102145604D01*
X114500183Y-102110933D01*
X114498413Y-102062054D01*
X114497862Y-102011182D01*
X114497862Y-101870002D01*
X116123907Y-101870002D01*
X117749952Y-101870002D01*
X117746443Y-102016373D01*
G37*
G36*
X117746443Y-104370762D02*
G01*
X117742933Y-104517133D01*
X116128749Y-104520294D01*
X115930213Y-104520619D01*
X115738566Y-104520809D01*
X115555283Y-104520869D01*
X115381840Y-104520803D01*
X115219711Y-104520616D01*
X115070372Y-104520313D01*
X114935299Y-104519898D01*
X114815965Y-104519376D01*
X114713847Y-104518752D01*
X114630420Y-104518031D01*
X114567158Y-104517217D01*
X114525538Y-104516315D01*
X114507034Y-104515329D01*
X114506213Y-104515103D01*
X114502883Y-104499993D01*
X114500183Y-104465323D01*
X114498413Y-104416443D01*
X114497862Y-104365572D01*
X114497862Y-104224391D01*
X116123907Y-104224391D01*
X117749952Y-104224391D01*
X117746443Y-104370762D01*
G37*
G36*
X119231555Y-100387609D02*
G01*
X119231555Y-100674122D01*
X119518068Y-100674122D01*
X119804581Y-100674122D01*
X119804581Y-100387609D01*
X119804581Y-100101096D01*
X119966523Y-100101096D01*
X120128465Y-100101096D01*
X120128465Y-100836064D01*
X120128465Y-101571032D01*
X119966523Y-101571032D01*
X119804581Y-101571032D01*
X119804581Y-101253376D01*
X119804581Y-100935721D01*
X119518068Y-100935721D01*
X119231555Y-100935721D01*
X119231555Y-101253376D01*
X119231555Y-101571032D01*
X119075841Y-101571032D01*
X118920128Y-101571032D01*
X118920128Y-100836064D01*
X118920128Y-100101096D01*
X119075841Y-100101096D01*
X119231555Y-100101096D01*
X119231555Y-100387609D01*
G37*
G36*
X119231555Y-102741998D02*
G01*
X119231555Y-103028511D01*
X119518068Y-103028511D01*
X119804581Y-103028511D01*
X119804581Y-102741998D01*
X119804581Y-102455485D01*
X119966622Y-102455485D01*
X120128663Y-102455485D01*
X120125450Y-103193568D01*
X120122237Y-103931650D01*
X119966523Y-103931650D01*
X119810809Y-103931650D01*
X119807481Y-103617108D01*
X119804153Y-103302567D01*
X119517854Y-103302567D01*
X119231555Y-103302567D01*
X119231555Y-103620223D01*
X119231555Y-103937878D01*
X119075841Y-103937878D01*
X118920128Y-103937878D01*
X118920128Y-103196682D01*
X118920128Y-102455485D01*
X119075841Y-102455485D01*
X119231555Y-102455485D01*
X119231555Y-102741998D01*
G37*
G36*
X126334456Y-102969340D02*
G01*
X126335458Y-103096318D01*
X126336459Y-103200884D01*
X126337592Y-103285538D01*
X126338992Y-103352781D01*
X126340790Y-103405114D01*
X126343121Y-103445038D01*
X126346117Y-103475054D01*
X126349911Y-103497664D01*
X126354637Y-103515367D01*
X126360427Y-103530665D01*
X126364871Y-103540603D01*
X126406598Y-103602811D01*
X126465149Y-103648248D01*
X126538039Y-103675886D01*
X126622783Y-103684701D01*
X126696747Y-103677635D01*
X126774267Y-103654047D01*
X126834287Y-103613181D01*
X126878147Y-103554060D01*
X126884801Y-103540603D01*
X126891363Y-103525524D01*
X126896772Y-103509681D01*
X126901163Y-103490574D01*
X126904668Y-103465701D01*
X126907420Y-103432562D01*
X126909553Y-103388656D01*
X126911199Y-103331481D01*
X126912492Y-103258537D01*
X126913565Y-103167323D01*
X126914552Y-103055337D01*
X126915216Y-102969340D01*
X126919082Y-102455485D01*
X127074645Y-102455485D01*
X127230208Y-102455485D01*
X127226492Y-103006711D01*
X127222776Y-103557937D01*
X127183683Y-103640445D01*
X127128807Y-103735081D01*
X127061946Y-103810834D01*
X126981344Y-103868706D01*
X126885243Y-103909699D01*
X126771885Y-103934815D01*
X126649750Y-103944794D01*
X126585809Y-103945645D01*
X126526074Y-103944611D01*
X126477736Y-103941923D01*
X126450437Y-103938395D01*
X126410878Y-103927890D01*
X126361102Y-103912111D01*
X126325866Y-103899623D01*
X126256860Y-103863531D01*
X126188120Y-103809660D01*
X126126059Y-103744378D01*
X126077090Y-103674049D01*
X126056902Y-103632680D01*
X126049745Y-103614449D01*
X126043811Y-103597049D01*
X126038969Y-103578024D01*
X126035085Y-103554916D01*
X126032028Y-103525268D01*
X126029665Y-103486623D01*
X126027863Y-103436522D01*
X126026492Y-103372510D01*
X126025417Y-103292129D01*
X126024507Y-103192921D01*
X126023629Y-103072430D01*
X126023183Y-103006711D01*
X126019464Y-102455485D01*
X126175027Y-102455485D01*
X126330589Y-102455485D01*
X126334456Y-102969340D01*
G37*
G36*
X123915420Y-103196783D02*
G01*
X123915420Y-103938669D01*
X123769049Y-103935160D01*
X123622678Y-103931650D01*
X123624677Y-103385715D01*
X123625254Y-103270293D01*
X123626092Y-103161670D01*
X123627149Y-103062574D01*
X123628382Y-102975735D01*
X123629750Y-102903881D01*
X123631209Y-102849739D01*
X123632718Y-102816038D01*
X123633689Y-102806461D01*
X123636546Y-102790947D01*
X123636209Y-102786139D01*
X123632206Y-102793393D01*
X123624066Y-102814064D01*
X123611317Y-102849510D01*
X123593487Y-102901085D01*
X123570105Y-102970146D01*
X123540698Y-103058049D01*
X123504796Y-103166150D01*
X123461925Y-103295805D01*
X123433886Y-103380797D01*
X123249968Y-103938624D01*
X123106931Y-103935137D01*
X122963895Y-103931650D01*
X122799718Y-103398408D01*
X122765315Y-103286610D01*
X122732872Y-103181070D01*
X122703190Y-103084401D01*
X122677070Y-102999219D01*
X122655313Y-102928136D01*
X122638720Y-102873767D01*
X122628092Y-102838727D01*
X122624598Y-102826979D01*
X122622221Y-102830169D01*
X122620267Y-102856725D01*
X122618755Y-102905100D01*
X122617703Y-102973750D01*
X122617131Y-103061129D01*
X122617057Y-103165693D01*
X122617501Y-103285895D01*
X122618012Y-103363336D01*
X122622369Y-103937878D01*
X122484098Y-103937878D01*
X122345827Y-103937878D01*
X122345827Y-103196682D01*
X122345827Y-102455485D01*
X122557166Y-102455485D01*
X122768506Y-102455485D01*
X122816618Y-102608084D01*
X122832345Y-102658267D01*
X122854044Y-102727942D01*
X122880376Y-102812787D01*
X122910002Y-102908478D01*
X122941583Y-103010692D01*
X122973778Y-103115104D01*
X122988333Y-103162384D01*
X123017800Y-103257539D01*
X123045135Y-103344650D01*
X123069449Y-103420970D01*
X123089850Y-103483748D01*
X123105448Y-103530236D01*
X123115353Y-103557685D01*
X123118501Y-103564125D01*
X123123587Y-103552674D01*
X123135583Y-103519853D01*
X123153700Y-103467989D01*
X123177150Y-103399405D01*
X123205141Y-103316428D01*
X123236886Y-103221381D01*
X123271594Y-103116590D01*
X123305672Y-103012940D01*
X123486279Y-102461714D01*
X123700849Y-102458305D01*
X123915420Y-102454897D01*
X123915420Y-103196783D01*
G37*
G36*
X130118118Y-102442803D02*
G01*
X130179171Y-102453135D01*
X130241951Y-102467004D01*
X130301690Y-102482957D01*
X130353622Y-102499540D01*
X130392981Y-102515300D01*
X130415001Y-102528784D01*
X130418019Y-102534262D01*
X130413513Y-102550496D01*
X130401716Y-102583173D01*
X130385213Y-102625863D01*
X130366585Y-102672137D01*
X130348417Y-102715562D01*
X130333292Y-102749710D01*
X130324501Y-102767058D01*
X130310926Y-102767616D01*
X130280505Y-102760401D01*
X130239501Y-102746940D01*
X130234457Y-102745086D01*
X130178252Y-102727397D01*
X130118472Y-102716001D01*
X130045940Y-102709315D01*
X130019392Y-102707949D01*
X129924859Y-102708043D01*
X129847948Y-102718880D01*
X129783026Y-102742260D01*
X129724464Y-102779981D01*
X129685568Y-102814575D01*
X129627775Y-102882369D01*
X129586426Y-102958159D01*
X129560410Y-103045504D01*
X129548617Y-103147958D01*
X129549049Y-103251846D01*
X129561945Y-103370104D01*
X129589190Y-103468653D01*
X129631304Y-103548508D01*
X129688806Y-103610683D01*
X129754338Y-103652457D01*
X129788640Y-103667022D01*
X129823723Y-103675895D01*
X129867447Y-103680369D01*
X129927671Y-103681738D01*
X129932192Y-103681750D01*
X129988165Y-103680881D01*
X130038222Y-103678363D01*
X130074656Y-103674658D01*
X130084792Y-103672661D01*
X130119049Y-103663348D01*
X130119049Y-103514100D01*
X130119049Y-103364852D01*
X129975792Y-103364852D01*
X129832536Y-103364852D01*
X129832536Y-103234053D01*
X129832536Y-103103254D01*
X130131686Y-103103254D01*
X130430836Y-103103254D01*
X130427542Y-103485802D01*
X130424247Y-103868351D01*
X130349505Y-103891271D01*
X130245086Y-103917308D01*
X130129954Y-103935789D01*
X130010727Y-103946378D01*
X129894018Y-103948738D01*
X129786444Y-103942530D01*
X129694620Y-103927420D01*
X129685425Y-103925110D01*
X129587021Y-103892565D01*
X129504753Y-103848993D01*
X129430667Y-103789730D01*
X129397427Y-103756219D01*
X129331789Y-103672581D01*
X129281908Y-103577724D01*
X129246980Y-103469104D01*
X129226202Y-103344177D01*
X129218770Y-103200401D01*
X129218730Y-103190453D01*
X129222814Y-103078577D01*
X129236532Y-102981965D01*
X129261567Y-102892273D01*
X129295306Y-102810263D01*
X129337929Y-102738230D01*
X129396873Y-102665077D01*
X129465139Y-102598444D01*
X129535725Y-102545974D01*
X129539603Y-102543611D01*
X129637363Y-102496650D01*
X129751012Y-102462071D01*
X129874222Y-102440974D01*
X130000667Y-102434462D01*
X130118118Y-102442803D01*
G37*
G36*
X128035601Y-102455579D02*
G01*
X128169719Y-102456985D01*
X128282020Y-102461523D01*
X128375476Y-102469823D01*
X128453059Y-102482517D01*
X128517741Y-102500236D01*
X128572494Y-102523612D01*
X128620289Y-102553275D01*
X128663035Y-102588861D01*
X128712941Y-102641559D01*
X128746934Y-102694174D01*
X128767591Y-102753269D01*
X128777486Y-102825408D01*
X128779384Y-102885255D01*
X128778617Y-102948726D01*
X128774958Y-102994800D01*
X128767316Y-103030930D01*
X128754602Y-103064566D01*
X128752486Y-103069219D01*
X128724092Y-103116369D01*
X128683307Y-103166640D01*
X128636705Y-103213246D01*
X128590860Y-103249399D01*
X128563168Y-103264676D01*
X128536950Y-103278733D01*
X128524668Y-103291614D01*
X128524542Y-103292637D01*
X128531281Y-103305617D01*
X128550340Y-103336495D01*
X128579977Y-103382602D01*
X128618452Y-103441266D01*
X128664024Y-103509819D01*
X128714953Y-103585589D01*
X128730084Y-103607951D01*
X128782233Y-103685365D01*
X128829513Y-103756409D01*
X128870180Y-103818397D01*
X128902492Y-103868640D01*
X128924706Y-103904452D01*
X128935080Y-103923143D01*
X128935626Y-103924943D01*
X128925149Y-103930907D01*
X128893002Y-103934527D01*
X128838111Y-103935866D01*
X128765451Y-103935116D01*
X128595277Y-103931650D01*
X128419767Y-103648369D01*
X128244257Y-103365089D01*
X128166634Y-103364971D01*
X128089011Y-103364852D01*
X128085663Y-103648251D01*
X128082315Y-103931650D01*
X127932156Y-103935128D01*
X127873297Y-103935795D01*
X127823761Y-103935045D01*
X127788725Y-103933047D01*
X127773362Y-103929971D01*
X127773328Y-103929938D01*
X127771758Y-103916242D01*
X127770280Y-103879840D01*
X127768918Y-103822942D01*
X127767700Y-103747757D01*
X127766651Y-103656492D01*
X127765797Y-103551356D01*
X127765163Y-103434559D01*
X127764776Y-103308309D01*
X127764659Y-103188377D01*
X127764659Y-102717084D01*
X128088544Y-102717084D01*
X128088544Y-102911618D01*
X128088544Y-103106151D01*
X128210000Y-103100890D01*
X128287887Y-103095004D01*
X128343440Y-103084879D01*
X128372493Y-103073922D01*
X128420564Y-103036331D01*
X128450132Y-102983519D01*
X128461920Y-102914083D01*
X128462210Y-102899580D01*
X128460726Y-102856015D01*
X128453807Y-102827245D01*
X128437856Y-102803221D01*
X128421556Y-102786006D01*
X128372539Y-102751615D01*
X128305422Y-102729222D01*
X128218453Y-102718350D01*
X128168902Y-102717084D01*
X128088544Y-102717084D01*
X127764659Y-102717084D01*
X127764659Y-102455485D01*
X128035601Y-102455579D01*
G37*
G36*
X124809216Y-102458649D02*
G01*
X124926263Y-102460974D01*
X125021813Y-102463990D01*
X125099282Y-102468192D01*
X125162086Y-102474076D01*
X125213642Y-102482136D01*
X125257366Y-102492869D01*
X125296674Y-102506769D01*
X125334982Y-102524331D01*
X125362677Y-102538875D01*
X125430101Y-102588957D01*
X125479839Y-102654541D01*
X125510866Y-102732602D01*
X125522154Y-102820117D01*
X125512678Y-102914061D01*
X125502995Y-102952250D01*
X125476094Y-103013572D01*
X125436091Y-103068916D01*
X125388786Y-103111390D01*
X125353142Y-103130251D01*
X125325277Y-103142292D01*
X125311076Y-103152271D01*
X125310613Y-103153613D01*
X125321306Y-103161858D01*
X125347954Y-103172604D01*
X125357891Y-103175760D01*
X125418006Y-103204790D01*
X125473497Y-103251129D01*
X125516445Y-103307393D01*
X125530747Y-103336956D01*
X125547812Y-103403984D01*
X125554411Y-103482715D01*
X125550722Y-103563468D01*
X125536927Y-103636560D01*
X125524523Y-103671282D01*
X125483366Y-103738857D01*
X125425344Y-103801925D01*
X125358251Y-103852422D01*
X125339148Y-103863084D01*
X125302293Y-103880919D01*
X125266287Y-103895236D01*
X125227726Y-103906493D01*
X125183206Y-103915148D01*
X125129322Y-103921659D01*
X125062672Y-103926483D01*
X124979851Y-103930078D01*
X124877455Y-103932901D01*
X124809216Y-103934337D01*
X124463531Y-103941108D01*
X124463531Y-103287164D01*
X124774959Y-103287164D01*
X124774959Y-103475493D01*
X124774959Y-103663823D01*
X124927558Y-103663549D01*
X124998451Y-103662625D01*
X125050166Y-103659705D01*
X125088405Y-103654123D01*
X125118869Y-103645211D01*
X125132274Y-103639614D01*
X125179530Y-103608476D01*
X125208896Y-103564434D01*
X125222188Y-103504167D01*
X125223414Y-103473036D01*
X125219424Y-103421487D01*
X125205922Y-103384886D01*
X125197400Y-103372512D01*
X125171166Y-103343999D01*
X125141157Y-103323344D01*
X125102751Y-103309145D01*
X125051324Y-103299997D01*
X124982255Y-103294497D01*
X124933786Y-103292476D01*
X124774959Y-103287164D01*
X124463531Y-103287164D01*
X124463531Y-103197004D01*
X124463531Y-102714076D01*
X124774959Y-102714076D01*
X124774959Y-102869218D01*
X124775590Y-102929048D01*
X124777314Y-102979557D01*
X124779873Y-103015676D01*
X124783008Y-103032336D01*
X124783263Y-103032664D01*
X124800565Y-103037499D01*
X124836331Y-103040174D01*
X124884216Y-103040804D01*
X124937875Y-103039502D01*
X124990962Y-103036383D01*
X125037130Y-103031563D01*
X125060010Y-103027661D01*
X125122385Y-103004229D01*
X125166839Y-102966348D01*
X125191505Y-102917145D01*
X125194516Y-102859748D01*
X125184091Y-102819829D01*
X125166275Y-102784581D01*
X125141062Y-102758625D01*
X125104697Y-102740482D01*
X125053420Y-102728674D01*
X124983475Y-102721725D01*
X124928127Y-102719176D01*
X124774959Y-102714076D01*
X124463531Y-102714076D01*
X124463531Y-102452901D01*
X124809216Y-102458649D01*
G37*
G36*
X121441520Y-102495971D02*
G01*
X121450858Y-102521779D01*
X121467012Y-102567054D01*
X121489116Y-102629334D01*
X121516305Y-102706159D01*
X121547713Y-102795068D01*
X121582477Y-102893602D01*
X121619729Y-102999299D01*
X121658606Y-103109699D01*
X121698241Y-103222343D01*
X121737770Y-103334769D01*
X121776327Y-103444516D01*
X121813047Y-103549126D01*
X121847065Y-103646136D01*
X121877515Y-103733088D01*
X121903533Y-103807519D01*
X121924252Y-103866971D01*
X121938808Y-103908982D01*
X121946336Y-103931092D01*
X121947200Y-103933902D01*
X121935499Y-103935365D01*
X121903401Y-103936135D01*
X121855415Y-103936183D01*
X121796049Y-103935475D01*
X121776936Y-103935116D01*
X121606672Y-103931650D01*
X121590833Y-103881822D01*
X121580443Y-103848560D01*
X121565251Y-103799217D01*
X121547645Y-103741568D01*
X121536334Y-103704308D01*
X121497675Y-103576623D01*
X121236344Y-103576623D01*
X121149409Y-103576690D01*
X121084108Y-103577115D01*
X121037159Y-103578235D01*
X121005281Y-103580388D01*
X120985194Y-103583910D01*
X120973617Y-103589138D01*
X120967268Y-103596409D01*
X120963448Y-103604651D01*
X120955315Y-103627061D01*
X120941636Y-103667569D01*
X120924298Y-103720490D01*
X120905184Y-103780144D01*
X120904544Y-103782165D01*
X120857205Y-103931650D01*
X120692148Y-103935126D01*
X120621106Y-103936017D01*
X120572074Y-103935058D01*
X120542203Y-103932044D01*
X120528645Y-103926770D01*
X120527092Y-103923235D01*
X120531122Y-103909060D01*
X120542743Y-103873441D01*
X120561250Y-103818423D01*
X120585938Y-103746057D01*
X120616101Y-103658388D01*
X120651036Y-103557464D01*
X120690037Y-103445334D01*
X120732400Y-103324045D01*
X120740267Y-103301607D01*
X121054321Y-103301607D01*
X121060329Y-103307525D01*
X121076555Y-103311400D01*
X121106521Y-103313658D01*
X121153747Y-103314723D01*
X121221755Y-103315020D01*
X121235915Y-103315024D01*
X121311025Y-103314551D01*
X121364007Y-103312974D01*
X121397633Y-103310055D01*
X121414674Y-103305558D01*
X121417978Y-103299453D01*
X121410264Y-103275517D01*
X121397174Y-103233801D01*
X121379920Y-103178262D01*
X121359715Y-103112854D01*
X121337770Y-103041535D01*
X121315298Y-102968259D01*
X121293511Y-102896983D01*
X121273621Y-102831663D01*
X121256841Y-102776255D01*
X121244382Y-102734714D01*
X121237457Y-102710997D01*
X121236446Y-102707037D01*
X121232816Y-102713436D01*
X121223929Y-102738415D01*
X121211658Y-102776683D01*
X121210830Y-102779369D01*
X121199744Y-102815576D01*
X121183811Y-102867850D01*
X121164467Y-102931458D01*
X121143147Y-103001662D01*
X121121289Y-103073728D01*
X121100328Y-103142918D01*
X121081700Y-103204498D01*
X121066841Y-103253731D01*
X121057188Y-103285882D01*
X121055010Y-103293224D01*
X121054321Y-103301607D01*
X120740267Y-103301607D01*
X120777419Y-103195644D01*
X120784515Y-103175449D01*
X121041938Y-102443028D01*
X121231940Y-102443028D01*
X121421942Y-102443028D01*
X121441520Y-102495971D01*
G37*
G36*
X121303295Y-100088903D02*
G01*
X121355859Y-100089970D01*
X121391040Y-100092248D01*
X121412602Y-100096148D01*
X121424311Y-100102079D01*
X121429925Y-100110439D01*
X121435652Y-100126159D01*
X121448756Y-100162801D01*
X121468329Y-100217791D01*
X121493460Y-100288556D01*
X121523239Y-100372522D01*
X121556755Y-100467115D01*
X121593100Y-100569763D01*
X121631362Y-100677892D01*
X121670633Y-100788928D01*
X121710001Y-100900297D01*
X121748557Y-101009427D01*
X121785390Y-101113743D01*
X121819591Y-101210673D01*
X121850250Y-101297643D01*
X121876456Y-101372079D01*
X121897299Y-101431407D01*
X121911870Y-101473055D01*
X121916692Y-101486947D01*
X121945716Y-101571032D01*
X121773409Y-101571032D01*
X121601102Y-101571032D01*
X121592738Y-101536775D01*
X121585758Y-101511368D01*
X121573172Y-101468463D01*
X121556847Y-101414328D01*
X121540867Y-101362376D01*
X121497360Y-101222234D01*
X121232197Y-101222234D01*
X120967034Y-101222234D01*
X120951674Y-101275176D01*
X120941259Y-101310471D01*
X120926062Y-101361235D01*
X120908591Y-101419111D01*
X120899339Y-101449575D01*
X120862363Y-101571032D01*
X120694728Y-101571032D01*
X120633361Y-101570370D01*
X120582077Y-101568557D01*
X120545420Y-101565848D01*
X120527936Y-101562502D01*
X120527092Y-101561551D01*
X120531115Y-101548427D01*
X120542714Y-101513840D01*
X120561184Y-101459827D01*
X120585817Y-101388420D01*
X120615908Y-101301657D01*
X120650751Y-101201571D01*
X120689641Y-101090197D01*
X120731870Y-100969572D01*
X120740471Y-100945063D01*
X121053248Y-100945063D01*
X121056630Y-100951283D01*
X121073813Y-100955716D01*
X121107561Y-100958596D01*
X121160639Y-100960157D01*
X121235810Y-100960635D01*
X121237146Y-100960635D01*
X121309592Y-100960427D01*
X121360581Y-100959534D01*
X121393570Y-100957548D01*
X121412012Y-100954066D01*
X121419365Y-100948680D01*
X121419085Y-100940986D01*
X121418496Y-100939341D01*
X121412611Y-100921742D01*
X121400547Y-100883963D01*
X121383446Y-100829637D01*
X121362448Y-100762397D01*
X121338695Y-100685878D01*
X121324098Y-100638657D01*
X121299622Y-100559679D01*
X121277536Y-100489049D01*
X121258906Y-100430115D01*
X121244793Y-100386228D01*
X121236263Y-100360737D01*
X121234244Y-100355640D01*
X121229853Y-100366012D01*
X121219444Y-100397086D01*
X121204023Y-100445662D01*
X121184594Y-100508538D01*
X121162161Y-100582513D01*
X121144744Y-100640752D01*
X121120531Y-100722032D01*
X121098495Y-100795754D01*
X121079684Y-100858428D01*
X121065147Y-100906564D01*
X121055934Y-100936673D01*
X121053248Y-100945063D01*
X120740471Y-100945063D01*
X120776734Y-100841728D01*
X120782462Y-100825426D01*
X120827578Y-100696972D01*
X120870150Y-100575604D01*
X120909475Y-100463340D01*
X120944848Y-100362200D01*
X120975564Y-100274203D01*
X121000918Y-100201368D01*
X121020205Y-100145714D01*
X121032722Y-100109261D01*
X121037763Y-100094027D01*
X121037832Y-100093710D01*
X121049581Y-100091967D01*
X121081992Y-100090482D01*
X121130816Y-100089368D01*
X121191801Y-100088738D01*
X121229585Y-100088639D01*
X121303295Y-100088903D01*
G37*
G36*
X122407150Y-100147810D02*
G01*
X122419454Y-100195995D01*
X122435940Y-100263545D01*
X122455681Y-100346401D01*
X122477749Y-100440506D01*
X122501217Y-100541799D01*
X122525158Y-100646222D01*
X122548646Y-100749717D01*
X122570752Y-100848224D01*
X122590551Y-100937685D01*
X122607114Y-101014040D01*
X122619515Y-101073231D01*
X122625480Y-101103665D01*
X122653032Y-101252923D01*
X122674484Y-101134807D01*
X122682654Y-101095163D01*
X122696325Y-101035067D01*
X122714611Y-100958150D01*
X122736626Y-100868043D01*
X122761485Y-100768376D01*
X122788301Y-100662779D01*
X122813623Y-100564722D01*
X122840143Y-100462717D01*
X122864573Y-100368435D01*
X122886226Y-100284562D01*
X122904412Y-100213781D01*
X122918442Y-100158774D01*
X122927626Y-100122227D01*
X122931276Y-100106822D01*
X122931310Y-100106541D01*
X122942966Y-100104431D01*
X122974756Y-100103204D01*
X123021913Y-100102946D01*
X123079669Y-100103740D01*
X123083528Y-100103827D01*
X123235746Y-100107324D01*
X123344992Y-100524637D01*
X123372479Y-100630977D01*
X123399236Y-100737000D01*
X123424232Y-100838432D01*
X123446435Y-100930995D01*
X123464811Y-101010413D01*
X123478329Y-101072412D01*
X123483343Y-101097663D01*
X123512447Y-101253376D01*
X123528266Y-101166177D01*
X123534609Y-101134511D01*
X123545873Y-101081820D01*
X123561337Y-101011344D01*
X123580276Y-100926324D01*
X123601969Y-100830000D01*
X123625693Y-100725614D01*
X123650725Y-100616405D01*
X123655010Y-100597805D01*
X123679348Y-100492038D01*
X123701841Y-100393928D01*
X123721890Y-100306111D01*
X123738896Y-100231222D01*
X123752262Y-100171900D01*
X123761389Y-100130779D01*
X123765680Y-100110497D01*
X123765934Y-100108865D01*
X123777605Y-100105922D01*
X123809471Y-100103490D01*
X123856816Y-100101805D01*
X123914924Y-100101103D01*
X123921648Y-100101096D01*
X123980650Y-100101796D01*
X124029414Y-100103708D01*
X124063218Y-100106549D01*
X124077341Y-100110036D01*
X124077490Y-100110439D01*
X124074533Y-100123872D01*
X124065969Y-100159331D01*
X124052327Y-100214694D01*
X124034139Y-100287841D01*
X124011934Y-100376650D01*
X123986243Y-100479000D01*
X123957596Y-100592771D01*
X123926524Y-100715841D01*
X123893748Y-100845332D01*
X123709878Y-101570882D01*
X123528139Y-101570957D01*
X123346400Y-101571032D01*
X123243662Y-101171492D01*
X123217316Y-101068336D01*
X123191636Y-100966492D01*
X123167656Y-100870152D01*
X123146408Y-100783511D01*
X123128925Y-100710760D01*
X123116241Y-100656093D01*
X123112468Y-100638951D01*
X123099185Y-100580248D01*
X123089215Y-100544509D01*
X123081977Y-100530089D01*
X123076889Y-100535343D01*
X123076425Y-100537094D01*
X123070768Y-100561435D01*
X123061167Y-100603886D01*
X123049020Y-100658222D01*
X123037213Y-100711493D01*
X123025592Y-100762034D01*
X123008869Y-100831878D01*
X122988230Y-100916219D01*
X122964858Y-101010253D01*
X122939942Y-101109175D01*
X122914665Y-101208180D01*
X122914254Y-101209776D01*
X122822922Y-101564803D01*
X122641000Y-101568247D01*
X122459078Y-101571692D01*
X122446886Y-101524648D01*
X122441571Y-101503908D01*
X122430727Y-101461407D01*
X122414962Y-101399530D01*
X122394883Y-101320660D01*
X122371097Y-101227184D01*
X122344210Y-101121486D01*
X122314829Y-101005952D01*
X122283563Y-100882967D01*
X122265308Y-100811150D01*
X122233474Y-100685978D01*
X122203351Y-100567688D01*
X122175521Y-100458552D01*
X122150563Y-100360841D01*
X122129061Y-100276827D01*
X122111593Y-100208781D01*
X122098743Y-100158976D01*
X122091091Y-100129684D01*
X122089235Y-100122896D01*
X122088384Y-100113846D01*
X122094925Y-100107705D01*
X122112666Y-100103917D01*
X122145415Y-100101928D01*
X122196979Y-100101180D01*
X122238622Y-100101096D01*
X122394695Y-100101096D01*
X122407150Y-100147810D01*
G37*
G36*
X122137455Y-96548962D02*
G01*
X122176091Y-96573504D01*
X122202991Y-96606204D01*
X122251714Y-96675399D01*
X122318136Y-96774826D01*
X122398133Y-96898225D01*
X122487580Y-97039333D01*
X122566745Y-97166554D01*
X122671707Y-97337473D01*
X122752803Y-97471995D01*
X122813019Y-97575921D01*
X122855341Y-97655049D01*
X122882757Y-97715177D01*
X122898251Y-97762105D01*
X122904812Y-97801631D01*
X122905702Y-97824727D01*
X122896873Y-97909237D01*
X122863043Y-97973136D01*
X122832553Y-98006677D01*
X122777771Y-98052916D01*
X122731329Y-98078166D01*
X122721989Y-98079754D01*
X122664691Y-98085711D01*
X122651246Y-98088743D01*
X122600036Y-98091638D01*
X122565060Y-98087456D01*
X122527642Y-98074144D01*
X122488672Y-98045839D01*
X122445097Y-97998018D01*
X122393866Y-97926160D01*
X122331927Y-97825742D01*
X122256226Y-97692244D01*
X122163712Y-97521143D01*
X122094651Y-97390540D01*
X121994954Y-97199188D01*
X121918019Y-97046027D01*
X121862295Y-96925546D01*
X121826227Y-96832235D01*
X121808262Y-96760582D01*
X121806847Y-96705076D01*
X121820427Y-96660207D01*
X121847451Y-96620464D01*
X121870592Y-96595663D01*
X121951550Y-96544954D01*
X122046695Y-96528938D01*
X122137455Y-96548962D01*
G37*
G36*
X123948676Y-95515172D02*
G01*
X123979945Y-95545625D01*
X123992077Y-95562293D01*
X124002153Y-95581702D01*
X124010364Y-95608345D01*
X124016901Y-95646715D01*
X124021954Y-95701306D01*
X124025714Y-95776609D01*
X124028372Y-95877118D01*
X124030119Y-96007326D01*
X124031145Y-96171725D01*
X124031642Y-96374809D01*
X124031799Y-96621070D01*
X124031810Y-96767253D01*
X124031754Y-97037673D01*
X124031457Y-97262586D01*
X124030729Y-97446484D01*
X124029380Y-97593861D01*
X124027218Y-97709209D01*
X124024053Y-97797022D01*
X124019694Y-97861793D01*
X124013951Y-97908013D01*
X124006632Y-97940177D01*
X123997546Y-97962776D01*
X123986504Y-97980304D01*
X123979945Y-97988882D01*
X123910181Y-98041215D01*
X123824581Y-98055729D01*
X123741222Y-98031375D01*
X123706490Y-98004754D01*
X123694924Y-97991756D01*
X123685292Y-97975011D01*
X123677417Y-97950150D01*
X123671121Y-97912805D01*
X123666229Y-97858610D01*
X123662564Y-97783197D01*
X123659949Y-97682199D01*
X123658207Y-97551247D01*
X123657163Y-97385976D01*
X123656638Y-97182016D01*
X123656458Y-96935002D01*
X123656441Y-96767254D01*
X123656502Y-96492781D01*
X123656802Y-96263940D01*
X123657518Y-96076365D01*
X123658827Y-95925688D01*
X123660905Y-95807541D01*
X123663929Y-95717556D01*
X123668076Y-95651367D01*
X123673522Y-95604607D01*
X123680443Y-95572907D01*
X123689017Y-95551900D01*
X123699421Y-95537219D01*
X123706490Y-95529754D01*
X123782093Y-95485858D01*
X123868848Y-95481347D01*
X123948676Y-95515172D01*
G37*
G36*
X127194671Y-95504984D02*
G01*
X127336116Y-95506026D01*
X127440642Y-95508405D01*
X127514814Y-95512644D01*
X127565195Y-95519268D01*
X127598350Y-95528802D01*
X127620844Y-95541771D01*
X127635357Y-95554754D01*
X127679296Y-95630282D01*
X127683811Y-95716952D01*
X127649952Y-95796701D01*
X127619470Y-95827939D01*
X127572193Y-95856653D01*
X127512211Y-95872685D01*
X127424517Y-95879142D01*
X127369224Y-95879754D01*
X127184914Y-95879754D01*
X127184914Y-96917254D01*
X127184836Y-97172371D01*
X127184459Y-97382189D01*
X127183567Y-97551408D01*
X127181942Y-97684729D01*
X127179370Y-97786852D01*
X127175632Y-97862479D01*
X127170514Y-97916309D01*
X127163799Y-97953043D01*
X127155270Y-97977382D01*
X127144711Y-97994027D01*
X127134864Y-98004754D01*
X127059261Y-98048649D01*
X126972506Y-98053160D01*
X126892678Y-98019335D01*
X126861410Y-97988882D01*
X126848573Y-97971156D01*
X126838050Y-97950505D01*
X126829610Y-97922116D01*
X126823024Y-97881175D01*
X126818062Y-97822866D01*
X126814495Y-97742376D01*
X126812093Y-97634890D01*
X126810627Y-97495594D01*
X126809867Y-97319674D01*
X126809583Y-97102316D01*
X126809544Y-96901382D01*
X126809544Y-95879754D01*
X126637747Y-95879754D01*
X126533634Y-95876063D01*
X126463350Y-95862690D01*
X126411068Y-95836186D01*
X126400013Y-95827939D01*
X126347628Y-95758244D01*
X126333100Y-95672728D01*
X126357477Y-95589451D01*
X126384125Y-95554754D01*
X126402843Y-95538709D01*
X126427049Y-95526512D01*
X126463308Y-95517638D01*
X126518184Y-95511563D01*
X126598241Y-95507763D01*
X126710046Y-95505712D01*
X126860161Y-95504885D01*
X127009741Y-95504753D01*
X127194671Y-95504984D01*
G37*
G36*
X125449994Y-95503161D02*
G01*
X125608083Y-95569878D01*
X125740006Y-95677329D01*
X125840968Y-95822451D01*
X125856583Y-95854754D01*
X125870749Y-95888633D01*
X125882027Y-95924804D01*
X125890749Y-95969131D01*
X125897244Y-96027481D01*
X125901842Y-96105720D01*
X125904871Y-96209714D01*
X125906662Y-96345329D01*
X125907545Y-96518431D01*
X125907849Y-96734886D01*
X125907863Y-96767254D01*
X125907859Y-96988471D01*
X125907410Y-97165606D01*
X125906138Y-97304577D01*
X125903667Y-97411300D01*
X125899620Y-97491694D01*
X125893622Y-97551677D01*
X125885296Y-97597165D01*
X125874265Y-97634078D01*
X125860153Y-97668331D01*
X125849016Y-97692254D01*
X125800785Y-97778074D01*
X125744741Y-97855562D01*
X125717882Y-97884530D01*
X125580362Y-97980374D01*
X125420907Y-98037552D01*
X125251413Y-98054243D01*
X125083778Y-98028625D01*
X124995258Y-97995171D01*
X124852188Y-97906718D01*
X124745663Y-97790066D01*
X124684475Y-97679754D01*
X124670312Y-97645891D01*
X124659038Y-97609768D01*
X124650327Y-97565517D01*
X124643849Y-97507274D01*
X124639277Y-97429172D01*
X124636285Y-97325345D01*
X124634543Y-97189927D01*
X124633725Y-97017051D01*
X124633503Y-96800853D01*
X124633500Y-96767254D01*
X124633528Y-96729794D01*
X125005608Y-96729794D01*
X125006052Y-96906795D01*
X125008434Y-97077486D01*
X125012759Y-97233863D01*
X125019028Y-97367924D01*
X125027247Y-97471668D01*
X125037420Y-97537091D01*
X125042693Y-97552002D01*
X125111525Y-97628696D01*
X125206025Y-97670468D01*
X125313055Y-97673975D01*
X125404536Y-97644128D01*
X125439965Y-97623428D01*
X125468238Y-97598248D01*
X125490158Y-97563101D01*
X125506528Y-97512499D01*
X125518152Y-97440953D01*
X125525834Y-97342975D01*
X125530378Y-97213077D01*
X125532586Y-97045771D01*
X125533263Y-96835569D01*
X125533288Y-96764836D01*
X125532890Y-96540274D01*
X125531134Y-96360269D01*
X125527171Y-96219382D01*
X125520157Y-96112172D01*
X125509245Y-96033200D01*
X125493588Y-95977026D01*
X125472341Y-95938209D01*
X125444656Y-95911311D01*
X125409688Y-95890890D01*
X125396352Y-95884621D01*
X125287134Y-95857207D01*
X125181976Y-95869978D01*
X125093661Y-95919357D01*
X125043431Y-95983379D01*
X125032326Y-96030199D01*
X125023136Y-96118722D01*
X125015866Y-96240945D01*
X125010519Y-96388867D01*
X125007098Y-96554483D01*
X125005608Y-96729794D01*
X124633528Y-96729794D01*
X124633666Y-96544609D01*
X124634383Y-96366099D01*
X124635977Y-96225855D01*
X124638777Y-96118014D01*
X124643111Y-96036707D01*
X124649306Y-95976070D01*
X124657690Y-95930236D01*
X124668590Y-95893339D01*
X124682335Y-95859513D01*
X124684475Y-95854754D01*
X124778867Y-95702668D01*
X124905150Y-95587659D01*
X125058532Y-95512790D01*
X125234219Y-95481122D01*
X125270529Y-95480242D01*
X125449994Y-95503161D01*
G37*
G36*
X122140271Y-93511770D02*
G01*
X122306917Y-93549910D01*
X122310943Y-93551311D01*
X122519245Y-93649390D01*
X122697948Y-93783198D01*
X122845151Y-93946815D01*
X122958954Y-94134325D01*
X123037456Y-94339810D01*
X123078755Y-94557353D01*
X123080952Y-94781036D01*
X123042145Y-95004942D01*
X122960433Y-95223153D01*
X122888907Y-95350628D01*
X122731637Y-95552977D01*
X122533746Y-95736183D01*
X122302934Y-95894135D01*
X122046899Y-96020721D01*
X122042352Y-96022575D01*
X121871113Y-96080295D01*
X121731694Y-96100630D01*
X121622255Y-96083203D01*
X121540957Y-96027633D01*
X121485961Y-95933540D01*
X121476671Y-95905854D01*
X121461214Y-95833538D01*
X121469479Y-95773014D01*
X121494838Y-95713752D01*
X121537471Y-95647108D01*
X121597023Y-95601328D01*
X121666983Y-95570268D01*
X121931619Y-95453829D01*
X122148275Y-95324027D01*
X122317264Y-95180629D01*
X122438899Y-95023401D01*
X122466109Y-94973689D01*
X122521162Y-94809565D01*
X122531356Y-94636708D01*
X122497787Y-94466189D01*
X122421554Y-94309079D01*
X122396787Y-94274278D01*
X122293273Y-94163390D01*
X122178703Y-94094069D01*
X122041039Y-94060527D01*
X121940911Y-94055165D01*
X121822951Y-94060199D01*
X121730305Y-94079221D01*
X121639068Y-94117146D01*
X121638881Y-94117239D01*
X121454375Y-94233413D01*
X121310934Y-94377622D01*
X121241555Y-94483283D01*
X121207243Y-94551062D01*
X121184650Y-94613951D01*
X121170665Y-94686636D01*
X121162181Y-94783802D01*
X121157630Y-94879754D01*
X121156120Y-94972217D01*
X121156938Y-95105709D01*
X121159878Y-95271323D01*
X121164734Y-95460151D01*
X121171301Y-95663286D01*
X121179374Y-95871821D01*
X121181867Y-95929754D01*
X121194154Y-96217132D01*
X121203504Y-96459684D01*
X121209787Y-96662505D01*
X121212878Y-96830691D01*
X121212649Y-96969337D01*
X121208972Y-97083538D01*
X121201721Y-97178389D01*
X121190768Y-97258985D01*
X121175985Y-97330422D01*
X121157246Y-97397794D01*
X121144199Y-97437949D01*
X121039743Y-97679771D01*
X120903167Y-97883486D01*
X120734829Y-98048746D01*
X120535091Y-98175203D01*
X120304313Y-98262509D01*
X120285791Y-98267462D01*
X120143035Y-98292022D01*
X119977683Y-98301120D01*
X119811777Y-98294762D01*
X119667359Y-98272956D01*
X119644775Y-98267234D01*
X119416993Y-98180701D01*
X119220423Y-98056676D01*
X119057702Y-97898718D01*
X118931463Y-97710384D01*
X118844344Y-97495231D01*
X118798980Y-97256816D01*
X118792782Y-97117254D01*
X118817606Y-96851695D01*
X118887809Y-96603791D01*
X119000691Y-96377311D01*
X119153550Y-96176020D01*
X119343686Y-96003688D01*
X119568399Y-95864081D01*
X119746086Y-95787388D01*
X119914725Y-95738045D01*
X120056728Y-95721091D01*
X120168153Y-95736617D01*
X120236362Y-95775874D01*
X120300365Y-95861622D01*
X120315488Y-95955679D01*
X120293170Y-96040031D01*
X120263092Y-96098110D01*
X120222904Y-96138545D01*
X120160621Y-96168783D01*
X120064259Y-96196270D01*
X120027869Y-96204873D01*
X119815390Y-96276979D01*
X119634630Y-96386738D01*
X119488070Y-96531641D01*
X119378191Y-96709181D01*
X119307472Y-96916852D01*
X119302961Y-96937665D01*
X119283628Y-97132025D01*
X119306711Y-97312902D01*
X119370411Y-97473856D01*
X119472926Y-97608452D01*
X119496795Y-97630647D01*
X119645128Y-97730328D01*
X119807847Y-97786840D01*
X119977054Y-97801788D01*
X120144851Y-97776772D01*
X120303338Y-97713395D01*
X120444618Y-97613260D01*
X120560793Y-97477969D01*
X120602643Y-97406306D01*
X120635448Y-97333402D01*
X120660108Y-97255211D01*
X120677058Y-97165020D01*
X120686732Y-97056116D01*
X120689564Y-96921785D01*
X120685989Y-96755315D01*
X120676441Y-96549993D01*
X120667724Y-96400430D01*
X120655457Y-96187738D01*
X120643154Y-95951663D01*
X120631652Y-95709888D01*
X120621785Y-95480095D01*
X120614390Y-95279968D01*
X120613582Y-95254754D01*
X120608263Y-95041221D01*
X120607894Y-94868641D01*
X120613600Y-94728113D01*
X120626504Y-94610735D01*
X120647732Y-94507607D01*
X120678407Y-94409828D01*
X120719654Y-94308496D01*
X120738312Y-94267254D01*
X120842541Y-94092575D01*
X120986120Y-93925648D01*
X121158366Y-93775596D01*
X121348599Y-93651542D01*
X121546137Y-93562608D01*
X121574242Y-93553329D01*
X121755228Y-93513531D01*
X121950140Y-93499661D01*
X122140271Y-93511770D01*
G37*
%TD*%
M02*
